<?xml version="1.0" encoding="UTF-8" standalone="no"?>
<!DOCTYPE svg PUBLIC "-//W3C//DTD SVG 1.1//EN"
 "http://www.w3.org/Graphics/SVG/1.1/DTD/svg11.dtd">
<!-- Generated by graphviz version 7.0.3 (20221126.0506)
 -->
<!-- Title: UMLRM0032 Pages: 1 -->
<svg width="166pt" height="389pt"
 viewBox="0.00 0.00 165.50 389.00" xmlns="http://www.w3.org/2000/svg" xmlns:xlink="http://www.w3.org/1999/xlink">
<g id="graph0" class="graph" transform="scale(1 1) rotate(0) translate(4 385)">
<title>UMLRM0032</title>
<polygon fill="white" stroke="none" points="-4,4 -4,-385 161.5,-385 161.5,4 -4,4"/>
<!-- UMLRM0032 -->
<g id="node1" class="node">
<title>UMLRM0032</title>
<polygon fill="none" stroke="red" points="129,-277 0,-277 0,-209 129,-209 129,-277"/>
<text text-anchor="middle" x="64.5" y="-261.8" font-family="Times New Roman,serif" font-size="14.00">Stoker, Bram</text>
<text text-anchor="middle" x="64.5" y="-246.8" font-family="Times New Roman,serif" font-size="14.00">(1847&#45;1912), Choix,</text>
<text text-anchor="middle" x="64.5" y="-231.8" font-family="Times New Roman,serif" font-size="14.00">Dracula, Français,</text>
<text text-anchor="middle" x="64.5" y="-216.8" font-family="Times New Roman,serif" font-size="14.00">Molitor, Texte noté</text>
</g>
<!-- UMLRM0031 -->
<g id="node2" class="node">
<title>UMLRM0031</title>
<polygon fill="none" stroke="black" points="129,-381 0,-381 0,-328 129,-328 129,-381"/>
<text text-anchor="middle" x="64.5" y="-365.8" font-family="Times New Roman,serif" font-size="14.00">Stoker, Bram</text>
<text text-anchor="middle" x="64.5" y="-350.8" font-family="Times New Roman,serif" font-size="14.00">(1847&#45;1912), Choix,</text>
<text text-anchor="middle" x="64.5" y="-335.8" font-family="Times New Roman,serif" font-size="14.00">Dracula</text>
</g>
<!-- UMLRM0032&#45;&gt;UMLRM0031 -->
<g id="edge1" class="edge">
<title>UMLRM0032&#45;&gt;UMLRM0031</title>
<path fill="none" stroke="black" d="M64.5,-277.45C64.5,-289.65 64.5,-303.52 64.5,-316.05"/>
<polygon fill="black" stroke="black" points="61,-316.04 64.5,-326.04 68,-316.04 61,-316.04"/>
<text text-anchor="middle" x="104.5" y="-298.8" font-family="Times New Roman,serif" font-size="14.00">Expression de</text>
</g>
<!-- UMLRM0033 -->
<g id="node3" class="node">
<title>UMLRM0033</title>
<polygon fill="none" stroke="black" points="102.5,-158 26.5,-158 26.5,0 102.5,0 102.5,-158"/>
<text text-anchor="middle" x="64.5" y="-142.8" font-family="Times New Roman,serif" font-size="14.00">Dracula,</text>
<text text-anchor="middle" x="64.5" y="-127.8" font-family="Times New Roman,serif" font-size="14.00">Bram</text>
<text text-anchor="middle" x="64.5" y="-112.8" font-family="Times New Roman,serif" font-size="14.00">Stoker,</text>
<text text-anchor="middle" x="64.5" y="-97.8" font-family="Times New Roman,serif" font-size="14.00">Magnard,</text>
<text text-anchor="middle" x="64.5" y="-82.8" font-family="Times New Roman,serif" font-size="14.00">2014, 1</text>
<text text-anchor="middle" x="64.5" y="-67.8" font-family="Times New Roman,serif" font-size="14.00">volume</text>
<text text-anchor="middle" x="64.5" y="-52.8" font-family="Times New Roman,serif" font-size="14.00">(217</text>
<text text-anchor="middle" x="64.5" y="-37.8" font-family="Times New Roman,serif" font-size="14.00">pages),</text>
<text text-anchor="middle" x="64.5" y="-22.8" font-family="Times New Roman,serif" font-size="14.00">couverture</text>
<text text-anchor="middle" x="64.5" y="-7.8" font-family="Times New Roman,serif" font-size="14.00">illustrée</text>
</g>
<!-- UMLRM0033&#45;&gt;UMLRM0032 -->
<g id="edge2" class="edge">
<title>UMLRM0033&#45;&gt;UMLRM0032</title>
<path fill="none" stroke="black" d="M64.5,-158.15C64.5,-171.64 64.5,-185.24 64.5,-197.44"/>
<polygon fill="black" stroke="black" points="61,-197.15 64.5,-207.15 68,-197.15 61,-197.15"/>
<text text-anchor="middle" x="111" y="-179.8" font-family="Times New Roman,serif" font-size="14.00">Manifestation de</text>
</g>
</g>
</svg>
