<?xml version="1.0" encoding="UTF-8" standalone="no"?>
<!DOCTYPE svg PUBLIC "-//W3C//DTD SVG 1.1//EN"
 "http://www.w3.org/Graphics/SVG/1.1/DTD/svg11.dtd">
<!-- Generated by graphviz version 7.0.3 (20221126.0506)
 -->
<!-- Title: UMLRM0035 Pages: 1 -->
<svg width="166pt" height="434pt"
 viewBox="0.00 0.00 165.50 434.00" xmlns="http://www.w3.org/2000/svg" xmlns:xlink="http://www.w3.org/1999/xlink">
<g id="graph0" class="graph" transform="scale(1 1) rotate(0) translate(4 430)">
<title>UMLRM0035</title>
<polygon fill="white" stroke="none" points="-4,4 -4,-430 161.5,-430 161.5,4 -4,4"/>
<!-- UMLRM0035 -->
<g id="node1" class="node">
<title>UMLRM0035</title>
<polygon fill="none" stroke="red" points="129,-337 0,-337 0,-269 129,-269 129,-337"/>
<text text-anchor="middle" x="64.5" y="-321.8" font-family="Times New Roman,serif" font-size="14.00">Humphries, Tudor</text>
<text text-anchor="middle" x="64.5" y="-306.8" font-family="Times New Roman,serif" font-size="14.00">(1953&#45;….), Dracula,</text>
<text text-anchor="middle" x="64.5" y="-291.8" font-family="Times New Roman,serif" font-size="14.00">Français, Texte</text>
<text text-anchor="middle" x="64.5" y="-276.8" font-family="Times New Roman,serif" font-size="14.00">noté. Image fixe</text>
</g>
<!-- UMLRM0034 -->
<g id="node2" class="node">
<title>UMLRM0034</title>
<polygon fill="none" stroke="black" points="127,-426 2,-426 2,-388 127,-388 127,-426"/>
<text text-anchor="middle" x="64.5" y="-410.8" font-family="Times New Roman,serif" font-size="14.00">Humphries, Tudor</text>
<text text-anchor="middle" x="64.5" y="-395.8" font-family="Times New Roman,serif" font-size="14.00">(1953&#45;….), Dracula</text>
</g>
<!-- UMLRM0035&#45;&gt;UMLRM0034 -->
<g id="edge1" class="edge">
<title>UMLRM0035&#45;&gt;UMLRM0034</title>
<path fill="none" stroke="black" d="M64.5,-337.4C64.5,-349.95 64.5,-364.12 64.5,-376.31"/>
<polygon fill="black" stroke="black" points="61,-376.19 64.5,-386.19 68,-376.19 61,-376.19"/>
<text text-anchor="middle" x="104.5" y="-358.8" font-family="Times New Roman,serif" font-size="14.00">Expression de</text>
</g>
<!-- UMLRM0036 -->
<g id="node3" class="node">
<title>UMLRM0036</title>
<polygon fill="none" stroke="black" points="104,-218 25,-218 25,0 104,0 104,-218"/>
<text text-anchor="middle" x="64.5" y="-202.8" font-family="Times New Roman,serif" font-size="14.00">Dracula,</text>
<text text-anchor="middle" x="64.5" y="-187.8" font-family="Times New Roman,serif" font-size="14.00">d&#39;après</text>
<text text-anchor="middle" x="64.5" y="-172.8" font-family="Times New Roman,serif" font-size="14.00">Bram</text>
<text text-anchor="middle" x="64.5" y="-157.8" font-family="Times New Roman,serif" font-size="14.00">Stoker,</text>
<text text-anchor="middle" x="64.5" y="-142.8" font-family="Times New Roman,serif" font-size="14.00">Sélection</text>
<text text-anchor="middle" x="64.5" y="-127.8" font-family="Times New Roman,serif" font-size="14.00">du</text>
<text text-anchor="middle" x="64.5" y="-112.8" font-family="Times New Roman,serif" font-size="14.00">&quot;Reader&#39;s</text>
<text text-anchor="middle" x="64.5" y="-97.8" font-family="Times New Roman,serif" font-size="14.00">digest&quot;,</text>
<text text-anchor="middle" x="64.5" y="-82.8" font-family="Times New Roman,serif" font-size="14.00">1998, 1</text>
<text text-anchor="middle" x="64.5" y="-67.8" font-family="Times New Roman,serif" font-size="14.00">volume (64</text>
<text text-anchor="middle" x="64.5" y="-52.8" font-family="Times New Roman,serif" font-size="14.00">pages),</text>
<text text-anchor="middle" x="64.5" y="-37.8" font-family="Times New Roman,serif" font-size="14.00">couverture</text>
<text text-anchor="middle" x="64.5" y="-22.8" font-family="Times New Roman,serif" font-size="14.00">illustrée</text>
<text text-anchor="middle" x="64.5" y="-7.8" font-family="Times New Roman,serif" font-size="14.00">en couleur</text>
</g>
<!-- UMLRM0036&#45;&gt;UMLRM0035 -->
<g id="edge2" class="edge">
<title>UMLRM0036&#45;&gt;UMLRM0035</title>
<path fill="none" stroke="black" d="M64.5,-218.34C64.5,-232.12 64.5,-245.56 64.5,-257.49"/>
<polygon fill="black" stroke="black" points="61,-257.36 64.5,-267.36 68,-257.36 61,-257.36"/>
<text text-anchor="middle" x="111" y="-239.8" font-family="Times New Roman,serif" font-size="14.00">Manifestation de</text>
</g>
</g>
</svg>
