<?xml version="1.0" encoding="UTF-8" standalone="no"?>
<!DOCTYPE svg PUBLIC "-//W3C//DTD SVG 1.1//EN"
 "http://www.w3.org/Graphics/SVG/1.1/DTD/svg11.dtd">
<!-- Generated by graphviz version 7.0.3 (20221126.0506)
 -->
<!-- Title: UMLRM0175 Pages: 1 -->
<svg width="168pt" height="509pt"
 viewBox="0.00 0.00 168.00 509.00" xmlns="http://www.w3.org/2000/svg" xmlns:xlink="http://www.w3.org/1999/xlink">
<g id="graph0" class="graph" transform="scale(1 1) rotate(0) translate(4 505)">
<title>UMLRM0175</title>
<polygon fill="white" stroke="none" points="-4,4 -4,-505 164,-505 164,4 -4,4"/>
<!-- UMLRM0175 -->
<g id="node1" class="node">
<title>UMLRM0175</title>
<polygon fill="none" stroke="red" points="134,-397 0,-397 0,-284 134,-284 134,-397"/>
<text text-anchor="middle" x="67" y="-381.8" font-family="Times New Roman,serif" font-size="14.00">Les grands</text>
<text text-anchor="middle" x="67" y="-366.8" font-family="Times New Roman,serif" font-size="14.00">classiques du cinéma</text>
<text text-anchor="middle" x="67" y="-351.8" font-family="Times New Roman,serif" font-size="14.00">allemand, Anglais,</text>
<text text-anchor="middle" x="67" y="-336.8" font-family="Times New Roman,serif" font-size="14.00">allemand, français ;</text>
<text text-anchor="middle" x="67" y="-321.8" font-family="Times New Roman,serif" font-size="14.00">sous&#45;titrage en</text>
<text text-anchor="middle" x="67" y="-306.8" font-family="Times New Roman,serif" font-size="14.00">français, Image</text>
<text text-anchor="middle" x="67" y="-291.8" font-family="Times New Roman,serif" font-size="14.00">animée</text>
</g>
<!-- UMLRM0174 -->
<g id="node2" class="node">
<title>UMLRM0174</title>
<polygon fill="none" stroke="black" points="134,-501 0,-501 0,-448 134,-448 134,-501"/>
<text text-anchor="middle" x="67" y="-485.8" font-family="Times New Roman,serif" font-size="14.00">Les grands</text>
<text text-anchor="middle" x="67" y="-470.8" font-family="Times New Roman,serif" font-size="14.00">classiques du cinéma</text>
<text text-anchor="middle" x="67" y="-455.8" font-family="Times New Roman,serif" font-size="14.00">allemand</text>
</g>
<!-- UMLRM0175&#45;&gt;UMLRM0174 -->
<g id="edge1" class="edge">
<title>UMLRM0175&#45;&gt;UMLRM0174</title>
<path fill="none" stroke="black" d="M67,-397.48C67,-410.55 67,-424.16 67,-436.18"/>
<polygon fill="black" stroke="black" points="63.5,-436.09 67,-446.09 70.5,-436.09 63.5,-436.09"/>
<text text-anchor="middle" x="107" y="-418.8" font-family="Times New Roman,serif" font-size="14.00">Expression de</text>
</g>
<!-- UMLRM0176 -->
<g id="node3" class="node">
<title>UMLRM0176</title>
<polygon fill="none" stroke="black" points="109,-233 25,-233 25,0 109,0 109,-233"/>
<text text-anchor="middle" x="67" y="-217.8" font-family="Times New Roman,serif" font-size="14.00">Les grands</text>
<text text-anchor="middle" x="67" y="-202.8" font-family="Times New Roman,serif" font-size="14.00">classiques</text>
<text text-anchor="middle" x="67" y="-187.8" font-family="Times New Roman,serif" font-size="14.00">du cinéma</text>
<text text-anchor="middle" x="67" y="-172.8" font-family="Times New Roman,serif" font-size="14.00">allemand,</text>
<text text-anchor="middle" x="67" y="-157.8" font-family="Times New Roman,serif" font-size="14.00">RDM vidéo</text>
<text text-anchor="middle" x="67" y="-142.8" font-family="Times New Roman,serif" font-size="14.00">&#45; RDM</text>
<text text-anchor="middle" x="67" y="-127.8" font-family="Times New Roman,serif" font-size="14.00">vidéo, [DL</text>
<text text-anchor="middle" x="67" y="-112.8" font-family="Times New Roman,serif" font-size="14.00">2013], 7</text>
<text text-anchor="middle" x="67" y="-97.8" font-family="Times New Roman,serif" font-size="14.00">DVD vidéo,</text>
<text text-anchor="middle" x="67" y="-82.8" font-family="Times New Roman,serif" font-size="14.00">monoface</text>
<text text-anchor="middle" x="67" y="-67.8" font-family="Times New Roman,serif" font-size="14.00">double</text>
<text text-anchor="middle" x="67" y="-52.8" font-family="Times New Roman,serif" font-size="14.00">couche,</text>
<text text-anchor="middle" x="67" y="-37.8" font-family="Times New Roman,serif" font-size="14.00">4/3, PAL,</text>
<text text-anchor="middle" x="67" y="-22.8" font-family="Times New Roman,serif" font-size="14.00">toutes</text>
<text text-anchor="middle" x="67" y="-7.8" font-family="Times New Roman,serif" font-size="14.00">zones</text>
</g>
<!-- UMLRM0176&#45;&gt;UMLRM0175 -->
<g id="edge2" class="edge">
<title>UMLRM0176&#45;&gt;UMLRM0175</title>
<path fill="none" stroke="black" d="M67,-233.38C67,-246.6 67,-259.73 67,-272.02"/>
<polygon fill="black" stroke="black" points="63.5,-272.01 67,-282.01 70.5,-272.01 63.5,-272.01"/>
<text text-anchor="middle" x="113.5" y="-254.8" font-family="Times New Roman,serif" font-size="14.00">Manifestation de</text>
</g>
</g>
</svg>
