<?xml version="1.0" encoding="UTF-8" standalone="no"?>
<!DOCTYPE svg PUBLIC "-//W3C//DTD SVG 1.1//EN"
 "http://www.w3.org/Graphics/SVG/1.1/DTD/svg11.dtd">
<!-- Generated by graphviz version 7.0.3 (20221126.0506)
 -->
<!-- Title: UMLRM0037 Pages: 1 -->
<svg width="460pt" height="449pt"
 viewBox="0.00 0.00 459.50 449.00" xmlns="http://www.w3.org/2000/svg" xmlns:xlink="http://www.w3.org/1999/xlink">
<g id="graph0" class="graph" transform="scale(1 1) rotate(0) translate(4 445)">
<title>UMLRM0037</title>
<polygon fill="white" stroke="none" points="-4,4 -4,-445 455.5,-445 455.5,4 -4,4"/>
<!-- UMLRM0037 -->
<g id="node1" class="node">
<title>UMLRM0037</title>
<polygon fill="none" stroke="red" points="276,-441 147,-441 147,-388 276,-388 276,-441"/>
<text text-anchor="middle" x="211.5" y="-425.8" font-family="Times New Roman,serif" font-size="14.00">Stoker, Bram</text>
<text text-anchor="middle" x="211.5" y="-410.8" font-family="Times New Roman,serif" font-size="14.00">(1847&#45;1912), Choix,</text>
<text text-anchor="middle" x="211.5" y="-395.8" font-family="Times New Roman,serif" font-size="14.00">Dracula</text>
</g>
<!-- UMLRM0038 -->
<g id="node2" class="node">
<title>UMLRM0038</title>
<polygon fill="none" stroke="black" points="129,-337 0,-337 0,-269 129,-269 129,-337"/>
<text text-anchor="middle" x="64.5" y="-321.8" font-family="Times New Roman,serif" font-size="14.00">Stoker, Bram</text>
<text text-anchor="middle" x="64.5" y="-306.8" font-family="Times New Roman,serif" font-size="14.00">(1847&#45;1912), Choix,</text>
<text text-anchor="middle" x="64.5" y="-291.8" font-family="Times New Roman,serif" font-size="14.00">Dracula, Français,</text>
<text text-anchor="middle" x="64.5" y="-276.8" font-family="Times New Roman,serif" font-size="14.00">Finné, Texte noté</text>
</g>
<!-- UMLRM0038&#45;&gt;UMLRM0037 -->
<g id="edge1" class="edge">
<title>UMLRM0038&#45;&gt;UMLRM0037</title>
<path fill="none" stroke="black" d="M92.36,-337.41C102.69,-348.59 114.95,-360.59 127.5,-370 133.11,-374.2 139.17,-378.21 145.4,-381.98"/>
<polygon fill="black" stroke="black" points="143.54,-384.94 153.95,-386.92 147.05,-378.89 143.54,-384.94"/>
<text text-anchor="middle" x="167.5" y="-358.8" font-family="Times New Roman,serif" font-size="14.00">Expression de</text>
</g>
<!-- UMLRM0039 -->
<g id="node3" class="node">
<title>UMLRM0039</title>
<polygon fill="none" stroke="black" points="106.5,-218 22.5,-218 22.5,0 106.5,0 106.5,-218"/>
<text text-anchor="middle" x="64.5" y="-202.8" font-family="Times New Roman,serif" font-size="14.00">Dracula,</text>
<text text-anchor="middle" x="64.5" y="-187.8" font-family="Times New Roman,serif" font-size="14.00">Bram</text>
<text text-anchor="middle" x="64.5" y="-172.8" font-family="Times New Roman,serif" font-size="14.00">Stoker,</text>
<text text-anchor="middle" x="64.5" y="-157.8" font-family="Times New Roman,serif" font-size="14.00">Flammarion</text>
<text text-anchor="middle" x="64.5" y="-142.8" font-family="Times New Roman,serif" font-size="14.00">&#45;</text>
<text text-anchor="middle" x="64.5" y="-127.8" font-family="Times New Roman,serif" font-size="14.00">Imprimerie</text>
<text text-anchor="middle" x="64.5" y="-112.8" font-family="Times New Roman,serif" font-size="14.00">Maury&#45;Euro</text>
<text text-anchor="middle" x="64.5" y="-97.8" font-family="Times New Roman,serif" font-size="14.00">livres,</text>
<text text-anchor="middle" x="64.5" y="-82.8" font-family="Times New Roman,serif" font-size="14.00">2006, 1</text>
<text text-anchor="middle" x="64.5" y="-67.8" font-family="Times New Roman,serif" font-size="14.00">volume</text>
<text text-anchor="middle" x="64.5" y="-52.8" font-family="Times New Roman,serif" font-size="14.00">(222</text>
<text text-anchor="middle" x="64.5" y="-37.8" font-family="Times New Roman,serif" font-size="14.00">pages),</text>
<text text-anchor="middle" x="64.5" y="-22.8" font-family="Times New Roman,serif" font-size="14.00">couverture</text>
<text text-anchor="middle" x="64.5" y="-7.8" font-family="Times New Roman,serif" font-size="14.00">illustrée</text>
</g>
<!-- UMLRM0039&#45;&gt;UMLRM0038 -->
<g id="edge2" class="edge">
<title>UMLRM0039&#45;&gt;UMLRM0038</title>
<path fill="none" stroke="black" d="M64.5,-218.34C64.5,-232.12 64.5,-245.56 64.5,-257.49"/>
<polygon fill="black" stroke="black" points="61,-257.36 64.5,-267.36 68,-257.36 61,-257.36"/>
<text text-anchor="middle" x="111" y="-239.8" font-family="Times New Roman,serif" font-size="14.00">Manifestation de</text>
</g>
<!-- UMLRM0047 -->
<g id="node4" class="node">
<title>UMLRM0047</title>
<polygon fill="none" stroke="black" points="276,-337 147,-337 147,-269 276,-269 276,-337"/>
<text text-anchor="middle" x="211.5" y="-321.8" font-family="Times New Roman,serif" font-size="14.00">Stoker, Bram</text>
<text text-anchor="middle" x="211.5" y="-306.8" font-family="Times New Roman,serif" font-size="14.00">(1847&#45;1912), Choix,</text>
<text text-anchor="middle" x="211.5" y="-291.8" font-family="Times New Roman,serif" font-size="14.00">Dracula, Français,</text>
<text text-anchor="middle" x="211.5" y="-276.8" font-family="Times New Roman,serif" font-size="14.00">Finné, Texte noté</text>
</g>
<!-- UMLRM0047&#45;&gt;UMLRM0037 -->
<g id="edge3" class="edge">
<title>UMLRM0047&#45;&gt;UMLRM0037</title>
<path fill="none" stroke="black" d="M211.5,-337.45C211.5,-349.65 211.5,-363.52 211.5,-376.05"/>
<polygon fill="black" stroke="black" points="208,-376.04 211.5,-386.04 215,-376.04 208,-376.04"/>
<text text-anchor="middle" x="251.5" y="-358.8" font-family="Times New Roman,serif" font-size="14.00">Expression de</text>
</g>
<!-- UMLRM0048 -->
<g id="node5" class="node">
<title>UMLRM0048</title>
<polygon fill="none" stroke="black" points="251.5,-195.5 171.5,-195.5 171.5,-22.5 251.5,-22.5 251.5,-195.5"/>
<text text-anchor="middle" x="211.5" y="-180.3" font-family="Times New Roman,serif" font-size="14.00">Dracula,</text>
<text text-anchor="middle" x="211.5" y="-165.3" font-family="Times New Roman,serif" font-size="14.00">Bram</text>
<text text-anchor="middle" x="211.5" y="-150.3" font-family="Times New Roman,serif" font-size="14.00">Stoker, Fl</text>
<text text-anchor="middle" x="211.5" y="-135.3" font-family="Times New Roman,serif" font-size="14.00">ammarion,</text>
<text text-anchor="middle" x="211.5" y="-120.3" font-family="Times New Roman,serif" font-size="14.00">DL 2017, 1</text>
<text text-anchor="middle" x="211.5" y="-105.3" font-family="Times New Roman,serif" font-size="14.00">volume</text>
<text text-anchor="middle" x="211.5" y="-90.3" font-family="Times New Roman,serif" font-size="14.00">(222 pages</text>
<text text-anchor="middle" x="211.5" y="-75.3" font-family="Times New Roman,serif" font-size="14.00">&#45; [4]</text>
<text text-anchor="middle" x="211.5" y="-60.3" font-family="Times New Roman,serif" font-size="14.00">pages),</text>
<text text-anchor="middle" x="211.5" y="-45.3" font-family="Times New Roman,serif" font-size="14.00">couverture</text>
<text text-anchor="middle" x="211.5" y="-30.3" font-family="Times New Roman,serif" font-size="14.00">illustrée</text>
</g>
<!-- UMLRM0048&#45;&gt;UMLRM0047 -->
<g id="edge4" class="edge">
<title>UMLRM0048&#45;&gt;UMLRM0047</title>
<path fill="none" stroke="black" d="M211.5,-195.89C211.5,-217.02 211.5,-238.82 211.5,-257.11"/>
<polygon fill="black" stroke="black" points="208,-257.07 211.5,-267.07 215,-257.07 208,-257.07"/>
<text text-anchor="middle" x="258" y="-239.8" font-family="Times New Roman,serif" font-size="14.00">Manifestation de</text>
</g>
<!-- UMLRM0172 -->
<g id="node6" class="node">
<title>UMLRM0172</title>
<polygon fill="none" stroke="black" points="423,-337 294,-337 294,-269 423,-269 423,-337"/>
<text text-anchor="middle" x="358.5" y="-321.8" font-family="Times New Roman,serif" font-size="14.00">Stoker, Bram</text>
<text text-anchor="middle" x="358.5" y="-306.8" font-family="Times New Roman,serif" font-size="14.00">(1847&#45;1912), Choix,</text>
<text text-anchor="middle" x="358.5" y="-291.8" font-family="Times New Roman,serif" font-size="14.00">Dracula, Français,</text>
<text text-anchor="middle" x="358.5" y="-276.8" font-family="Times New Roman,serif" font-size="14.00">Finné, Texte noté</text>
</g>
<!-- UMLRM0172&#45;&gt;UMLRM0037 -->
<g id="edge5" class="edge">
<title>UMLRM0172&#45;&gt;UMLRM0037</title>
<path fill="none" stroke="black" d="M330.64,-337.41C320.31,-348.59 308.05,-360.59 295.5,-370 289.89,-374.2 283.83,-378.21 277.6,-381.98"/>
<polygon fill="black" stroke="black" points="275.95,-378.89 269.05,-386.92 279.46,-384.94 275.95,-378.89"/>
<text text-anchor="middle" x="352.5" y="-358.8" font-family="Times New Roman,serif" font-size="14.00">Expression de</text>
</g>
<!-- UMLRM0173 -->
<g id="node7" class="node">
<title>UMLRM0173</title>
<polygon fill="none" stroke="black" points="400.5,-218 316.5,-218 316.5,0 400.5,0 400.5,-218"/>
<text text-anchor="middle" x="358.5" y="-202.8" font-family="Times New Roman,serif" font-size="14.00">Dracula,</text>
<text text-anchor="middle" x="358.5" y="-187.8" font-family="Times New Roman,serif" font-size="14.00">Bram</text>
<text text-anchor="middle" x="358.5" y="-172.8" font-family="Times New Roman,serif" font-size="14.00">Stoker,</text>
<text text-anchor="middle" x="358.5" y="-157.8" font-family="Times New Roman,serif" font-size="14.00">Flammarion</text>
<text text-anchor="middle" x="358.5" y="-142.8" font-family="Times New Roman,serif" font-size="14.00">&#45;</text>
<text text-anchor="middle" x="358.5" y="-127.8" font-family="Times New Roman,serif" font-size="14.00">Imprimerie</text>
<text text-anchor="middle" x="358.5" y="-112.8" font-family="Times New Roman,serif" font-size="14.00">Maury&#45;Euro</text>
<text text-anchor="middle" x="358.5" y="-97.8" font-family="Times New Roman,serif" font-size="14.00">livres,</text>
<text text-anchor="middle" x="358.5" y="-82.8" font-family="Times New Roman,serif" font-size="14.00">2004, 1</text>
<text text-anchor="middle" x="358.5" y="-67.8" font-family="Times New Roman,serif" font-size="14.00">volume</text>
<text text-anchor="middle" x="358.5" y="-52.8" font-family="Times New Roman,serif" font-size="14.00">(247</text>
<text text-anchor="middle" x="358.5" y="-37.8" font-family="Times New Roman,serif" font-size="14.00">pages),</text>
<text text-anchor="middle" x="358.5" y="-22.8" font-family="Times New Roman,serif" font-size="14.00">couverture</text>
<text text-anchor="middle" x="358.5" y="-7.8" font-family="Times New Roman,serif" font-size="14.00">illustrée</text>
</g>
<!-- UMLRM0173&#45;&gt;UMLRM0172 -->
<g id="edge6" class="edge">
<title>UMLRM0173&#45;&gt;UMLRM0172</title>
<path fill="none" stroke="black" d="M358.5,-218.34C358.5,-232.12 358.5,-245.56 358.5,-257.49"/>
<polygon fill="black" stroke="black" points="355,-257.36 358.5,-267.36 362,-257.36 355,-257.36"/>
<text text-anchor="middle" x="405" y="-239.8" font-family="Times New Roman,serif" font-size="14.00">Manifestation de</text>
</g>
</g>
</svg>
