<?xml version="1.0" encoding="UTF-8" standalone="no"?>
<!DOCTYPE svg PUBLIC "-//W3C//DTD SVG 1.1//EN"
 "http://www.w3.org/Graphics/SVG/1.1/DTD/svg11.dtd">
<!-- Generated by graphviz version 7.0.3 (20221126.0506)
 -->
<!-- Title: UMLRM0034 Pages: 1 -->
<svg width="720pt" height="94pt"
 viewBox="0.00 0.00 720.00 93.85" xmlns="http://www.w3.org/2000/svg" xmlns:xlink="http://www.w3.org/1999/xlink">
<g id="graph0" class="graph" transform="scale(0.430499 0.430499) rotate(0) translate(4 214)">
<title>UMLRM0034</title>
<polygon fill="white" stroke="none" points="-4,4 -4,-214 1668.48,-214 1668.48,4 -4,4"/>
<!-- UMLRM0034 -->
<g id="node1" class="node">
<title>UMLRM0034</title>
<ellipse fill="none" stroke="black" cx="780.81" cy="-192" rx="151.37" ry="18"/>
<text text-anchor="middle" x="780.81" y="-188.3" font-family="Times New Roman,serif" font-size="14.00">Humphries, Tudor (1953&#45;….), Dracula</text>
</g>
<!-- UMLRM0035 -->
<g id="node2" class="node">
<title>UMLRM0035</title>
<ellipse fill="none" stroke="black" cx="535.81" cy="-105" rx="237.46" ry="18"/>
<text text-anchor="middle" x="535.81" y="-101.3" font-family="Times New Roman,serif" font-size="14.00">Humphries, Tudor (1953&#45;….), Dracula, Texte noté. Image fixe</text>
</g>
<!-- UMLRM0034&#45;&gt;UMLRM0035 -->
<g id="edge1" class="edge">
<title>UMLRM0034&#45;&gt;UMLRM0035</title>
<path fill="none" stroke="black" d="M733.28,-174.51C693.98,-160.88 637.96,-141.44 595.61,-126.75"/>
<polygon fill="black" stroke="black" points="596.91,-123.49 586.32,-123.52 594.62,-130.11 596.91,-123.49"/>
<text text-anchor="middle" x="713.81" y="-144.8" font-family="Times New Roman,serif" font-size="14.00">Expression de</text>
</g>
<!-- UMLRM0161 -->
<g id="node4" class="node">
<title>UMLRM0161</title>
<ellipse fill="none" stroke="black" cx="1201.81" cy="-105" rx="237.46" ry="18"/>
<text text-anchor="middle" x="1201.81" y="-101.3" font-family="Times New Roman,serif" font-size="14.00">Humphries, Tudor (1953&#45;….), Dracula, Texte noté. Image fixe</text>
</g>
<!-- UMLRM0034&#45;&gt;UMLRM0161 -->
<g id="edge3" class="edge">
<title>UMLRM0034&#45;&gt;UMLRM0161</title>
<path fill="none" stroke="black" d="M855.59,-175.9C926.65,-161.56 1033.66,-139.95 1109.89,-124.56"/>
<polygon fill="black" stroke="black" points="1110.31,-128.04 1119.42,-122.63 1108.93,-121.18 1110.31,-128.04"/>
<text text-anchor="middle" x="1056.81" y="-144.8" font-family="Times New Roman,serif" font-size="14.00">Expression de</text>
</g>
<!-- UMLRM0036 -->
<g id="node3" class="node">
<title>UMLRM0036</title>
<ellipse fill="none" stroke="black" cx="447.81" cy="-18" rx="447.62" ry="18"/>
<text text-anchor="middle" x="447.81" y="-14.3" font-family="Times New Roman,serif" font-size="14.00">Dracula, d&#39;après Bram Stoker, Sélection du &quot;Reader&#39;s digest&quot;, 1998, 1 volume (64 pages), couverture illustrée en couleur</text>
</g>
<!-- UMLRM0035&#45;&gt;UMLRM0036 -->
<g id="edge2" class="edge">
<title>UMLRM0035&#45;&gt;UMLRM0036</title>
<path fill="none" stroke="black" d="M518,-86.8C505.32,-74.55 488.08,-57.9 473.86,-44.16"/>
<polygon fill="black" stroke="black" points="476.61,-41.95 466.98,-37.52 471.74,-46.98 476.61,-41.95"/>
<text text-anchor="middle" x="544.31" y="-57.8" font-family="Times New Roman,serif" font-size="14.00">Manifestation de</text>
</g>
<!-- UMLRM0177 -->
<g id="node5" class="node">
<title>UMLRM0177</title>
<ellipse fill="none" stroke="black" cx="1288.81" cy="-18" rx="375.83" ry="18"/>
<text text-anchor="middle" x="1288.81" y="-14.3" font-family="Times New Roman,serif" font-size="14.00">Dracula, Bram Stoker, Dorling Kindersley, 1997, 1 volume (64 pages), couverture illustrée en couleur</text>
</g>
<!-- UMLRM0161&#45;&gt;UMLRM0177 -->
<g id="edge4" class="edge">
<title>UMLRM0161&#45;&gt;UMLRM0177</title>
<path fill="none" stroke="black" d="M1219.42,-86.8C1231.95,-74.55 1249,-57.9 1263.06,-44.16"/>
<polygon fill="black" stroke="black" points="1265.14,-47.02 1269.85,-37.52 1260.25,-42.01 1265.14,-47.02"/>
<text text-anchor="middle" x="1296.31" y="-57.8" font-family="Times New Roman,serif" font-size="14.00">Manifestation de</text>
</g>
</g>
</svg>
