<?xml version="1.0" encoding="UTF-8" standalone="no"?>
<!DOCTYPE svg PUBLIC "-//W3C//DTD SVG 1.1//EN"
 "http://www.w3.org/Graphics/SVG/1.1/DTD/svg11.dtd">
<!-- Generated by graphviz version 7.0.3 (20221126.0506)
 -->
<!-- Title: UMLRM0088 Pages: 1 -->
<svg width="164pt" height="629pt"
 viewBox="0.00 0.00 164.00 629.00" xmlns="http://www.w3.org/2000/svg" xmlns:xlink="http://www.w3.org/1999/xlink">
<g id="graph0" class="graph" transform="scale(1 1) rotate(0) translate(4 625)">
<title>UMLRM0088</title>
<polygon fill="white" stroke="none" points="-4,4 -4,-625 160,-625 160,4 -4,4"/>
<!-- UMLRM0088 -->
<g id="node1" class="node">
<title>UMLRM0088</title>
<polygon fill="none" stroke="red" points="126,-472 0,-472 0,-359 126,-359 126,-472"/>
<text text-anchor="middle" x="63" y="-456.8" font-family="Times New Roman,serif" font-size="14.00">Valls de Gomis,</text>
<text text-anchor="middle" x="63" y="-441.8" font-family="Times New Roman,serif" font-size="14.00">Estelle (1973&#45;...),</text>
<text text-anchor="middle" x="63" y="-426.8" font-family="Times New Roman,serif" font-size="14.00">Le vampire au fil</text>
<text text-anchor="middle" x="63" y="-411.8" font-family="Times New Roman,serif" font-size="14.00">des siècles :</text>
<text text-anchor="middle" x="63" y="-396.8" font-family="Times New Roman,serif" font-size="14.00">enquête autour d&#39;un</text>
<text text-anchor="middle" x="63" y="-381.8" font-family="Times New Roman,serif" font-size="14.00">mythe, Français,</text>
<text text-anchor="middle" x="63" y="-366.8" font-family="Times New Roman,serif" font-size="14.00">Texte noté</text>
</g>
<!-- UMLRM0087 -->
<g id="node2" class="node">
<title>UMLRM0087</title>
<polygon fill="none" stroke="black" points="126,-621 0,-621 0,-523 126,-523 126,-621"/>
<text text-anchor="middle" x="63" y="-605.8" font-family="Times New Roman,serif" font-size="14.00">Valls de Gomis,</text>
<text text-anchor="middle" x="63" y="-590.8" font-family="Times New Roman,serif" font-size="14.00">Estelle (1973&#45;...),</text>
<text text-anchor="middle" x="63" y="-575.8" font-family="Times New Roman,serif" font-size="14.00">Le vampire au fil</text>
<text text-anchor="middle" x="63" y="-560.8" font-family="Times New Roman,serif" font-size="14.00">des siècles :</text>
<text text-anchor="middle" x="63" y="-545.8" font-family="Times New Roman,serif" font-size="14.00">enquête autour d&#39;un</text>
<text text-anchor="middle" x="63" y="-530.8" font-family="Times New Roman,serif" font-size="14.00">mythe</text>
</g>
<!-- UMLRM0088&#45;&gt;UMLRM0087 -->
<g id="edge1" class="edge">
<title>UMLRM0088&#45;&gt;UMLRM0087</title>
<path fill="none" stroke="black" d="M63,-472.28C63,-485.05 63,-498.67 63,-511.58"/>
<polygon fill="black" stroke="black" points="59.5,-511.2 63,-521.2 66.5,-511.2 59.5,-511.2"/>
<text text-anchor="middle" x="103" y="-493.8" font-family="Times New Roman,serif" font-size="14.00">Expression de</text>
</g>
<!-- UMLRM0089 -->
<g id="node3" class="node">
<title>UMLRM0089</title>
<polygon fill="none" stroke="black" points="105,-308 21,-308 21,0 105,0 105,-308"/>
<text text-anchor="middle" x="63" y="-292.8" font-family="Times New Roman,serif" font-size="14.00">Le vampire</text>
<text text-anchor="middle" x="63" y="-277.8" font-family="Times New Roman,serif" font-size="14.00">au fil des</text>
<text text-anchor="middle" x="63" y="-262.8" font-family="Times New Roman,serif" font-size="14.00">siècles,</text>
<text text-anchor="middle" x="63" y="-247.8" font-family="Times New Roman,serif" font-size="14.00">Estelle</text>
<text text-anchor="middle" x="63" y="-232.8" font-family="Times New Roman,serif" font-size="14.00">Valls de</text>
<text text-anchor="middle" x="63" y="-217.8" font-family="Times New Roman,serif" font-size="14.00">Gomis, Che</text>
<text text-anchor="middle" x="63" y="-202.8" font-family="Times New Roman,serif" font-size="14.00">minements</text>
<text text-anchor="middle" x="63" y="-187.8" font-family="Times New Roman,serif" font-size="14.00">&#45;</text>
<text text-anchor="middle" x="63" y="-172.8" font-family="Times New Roman,serif" font-size="14.00">Imprimerie</text>
<text text-anchor="middle" x="63" y="-157.8" font-family="Times New Roman,serif" font-size="14.00">Darantièr</text>
<text text-anchor="middle" x="63" y="-142.8" font-family="Times New Roman,serif" font-size="14.00">e, DL</text>
<text text-anchor="middle" x="63" y="-127.8" font-family="Times New Roman,serif" font-size="14.00">2005, 1</text>
<text text-anchor="middle" x="63" y="-112.8" font-family="Times New Roman,serif" font-size="14.00">volume</text>
<text text-anchor="middle" x="63" y="-97.8" font-family="Times New Roman,serif" font-size="14.00">(471</text>
<text text-anchor="middle" x="63" y="-82.8" font-family="Times New Roman,serif" font-size="14.00">pages&#45;[16]</text>
<text text-anchor="middle" x="63" y="-67.8" font-family="Times New Roman,serif" font-size="14.00">pages de p</text>
<text text-anchor="middle" x="63" y="-52.8" font-family="Times New Roman,serif" font-size="14.00">lanches.),</text>
<text text-anchor="middle" x="63" y="-37.8" font-family="Times New Roman,serif" font-size="14.00">couverture</text>
<text text-anchor="middle" x="63" y="-22.8" font-family="Times New Roman,serif" font-size="14.00">illustrée</text>
<text text-anchor="middle" x="63" y="-7.8" font-family="Times New Roman,serif" font-size="14.00">en couleur</text>
</g>
<!-- UMLRM0089&#45;&gt;UMLRM0088 -->
<g id="edge2" class="edge">
<title>UMLRM0089&#45;&gt;UMLRM0088</title>
<path fill="none" stroke="black" d="M63,-308.2C63,-321.76 63,-334.96 63,-347.19"/>
<polygon fill="black" stroke="black" points="59.5,-347.08 63,-357.08 66.5,-347.08 59.5,-347.08"/>
<text text-anchor="middle" x="109.5" y="-329.8" font-family="Times New Roman,serif" font-size="14.00">Manifestation de</text>
</g>
</g>
</svg>
