<?xml version="1.0" encoding="UTF-8" standalone="no"?>
<!DOCTYPE svg PUBLIC "-//W3C//DTD SVG 1.1//EN"
 "http://www.w3.org/Graphics/SVG/1.1/DTD/svg11.dtd">
<!-- Generated by graphviz version 7.0.3 (20221126.0506)
 -->
<!-- Title: UMLRM0010 Pages: 1 -->
<svg width="1440pt" height="28pt"
 viewBox="0.00 0.00 1440.00 27.67" xmlns="http://www.w3.org/2000/svg" xmlns:xlink="http://www.w3.org/1999/xlink">
<g id="graph0" class="graph" transform="scale(0.628843 0.628843) rotate(0) translate(4 40)">
<title>UMLRM0010</title>
<polygon fill="white" stroke="none" points="-4,4 -4,-40 2285.92,-40 2285.92,4 -4,4"/>
<!-- UMLRM0010 -->
<g id="node1" class="node">
<title>UMLRM0010</title>
<ellipse fill="none" stroke="black" cx="1976.45" cy="-18" rx="305.45" ry="18"/>
<text text-anchor="middle" x="1976.45" y="-14.3" font-family="Times New Roman,serif" font-size="14.00">Palma, Paola (1971&#45;….) &#45; Vezyroglou, Dimitri (1970&#45;….), &quot;Nosferatu le vampire&quot;</text>
</g>
<!-- UMLRM0011 -->
<g id="node2" class="node">
<title>UMLRM0011</title>
<ellipse fill="none" stroke="black" cx="1206.6" cy="-18" rx="348.24" ry="18"/>
<text text-anchor="middle" x="1206.6" y="-14.3" font-family="Times New Roman,serif" font-size="14.00">Palma, Paola (1971&#45;….) &#45; Vezyroglou, Dimitri (1970&#45;….), &quot;Nosferatu le vampire&quot;, Texte noté</text>
</g>
<!-- UMLRM0011&#45;&gt;UMLRM0010 -->
<g id="edge1" class="edge">
<title>UMLRM0011&#45;&gt;UMLRM0010</title>
<path fill="none" stroke="black" d="M1555.3,-18C1590.04,-18 1625.19,-18 1659.58,-18"/>
<polygon fill="black" stroke="black" points="1659.2,-21.5 1669.2,-18 1659.2,-14.5 1659.2,-21.5"/>
<text text-anchor="middle" x="1612.97" y="-21.8" font-family="Times New Roman,serif" font-size="14.00">Expression de</text>
</g>
<!-- UMLRM0012 -->
<g id="node3" class="node">
<title>UMLRM0012</title>
<ellipse fill="none" stroke="black" cx="364.62" cy="-18" rx="364.74" ry="18"/>
<text text-anchor="middle" x="364.62" y="-14.3" font-family="Times New Roman,serif" font-size="14.00">&quot;Nosferatu le vampire, Paola Palma, Dimitri Vezyroglou, Atlande, DL 2021, 1 volume (221 pages)</text>
</g>
<!-- UMLRM0012&#45;&gt;UMLRM0011 -->
<g id="edge2" class="edge">
<title>UMLRM0012&#45;&gt;UMLRM0011</title>
<path fill="none" stroke="black" d="M729.77,-18C768.49,-18 807.84,-18 846.5,-18"/>
<polygon fill="black" stroke="black" points="846.41,-21.5 856.41,-18 846.41,-14.5 846.41,-21.5"/>
<text text-anchor="middle" x="793.74" y="-21.8" font-family="Times New Roman,serif" font-size="14.00">Manifestation de</text>
</g>
</g>
</svg>
