<?xml version="1.0" encoding="UTF-8" standalone="no"?>
<!DOCTYPE svg PUBLIC "-//W3C//DTD SVG 1.1//EN"
 "http://www.w3.org/Graphics/SVG/1.1/DTD/svg11.dtd">
<!-- Generated by graphviz version 7.0.3 (20221126.0506)
 -->
<!-- Title: UMLRM0020 Pages: 1 -->
<svg width="581pt" height="464pt"
 viewBox="0.00 0.00 580.50 464.00" xmlns="http://www.w3.org/2000/svg" xmlns:xlink="http://www.w3.org/1999/xlink">
<g id="graph0" class="graph" transform="scale(1 1) rotate(0) translate(4 460)">
<title>UMLRM0020</title>
<polygon fill="white" stroke="none" points="-4,4 -4,-460 576.5,-460 576.5,4 -4,4"/>
<!-- UMLRM0020 -->
<g id="node1" class="node">
<title>UMLRM0020</title>
<polygon fill="none" stroke="red" points="333,-367 208,-367 208,-299 333,-299 333,-367"/>
<text text-anchor="middle" x="270.5" y="-351.8" font-family="Times New Roman,serif" font-size="14.00">Stoker, Bram</text>
<text text-anchor="middle" x="270.5" y="-336.8" font-family="Times New Roman,serif" font-size="14.00">(1847&#45;1912),</text>
<text text-anchor="middle" x="270.5" y="-321.8" font-family="Times New Roman,serif" font-size="14.00">Dracula, Français,</text>
<text text-anchor="middle" x="270.5" y="-306.8" font-family="Times New Roman,serif" font-size="14.00">Molitor, Texte noté</text>
</g>
<!-- UMLRM0004 -->
<g id="node2" class="node">
<title>UMLRM0004</title>
<polygon fill="none" stroke="black" points="337.5,-456 203.5,-456 203.5,-418 337.5,-418 337.5,-456"/>
<text text-anchor="middle" x="270.5" y="-440.8" font-family="Times New Roman,serif" font-size="14.00">Stoker, Bram</text>
<text text-anchor="middle" x="270.5" y="-425.8" font-family="Times New Roman,serif" font-size="14.00">(1847&#45;1912), Dracula</text>
</g>
<!-- UMLRM0020&#45;&gt;UMLRM0004 -->
<g id="edge1" class="edge">
<title>UMLRM0020&#45;&gt;UMLRM0004</title>
<path fill="none" stroke="black" d="M270.5,-367.4C270.5,-379.95 270.5,-394.12 270.5,-406.31"/>
<polygon fill="black" stroke="black" points="267,-406.19 270.5,-416.19 274,-406.19 267,-406.19"/>
<text text-anchor="middle" x="310.5" y="-388.8" font-family="Times New Roman,serif" font-size="14.00">Expression de</text>
</g>
<!-- UMLRM0021 -->
<g id="node3" class="node">
<title>UMLRM0021</title>
<polygon fill="none" stroke="black" points="77,-233 0,-233 0,-15 77,-15 77,-233"/>
<text text-anchor="middle" x="38.5" y="-217.8" font-family="Times New Roman,serif" font-size="14.00">Dracula,</text>
<text text-anchor="middle" x="38.5" y="-202.8" font-family="Times New Roman,serif" font-size="14.00">Bram</text>
<text text-anchor="middle" x="38.5" y="-187.8" font-family="Times New Roman,serif" font-size="14.00">Stoker,</text>
<text text-anchor="middle" x="38.5" y="-172.8" font-family="Times New Roman,serif" font-size="14.00">J&#39;ai lu &#45;</text>
<text text-anchor="middle" x="38.5" y="-157.8" font-family="Times New Roman,serif" font-size="14.00">mprimerie</text>
<text text-anchor="middle" x="38.5" y="-142.8" font-family="Times New Roman,serif" font-size="14.00">Brodard et</text>
<text text-anchor="middle" x="38.5" y="-127.8" font-family="Times New Roman,serif" font-size="14.00">Taupin,</text>
<text text-anchor="middle" x="38.5" y="-112.8" font-family="Times New Roman,serif" font-size="14.00">2005, 1</text>
<text text-anchor="middle" x="38.5" y="-97.8" font-family="Times New Roman,serif" font-size="14.00">volume</text>
<text text-anchor="middle" x="38.5" y="-82.8" font-family="Times New Roman,serif" font-size="14.00">(574</text>
<text text-anchor="middle" x="38.5" y="-67.8" font-family="Times New Roman,serif" font-size="14.00">pages),</text>
<text text-anchor="middle" x="38.5" y="-52.8" font-family="Times New Roman,serif" font-size="14.00">couverture</text>
<text text-anchor="middle" x="38.5" y="-37.8" font-family="Times New Roman,serif" font-size="14.00">illustrée</text>
<text text-anchor="middle" x="38.5" y="-22.8" font-family="Times New Roman,serif" font-size="14.00">en couleur</text>
</g>
<!-- UMLRM0021&#45;&gt;UMLRM0020 -->
<g id="edge2" class="edge">
<title>UMLRM0021&#45;&gt;UMLRM0020</title>
<path fill="none" stroke="black" d="M42.14,-233.34C47.09,-250.96 55.05,-267.75 67.5,-281 85.2,-299.84 145.9,-313.48 196.35,-321.9"/>
<polygon fill="black" stroke="black" points="195.68,-325.33 206.11,-323.47 196.79,-318.42 195.68,-325.33"/>
<text text-anchor="middle" x="114" y="-269.8" font-family="Times New Roman,serif" font-size="14.00">Manifestation de</text>
</g>
<!-- UMLRM0024 -->
<g id="node4" class="node">
<title>UMLRM0024</title>
<polygon fill="none" stroke="black" points="192.5,-210.5 116.5,-210.5 116.5,-37.5 192.5,-37.5 192.5,-210.5"/>
<text text-anchor="middle" x="154.5" y="-195.3" font-family="Times New Roman,serif" font-size="14.00">Dracula,</text>
<text text-anchor="middle" x="154.5" y="-180.3" font-family="Times New Roman,serif" font-size="14.00">Bram</text>
<text text-anchor="middle" x="154.5" y="-165.3" font-family="Times New Roman,serif" font-size="14.00">Stoker,</text>
<text text-anchor="middle" x="154.5" y="-150.3" font-family="Times New Roman,serif" font-size="14.00">Gérard et</text>
<text text-anchor="middle" x="154.5" y="-135.3" font-family="Times New Roman,serif" font-size="14.00">Cie, 1963,</text>
<text text-anchor="middle" x="154.5" y="-120.3" font-family="Times New Roman,serif" font-size="14.00">1 volume</text>
<text text-anchor="middle" x="154.5" y="-105.3" font-family="Times New Roman,serif" font-size="14.00">(569</text>
<text text-anchor="middle" x="154.5" y="-90.3" font-family="Times New Roman,serif" font-size="14.00">pages),</text>
<text text-anchor="middle" x="154.5" y="-75.3" font-family="Times New Roman,serif" font-size="14.00">couverture</text>
<text text-anchor="middle" x="154.5" y="-60.3" font-family="Times New Roman,serif" font-size="14.00">illustrée</text>
<text text-anchor="middle" x="154.5" y="-45.3" font-family="Times New Roman,serif" font-size="14.00">en couleur</text>
</g>
<!-- UMLRM0024&#45;&gt;UMLRM0020 -->
<g id="edge3" class="edge">
<title>UMLRM0024&#45;&gt;UMLRM0020</title>
<path fill="none" stroke="black" d="M150.47,-210.81C152.99,-235.23 159.48,-260.68 173.5,-281 179.86,-290.22 188.43,-297.9 197.85,-304.25"/>
<polygon fill="black" stroke="black" points="195.86,-307.14 206.21,-309.38 199.52,-301.17 195.86,-307.14"/>
<text text-anchor="middle" x="220" y="-269.8" font-family="Times New Roman,serif" font-size="14.00">Manifestation de</text>
</g>
<!-- UMLRM0027 -->
<g id="node5" class="node">
<title>UMLRM0027</title>
<polygon fill="none" stroke="black" points="310.5,-248 230.5,-248 230.5,0 310.5,0 310.5,-248"/>
<text text-anchor="middle" x="270.5" y="-232.8" font-family="Times New Roman,serif" font-size="14.00">Dracula,</text>
<text text-anchor="middle" x="270.5" y="-217.8" font-family="Times New Roman,serif" font-size="14.00">Bram</text>
<text text-anchor="middle" x="270.5" y="-202.8" font-family="Times New Roman,serif" font-size="14.00">Stoker,</text>
<text text-anchor="middle" x="270.5" y="-187.8" font-family="Times New Roman,serif" font-size="14.00">Éd. J&#39;ai</text>
<text text-anchor="middle" x="270.5" y="-172.8" font-family="Times New Roman,serif" font-size="14.00">lu &#45;</text>
<text text-anchor="middle" x="270.5" y="-157.8" font-family="Times New Roman,serif" font-size="14.00">mprimerie</text>
<text text-anchor="middle" x="270.5" y="-142.8" font-family="Times New Roman,serif" font-size="14.00">Brodard et</text>
<text text-anchor="middle" x="270.5" y="-127.8" font-family="Times New Roman,serif" font-size="14.00">Taupin,</text>
<text text-anchor="middle" x="270.5" y="-112.8" font-family="Times New Roman,serif" font-size="14.00">1992, 1</text>
<text text-anchor="middle" x="270.5" y="-97.8" font-family="Times New Roman,serif" font-size="14.00">volume</text>
<text text-anchor="middle" x="270.5" y="-82.8" font-family="Times New Roman,serif" font-size="14.00">(XXIV&#45;505</text>
<text text-anchor="middle" x="270.5" y="-67.8" font-family="Times New Roman,serif" font-size="14.00">pages), il</text>
<text text-anchor="middle" x="270.5" y="-52.8" font-family="Times New Roman,serif" font-size="14.00">lustration</text>
<text text-anchor="middle" x="270.5" y="-37.8" font-family="Times New Roman,serif" font-size="14.00">s,</text>
<text text-anchor="middle" x="270.5" y="-22.8" font-family="Times New Roman,serif" font-size="14.00">couverture</text>
<text text-anchor="middle" x="270.5" y="-7.8" font-family="Times New Roman,serif" font-size="14.00">illustrée</text>
</g>
<!-- UMLRM0027&#45;&gt;UMLRM0020 -->
<g id="edge4" class="edge">
<title>UMLRM0027&#45;&gt;UMLRM0020</title>
<path fill="none" stroke="black" d="M270.5,-248.4C270.5,-262.3 270.5,-275.7 270.5,-287.55"/>
<polygon fill="black" stroke="black" points="267,-287.32 270.5,-297.32 274,-287.32 267,-287.32"/>
<text text-anchor="middle" x="317" y="-269.8" font-family="Times New Roman,serif" font-size="14.00">Manifestation de</text>
</g>
<!-- UMLRM0030 -->
<g id="node6" class="node">
<title>UMLRM0030</title>
<polygon fill="none" stroke="black" points="425,-233 348,-233 348,-15 425,-15 425,-233"/>
<text text-anchor="middle" x="386.5" y="-217.8" font-family="Times New Roman,serif" font-size="14.00">Dracula,</text>
<text text-anchor="middle" x="386.5" y="-202.8" font-family="Times New Roman,serif" font-size="14.00">Bram</text>
<text text-anchor="middle" x="386.5" y="-187.8" font-family="Times New Roman,serif" font-size="14.00">Stoker,</text>
<text text-anchor="middle" x="386.5" y="-172.8" font-family="Times New Roman,serif" font-size="14.00">Hachette &#45;</text>
<text text-anchor="middle" x="386.5" y="-157.8" font-family="Times New Roman,serif" font-size="14.00">Imprimerie</text>
<text text-anchor="middle" x="386.5" y="-142.8" font-family="Times New Roman,serif" font-size="14.00">Brodard et</text>
<text text-anchor="middle" x="386.5" y="-127.8" font-family="Times New Roman,serif" font-size="14.00">Taupin,</text>
<text text-anchor="middle" x="386.5" y="-112.8" font-family="Times New Roman,serif" font-size="14.00">1988, 1</text>
<text text-anchor="middle" x="386.5" y="-97.8" font-family="Times New Roman,serif" font-size="14.00">volume</text>
<text text-anchor="middle" x="386.5" y="-82.8" font-family="Times New Roman,serif" font-size="14.00">(534</text>
<text text-anchor="middle" x="386.5" y="-67.8" font-family="Times New Roman,serif" font-size="14.00">pages),</text>
<text text-anchor="middle" x="386.5" y="-52.8" font-family="Times New Roman,serif" font-size="14.00">couverture</text>
<text text-anchor="middle" x="386.5" y="-37.8" font-family="Times New Roman,serif" font-size="14.00">illustrée</text>
<text text-anchor="middle" x="386.5" y="-22.8" font-family="Times New Roman,serif" font-size="14.00">en couleur</text>
</g>
<!-- UMLRM0030&#45;&gt;UMLRM0020 -->
<g id="edge5" class="edge">
<title>UMLRM0030&#45;&gt;UMLRM0020</title>
<path fill="none" stroke="black" d="M384.6,-233.17C380.65,-250.21 374.33,-266.85 364.5,-281 358.67,-289.4 350.99,-296.55 342.54,-302.59"/>
<polygon fill="black" stroke="black" points="340.86,-299.51 334.38,-307.9 344.67,-305.38 340.86,-299.51"/>
<text text-anchor="middle" x="419" y="-269.8" font-family="Times New Roman,serif" font-size="14.00">Manifestation de</text>
</g>
<!-- UMLRM0110 -->
<g id="node7" class="node">
<title>UMLRM0110</title>
<polygon fill="none" stroke="black" points="541,-233 464,-233 464,-15 541,-15 541,-233"/>
<text text-anchor="middle" x="502.5" y="-217.8" font-family="Times New Roman,serif" font-size="14.00">Dracula,</text>
<text text-anchor="middle" x="502.5" y="-202.8" font-family="Times New Roman,serif" font-size="14.00">Bram</text>
<text text-anchor="middle" x="502.5" y="-187.8" font-family="Times New Roman,serif" font-size="14.00">Stoker,</text>
<text text-anchor="middle" x="502.5" y="-172.8" font-family="Times New Roman,serif" font-size="14.00">Éditions</text>
<text text-anchor="middle" x="502.5" y="-157.8" font-family="Times New Roman,serif" font-size="14.00">Opta,</text>
<text text-anchor="middle" x="502.5" y="-142.8" font-family="Times New Roman,serif" font-size="14.00">1968, 1</text>
<text text-anchor="middle" x="502.5" y="-127.8" font-family="Times New Roman,serif" font-size="14.00">volume</text>
<text text-anchor="middle" x="502.5" y="-112.8" font-family="Times New Roman,serif" font-size="14.00">(XX&#45;413</text>
<text text-anchor="middle" x="502.5" y="-97.8" font-family="Times New Roman,serif" font-size="14.00">pages), il</text>
<text text-anchor="middle" x="502.5" y="-82.8" font-family="Times New Roman,serif" font-size="14.00">lustration</text>
<text text-anchor="middle" x="502.5" y="-67.8" font-family="Times New Roman,serif" font-size="14.00">s en noir</text>
<text text-anchor="middle" x="502.5" y="-52.8" font-family="Times New Roman,serif" font-size="14.00">et blanc,</text>
<text text-anchor="middle" x="502.5" y="-37.8" font-family="Times New Roman,serif" font-size="14.00">cartonnage</text>
<text text-anchor="middle" x="502.5" y="-22.8" font-family="Times New Roman,serif" font-size="14.00">illustré</text>
</g>
<!-- UMLRM0110&#45;&gt;UMLRM0020 -->
<g id="edge6" class="edge">
<title>UMLRM0110&#45;&gt;UMLRM0020</title>
<path fill="none" stroke="black" d="M495.84,-233.44C490.46,-251.05 482.14,-267.81 469.5,-281 452.13,-299.12 393.68,-312.74 344.59,-321.32"/>
<polygon fill="black" stroke="black" points="344.07,-317.86 334.8,-322.98 345.25,-324.76 344.07,-317.86"/>
<text text-anchor="middle" x="526" y="-269.8" font-family="Times New Roman,serif" font-size="14.00">Manifestation de</text>
</g>
</g>
</svg>
