<?xml version="1.0" encoding="UTF-8" standalone="no"?>
<!DOCTYPE svg PUBLIC "-//W3C//DTD SVG 1.1//EN"
 "http://www.w3.org/Graphics/SVG/1.1/DTD/svg11.dtd">
<!-- Generated by graphviz version 7.0.3 (20221126.0506)
 -->
<!-- Title: UMLRM0163 Pages: 1 -->
<svg width="1440pt" height="43pt"
 viewBox="0.00 0.00 1440.00 42.77" xmlns="http://www.w3.org/2000/svg" xmlns:xlink="http://www.w3.org/1999/xlink">
<g id="graph0" class="graph" transform="scale(0.972059 0.972059) rotate(0) translate(4 40)">
<title>UMLRM0163</title>
<polygon fill="white" stroke="none" points="-4,4 -4,-40 1477.39,-40 1477.39,4 -4,4"/>
<!-- UMLRM0163 -->
<g id="node1" class="node">
<title>UMLRM0163</title>
<ellipse fill="none" stroke="black" cx="79.29" cy="-18" rx="79.09" ry="18"/>
<text text-anchor="middle" x="79.29" y="-14.3" font-family="Times New Roman,serif" font-size="14.00">Drácula, film, 1931</text>
</g>
<!-- UMLRM0162 -->
<g id="node2" class="node">
<title>UMLRM0162</title>
<ellipse fill="none" stroke="black" cx="353.88" cy="-18" rx="79.09" ry="18"/>
<text text-anchor="middle" x="353.88" y="-14.3" font-family="Times New Roman,serif" font-size="14.00">Drácula, film, 1931</text>
</g>
<!-- UMLRM0163&#45;&gt;UMLRM0162 -->
<g id="edge1" class="edge">
<title>UMLRM0163&#45;&gt;UMLRM0162</title>
<path fill="none" stroke="black" d="M158.77,-18C191.41,-18 229.48,-18 263.22,-18"/>
<polygon fill="black" stroke="black" points="262.97,-21.5 272.97,-18 262.97,-14.5 262.97,-21.5"/>
<text text-anchor="middle" x="216.59" y="-21.8" font-family="Times New Roman,serif" font-size="14.00">Expression de</text>
</g>
<!-- UMLRM0160 -->
<g id="node3" class="node">
<title>UMLRM0160</title>
<ellipse fill="none" stroke="black" cx="1017.78" cy="-18" rx="455.72" ry="18"/>
<text text-anchor="middle" x="1017.78" y="-14.3" font-family="Times New Roman,serif" font-size="14.00">Dracula, Tod Browning, [réalisateur], Universal StudioCanal vidéo &#45; Universal StudioCanal vidéo, 2014 &#45; 2014, 1 BD vidéo</text>
</g>
<!-- UMLRM0162&#45;&gt;UMLRM0160 -->
<g id="edge2" class="edge">
<title>UMLRM0162&#45;&gt;UMLRM0160</title>
<path fill="none" stroke="black" d="M433.41,-18C465.84,-18 506.25,-18 550.56,-18"/>
<polygon fill="black" stroke="black" points="550.39,-21.5 560.39,-18 550.39,-14.5 550.39,-21.5"/>
<text text-anchor="middle" x="497.67" y="-21.8" font-family="Times New Roman,serif" font-size="14.00">Manifestation de</text>
</g>
</g>
</svg>
