<?xml version="1.0" encoding="UTF-8" standalone="no"?>
<!DOCTYPE svg PUBLIC "-//W3C//DTD SVG 1.1//EN"
 "http://www.w3.org/Graphics/SVG/1.1/DTD/svg11.dtd">
<!-- Generated by graphviz version 7.0.3 (20221126.0506)
 -->
<!-- Title: UMLRM0041 Pages: 1 -->
<svg width="237pt" height="449pt"
 viewBox="0.00 0.00 237.00 449.00" xmlns="http://www.w3.org/2000/svg" xmlns:xlink="http://www.w3.org/1999/xlink">
<g id="graph0" class="graph" transform="scale(1 1) rotate(0) translate(4 445)">
<title>UMLRM0041</title>
<polygon fill="white" stroke="none" points="-4,4 -4,-445 233,-445 233,4 -4,4"/>
<!-- UMLRM0041 -->
<g id="node1" class="node">
<title>UMLRM0041</title>
<polygon fill="none" stroke="red" points="157,-352 35,-352 35,-284 157,-284 157,-352"/>
<text text-anchor="middle" x="96" y="-336.8" font-family="Times New Roman,serif" font-size="14.00">Stoker, Bram</text>
<text text-anchor="middle" x="96" y="-321.8" font-family="Times New Roman,serif" font-size="14.00">(1847&#45;1912),</text>
<text text-anchor="middle" x="96" y="-306.8" font-family="Times New Roman,serif" font-size="14.00">Dracula, Français,</text>
<text text-anchor="middle" x="96" y="-291.8" font-family="Times New Roman,serif" font-size="14.00">Sirgent, Texte noté</text>
</g>
<!-- UMLRM0004 -->
<g id="node2" class="node">
<title>UMLRM0004</title>
<polygon fill="none" stroke="black" points="163,-441 29,-441 29,-403 163,-403 163,-441"/>
<text text-anchor="middle" x="96" y="-425.8" font-family="Times New Roman,serif" font-size="14.00">Stoker, Bram</text>
<text text-anchor="middle" x="96" y="-410.8" font-family="Times New Roman,serif" font-size="14.00">(1847&#45;1912), Dracula</text>
</g>
<!-- UMLRM0041&#45;&gt;UMLRM0004 -->
<g id="edge1" class="edge">
<title>UMLRM0041&#45;&gt;UMLRM0004</title>
<path fill="none" stroke="black" d="M96,-352.4C96,-364.95 96,-379.12 96,-391.31"/>
<polygon fill="black" stroke="black" points="92.5,-391.19 96,-401.19 99.5,-391.19 92.5,-391.19"/>
<text text-anchor="middle" x="136" y="-373.8" font-family="Times New Roman,serif" font-size="14.00">Expression de</text>
</g>
<!-- UMLRM0042 -->
<g id="node3" class="node">
<title>UMLRM0042</title>
<polygon fill="none" stroke="black" points="76,-203 0,-203 0,-30 76,-30 76,-203"/>
<text text-anchor="middle" x="38" y="-187.8" font-family="Times New Roman,serif" font-size="14.00">Dracula,</text>
<text text-anchor="middle" x="38" y="-172.8" font-family="Times New Roman,serif" font-size="14.00">Bram</text>
<text text-anchor="middle" x="38" y="-157.8" font-family="Times New Roman,serif" font-size="14.00">Stoker,</text>
<text text-anchor="middle" x="38" y="-142.8" font-family="Times New Roman,serif" font-size="14.00">J&#39;ai lu,</text>
<text text-anchor="middle" x="38" y="-127.8" font-family="Times New Roman,serif" font-size="14.00">2012, 1</text>
<text text-anchor="middle" x="38" y="-112.8" font-family="Times New Roman,serif" font-size="14.00">volume</text>
<text text-anchor="middle" x="38" y="-97.8" font-family="Times New Roman,serif" font-size="14.00">(679</text>
<text text-anchor="middle" x="38" y="-82.8" font-family="Times New Roman,serif" font-size="14.00">pages),</text>
<text text-anchor="middle" x="38" y="-67.8" font-family="Times New Roman,serif" font-size="14.00">couverture</text>
<text text-anchor="middle" x="38" y="-52.8" font-family="Times New Roman,serif" font-size="14.00">illustrée</text>
<text text-anchor="middle" x="38" y="-37.8" font-family="Times New Roman,serif" font-size="14.00">en couleur</text>
</g>
<!-- UMLRM0042&#45;&gt;UMLRM0041 -->
<g id="edge2" class="edge">
<title>UMLRM0042&#45;&gt;UMLRM0041</title>
<path fill="none" stroke="black" d="M26.71,-203.34C27.08,-224.57 30.31,-246.73 39,-266 40.36,-269.01 41.99,-271.91 43.82,-274.7"/>
<polygon fill="black" stroke="black" points="40.99,-276.76 49.86,-282.55 46.54,-272.49 40.99,-276.76"/>
<text text-anchor="middle" x="85.5" y="-254.8" font-family="Times New Roman,serif" font-size="14.00">Manifestation de</text>
</g>
<!-- UMLRM0045 -->
<g id="node4" class="node">
<title>UMLRM0045</title>
<polygon fill="none" stroke="black" points="192.5,-233 115.5,-233 115.5,0 192.5,0 192.5,-233"/>
<text text-anchor="middle" x="154" y="-217.8" font-family="Times New Roman,serif" font-size="14.00">Dracula,</text>
<text text-anchor="middle" x="154" y="-202.8" font-family="Times New Roman,serif" font-size="14.00">Bram</text>
<text text-anchor="middle" x="154" y="-187.8" font-family="Times New Roman,serif" font-size="14.00">Stoker, Le</text>
<text text-anchor="middle" x="154" y="-172.8" font-family="Times New Roman,serif" font-size="14.00">camion</text>
<text text-anchor="middle" x="154" y="-157.8" font-family="Times New Roman,serif" font-size="14.00">blanc &#45;</text>
<text text-anchor="middle" x="154" y="-142.8" font-family="Times New Roman,serif" font-size="14.00">Imprimerie</text>
<text text-anchor="middle" x="154" y="-127.8" font-family="Times New Roman,serif" font-size="14.00">Acort</text>
<text text-anchor="middle" x="154" y="-112.8" font-family="Times New Roman,serif" font-size="14.00">Europe,</text>
<text text-anchor="middle" x="154" y="-97.8" font-family="Times New Roman,serif" font-size="14.00">2010, 1</text>
<text text-anchor="middle" x="154" y="-82.8" font-family="Times New Roman,serif" font-size="14.00">volume</text>
<text text-anchor="middle" x="154" y="-67.8" font-family="Times New Roman,serif" font-size="14.00">(741</text>
<text text-anchor="middle" x="154" y="-52.8" font-family="Times New Roman,serif" font-size="14.00">pages),</text>
<text text-anchor="middle" x="154" y="-37.8" font-family="Times New Roman,serif" font-size="14.00">couverture</text>
<text text-anchor="middle" x="154" y="-22.8" font-family="Times New Roman,serif" font-size="14.00">illustrée</text>
<text text-anchor="middle" x="154" y="-7.8" font-family="Times New Roman,serif" font-size="14.00">en couleur</text>
</g>
<!-- UMLRM0045&#45;&gt;UMLRM0041 -->
<g id="edge3" class="edge">
<title>UMLRM0045&#45;&gt;UMLRM0041</title>
<path fill="none" stroke="black" d="M142.31,-233.23C139.55,-244.5 136.17,-255.6 132,-266 130.94,-268.64 129.72,-271.28 128.39,-273.88"/>
<polygon fill="black" stroke="black" points="125.44,-271.98 123.5,-282.39 131.51,-275.47 125.44,-271.98"/>
<text text-anchor="middle" x="182.5" y="-254.8" font-family="Times New Roman,serif" font-size="14.00">Manifestation de</text>
</g>
</g>
</svg>
