<?xml version="1.0" encoding="UTF-8" standalone="no"?>
<!DOCTYPE svg PUBLIC "-//W3C//DTD SVG 1.1//EN"
 "http://www.w3.org/Graphics/SVG/1.1/DTD/svg11.dtd">
<!-- Generated by graphviz version 7.0.3 (20221126.0506)
 -->
<!-- Title: UMLRM0047 Pages: 1 -->
<svg width="166pt" height="404pt"
 viewBox="0.00 0.00 165.50 404.00" xmlns="http://www.w3.org/2000/svg" xmlns:xlink="http://www.w3.org/1999/xlink">
<g id="graph0" class="graph" transform="scale(1 1) rotate(0) translate(4 400)">
<title>UMLRM0047</title>
<polygon fill="white" stroke="none" points="-4,4 -4,-400 161.5,-400 161.5,4 -4,4"/>
<!-- UMLRM0047 -->
<g id="node1" class="node">
<title>UMLRM0047</title>
<polygon fill="none" stroke="red" points="129,-292 0,-292 0,-224 129,-224 129,-292"/>
<text text-anchor="middle" x="64.5" y="-276.8" font-family="Times New Roman,serif" font-size="14.00">Stoker, Bram</text>
<text text-anchor="middle" x="64.5" y="-261.8" font-family="Times New Roman,serif" font-size="14.00">(1847&#45;1912), Choix,</text>
<text text-anchor="middle" x="64.5" y="-246.8" font-family="Times New Roman,serif" font-size="14.00">Dracula, Français,</text>
<text text-anchor="middle" x="64.5" y="-231.8" font-family="Times New Roman,serif" font-size="14.00">Finné, Texte noté</text>
</g>
<!-- UMLRM0037 -->
<g id="node2" class="node">
<title>UMLRM0037</title>
<polygon fill="none" stroke="black" points="129,-396 0,-396 0,-343 129,-343 129,-396"/>
<text text-anchor="middle" x="64.5" y="-380.8" font-family="Times New Roman,serif" font-size="14.00">Stoker, Bram</text>
<text text-anchor="middle" x="64.5" y="-365.8" font-family="Times New Roman,serif" font-size="14.00">(1847&#45;1912), Choix,</text>
<text text-anchor="middle" x="64.5" y="-350.8" font-family="Times New Roman,serif" font-size="14.00">Dracula</text>
</g>
<!-- UMLRM0047&#45;&gt;UMLRM0037 -->
<g id="edge1" class="edge">
<title>UMLRM0047&#45;&gt;UMLRM0037</title>
<path fill="none" stroke="black" d="M64.5,-292.45C64.5,-304.65 64.5,-318.52 64.5,-331.05"/>
<polygon fill="black" stroke="black" points="61,-331.04 64.5,-341.04 68,-331.04 61,-331.04"/>
<text text-anchor="middle" x="104.5" y="-313.8" font-family="Times New Roman,serif" font-size="14.00">Expression de</text>
</g>
<!-- UMLRM0048 -->
<g id="node3" class="node">
<title>UMLRM0048</title>
<polygon fill="none" stroke="black" points="104.5,-173 24.5,-173 24.5,0 104.5,0 104.5,-173"/>
<text text-anchor="middle" x="64.5" y="-157.8" font-family="Times New Roman,serif" font-size="14.00">Dracula,</text>
<text text-anchor="middle" x="64.5" y="-142.8" font-family="Times New Roman,serif" font-size="14.00">Bram</text>
<text text-anchor="middle" x="64.5" y="-127.8" font-family="Times New Roman,serif" font-size="14.00">Stoker, Fl</text>
<text text-anchor="middle" x="64.5" y="-112.8" font-family="Times New Roman,serif" font-size="14.00">ammarion,</text>
<text text-anchor="middle" x="64.5" y="-97.8" font-family="Times New Roman,serif" font-size="14.00">DL 2017, 1</text>
<text text-anchor="middle" x="64.5" y="-82.8" font-family="Times New Roman,serif" font-size="14.00">volume</text>
<text text-anchor="middle" x="64.5" y="-67.8" font-family="Times New Roman,serif" font-size="14.00">(222 pages</text>
<text text-anchor="middle" x="64.5" y="-52.8" font-family="Times New Roman,serif" font-size="14.00">&#45; [4]</text>
<text text-anchor="middle" x="64.5" y="-37.8" font-family="Times New Roman,serif" font-size="14.00">pages),</text>
<text text-anchor="middle" x="64.5" y="-22.8" font-family="Times New Roman,serif" font-size="14.00">couverture</text>
<text text-anchor="middle" x="64.5" y="-7.8" font-family="Times New Roman,serif" font-size="14.00">illustrée</text>
</g>
<!-- UMLRM0048&#45;&gt;UMLRM0047 -->
<g id="edge2" class="edge">
<title>UMLRM0048&#45;&gt;UMLRM0047</title>
<path fill="none" stroke="black" d="M64.5,-173.24C64.5,-186.67 64.5,-200.06 64.5,-212.07"/>
<polygon fill="black" stroke="black" points="61,-212.06 64.5,-222.06 68,-212.06 61,-212.06"/>
<text text-anchor="middle" x="111" y="-194.8" font-family="Times New Roman,serif" font-size="14.00">Manifestation de</text>
</g>
</g>
</svg>
