<?xml version="1.0" encoding="UTF-8" standalone="no"?>
<!DOCTYPE svg PUBLIC "-//W3C//DTD SVG 1.1//EN"
 "http://www.w3.org/Graphics/SVG/1.1/DTD/svg11.dtd">
<!-- Generated by graphviz version 7.0.3 (20221126.0506)
 -->
<!-- Title: UMLRM0191 Pages: 1 -->
<svg width="169pt" height="359pt"
 viewBox="0.00 0.00 168.50 359.00" xmlns="http://www.w3.org/2000/svg" xmlns:xlink="http://www.w3.org/1999/xlink">
<g id="graph0" class="graph" transform="scale(1 1) rotate(0) translate(4 355)">
<title>UMLRM0191</title>
<polygon fill="white" stroke="none" points="-4,4 -4,-355 164.5,-355 164.5,4 -4,4"/>
<!-- UMLRM0191 -->
<g id="node1" class="node">
<title>UMLRM0191</title>
<polygon fill="none" stroke="red" points="133,-351 2,-351 2,-313 133,-313 133,-351"/>
<text text-anchor="middle" x="67.5" y="-335.8" font-family="Times New Roman,serif" font-size="14.00">Dracula, émission</text>
<text text-anchor="middle" x="67.5" y="-320.8" font-family="Times New Roman,serif" font-size="14.00">radiophonique, 1938</text>
</g>
<!-- UMLRM0192 -->
<g id="node2" class="node">
<title>UMLRM0192</title>
<polygon fill="none" stroke="black" points="135,-262 0,-262 0,-179 135,-179 135,-262"/>
<text text-anchor="middle" x="67.5" y="-246.8" font-family="Times New Roman,serif" font-size="14.00">Dracula, émission</text>
<text text-anchor="middle" x="67.5" y="-231.8" font-family="Times New Roman,serif" font-size="14.00">radiophonique, 1938,</text>
<text text-anchor="middle" x="67.5" y="-216.8" font-family="Times New Roman,serif" font-size="14.00">Anglais, Parole</text>
<text text-anchor="middle" x="67.5" y="-201.8" font-family="Times New Roman,serif" font-size="14.00">énoncée. Musique</text>
<text text-anchor="middle" x="67.5" y="-186.8" font-family="Times New Roman,serif" font-size="14.00">exécutée</text>
</g>
<!-- UMLRM0192&#45;&gt;UMLRM0191 -->
<g id="edge1" class="edge">
<title>UMLRM0192&#45;&gt;UMLRM0191</title>
<path fill="none" stroke="black" d="M67.5,-262.27C67.5,-275.23 67.5,-289.3 67.5,-301.31"/>
<polygon fill="black" stroke="black" points="64,-301.01 67.5,-311.01 71,-301.01 64,-301.01"/>
<text text-anchor="middle" x="107.5" y="-283.8" font-family="Times New Roman,serif" font-size="14.00">Expression de</text>
</g>
<!-- UMLRM0193 -->
<g id="node3" class="node">
<title>UMLRM0193</title>
<polygon fill="none" stroke="black" points="108,-128 27,-128 27,0 108,0 108,-128"/>
<text text-anchor="middle" x="67.5" y="-112.8" font-family="Times New Roman,serif" font-size="14.00">Dracula,</text>
<text text-anchor="middle" x="67.5" y="-97.8" font-family="Times New Roman,serif" font-size="14.00">starring</text>
<text text-anchor="middle" x="67.5" y="-82.8" font-family="Times New Roman,serif" font-size="14.00">Orson</text>
<text text-anchor="middle" x="67.5" y="-67.8" font-family="Times New Roman,serif" font-size="14.00">Welles,</text>
<text text-anchor="middle" x="67.5" y="-52.8" font-family="Times New Roman,serif" font-size="14.00">Radio</text>
<text text-anchor="middle" x="67.5" y="-37.8" font-family="Times New Roman,serif" font-size="14.00">spirits, P</text>
<text text-anchor="middle" x="67.5" y="-22.8" font-family="Times New Roman,serif" font-size="14.00">2001, 1 CD</text>
<text text-anchor="middle" x="67.5" y="-7.8" font-family="Times New Roman,serif" font-size="14.00">audio</text>
</g>
<!-- UMLRM0193&#45;&gt;UMLRM0192 -->
<g id="edge2" class="edge">
<title>UMLRM0193&#45;&gt;UMLRM0192</title>
<path fill="none" stroke="black" d="M67.5,-128.29C67.5,-141.3 67.5,-154.87 67.5,-167.43"/>
<polygon fill="black" stroke="black" points="64,-167.13 67.5,-177.13 71,-167.13 64,-167.13"/>
<text text-anchor="middle" x="114" y="-149.8" font-family="Times New Roman,serif" font-size="14.00">Manifestation de</text>
</g>
</g>
</svg>
