<?xml version="1.0" encoding="UTF-8" standalone="no"?>
<!DOCTYPE svg PUBLIC "-//W3C//DTD SVG 1.1//EN"
 "http://www.w3.org/Graphics/SVG/1.1/DTD/svg11.dtd">
<!-- Generated by graphviz version 7.0.3 (20221126.0506)
 -->
<!-- Title: UMLRM0135 Pages: 1 -->
<svg width="1440pt" height="30pt"
 viewBox="0.00 0.00 1440.00 29.53" xmlns="http://www.w3.org/2000/svg" xmlns:xlink="http://www.w3.org/1999/xlink">
<g id="graph0" class="graph" transform="scale(0.671131 0.671131) rotate(0) translate(4 40)">
<title>UMLRM0135</title>
<polygon fill="white" stroke="none" points="-4,4 -4,-40 2141.63,-40 2141.63,4 -4,4"/>
<!-- UMLRM0135 -->
<g id="node1" class="node">
<title>UMLRM0135</title>
<ellipse fill="none" stroke="black" cx="157.29" cy="-18" rx="157.07" ry="18"/>
<text text-anchor="middle" x="157.29" y="-14.3" font-family="Times New Roman,serif" font-size="14.00">Dracula: pages from a virgin&#39;s diary, film</text>
</g>
<!-- UMLRM0136 -->
<g id="node2" class="node">
<title>UMLRM0136</title>
<ellipse fill="none" stroke="black" cx="590.46" cy="-18" rx="159.77" ry="18"/>
<text text-anchor="middle" x="590.46" y="-14.3" font-family="Times New Roman,serif" font-size="14.00">Dracula : pages from a virgin&#39;s diary, film</text>
</g>
<!-- UMLRM0135&#45;&gt;UMLRM0136 -->
<g id="edge1" class="edge">
<title>UMLRM0135&#45;&gt;UMLRM0136</title>
<path fill="none" stroke="black" d="M314.56,-18C348.59,-18 384.76,-18 419.31,-18"/>
<polygon fill="black" stroke="black" points="418.95,-21.5 428.95,-18 418.95,-14.5 418.95,-21.5"/>
<text text-anchor="middle" x="372.57" y="-21.8" font-family="Times New Roman,serif" font-size="14.00">Expression de</text>
</g>
<!-- UMLRM0137 -->
<g id="node3" class="node">
<title>UMLRM0137</title>
<ellipse fill="none" stroke="black" cx="1508.49" cy="-18" rx="629.29" ry="18"/>
<text text-anchor="middle" x="1508.49" y="-14.3" font-family="Times New Roman,serif" font-size="14.00">Dracula, un film de Guy Maddin, [réalisateur], ED distribution &#45; ED distribution, [DL 2005], 1 DVD vidéo, monoface simple couche, PAL, surround (Dolby), toutes zones</text>
</g>
<!-- UMLRM0136&#45;&gt;UMLRM0137 -->
<g id="edge2" class="edge">
<title>UMLRM0136&#45;&gt;UMLRM0137</title>
<path fill="none" stroke="black" d="M750.49,-18C785.89,-18 825.51,-18 867.57,-18"/>
<polygon fill="black" stroke="black" points="867.39,-21.5 877.39,-18 867.39,-14.5 867.39,-21.5"/>
<text text-anchor="middle" x="814.84" y="-21.8" font-family="Times New Roman,serif" font-size="14.00">Manifestation de</text>
</g>
</g>
</svg>
