<?xml version="1.0" encoding="UTF-8" standalone="no"?>
<!DOCTYPE svg PUBLIC "-//W3C//DTD SVG 1.1//EN"
 "http://www.w3.org/Graphics/SVG/1.1/DTD/svg11.dtd">
<!-- Generated by graphviz version 7.0.3 (20221126.0506)
 -->
<!-- Title: UMLRM0105 Pages: 1 -->
<svg width="1440pt" height="69pt"
 viewBox="0.00 0.00 1440.00 69.16" xmlns="http://www.w3.org/2000/svg" xmlns:xlink="http://www.w3.org/1999/xlink">
<g id="graph0" class="graph" transform="scale(0.705764 0.705764) rotate(0) translate(4 94)">
<title>UMLRM0105</title>
<polygon fill="white" stroke="none" points="-4,4 -4,-94 2036.34,-94 2036.34,4 -4,4"/>
<!-- UMLRM0105 -->
<g id="node1" class="node">
<title>UMLRM0105</title>
<ellipse fill="none" stroke="black" cx="1886.1" cy="-45" rx="146.47" ry="18"/>
<text text-anchor="middle" x="1886.1" y="-41.3" font-family="Times New Roman,serif" font-size="14.00">Dracula has risen from the grave, film</text>
</g>
<!-- UMLRM0106 -->
<g id="node2" class="node">
<title>UMLRM0106</title>
<ellipse fill="none" stroke="black" cx="1477.63" cy="-72" rx="146.47" ry="18"/>
<text text-anchor="middle" x="1477.63" y="-68.3" font-family="Times New Roman,serif" font-size="14.00">Dracula has risen from the grave, film</text>
</g>
<!-- UMLRM0106&#45;&gt;UMLRM0105 -->
<g id="edge1" class="edge">
<title>UMLRM0106&#45;&gt;UMLRM0105</title>
<path fill="none" stroke="black" d="M1607.8,-63.42C1651.32,-60.53 1700.08,-57.29 1744.44,-54.34"/>
<polygon fill="black" stroke="black" points="1744.67,-57.84 1754.41,-53.68 1744.2,-50.85 1744.67,-57.84"/>
<text text-anchor="middle" x="1681.87" y="-63.8" font-family="Times New Roman,serif" font-size="14.00">Expression de</text>
</g>
<!-- UMLRM0107 -->
<g id="node3" class="node">
<title>UMLRM0107</title>
<ellipse fill="none" stroke="black" cx="601.2" cy="-72" rx="601.39" ry="18"/>
<text text-anchor="middle" x="601.2" y="-68.3" font-family="Times New Roman,serif" font-size="14.00">Dracula has risen from the grave‎, starring Christopher Lee, Rupert Davies, Warner home video &#45; Warner home video France, [1995], 1 cassette vidéo, VHS, NTSC</text>
</g>
<!-- UMLRM0107&#45;&gt;UMLRM0106 -->
<g id="edge2" class="edge">
<title>UMLRM0107&#45;&gt;UMLRM0106</title>
<path fill="none" stroke="black" d="M1202.95,-72C1244.83,-72 1284.36,-72 1319.68,-72"/>
<polygon fill="black" stroke="black" points="1319.48,-75.5 1329.48,-72 1319.48,-68.5 1319.48,-75.5"/>
<text text-anchor="middle" x="1266.89" y="-75.8" font-family="Times New Roman,serif" font-size="14.00">Manifestation de</text>
</g>
<!-- UMLRM0181 -->
<g id="node4" class="node">
<title>UMLRM0181</title>
<ellipse fill="none" stroke="black" cx="1477.63" cy="-18" rx="146.47" ry="18"/>
<text text-anchor="middle" x="1477.63" y="-14.3" font-family="Times New Roman,serif" font-size="14.00">Dracula has risen from the grave, film</text>
</g>
<!-- UMLRM0181&#45;&gt;UMLRM0105 -->
<g id="edge3" class="edge">
<title>UMLRM0181&#45;&gt;UMLRM0105</title>
<path fill="none" stroke="black" d="M1607.8,-26.58C1651.32,-29.47 1700.08,-32.71 1744.44,-35.66"/>
<polygon fill="black" stroke="black" points="1744.2,-39.15 1754.41,-36.32 1744.67,-32.16 1744.2,-39.15"/>
<text text-anchor="middle" x="1681.87" y="-36.8" font-family="Times New Roman,serif" font-size="14.00">Expression de</text>
</g>
<!-- UMLRM0182 -->
<g id="node5" class="node">
<title>UMLRM0182</title>
<ellipse fill="none" stroke="black" cx="601.2" cy="-18" rx="595.99" ry="18"/>
<text text-anchor="middle" x="601.2" y="-14.3" font-family="Times New Roman,serif" font-size="14.00">Dracula et les femmes, avec Christopher Lee, Rupert Davies, Warner home video France &#45; Warner home video France, DL 1985, 1 cassette vidéo, VHS, SECAM</text>
</g>
<!-- UMLRM0182&#45;&gt;UMLRM0181 -->
<g id="edge4" class="edge">
<title>UMLRM0182&#45;&gt;UMLRM0181</title>
<path fill="none" stroke="black" d="M1197.55,-18C1241.4,-18 1282.79,-18 1319.61,-18"/>
<polygon fill="black" stroke="black" points="1319.37,-21.5 1329.37,-18 1319.37,-14.5 1319.37,-21.5"/>
<text text-anchor="middle" x="1266.89" y="-21.8" font-family="Times New Roman,serif" font-size="14.00">Manifestation de</text>
</g>
</g>
</svg>
