<?xml version="1.0" encoding="UTF-8" standalone="no"?>
<!DOCTYPE svg PUBLIC "-//W3C//DTD SVG 1.1//EN"
 "http://www.w3.org/Graphics/SVG/1.1/DTD/svg11.dtd">
<!-- Generated by graphviz version 7.0.3 (20221126.0506)
 -->
<!-- Title: UMLRM0132 Pages: 1 -->
<svg width="1440pt" height="34pt"
 viewBox="0.00 0.00 1440.00 33.86" xmlns="http://www.w3.org/2000/svg" xmlns:xlink="http://www.w3.org/1999/xlink">
<g id="graph0" class="graph" transform="scale(0.769495 0.769495) rotate(0) translate(4 40)">
<title>UMLRM0132</title>
<polygon fill="white" stroke="none" points="-4,4 -4,-40 1867.36,-40 1867.36,4 -4,4"/>
<!-- UMLRM0132 -->
<g id="node1" class="node">
<title>UMLRM0132</title>
<ellipse fill="none" stroke="black" cx="1669.02" cy="-18" rx="194.17" ry="18"/>
<text text-anchor="middle" x="1669.02" y="-14.3" font-family="Times New Roman,serif" font-size="14.00">Eickhoff, Stefan, Max Schreck : Gespenstertheater</text>
</g>
<!-- UMLRM0133 -->
<g id="node2" class="node">
<title>UMLRM0133</title>
<ellipse fill="none" stroke="black" cx="1120.81" cy="-18" rx="237.76" ry="18"/>
<text text-anchor="middle" x="1120.81" y="-14.3" font-family="Times New Roman,serif" font-size="14.00">Eickhoff, Stefan, Max Schreck : Gespenstertheater, Texte noté</text>
</g>
<!-- UMLRM0133&#45;&gt;UMLRM0132 -->
<g id="edge1" class="edge">
<title>UMLRM0133&#45;&gt;UMLRM0132</title>
<path fill="none" stroke="black" d="M1359.01,-18C1393.67,-18 1429.11,-18 1463.06,-18"/>
<polygon fill="black" stroke="black" points="1463,-21.5 1473,-18 1463,-14.5 1463,-21.5"/>
<text text-anchor="middle" x="1416.69" y="-21.8" font-family="Times New Roman,serif" font-size="14.00">Expression de</text>
</g>
<!-- UMLRM0134 -->
<g id="node3" class="node">
<title>UMLRM0134</title>
<ellipse fill="none" stroke="black" cx="376.97" cy="-18" rx="376.93" ry="18"/>
<text text-anchor="middle" x="376.97" y="-14.3" font-family="Times New Roman,serif" font-size="14.00">Max Schreck, Stefan Eickhoff, Belleville, Copyright 2009, 1 volume. (575 pages), couverture illustrée</text>
</g>
<!-- UMLRM0134&#45;&gt;UMLRM0133 -->
<g id="edge2" class="edge">
<title>UMLRM0134&#45;&gt;UMLRM0133</title>
<path fill="none" stroke="black" d="M754.32,-18C794.07,-18 833.73,-18 871.48,-18"/>
<polygon fill="black" stroke="black" points="871.09,-21.5 881.09,-18 871.09,-14.5 871.09,-21.5"/>
<text text-anchor="middle" x="818.43" y="-21.8" font-family="Times New Roman,serif" font-size="14.00">Manifestation de</text>
</g>
</g>
</svg>
