<?xml version="1.0" encoding="UTF-8" standalone="no"?>
<!DOCTYPE svg PUBLIC "-//W3C//DTD SVG 1.1//EN"
 "http://www.w3.org/Graphics/SVG/1.1/DTD/svg11.dtd">
<!-- Generated by graphviz version 7.0.3 (20221126.0506)
 -->
<!-- Title: UMLRM0121 Pages: 1 -->
<svg width="241pt" height="569pt"
 viewBox="0.00 0.00 241.00 569.00" xmlns="http://www.w3.org/2000/svg" xmlns:xlink="http://www.w3.org/1999/xlink">
<g id="graph0" class="graph" transform="scale(1 1) rotate(0) translate(4 565)">
<title>UMLRM0121</title>
<polygon fill="white" stroke="none" points="-4,4 -4,-565 237,-565 237,4 -4,4"/>
<!-- UMLRM0121 -->
<g id="node1" class="node">
<title>UMLRM0121</title>
<polygon fill="none" stroke="red" points="159,-472 41,-472 41,-419 159,-419 159,-472"/>
<text text-anchor="middle" x="100" y="-456.8" font-family="Times New Roman,serif" font-size="14.00">Dracula, dead and</text>
<text text-anchor="middle" x="100" y="-441.8" font-family="Times New Roman,serif" font-size="14.00">loving it, film,</text>
<text text-anchor="middle" x="100" y="-426.8" font-family="Times New Roman,serif" font-size="14.00">Français</text>
</g>
<!-- UMLRM0120 -->
<g id="node2" class="node">
<title>UMLRM0120</title>
<polygon fill="none" stroke="black" points="159,-561 41,-561 41,-523 159,-523 159,-561"/>
<text text-anchor="middle" x="100" y="-545.8" font-family="Times New Roman,serif" font-size="14.00">Dracula, dead and</text>
<text text-anchor="middle" x="100" y="-530.8" font-family="Times New Roman,serif" font-size="14.00">loving it, film</text>
</g>
<!-- UMLRM0121&#45;&gt;UMLRM0120 -->
<g id="edge1" class="edge">
<title>UMLRM0121&#45;&gt;UMLRM0120</title>
<path fill="none" stroke="black" d="M100,-472.32C100,-484.42 100,-498.88 100,-511.41"/>
<polygon fill="black" stroke="black" points="96.5,-511.18 100,-521.18 103.5,-511.18 96.5,-511.18"/>
<text text-anchor="middle" x="140" y="-493.8" font-family="Times New Roman,serif" font-size="14.00">Expression de</text>
</g>
<!-- UMLRM0122 -->
<g id="node3" class="node">
<title>UMLRM0122</title>
<polygon fill="none" stroke="black" points="84,-368 0,-368 0,0 84,0 84,-368"/>
<text text-anchor="middle" x="42" y="-352.8" font-family="Times New Roman,serif" font-size="14.00">Dracula,</text>
<text text-anchor="middle" x="42" y="-337.8" font-family="Times New Roman,serif" font-size="14.00">mort et</text>
<text text-anchor="middle" x="42" y="-322.8" font-family="Times New Roman,serif" font-size="14.00">heureux de</text>
<text text-anchor="middle" x="42" y="-307.8" font-family="Times New Roman,serif" font-size="14.00">l’être, un</text>
<text text-anchor="middle" x="42" y="-292.8" font-family="Times New Roman,serif" font-size="14.00">film de</text>
<text text-anchor="middle" x="42" y="-277.8" font-family="Times New Roman,serif" font-size="14.00">Mel</text>
<text text-anchor="middle" x="42" y="-262.8" font-family="Times New Roman,serif" font-size="14.00">Brooks,</text>
<text text-anchor="middle" x="42" y="-247.8" font-family="Times New Roman,serif" font-size="14.00">Gaumont</text>
<text text-anchor="middle" x="42" y="-232.8" font-family="Times New Roman,serif" font-size="14.00">vidéo &#45;</text>
<text text-anchor="middle" x="42" y="-217.8" font-family="Times New Roman,serif" font-size="14.00">Paramount</text>
<text text-anchor="middle" x="42" y="-202.8" font-family="Times New Roman,serif" font-size="14.00">home enter</text>
<text text-anchor="middle" x="42" y="-187.8" font-family="Times New Roman,serif" font-size="14.00">tainment,</text>
<text text-anchor="middle" x="42" y="-172.8" font-family="Times New Roman,serif" font-size="14.00">2009, 1</text>
<text text-anchor="middle" x="42" y="-157.8" font-family="Times New Roman,serif" font-size="14.00">DVD vidéo,</text>
<text text-anchor="middle" x="42" y="-142.8" font-family="Times New Roman,serif" font-size="14.00">monoface</text>
<text text-anchor="middle" x="42" y="-127.8" font-family="Times New Roman,serif" font-size="14.00">double</text>
<text text-anchor="middle" x="42" y="-112.8" font-family="Times New Roman,serif" font-size="14.00">couche,</text>
<text text-anchor="middle" x="42" y="-97.8" font-family="Times New Roman,serif" font-size="14.00">16/9</text>
<text text-anchor="middle" x="42" y="-82.8" font-family="Times New Roman,serif" font-size="14.00">compatible</text>
<text text-anchor="middle" x="42" y="-67.8" font-family="Times New Roman,serif" font-size="14.00">3/4, PAL,</text>
<text text-anchor="middle" x="42" y="-52.8" font-family="Times New Roman,serif" font-size="14.00">Dolby</text>
<text text-anchor="middle" x="42" y="-37.8" font-family="Times New Roman,serif" font-size="14.00">surround</text>
<text text-anchor="middle" x="42" y="-22.8" font-family="Times New Roman,serif" font-size="14.00">2.0, zone</text>
<text text-anchor="middle" x="42" y="-7.8" font-family="Times New Roman,serif" font-size="14.00">2</text>
</g>
<!-- UMLRM0122&#45;&gt;UMLRM0121 -->
<g id="edge2" class="edge">
<title>UMLRM0122&#45;&gt;UMLRM0121</title>
<path fill="none" stroke="black" d="M31.03,-368.42C33.94,-379.72 37.86,-390.68 43,-401 44.64,-404.29 46.65,-407.4 48.94,-410.32"/>
<polygon fill="black" stroke="black" points="46.13,-412.44 55.48,-417.43 51.29,-407.7 46.13,-412.44"/>
<text text-anchor="middle" x="89.5" y="-389.8" font-family="Times New Roman,serif" font-size="14.00">Manifestation de</text>
</g>
<!-- UMLRM0190 -->
<g id="node4" class="node">
<title>UMLRM0190</title>
<polygon fill="none" stroke="black" points="200,-338 116,-338 116,-30 200,-30 200,-338"/>
<text text-anchor="middle" x="158" y="-322.8" font-family="Times New Roman,serif" font-size="14.00">Mel</text>
<text text-anchor="middle" x="158" y="-307.8" font-family="Times New Roman,serif" font-size="14.00">Brooks,</text>
<text text-anchor="middle" x="158" y="-292.8" font-family="Times New Roman,serif" font-size="14.00">Gaumont</text>
<text text-anchor="middle" x="158" y="-277.8" font-family="Times New Roman,serif" font-size="14.00">vidéo &#45;</text>
<text text-anchor="middle" x="158" y="-262.8" font-family="Times New Roman,serif" font-size="14.00">Paramount</text>
<text text-anchor="middle" x="158" y="-247.8" font-family="Times New Roman,serif" font-size="14.00">home enter</text>
<text text-anchor="middle" x="158" y="-232.8" font-family="Times New Roman,serif" font-size="14.00">tainment,</text>
<text text-anchor="middle" x="158" y="-217.8" font-family="Times New Roman,serif" font-size="14.00">[2015], 2</text>
<text text-anchor="middle" x="158" y="-202.8" font-family="Times New Roman,serif" font-size="14.00">DVD vidéo,</text>
<text text-anchor="middle" x="158" y="-187.8" font-family="Times New Roman,serif" font-size="14.00">monoface</text>
<text text-anchor="middle" x="158" y="-172.8" font-family="Times New Roman,serif" font-size="14.00">double</text>
<text text-anchor="middle" x="158" y="-157.8" font-family="Times New Roman,serif" font-size="14.00">couche,</text>
<text text-anchor="middle" x="158" y="-142.8" font-family="Times New Roman,serif" font-size="14.00">16/9</text>
<text text-anchor="middle" x="158" y="-127.8" font-family="Times New Roman,serif" font-size="14.00">compatible</text>
<text text-anchor="middle" x="158" y="-112.8" font-family="Times New Roman,serif" font-size="14.00">3/4, PAL,</text>
<text text-anchor="middle" x="158" y="-97.8" font-family="Times New Roman,serif" font-size="14.00">Dolby</text>
<text text-anchor="middle" x="158" y="-82.8" font-family="Times New Roman,serif" font-size="14.00">surround</text>
<text text-anchor="middle" x="158" y="-67.8" font-family="Times New Roman,serif" font-size="14.00">2.0,</text>
<text text-anchor="middle" x="158" y="-52.8" font-family="Times New Roman,serif" font-size="14.00">toutes</text>
<text text-anchor="middle" x="158" y="-37.8" font-family="Times New Roman,serif" font-size="14.00">zones</text>
</g>
<!-- UMLRM0190&#45;&gt;UMLRM0121 -->
<g id="edge3" class="edge">
<title>UMLRM0190&#45;&gt;UMLRM0121</title>
<path fill="none" stroke="black" d="M153.72,-338.29C149.89,-359.86 144.22,-381.35 136,-401 134.83,-403.79 133.43,-406.53 131.85,-409.21"/>
<polygon fill="black" stroke="black" points="129.1,-407.02 126.41,-417.27 134.91,-410.94 129.1,-407.02"/>
<text text-anchor="middle" x="186.5" y="-389.8" font-family="Times New Roman,serif" font-size="14.00">Manifestation de</text>
</g>
</g>
</svg>
