<?xml version="1.0" encoding="UTF-8" standalone="no"?>
<!DOCTYPE svg PUBLIC "-//W3C//DTD SVG 1.1//EN"
 "http://www.w3.org/Graphics/SVG/1.1/DTD/svg11.dtd">
<!-- Generated by graphviz version 7.0.3 (20221126.0506)
 -->
<!-- Title: UMLRM0114 Pages: 1 -->
<svg width="1440pt" height="30pt"
 viewBox="0.00 0.00 1440.00 29.67" xmlns="http://www.w3.org/2000/svg" xmlns:xlink="http://www.w3.org/1999/xlink">
<g id="graph0" class="graph" transform="scale(0.674399 0.674399) rotate(0) translate(4 40)">
<title>UMLRM0114</title>
<polygon fill="white" stroke="none" points="-4,4 -4,-40 2131.23,-40 2131.23,4 -4,4"/>
<!-- UMLRM0114 -->
<g id="node1" class="node">
<title>UMLRM0114</title>
<ellipse fill="none" stroke="black" cx="1906.25" cy="-18" rx="220.96" ry="18"/>
<text text-anchor="middle" x="1906.25" y="-14.3" font-family="Times New Roman,serif" font-size="14.00">Stoker, Dacre &#45; Holt, Ian (1964&#45;….), Dracula, the un&#45;dead</text>
</g>
<!-- UMLRM0115 -->
<g id="node2" class="node">
<title>UMLRM0115</title>
<ellipse fill="none" stroke="black" cx="1304.75" cy="-18" rx="264.55" ry="18"/>
<text text-anchor="middle" x="1304.75" y="-14.3" font-family="Times New Roman,serif" font-size="14.00">Stoker, Dacre &#45; Holt, Ian (1964&#45;….), Dracula, the un&#45;dead, Texte noté</text>
</g>
<!-- UMLRM0115&#45;&gt;UMLRM0114 -->
<g id="edge1" class="edge">
<title>UMLRM0115&#45;&gt;UMLRM0114</title>
<path fill="none" stroke="black" d="M1569.57,-18C1604.14,-18 1639.37,-18 1673.36,-18"/>
<polygon fill="black" stroke="black" points="1673.32,-21.5 1683.32,-18 1673.32,-14.5 1673.32,-21.5"/>
<text text-anchor="middle" x="1627.27" y="-21.8" font-family="Times New Roman,serif" font-size="14.00">Expression de</text>
</g>
<!-- UMLRM0116 -->
<g id="node3" class="node">
<title>UMLRM0116</title>
<ellipse fill="none" stroke="black" cx="455.61" cy="-18" rx="455.72" ry="18"/>
<text text-anchor="middle" x="455.61" y="-14.3" font-family="Times New Roman,serif" font-size="14.00">Dracula l&#39;immortel, Dacre Stoker et Ian Holt, Michel Lafon, DL 2009, 1 volume (505 pages), couverture illustrée en couleur</text>
</g>
<!-- UMLRM0116&#45;&gt;UMLRM0115 -->
<g id="edge2" class="edge">
<title>UMLRM0116&#45;&gt;UMLRM0115</title>
<path fill="none" stroke="black" d="M911.79,-18C951.58,-18 991,-18 1028.62,-18"/>
<polygon fill="black" stroke="black" points="1028.2,-21.5 1038.2,-18 1028.2,-14.5 1028.2,-21.5"/>
<text text-anchor="middle" x="975.72" y="-21.8" font-family="Times New Roman,serif" font-size="14.00">Manifestation de</text>
</g>
</g>
</svg>
