<?xml version="1.0" encoding="UTF-8" standalone="no"?>
<!DOCTYPE svg PUBLIC "-//W3C//DTD SVG 1.1//EN"
 "http://www.w3.org/Graphics/SVG/1.1/DTD/svg11.dtd">
<!-- Generated by graphviz version 7.0.3 (20221126.0506)
 -->
<!-- Title: UMLRM0090 Pages: 1 -->
<svg width="1440pt" height="81pt"
 viewBox="0.00 0.00 1440.00 81.34" xmlns="http://www.w3.org/2000/svg" xmlns:xlink="http://www.w3.org/1999/xlink">
<g id="graph0" class="graph" transform="scale(0.830034 0.830034) rotate(0) translate(4 94)">
<title>UMLRM0090</title>
<polygon fill="white" stroke="none" points="-4,4 -4,-94 1730.87,-94 1730.87,4 -4,4"/>
<!-- UMLRM0090 -->
<g id="node1" class="node">
<title>UMLRM0090</title>
<ellipse fill="none" stroke="black" cx="1563.73" cy="-45" rx="163.27" ry="18"/>
<text text-anchor="middle" x="1563.73" y="-41.3" font-family="Times New Roman,serif" font-size="14.00">Nosferatu, the wrath of Malachi, jeu vidéo</text>
</g>
<!-- UMLRM0091 -->
<g id="node2" class="node">
<title>UMLRM0091</title>
<ellipse fill="none" stroke="black" cx="1121.46" cy="-45" rx="163.27" ry="18"/>
<text text-anchor="middle" x="1121.46" y="-41.3" font-family="Times New Roman,serif" font-size="14.00">Nosferatu, the wrath of Malachi, jeu vidéo</text>
</g>
<!-- UMLRM0091&#45;&gt;UMLRM0090 -->
<g id="edge1" class="edge">
<title>UMLRM0091&#45;&gt;UMLRM0090</title>
<path fill="none" stroke="black" d="M1285.15,-45C1318.82,-45 1354.42,-45 1388.49,-45"/>
<polygon fill="black" stroke="black" points="1388.46,-48.5 1398.46,-45 1388.46,-41.5 1388.46,-48.5"/>
<text text-anchor="middle" x="1342.6" y="-48.8" font-family="Times New Roman,serif" font-size="14.00">Expression de</text>
</g>
<!-- UMLRM0092 -->
<g id="node3" class="node">
<title>UMLRM0092</title>
<ellipse fill="none" stroke="black" cx="414.66" cy="-72" rx="414.83" ry="18"/>
<text text-anchor="middle" x="414.66" y="-68.3" font-family="Times New Roman,serif" font-size="14.00">Nosferatu, Idol FX AB, Pan vision, Eidos &#45; Mindscape, [2005] &#45; 2005, 1 disque optique numérique (CD&#45;ROM)</text>
</g>
<!-- UMLRM0092&#45;&gt;UMLRM0091 -->
<g id="edge2" class="edge">
<title>UMLRM0092&#45;&gt;UMLRM0091</title>
<path fill="none" stroke="black" d="M729.93,-59.96C807.65,-56.98 887.87,-53.91 955.23,-51.33"/>
<polygon fill="black" stroke="black" points="954.99,-54.84 964.85,-50.96 954.72,-47.85 954.99,-54.84"/>
<text text-anchor="middle" x="893.83" y="-58.8" font-family="Times New Roman,serif" font-size="14.00">Manifestation de</text>
</g>
<!-- UMLRM0095 -->
<g id="node4" class="node">
<title>UMLRM0095</title>
<ellipse fill="none" stroke="black" cx="414.66" cy="-18" rx="400.23" ry="18"/>
<text text-anchor="middle" x="414.66" y="-14.3" font-family="Times New Roman,serif" font-size="14.00">Nosferatu, Idol FX AB, Pan vision, Neo publishing, [2003] &#45; 2003, 1 disque optique numérique (CD&#45;ROM)</text>
</g>
<!-- UMLRM0095&#45;&gt;UMLRM0091 -->
<g id="edge3" class="edge">
<title>UMLRM0095&#45;&gt;UMLRM0091</title>
<path fill="none" stroke="black" d="M772.04,-26.37C828.36,-28.21 885.94,-30.41 940.33,-33 950.33,-33.48 960.64,-34.02 971.02,-34.61"/>
<polygon fill="black" stroke="black" points="970.62,-38.09 980.8,-35.17 971.02,-31.1 970.62,-38.09"/>
<text text-anchor="middle" x="893.83" y="-36.8" font-family="Times New Roman,serif" font-size="14.00">Manifestation de</text>
</g>
</g>
</svg>
