<?xml version="1.0" encoding="UTF-8" standalone="no"?>
<!DOCTYPE svg PUBLIC "-//W3C//DTD SVG 1.1//EN"
 "http://www.w3.org/Graphics/SVG/1.1/DTD/svg11.dtd">
<!-- Generated by graphviz version 7.0.3 (20221126.0506)
 -->
<!-- Title: UMLRM0138 Pages: 1 -->
<svg width="1440pt" height="23pt"
 viewBox="0.00 0.00 1440.00 22.79" xmlns="http://www.w3.org/2000/svg" xmlns:xlink="http://www.w3.org/1999/xlink">
<g id="graph0" class="graph" transform="scale(0.51799 0.51799) rotate(0) translate(4 40)">
<title>UMLRM0138</title>
<polygon fill="white" stroke="none" points="-4,4 -4,-40 2775.98,-40 2775.98,4 -4,4"/>
<!-- UMLRM0138 -->
<g id="node1" class="node">
<title>UMLRM0138</title>
<ellipse fill="none" stroke="black" cx="2379.41" cy="-18" rx="392.63" ry="18"/>
<text text-anchor="middle" x="2379.41" y="-14.3" font-family="Times New Roman,serif" font-size="14.00">Jeanneteau, Daniel (1963&#45;....) &#45; Deratte, Laure (19..&#45;....), [Maquette de décor en volume pour &quot;Nosferatu&quot;]</text>
</g>
<!-- UMLRM0139 -->
<g id="node2" class="node">
<title>UMLRM0139</title>
<ellipse fill="none" stroke="black" cx="1436.03" cy="-18" rx="434.62" ry="18"/>
<text text-anchor="middle" x="1436.03" y="-14.3" font-family="Times New Roman,serif" font-size="14.00">Jeanneteau, Daniel (1963&#45;....) &#45; Deratte, Laure (19..&#45;....), [Maquette de décor en volume pour &quot;Nosferatu&quot;], Image fixe</text>
</g>
<!-- UMLRM0139&#45;&gt;UMLRM0138 -->
<g id="edge1" class="edge">
<title>UMLRM0139&#45;&gt;UMLRM0138</title>
<path fill="none" stroke="black" d="M1870.87,-18C1905.69,-18 1940.78,-18 1975.37,-18"/>
<polygon fill="black" stroke="black" points="1975.07,-21.5 1985.07,-18 1975.07,-14.5 1975.07,-21.5"/>
<text text-anchor="middle" x="1928.85" y="-21.8" font-family="Times New Roman,serif" font-size="14.00">Expression de</text>
</g>
<!-- UMLRM0140 -->
<g id="node3" class="node">
<title>UMLRM0140</title>
<ellipse fill="none" stroke="black" cx="436.11" cy="-18" rx="436.22" ry="18"/>
<text text-anchor="middle" x="436.11" y="-14.3" font-family="Times New Roman,serif" font-size="14.00">[Maquette de décor en volume pour &quot;Nosferatu&quot;], [Daniel Jeanneteau et Laure Deratte], [2001], 1 maquette en volume</text>
</g>
<!-- UMLRM0140&#45;&gt;UMLRM0139 -->
<g id="edge2" class="edge">
<title>UMLRM0140&#45;&gt;UMLRM0139</title>
<path fill="none" stroke="black" d="M872.64,-18C911.45,-18 950.78,-18 989.68,-18"/>
<polygon fill="black" stroke="black" points="989.67,-21.5 999.67,-18 989.67,-14.5 989.67,-21.5"/>
<text text-anchor="middle" x="936.72" y="-21.8" font-family="Times New Roman,serif" font-size="14.00">Manifestation de</text>
</g>
</g>
</svg>
