<?xml version="1.0" encoding="UTF-8" standalone="no"?>
<!DOCTYPE svg PUBLIC "-//W3C//DTD SVG 1.1//EN"
 "http://www.w3.org/Graphics/SVG/1.1/DTD/svg11.dtd">
<!-- Generated by graphviz version 7.0.3 (20221126.0506)
 -->
<!-- Title: UMLRM0084 Pages: 1 -->
<svg width="1440pt" height="35pt"
 viewBox="0.00 0.00 1440.00 35.36" xmlns="http://www.w3.org/2000/svg" xmlns:xlink="http://www.w3.org/1999/xlink">
<g id="graph0" class="graph" transform="scale(0.803543 0.803543) rotate(0) translate(4 40)">
<title>UMLRM0084</title>
<polygon fill="white" stroke="none" points="-4,4 -4,-40 1788.06,-40 1788.06,4 -4,4"/>
<!-- UMLRM0084 -->
<g id="node1" class="node">
<title>UMLRM0084</title>
<ellipse fill="none" stroke="black" cx="1650.18" cy="-18" rx="133.78" ry="18"/>
<text text-anchor="middle" x="1650.18" y="-14.3" font-family="Times New Roman,serif" font-size="14.00">Cazacu, Matei (1946&#45;....), Dracula</text>
</g>
<!-- UMLRM0085 -->
<g id="node2" class="node">
<title>UMLRM0085</title>
<ellipse fill="none" stroke="black" cx="1223.5" cy="-18" rx="176.57" ry="18"/>
<text text-anchor="middle" x="1223.5" y="-14.3" font-family="Times New Roman,serif" font-size="14.00">Cazacu, Matei (1946&#45;....), Dracula, Texte noté</text>
</g>
<!-- UMLRM0085&#45;&gt;UMLRM0084 -->
<g id="edge1" class="edge">
<title>UMLRM0085&#45;&gt;UMLRM0084</title>
<path fill="none" stroke="black" d="M1400.3,-18C1435.05,-18 1471.14,-18 1504.71,-18"/>
<polygon fill="black" stroke="black" points="1504.48,-21.5 1514.48,-18 1504.48,-14.5 1504.48,-21.5"/>
<text text-anchor="middle" x="1458.29" y="-21.8" font-family="Times New Roman,serif" font-size="14.00">Expression de</text>
</g>
<!-- UMLRM0086 -->
<g id="node3" class="node">
<title>UMLRM0086</title>
<ellipse fill="none" stroke="black" cx="458.86" cy="-18" rx="458.72" ry="18"/>
<text text-anchor="middle" x="458.86" y="-14.3" font-family="Times New Roman,serif" font-size="14.00">Dracula, Matei Cazacu, Tallandier &#45; Normandie roto impression, 2011, 1 volume (497 pages), couverture illustrée en couleur</text>
</g>
<!-- UMLRM0086&#45;&gt;UMLRM0085 -->
<g id="edge2" class="edge">
<title>UMLRM0086&#45;&gt;UMLRM0085</title>
<path fill="none" stroke="black" d="M918.07,-18C959.04,-18 998.77,-18 1035.27,-18"/>
<polygon fill="black" stroke="black" points="1034.98,-21.5 1044.98,-18 1034.98,-14.5 1034.98,-21.5"/>
<text text-anchor="middle" x="982.22" y="-21.8" font-family="Times New Roman,serif" font-size="14.00">Manifestation de</text>
</g>
</g>
</svg>
