<?xml version="1.0" encoding="UTF-8" standalone="no"?>
<!DOCTYPE svg PUBLIC "-//W3C//DTD SVG 1.1//EN"
 "http://www.w3.org/Graphics/SVG/1.1/DTD/svg11.dtd">
<!-- Generated by graphviz version 7.0.3 (20221126.0506)
 -->
<!-- Title: UMLRM0156 Pages: 1 -->
<svg width="1440pt" height="78pt"
 viewBox="0.00 0.00 1440.00 77.73" xmlns="http://www.w3.org/2000/svg" xmlns:xlink="http://www.w3.org/1999/xlink">
<g id="graph0" class="graph" transform="scale(0.793187 0.793187) rotate(0) translate(4 94)">
<title>UMLRM0156</title>
<polygon fill="white" stroke="none" points="-4,4 -4,-94 1811.46,-94 1811.46,4 -4,4"/>
<!-- UMLRM0156 -->
<g id="node1" class="node">
<title>UMLRM0156</title>
<ellipse fill="none" stroke="black" cx="1679.42" cy="-45" rx="128.08" ry="18"/>
<text text-anchor="middle" x="1679.42" y="-41.3" font-family="Times New Roman,serif" font-size="14.00">Glass, Philip (1937&#45;....), Dracula</text>
</g>
<!-- UMLRM0157 -->
<g id="node2" class="node">
<title>UMLRM0157</title>
<ellipse fill="none" stroke="black" cx="1237.8" cy="-45" rx="197.66" ry="18"/>
<text text-anchor="middle" x="1237.8" y="-41.3" font-family="Times New Roman,serif" font-size="14.00">Glass, Philip (1937&#45;....), Dracula, Musique exécutée</text>
</g>
<!-- UMLRM0157&#45;&gt;UMLRM0156 -->
<g id="edge1" class="edge">
<title>UMLRM0157&#45;&gt;UMLRM0156</title>
<path fill="none" stroke="black" d="M1435.79,-45C1470.88,-45 1506.76,-45 1539.8,-45"/>
<polygon fill="black" stroke="black" points="1539.37,-48.5 1549.37,-45 1539.37,-41.5 1539.37,-48.5"/>
<text text-anchor="middle" x="1493.38" y="-48.8" font-family="Times New Roman,serif" font-size="14.00">Expression de</text>
</g>
<!-- UMLRM0158 -->
<g id="node3" class="node">
<title>UMLRM0158</title>
<ellipse fill="none" stroke="black" cx="455.61" cy="-72" rx="407.53" ry="18"/>
<text text-anchor="middle" x="455.61" y="-68.3" font-family="Times New Roman,serif" font-size="14.00">Dracula, music by Philip Glass, [WEA Europe] &#45; [distrib. Warner music France], [P 1999], 1 disque compact</text>
</g>
<!-- UMLRM0158&#45;&gt;UMLRM0157 -->
<g id="edge2" class="edge">
<title>UMLRM0158&#45;&gt;UMLRM0157</title>
<path fill="none" stroke="black" d="M780.14,-60.8C868.67,-57.74 961.9,-54.51 1040.89,-51.78"/>
<polygon fill="black" stroke="black" points="1040.55,-55.29 1050.42,-51.45 1040.31,-48.3 1040.55,-55.29"/>
<text text-anchor="middle" x="975.72" y="-58.8" font-family="Times New Roman,serif" font-size="14.00">Manifestation de</text>
</g>
<!-- UMLRM0160 -->
<g id="node4" class="node">
<title>UMLRM0160</title>
<ellipse fill="none" stroke="black" cx="455.61" cy="-18" rx="455.72" ry="18"/>
<text text-anchor="middle" x="455.61" y="-14.3" font-family="Times New Roman,serif" font-size="14.00">Dracula, Tod Browning, [réalisateur], Universal StudioCanal vidéo &#45; Universal StudioCanal vidéo, 2014 &#45; 2014, 1 BD vidéo</text>
</g>
<!-- UMLRM0160&#45;&gt;UMLRM0157 -->
<g id="edge3" class="edge">
<title>UMLRM0160&#45;&gt;UMLRM0157</title>
<path fill="none" stroke="black" d="M853.37,-27.05C910.05,-28.77 967.62,-30.75 1022.22,-33 1034.06,-33.49 1046.27,-34.04 1058.58,-34.63"/>
<polygon fill="black" stroke="black" points="1058.22,-38.12 1068.38,-35.11 1058.57,-31.13 1058.22,-38.12"/>
<text text-anchor="middle" x="975.72" y="-36.8" font-family="Times New Roman,serif" font-size="14.00">Manifestation de</text>
</g>
</g>
</svg>
