<?xml version="1.0" encoding="UTF-8" standalone="no"?>
<!DOCTYPE svg PUBLIC "-//W3C//DTD SVG 1.1//EN"
 "http://www.w3.org/Graphics/SVG/1.1/DTD/svg11.dtd">
<!-- Generated by graphviz version 7.0.3 (20221126.0506)
 -->
<!-- Title: UMLRM0195 Pages: 1 -->
<svg width="160pt" height="434pt"
 viewBox="0.00 0.00 160.00 434.00" xmlns="http://www.w3.org/2000/svg" xmlns:xlink="http://www.w3.org/1999/xlink">
<g id="graph0" class="graph" transform="scale(1 1) rotate(0) translate(4 430)">
<title>UMLRM0195</title>
<polygon fill="white" stroke="none" points="-4,4 -4,-430 156,-430 156,4 -4,4"/>
<!-- UMLRM0195 -->
<g id="node1" class="node">
<title>UMLRM0195</title>
<polygon fill="none" stroke="red" points="112.5,-426 5.5,-426 5.5,-358 112.5,-358 112.5,-426"/>
<text text-anchor="middle" x="59" y="-410.8" font-family="Times New Roman,serif" font-size="14.00">Finné, Jacques</text>
<text text-anchor="middle" x="59" y="-395.8" font-family="Times New Roman,serif" font-size="14.00">(1944&#45;….),</text>
<text text-anchor="middle" x="59" y="-380.8" font-family="Times New Roman,serif" font-size="14.00">Bibliographie de</text>
<text text-anchor="middle" x="59" y="-365.8" font-family="Times New Roman,serif" font-size="14.00">Dracula</text>
</g>
<!-- UMLRM0196 -->
<g id="node2" class="node">
<title>UMLRM0196</title>
<polygon fill="none" stroke="black" points="118,-307 0,-307 0,-224 118,-224 118,-307"/>
<text text-anchor="middle" x="59" y="-291.8" font-family="Times New Roman,serif" font-size="14.00">Finné, Jacques</text>
<text text-anchor="middle" x="59" y="-276.8" font-family="Times New Roman,serif" font-size="14.00">(1944&#45;….),</text>
<text text-anchor="middle" x="59" y="-261.8" font-family="Times New Roman,serif" font-size="14.00">Bibliographie de</text>
<text text-anchor="middle" x="59" y="-246.8" font-family="Times New Roman,serif" font-size="14.00">Dracula, Français,</text>
<text text-anchor="middle" x="59" y="-231.8" font-family="Times New Roman,serif" font-size="14.00">Texte noté</text>
</g>
<!-- UMLRM0196&#45;&gt;UMLRM0195 -->
<g id="edge1" class="edge">
<title>UMLRM0196&#45;&gt;UMLRM0195</title>
<path fill="none" stroke="black" d="M59,-307.27C59,-319.75 59,-333.56 59,-346.29"/>
<polygon fill="black" stroke="black" points="55.5,-346.11 59,-356.11 62.5,-346.11 55.5,-346.11"/>
<text text-anchor="middle" x="99" y="-328.8" font-family="Times New Roman,serif" font-size="14.00">Expression de</text>
</g>
<!-- UMLRM0197 -->
<g id="node3" class="node">
<title>UMLRM0197</title>
<polygon fill="none" stroke="black" points="100,-173 18,-173 18,0 100,0 100,-173"/>
<text text-anchor="middle" x="59" y="-157.8" font-family="Times New Roman,serif" font-size="14.00">Bibliograp</text>
<text text-anchor="middle" x="59" y="-142.8" font-family="Times New Roman,serif" font-size="14.00">hie de</text>
<text text-anchor="middle" x="59" y="-127.8" font-family="Times New Roman,serif" font-size="14.00">Dracula,</text>
<text text-anchor="middle" x="59" y="-112.8" font-family="Times New Roman,serif" font-size="14.00">Jacques</text>
<text text-anchor="middle" x="59" y="-97.8" font-family="Times New Roman,serif" font-size="14.00">Finné,</text>
<text text-anchor="middle" x="59" y="-82.8" font-family="Times New Roman,serif" font-size="14.00">L’âge</text>
<text text-anchor="middle" x="59" y="-67.8" font-family="Times New Roman,serif" font-size="14.00">d&#39;homme,</text>
<text text-anchor="middle" x="59" y="-52.8" font-family="Times New Roman,serif" font-size="14.00">Copyright</text>
<text text-anchor="middle" x="59" y="-37.8" font-family="Times New Roman,serif" font-size="14.00">1996, 1</text>
<text text-anchor="middle" x="59" y="-22.8" font-family="Times New Roman,serif" font-size="14.00">volume(215</text>
<text text-anchor="middle" x="59" y="-7.8" font-family="Times New Roman,serif" font-size="14.00">pages)</text>
</g>
<!-- UMLRM0197&#45;&gt;UMLRM0196 -->
<g id="edge2" class="edge">
<title>UMLRM0197&#45;&gt;UMLRM0196</title>
<path fill="none" stroke="black" d="M59,-173.41C59,-186.76 59,-200.19 59,-212.48"/>
<polygon fill="black" stroke="black" points="55.5,-212.36 59,-222.36 62.5,-212.36 55.5,-212.36"/>
<text text-anchor="middle" x="105.5" y="-194.8" font-family="Times New Roman,serif" font-size="14.00">Manifestation de</text>
</g>
</g>
</svg>
