<?xml version="1.0" encoding="UTF-8" standalone="no"?>
<!DOCTYPE svg PUBLIC "-//W3C//DTD SVG 1.1//EN"
 "http://www.w3.org/Graphics/SVG/1.1/DTD/svg11.dtd">
<!-- Generated by graphviz version 7.0.3 (20221126.0506)
 -->
<!-- Title: UMLRM0162 Pages: 1 -->
<svg width="162pt" height="400pt"
 viewBox="0.00 0.00 162.00 400.00" xmlns="http://www.w3.org/2000/svg" xmlns:xlink="http://www.w3.org/1999/xlink">
<g id="graph0" class="graph" transform="scale(1 1) rotate(0) translate(4 396)">
<title>UMLRM0162</title>
<polygon fill="white" stroke="none" points="-4,4 -4,-396 158,-396 158,4 -4,4"/>
<!-- UMLRM0162 -->
<g id="node1" class="node">
<title>UMLRM0162</title>
<polygon fill="none" stroke="red" points="122,-305 0,-305 0,-269 122,-269 122,-305"/>
<text text-anchor="middle" x="61" y="-283.3" font-family="Times New Roman,serif" font-size="14.00">Drácula, film, 1931</text>
</g>
<!-- UMLRM0163 -->
<g id="node2" class="node">
<title>UMLRM0163</title>
<polygon fill="none" stroke="black" points="122,-392 0,-392 0,-356 122,-356 122,-392"/>
<text text-anchor="middle" x="61" y="-370.3" font-family="Times New Roman,serif" font-size="14.00">Drácula, film, 1931</text>
</g>
<!-- UMLRM0162&#45;&gt;UMLRM0163 -->
<g id="edge1" class="edge">
<title>UMLRM0162&#45;&gt;UMLRM0163</title>
<path fill="none" stroke="black" d="M61,-305.2C61,-316.42 61,-331.33 61,-344.31"/>
<polygon fill="black" stroke="black" points="57.5,-344.02 61,-354.02 64.5,-344.02 57.5,-344.02"/>
<text text-anchor="middle" x="101" y="-326.8" font-family="Times New Roman,serif" font-size="14.00">Expression de</text>
</g>
<!-- UMLRM0160 -->
<g id="node3" class="node">
<title>UMLRM0160</title>
<polygon fill="none" stroke="black" points="102,-218 20,-218 20,0 102,0 102,-218"/>
<text text-anchor="middle" x="61" y="-202.8" font-family="Times New Roman,serif" font-size="14.00">Dracula,</text>
<text text-anchor="middle" x="61" y="-187.8" font-family="Times New Roman,serif" font-size="14.00">Tod</text>
<text text-anchor="middle" x="61" y="-172.8" font-family="Times New Roman,serif" font-size="14.00">Browning, </text>
<text text-anchor="middle" x="61" y="-157.8" font-family="Times New Roman,serif" font-size="14.00">[réalisate</text>
<text text-anchor="middle" x="61" y="-142.8" font-family="Times New Roman,serif" font-size="14.00">ur],</text>
<text text-anchor="middle" x="61" y="-127.8" font-family="Times New Roman,serif" font-size="14.00">Universal </text>
<text text-anchor="middle" x="61" y="-112.8" font-family="Times New Roman,serif" font-size="14.00">StudioCana</text>
<text text-anchor="middle" x="61" y="-97.8" font-family="Times New Roman,serif" font-size="14.00">l vidéo &#45;</text>
<text text-anchor="middle" x="61" y="-82.8" font-family="Times New Roman,serif" font-size="14.00">Universal </text>
<text text-anchor="middle" x="61" y="-67.8" font-family="Times New Roman,serif" font-size="14.00">StudioCana</text>
<text text-anchor="middle" x="61" y="-52.8" font-family="Times New Roman,serif" font-size="14.00">l vidéo,</text>
<text text-anchor="middle" x="61" y="-37.8" font-family="Times New Roman,serif" font-size="14.00">2014 &#45;</text>
<text text-anchor="middle" x="61" y="-22.8" font-family="Times New Roman,serif" font-size="14.00">2014, 1 BD</text>
<text text-anchor="middle" x="61" y="-7.8" font-family="Times New Roman,serif" font-size="14.00">vidéo</text>
</g>
<!-- UMLRM0160&#45;&gt;UMLRM0162 -->
<g id="edge2" class="edge">
<title>UMLRM0160&#45;&gt;UMLRM0162</title>
<path fill="none" stroke="black" d="M61,-218.46C61,-232.64 61,-246.08 61,-257.17"/>
<polygon fill="black" stroke="black" points="57.5,-257.11 61,-267.11 64.5,-257.11 57.5,-257.11"/>
<text text-anchor="middle" x="107.5" y="-239.8" font-family="Times New Roman,serif" font-size="14.00">Manifestation de</text>
</g>
</g>
</svg>
