<?xml version="1.0" encoding="UTF-8" standalone="no"?>
<!DOCTYPE svg PUBLIC "-//W3C//DTD SVG 1.1//EN"
 "http://www.w3.org/Graphics/SVG/1.1/DTD/svg11.dtd">
<!-- Generated by graphviz version 7.0.3 (20221126.0506)
 -->
<!-- Title: UMLRM0129 Pages: 1 -->
<svg width="361pt" height="554pt"
 viewBox="0.00 0.00 361.00 554.00" xmlns="http://www.w3.org/2000/svg" xmlns:xlink="http://www.w3.org/1999/xlink">
<g id="graph0" class="graph" transform="scale(1 1) rotate(0) translate(4 550)">
<title>UMLRM0129</title>
<polygon fill="white" stroke="none" points="-4,4 -4,-550 357,-550 357,4 -4,4"/>
<!-- UMLRM0129 -->
<g id="node1" class="node">
<title>UMLRM0129</title>
<polygon fill="none" stroke="red" points="259,-546 161,-546 161,-508 259,-508 259,-546"/>
<text text-anchor="middle" x="210" y="-530.8" font-family="Times New Roman,serif" font-size="14.00">Shadow of the</text>
<text text-anchor="middle" x="210" y="-515.8" font-family="Times New Roman,serif" font-size="14.00">vampire, film</text>
</g>
<!-- UMLRM0130 -->
<g id="node2" class="node">
<title>UMLRM0130</title>
<polygon fill="none" stroke="black" points="198,-449.5 100,-449.5 100,-396.5 198,-396.5 198,-449.5"/>
<text text-anchor="middle" x="149" y="-434.3" font-family="Times New Roman,serif" font-size="14.00">Shadow of the</text>
<text text-anchor="middle" x="149" y="-419.3" font-family="Times New Roman,serif" font-size="14.00">vampire, film,</text>
<text text-anchor="middle" x="149" y="-404.3" font-family="Times New Roman,serif" font-size="14.00">Français</text>
</g>
<!-- UMLRM0130&#45;&gt;UMLRM0129 -->
<g id="edge1" class="edge">
<title>UMLRM0130&#45;&gt;UMLRM0129</title>
<path fill="none" stroke="black" d="M151.32,-449.98C153.41,-462.82 157.4,-478.07 165,-490 167.23,-493.5 169.91,-496.81 172.85,-499.89"/>
<polygon fill="black" stroke="black" points="170.25,-502.26 179.96,-506.51 175.02,-497.13 170.25,-502.26"/>
<text text-anchor="middle" x="205" y="-478.8" font-family="Times New Roman,serif" font-size="14.00">Expression de</text>
</g>
<!-- UMLRM0131 -->
<g id="node3" class="node">
<title>UMLRM0131</title>
<polygon fill="none" stroke="black" points="82,-315.5 0,-315.5 0,-22.5 82,-22.5 82,-315.5"/>
<text text-anchor="middle" x="41" y="-300.3" font-family="Times New Roman,serif" font-size="14.00">L&#39;ombre du</text>
<text text-anchor="middle" x="41" y="-285.3" font-family="Times New Roman,serif" font-size="14.00">vampire,</text>
<text text-anchor="middle" x="41" y="-270.3" font-family="Times New Roman,serif" font-size="14.00">E. Elias</text>
<text text-anchor="middle" x="41" y="-255.3" font-family="Times New Roman,serif" font-size="14.00">Merhige, [</text>
<text text-anchor="middle" x="41" y="-240.3" font-family="Times New Roman,serif" font-size="14.00">réalisateu</text>
<text text-anchor="middle" x="41" y="-225.3" font-family="Times New Roman,serif" font-size="14.00">r], Studio</text>
<text text-anchor="middle" x="41" y="-210.3" font-family="Times New Roman,serif" font-size="14.00">Canal+ &#45;</text>
<text text-anchor="middle" x="41" y="-195.3" font-family="Times New Roman,serif" font-size="14.00">Universal</text>
<text text-anchor="middle" x="41" y="-180.3" font-family="Times New Roman,serif" font-size="14.00">pictures</text>
<text text-anchor="middle" x="41" y="-165.3" font-family="Times New Roman,serif" font-size="14.00">vidéo</text>
<text text-anchor="middle" x="41" y="-150.3" font-family="Times New Roman,serif" font-size="14.00">France SA,</text>
<text text-anchor="middle" x="41" y="-135.3" font-family="Times New Roman,serif" font-size="14.00">[DL 2001],</text>
<text text-anchor="middle" x="41" y="-120.3" font-family="Times New Roman,serif" font-size="14.00">1 cassette</text>
<text text-anchor="middle" x="41" y="-105.3" font-family="Times New Roman,serif" font-size="14.00">vidéo,</text>
<text text-anchor="middle" x="41" y="-90.3" font-family="Times New Roman,serif" font-size="14.00">VHS,</text>
<text text-anchor="middle" x="41" y="-75.3" font-family="Times New Roman,serif" font-size="14.00">SECAM,</text>
<text text-anchor="middle" x="41" y="-60.3" font-family="Times New Roman,serif" font-size="14.00">surround</text>
<text text-anchor="middle" x="41" y="-45.3" font-family="Times New Roman,serif" font-size="14.00">(Dolby),</text>
<text text-anchor="middle" x="41" y="-30.3" font-family="Times New Roman,serif" font-size="14.00">zone 2</text>
</g>
<!-- UMLRM0131&#45;&gt;UMLRM0130 -->
<g id="edge2" class="edge">
<title>UMLRM0131&#45;&gt;UMLRM0130</title>
<path fill="none" stroke="black" d="M39.01,-315.87C43.36,-335.42 50.32,-354.42 61,-371 68.1,-382.02 78.49,-390.94 89.65,-398.05"/>
<polygon fill="black" stroke="black" points="87.89,-401.07 98.29,-403.07 91.41,-395.02 87.89,-401.07"/>
<text text-anchor="middle" x="107.5" y="-359.8" font-family="Times New Roman,serif" font-size="14.00">Manifestation de</text>
</g>
<!-- UMLRM0185 -->
<g id="node4" class="node">
<title>UMLRM0185</title>
<polygon fill="none" stroke="black" points="256,-338 174,-338 174,0 256,0 256,-338"/>
<text text-anchor="middle" x="215" y="-322.8" font-family="Times New Roman,serif" font-size="14.00">L&#39;ombre du</text>
<text text-anchor="middle" x="215" y="-307.8" font-family="Times New Roman,serif" font-size="14.00">vampire,</text>
<text text-anchor="middle" x="215" y="-292.8" font-family="Times New Roman,serif" font-size="14.00">E. Elias</text>
<text text-anchor="middle" x="215" y="-277.8" font-family="Times New Roman,serif" font-size="14.00">Merhige, [</text>
<text text-anchor="middle" x="215" y="-262.8" font-family="Times New Roman,serif" font-size="14.00">réalisateu</text>
<text text-anchor="middle" x="215" y="-247.8" font-family="Times New Roman,serif" font-size="14.00">r], Studio</text>
<text text-anchor="middle" x="215" y="-232.8" font-family="Times New Roman,serif" font-size="14.00">Canal+ &#45;</text>
<text text-anchor="middle" x="215" y="-217.8" font-family="Times New Roman,serif" font-size="14.00">Universal</text>
<text text-anchor="middle" x="215" y="-202.8" font-family="Times New Roman,serif" font-size="14.00">pictures</text>
<text text-anchor="middle" x="215" y="-187.8" font-family="Times New Roman,serif" font-size="14.00">vidéo</text>
<text text-anchor="middle" x="215" y="-172.8" font-family="Times New Roman,serif" font-size="14.00">France SA,</text>
<text text-anchor="middle" x="215" y="-157.8" font-family="Times New Roman,serif" font-size="14.00">[DL 2001],</text>
<text text-anchor="middle" x="215" y="-142.8" font-family="Times New Roman,serif" font-size="14.00">1 DVD</text>
<text text-anchor="middle" x="215" y="-127.8" font-family="Times New Roman,serif" font-size="14.00">vidéo,</text>
<text text-anchor="middle" x="215" y="-112.8" font-family="Times New Roman,serif" font-size="14.00">monoface,</text>
<text text-anchor="middle" x="215" y="-97.8" font-family="Times New Roman,serif" font-size="14.00">16/9</text>
<text text-anchor="middle" x="215" y="-82.8" font-family="Times New Roman,serif" font-size="14.00">compatible</text>
<text text-anchor="middle" x="215" y="-67.8" font-family="Times New Roman,serif" font-size="14.00">4/3, PAL,</text>
<text text-anchor="middle" x="215" y="-52.8" font-family="Times New Roman,serif" font-size="14.00">Dolby</text>
<text text-anchor="middle" x="215" y="-37.8" font-family="Times New Roman,serif" font-size="14.00">digital</text>
<text text-anchor="middle" x="215" y="-22.8" font-family="Times New Roman,serif" font-size="14.00">5.1, zone</text>
<text text-anchor="middle" x="215" y="-7.8" font-family="Times New Roman,serif" font-size="14.00">2</text>
</g>
<!-- UMLRM0185&#45;&gt;UMLRM0130 -->
<g id="edge3" class="edge">
<title>UMLRM0185&#45;&gt;UMLRM0130</title>
<path fill="none" stroke="black" d="M173.51,-306.96C169.04,-323.42 164.76,-340.04 161,-356 158.8,-365.35 156.77,-375.52 155.03,-385.02"/>
<polygon fill="black" stroke="black" points="151.62,-384.22 153.33,-394.68 158.51,-385.44 151.62,-384.22"/>
<text text-anchor="middle" x="207.5" y="-359.8" font-family="Times New Roman,serif" font-size="14.00">Manifestation de</text>
</g>
<!-- UMLRM0184 -->
<g id="node5" class="node">
<title>UMLRM0184</title>
<polygon fill="none" stroke="black" points="330,-457 216,-457 216,-389 330,-389 330,-457"/>
<text text-anchor="middle" x="273" y="-441.8" font-family="Times New Roman,serif" font-size="14.00">Shadow of the</text>
<text text-anchor="middle" x="273" y="-426.8" font-family="Times New Roman,serif" font-size="14.00">vampire, film,</text>
<text text-anchor="middle" x="273" y="-411.8" font-family="Times New Roman,serif" font-size="14.00">Anglais ; sous</text>
<text text-anchor="middle" x="273" y="-396.8" font-family="Times New Roman,serif" font-size="14.00">titrage en français</text>
</g>
<!-- UMLRM0185&#45;&gt;UMLRM0184 -->
<g id="edge5" class="edge">
<title>UMLRM0185&#45;&gt;UMLRM0184</title>
<path fill="none" stroke="black" d="M253.77,-338.44C257.03,-352.61 260.1,-365.97 262.8,-377.67"/>
<polygon fill="black" stroke="black" points="259.37,-378.36 265.02,-387.32 266.19,-376.79 259.37,-378.36"/>
<text text-anchor="middle" x="306.5" y="-359.8" font-family="Times New Roman,serif" font-size="14.00">Manifestation de</text>
</g>
<!-- UMLRM0184&#45;&gt;UMLRM0129 -->
<g id="edge4" class="edge">
<title>UMLRM0184&#45;&gt;UMLRM0129</title>
<path fill="none" stroke="black" d="M261.61,-457.45C257.2,-468.28 251.61,-480.05 245,-490 242.86,-493.22 240.41,-496.4 237.83,-499.47"/>
<polygon fill="black" stroke="black" points="235.48,-496.85 231.34,-506.6 240.66,-501.56 235.48,-496.85"/>
<text text-anchor="middle" x="292" y="-478.8" font-family="Times New Roman,serif" font-size="14.00">Expression de</text>
</g>
</g>
</svg>
