<?xml version="1.0" encoding="UTF-8" standalone="no"?>
<!DOCTYPE svg PUBLIC "-//W3C//DTD SVG 1.1//EN"
 "http://www.w3.org/Graphics/SVG/1.1/DTD/svg11.dtd">
<!-- Generated by graphviz version 7.0.3 (20221126.0506)
 -->
<!-- Title: UMLRM0181 Pages: 1 -->
<svg width="164pt" height="479pt"
 viewBox="0.00 0.00 164.00 479.00" xmlns="http://www.w3.org/2000/svg" xmlns:xlink="http://www.w3.org/1999/xlink">
<g id="graph0" class="graph" transform="scale(1 1) rotate(0) translate(4 475)">
<title>UMLRM0181</title>
<polygon fill="white" stroke="none" points="-4,4 -4,-475 160,-475 160,4 -4,4"/>
<!-- UMLRM0181 -->
<g id="node1" class="node">
<title>UMLRM0181</title>
<polygon fill="none" stroke="red" points="119,-382 7,-382 7,-329 119,-329 119,-382"/>
<text text-anchor="middle" x="63" y="-366.8" font-family="Times New Roman,serif" font-size="14.00">Dracula has risen</text>
<text text-anchor="middle" x="63" y="-351.8" font-family="Times New Roman,serif" font-size="14.00">from the grave,</text>
<text text-anchor="middle" x="63" y="-336.8" font-family="Times New Roman,serif" font-size="14.00">film, Français</text>
</g>
<!-- UMLRM0105 -->
<g id="node2" class="node">
<title>UMLRM0105</title>
<polygon fill="none" stroke="black" points="126,-471 0,-471 0,-433 126,-433 126,-471"/>
<text text-anchor="middle" x="63" y="-455.8" font-family="Times New Roman,serif" font-size="14.00">Dracula has risen</text>
<text text-anchor="middle" x="63" y="-440.8" font-family="Times New Roman,serif" font-size="14.00">from the grave, film</text>
</g>
<!-- UMLRM0181&#45;&gt;UMLRM0105 -->
<g id="edge1" class="edge">
<title>UMLRM0181&#45;&gt;UMLRM0105</title>
<path fill="none" stroke="black" d="M63,-382.32C63,-394.42 63,-408.88 63,-421.41"/>
<polygon fill="black" stroke="black" points="59.5,-421.18 63,-431.18 66.5,-421.18 59.5,-421.18"/>
<text text-anchor="middle" x="103" y="-403.8" font-family="Times New Roman,serif" font-size="14.00">Expression de</text>
</g>
<!-- UMLRM0182 -->
<g id="node3" class="node">
<title>UMLRM0182</title>
<polygon fill="none" stroke="black" points="113,-278 13,-278 13,0 113,0 113,-278"/>
<text text-anchor="middle" x="63" y="-262.8" font-family="Times New Roman,serif" font-size="14.00">Dracula et</text>
<text text-anchor="middle" x="63" y="-247.8" font-family="Times New Roman,serif" font-size="14.00">les</text>
<text text-anchor="middle" x="63" y="-232.8" font-family="Times New Roman,serif" font-size="14.00">femmes,</text>
<text text-anchor="middle" x="63" y="-217.8" font-family="Times New Roman,serif" font-size="14.00">avec Chris</text>
<text text-anchor="middle" x="63" y="-202.8" font-family="Times New Roman,serif" font-size="14.00">topher</text>
<text text-anchor="middle" x="63" y="-187.8" font-family="Times New Roman,serif" font-size="14.00">Lee,</text>
<text text-anchor="middle" x="63" y="-172.8" font-family="Times New Roman,serif" font-size="14.00">Rupert</text>
<text text-anchor="middle" x="63" y="-157.8" font-family="Times New Roman,serif" font-size="14.00">Davies,</text>
<text text-anchor="middle" x="63" y="-142.8" font-family="Times New Roman,serif" font-size="14.00">Warner</text>
<text text-anchor="middle" x="63" y="-127.8" font-family="Times New Roman,serif" font-size="14.00">home video</text>
<text text-anchor="middle" x="63" y="-112.8" font-family="Times New Roman,serif" font-size="14.00">France &#45;</text>
<text text-anchor="middle" x="63" y="-97.8" font-family="Times New Roman,serif" font-size="14.00">Warner</text>
<text text-anchor="middle" x="63" y="-82.8" font-family="Times New Roman,serif" font-size="14.00">home video</text>
<text text-anchor="middle" x="63" y="-67.8" font-family="Times New Roman,serif" font-size="14.00">France, DL</text>
<text text-anchor="middle" x="63" y="-52.8" font-family="Times New Roman,serif" font-size="14.00">1985, 1</text>
<text text-anchor="middle" x="63" y="-37.8" font-family="Times New Roman,serif" font-size="14.00">cassette</text>
<text text-anchor="middle" x="63" y="-22.8" font-family="Times New Roman,serif" font-size="14.00">vidéo,</text>
<text text-anchor="middle" x="63" y="-7.8" font-family="Times New Roman,serif" font-size="14.00">VHS, SECAM</text>
</g>
<!-- UMLRM0182&#45;&gt;UMLRM0181 -->
<g id="edge2" class="edge">
<title>UMLRM0182&#45;&gt;UMLRM0181</title>
<path fill="none" stroke="black" d="M63,-278.27C63,-292.47 63,-305.88 63,-317.37"/>
<polygon fill="black" stroke="black" points="59.5,-317.09 63,-327.09 66.5,-317.09 59.5,-317.09"/>
<text text-anchor="middle" x="109.5" y="-299.8" font-family="Times New Roman,serif" font-size="14.00">Manifestation de</text>
</g>
</g>
</svg>
