<?xml version="1.0" encoding="UTF-8" standalone="no"?>
<!DOCTYPE svg PUBLIC "-//W3C//DTD SVG 1.1//EN"
 "http://www.w3.org/Graphics/SVG/1.1/DTD/svg11.dtd">
<!-- Generated by graphviz version 7.0.3 (20221126.0506)
 -->
<!-- Title: UMLRM0166 Pages: 1 -->
<svg width="169pt" height="432pt"
 viewBox="0.00 0.00 169.00 432.00" xmlns="http://www.w3.org/2000/svg" xmlns:xlink="http://www.w3.org/1999/xlink">
<g id="graph0" class="graph" transform="scale(1 1) rotate(0) translate(4 428)">
<title>UMLRM0166</title>
<polygon fill="white" stroke="none" points="-4,4 -4,-428 165,-428 165,4 -4,4"/>
<!-- UMLRM0166 -->
<g id="node1" class="node">
<title>UMLRM0166</title>
<polygon fill="none" stroke="red" points="111.5,-424 24.5,-424 24.5,-388 111.5,-388 111.5,-424"/>
<text text-anchor="middle" x="68" y="-402.3" font-family="Times New Roman,serif" font-size="14.00">Guy Maddin</text>
</g>
<!-- UMLRM0167 -->
<g id="node2" class="node">
<title>UMLRM0167</title>
<polygon fill="none" stroke="black" points="136,-337 0,-337 0,-269 136,-269 136,-337"/>
<text text-anchor="middle" x="68" y="-321.8" font-family="Times New Roman,serif" font-size="14.00">Guy Maddin, Anglais</text>
<text text-anchor="middle" x="68" y="-306.8" font-family="Times New Roman,serif" font-size="14.00">; sous&#45;titrage en</text>
<text text-anchor="middle" x="68" y="-291.8" font-family="Times New Roman,serif" font-size="14.00">français, Image</text>
<text text-anchor="middle" x="68" y="-276.8" font-family="Times New Roman,serif" font-size="14.00">animée</text>
</g>
<!-- UMLRM0167&#45;&gt;UMLRM0166 -->
<g id="edge1" class="edge">
<title>UMLRM0167&#45;&gt;UMLRM0166</title>
<path fill="none" stroke="black" d="M68,-337.35C68,-349.93 68,-364.13 68,-376.26"/>
<polygon fill="black" stroke="black" points="64.5,-376.04 68,-386.04 71.5,-376.04 64.5,-376.04"/>
<text text-anchor="middle" x="108" y="-358.8" font-family="Times New Roman,serif" font-size="14.00">Expression de</text>
</g>
<!-- UMLRM0168 -->
<g id="node3" class="node">
<title>UMLRM0168</title>
<polygon fill="none" stroke="black" points="110.5,-218 25.5,-218 25.5,0 110.5,0 110.5,-218"/>
<text text-anchor="middle" x="68" y="-202.8" font-family="Times New Roman,serif" font-size="14.00">Guy</text>
<text text-anchor="middle" x="68" y="-187.8" font-family="Times New Roman,serif" font-size="14.00">Maddin, ED</text>
<text text-anchor="middle" x="68" y="-172.8" font-family="Times New Roman,serif" font-size="14.00">distributi</text>
<text text-anchor="middle" x="68" y="-157.8" font-family="Times New Roman,serif" font-size="14.00">on &#45; ED di</text>
<text text-anchor="middle" x="68" y="-142.8" font-family="Times New Roman,serif" font-size="14.00">stribution</text>
<text text-anchor="middle" x="68" y="-127.8" font-family="Times New Roman,serif" font-size="14.00">, [DL</text>
<text text-anchor="middle" x="68" y="-112.8" font-family="Times New Roman,serif" font-size="14.00">2012], 4</text>
<text text-anchor="middle" x="68" y="-97.8" font-family="Times New Roman,serif" font-size="14.00">DVD vidéo,</text>
<text text-anchor="middle" x="68" y="-82.8" font-family="Times New Roman,serif" font-size="14.00">monoface</text>
<text text-anchor="middle" x="68" y="-67.8" font-family="Times New Roman,serif" font-size="14.00">simple</text>
<text text-anchor="middle" x="68" y="-52.8" font-family="Times New Roman,serif" font-size="14.00">couche,</text>
<text text-anchor="middle" x="68" y="-37.8" font-family="Times New Roman,serif" font-size="14.00">PAL,</text>
<text text-anchor="middle" x="68" y="-22.8" font-family="Times New Roman,serif" font-size="14.00">toutes</text>
<text text-anchor="middle" x="68" y="-7.8" font-family="Times New Roman,serif" font-size="14.00">zones</text>
</g>
<!-- UMLRM0168&#45;&gt;UMLRM0167 -->
<g id="edge2" class="edge">
<title>UMLRM0168&#45;&gt;UMLRM0167</title>
<path fill="none" stroke="black" d="M68,-218.34C68,-232.12 68,-245.56 68,-257.49"/>
<polygon fill="black" stroke="black" points="64.5,-257.36 68,-267.36 71.5,-257.36 64.5,-257.36"/>
<text text-anchor="middle" x="114.5" y="-239.8" font-family="Times New Roman,serif" font-size="14.00">Manifestation de</text>
</g>
</g>
</svg>
