<?xml version="1.0" encoding="UTF-8" standalone="no"?>
<!DOCTYPE svg PUBLIC "-//W3C//DTD SVG 1.1//EN"
 "http://www.w3.org/Graphics/SVG/1.1/DTD/svg11.dtd">
<!-- Generated by graphviz version 7.0.3 (20221126.0506)
 -->
<!-- Title: UMLRM0150 Pages: 1 -->
<svg width="720pt" height="177pt"
 viewBox="0.00 0.00 720.00 177.01" xmlns="http://www.w3.org/2000/svg" xmlns:xlink="http://www.w3.org/1999/xlink">
<g id="graph0" class="graph" transform="scale(0.811979 0.811979) rotate(0) translate(4 214)">
<title>UMLRM0150</title>
<polygon fill="white" stroke="none" points="-4,4 -4,-214 882.72,-214 882.72,4 -4,4"/>
<!-- UMLRM0150 -->
<g id="node1" class="node">
<title>UMLRM0150</title>
<ellipse fill="none" stroke="black" cx="439.36" cy="-192" rx="278.65" ry="18"/>
<text text-anchor="middle" x="439.36" y="-188.3" font-family="Times New Roman,serif" font-size="14.00">Druillet, Philippe (1944&#45;....), [Illustrations pour &quot;Dracula&quot; de Bram Stoker]</text>
</g>
<!-- UMLRM0151 -->
<g id="node2" class="node">
<title>UMLRM0151</title>
<ellipse fill="none" stroke="black" cx="439.36" cy="-105" rx="315.44" ry="18"/>
<text text-anchor="middle" x="439.36" y="-101.3" font-family="Times New Roman,serif" font-size="14.00">Druillet, Philippe (1944&#45;....), Illustrations pour &quot;Dracula&quot; de Bram Stoker, Image fixe</text>
</g>
<!-- UMLRM0150&#45;&gt;UMLRM0151 -->
<g id="edge1" class="edge">
<title>UMLRM0150&#45;&gt;UMLRM0151</title>
<path fill="none" stroke="black" d="M439.36,-173.8C439.36,-162.58 439.36,-147.67 439.36,-134.69"/>
<polygon fill="black" stroke="black" points="442.86,-134.98 439.36,-124.98 435.86,-134.98 442.86,-134.98"/>
<text text-anchor="middle" x="479.36" y="-144.8" font-family="Times New Roman,serif" font-size="14.00">Expression de</text>
</g>
<!-- UMLRM0110 -->
<g id="node3" class="node">
<title>UMLRM0110</title>
<ellipse fill="none" stroke="black" cx="439.36" cy="-18" rx="439.22" ry="18"/>
<text text-anchor="middle" x="439.36" y="-14.3" font-family="Times New Roman,serif" font-size="14.00">Dracula, Bram Stoker, Éditions Opta, 1968, 1 volume (XX&#45;413 pages), illustrations en noir et blanc, cartonnage illustré</text>
</g>
<!-- UMLRM0151&#45;&gt;UMLRM0110 -->
<g id="edge2" class="edge">
<title>UMLRM0151&#45;&gt;UMLRM0110</title>
<path fill="none" stroke="black" d="M439.36,-86.8C439.36,-75.58 439.36,-60.67 439.36,-47.69"/>
<polygon fill="black" stroke="black" points="442.86,-47.98 439.36,-37.98 435.86,-47.98 442.86,-47.98"/>
<text text-anchor="middle" x="485.86" y="-57.8" font-family="Times New Roman,serif" font-size="14.00">Manifestation de</text>
</g>
</g>
</svg>
