<?xml version="1.0" encoding="UTF-8" standalone="no"?>
<!DOCTYPE svg PUBLIC "-//W3C//DTD SVG 1.1//EN"
 "http://www.w3.org/Graphics/SVG/1.1/DTD/svg11.dtd">
<!-- Generated by graphviz version 7.0.3 (20221126.0506)
 -->
<!-- Title: UMLRM0001 Pages: 1 -->
<svg width="1440pt" height="29pt"
 viewBox="0.00 0.00 1440.00 29.26" xmlns="http://www.w3.org/2000/svg" xmlns:xlink="http://www.w3.org/1999/xlink">
<g id="graph0" class="graph" transform="scale(0.665087 0.665087) rotate(0) translate(4 40)">
<title>UMLRM0001</title>
<polygon fill="white" stroke="none" points="-4,4 -4,-40 2161.13,-40 2161.13,4 -4,4"/>
<!-- UMLRM0001 -->
<g id="node1" class="node">
<title>UMLRM0001</title>
<ellipse fill="none" stroke="black" cx="174.83" cy="-18" rx="174.67" ry="18"/>
<text text-anchor="middle" x="174.83" y="-14.3" font-family="Times New Roman,serif" font-size="14.00">Nosferatu, eine Symphonie des Grauens, film</text>
</g>
<!-- UMLRM0002 -->
<g id="node2" class="node">
<title>UMLRM0002</title>
<ellipse fill="none" stroke="black" cx="640.5" cy="-18" rx="174.67" ry="18"/>
<text text-anchor="middle" x="640.5" y="-14.3" font-family="Times New Roman,serif" font-size="14.00">Nosferatu, eine Symphonie des Grauens, film</text>
</g>
<!-- UMLRM0001&#45;&gt;UMLRM0002 -->
<g id="edge1" class="edge">
<title>UMLRM0001&#45;&gt;UMLRM0002</title>
<path fill="none" stroke="black" d="M349.81,-18C384.01,-18 420,-18 454.55,-18"/>
<polygon fill="black" stroke="black" points="454.2,-21.5 464.2,-18 454.2,-14.5 454.2,-21.5"/>
<text text-anchor="middle" x="407.67" y="-21.8" font-family="Times New Roman,serif" font-size="14.00">Expression de</text>
</g>
<!-- UMLRM0003 -->
<g id="node3" class="node">
<title>UMLRM0003</title>
<ellipse fill="none" stroke="black" cx="1550.73" cy="-18" rx="606.29" ry="18"/>
<text text-anchor="middle" x="1550.73" y="-14.3" font-family="Times New Roman,serif" font-size="14.00">Nosferatu, Réalisation Friedrich W. Murnau, RDM vidéo &#45; RDM vidéo, [DL 2012] &#45; 2011, 1 DVD vidéo, monoface simple couche, 4/3, 24 im./s, PAL, toutes zones</text>
</g>
<!-- UMLRM0002&#45;&gt;UMLRM0003 -->
<g id="edge2" class="edge">
<title>UMLRM0002&#45;&gt;UMLRM0003</title>
<path fill="none" stroke="black" d="M815.54,-18C851.29,-18 890.82,-18 932.47,-18"/>
<polygon fill="black" stroke="black" points="932.47,-21.5 942.47,-18 932.47,-14.5 932.47,-21.5"/>
<text text-anchor="middle" x="879.84" y="-21.8" font-family="Times New Roman,serif" font-size="14.00">Manifestation de</text>
</g>
</g>
</svg>
