<?xml version="1.0" encoding="UTF-8" standalone="no"?>
<!DOCTYPE svg PUBLIC "-//W3C//DTD SVG 1.1//EN"
 "http://www.w3.org/Graphics/SVG/1.1/DTD/svg11.dtd">
<!-- Generated by graphviz version 7.0.3 (20221126.0506)
 -->
<!-- Title: UMLRM0191 Pages: 1 -->
<svg width="1440pt" height="39pt"
 viewBox="0.00 0.00 1440.00 39.04" xmlns="http://www.w3.org/2000/svg" xmlns:xlink="http://www.w3.org/1999/xlink">
<g id="graph0" class="graph" transform="scale(0.887203 0.887203) rotate(0) translate(4 40)">
<title>UMLRM0191</title>
<polygon fill="white" stroke="none" points="-4,4 -4,-40 1619.08,-40 1619.08,4 -4,4"/>
<!-- UMLRM0191 -->
<g id="node1" class="node">
<title>UMLRM0191</title>
<ellipse fill="none" stroke="black" cx="1462.99" cy="-18" rx="152.17" ry="18"/>
<text text-anchor="middle" x="1462.99" y="-14.3" font-family="Times New Roman,serif" font-size="14.00">Dracula, émission radiophonique, 1938</text>
</g>
<!-- UMLRM0192 -->
<g id="node2" class="node">
<title>UMLRM0192</title>
<ellipse fill="none" stroke="black" cx="912.83" cy="-18" rx="282.15" ry="18"/>
<text text-anchor="middle" x="912.83" y="-14.3" font-family="Times New Roman,serif" font-size="14.00">Dracula, émission radiophonique, 1938, Parole énoncée. Musique exécutée</text>
</g>
<!-- UMLRM0192&#45;&gt;UMLRM0191 -->
<g id="edge1" class="edge">
<title>UMLRM0192&#45;&gt;UMLRM0191</title>
<path fill="none" stroke="black" d="M1195.14,-18C1230.92,-18 1266.53,-18 1299.54,-18"/>
<polygon fill="black" stroke="black" points="1299.12,-21.5 1309.12,-18 1299.12,-14.5 1299.12,-21.5"/>
<text text-anchor="middle" x="1252.91" y="-21.8" font-family="Times New Roman,serif" font-size="14.00">Expression de</text>
</g>
<!-- UMLRM0193 -->
<g id="node3" class="node">
<title>UMLRM0193</title>
<ellipse fill="none" stroke="black" cx="250.88" cy="-18" rx="250.76" ry="18"/>
<text text-anchor="middle" x="250.88" y="-14.3" font-family="Times New Roman,serif" font-size="14.00">Dracula, starring Orson Welles, Radio spirits, P 2001, 1 CD audio</text>
</g>
<!-- UMLRM0193&#45;&gt;UMLRM0192 -->
<g id="edge2" class="edge">
<title>UMLRM0193&#45;&gt;UMLRM0192</title>
<path fill="none" stroke="black" d="M501.85,-18C540.12,-18 579.91,-18 619,-18"/>
<polygon fill="black" stroke="black" points="618.77,-21.5 628.77,-18 618.77,-14.5 618.77,-21.5"/>
<text text-anchor="middle" x="566.26" y="-21.8" font-family="Times New Roman,serif" font-size="14.00">Manifestation de</text>
</g>
</g>
</svg>
