<?xml version="1.0" encoding="UTF-8" standalone="no"?>
<!DOCTYPE svg PUBLIC "-//W3C//DTD SVG 1.1//EN"
 "http://www.w3.org/Graphics/SVG/1.1/DTD/svg11.dtd">
<!-- Generated by graphviz version 7.0.3 (20221126.0506)
 -->
<!-- Title: UMLRM0170 Pages: 1 -->
<svg width="168pt" height="554pt"
 viewBox="0.00 0.00 167.50 554.00" xmlns="http://www.w3.org/2000/svg" xmlns:xlink="http://www.w3.org/1999/xlink">
<g id="graph0" class="graph" transform="scale(1 1) rotate(0) translate(4 550)">
<title>UMLRM0170</title>
<polygon fill="white" stroke="none" points="-4,4 -4,-550 163.5,-550 163.5,4 -4,4"/>
<!-- UMLRM0170 -->
<g id="node1" class="node">
<title>UMLRM0170</title>
<polygon fill="none" stroke="red" points="133,-412 0,-412 0,-314 133,-314 133,-412"/>
<text text-anchor="middle" x="66.5" y="-396.8" font-family="Times New Roman,serif" font-size="14.00">Gauriat, Vincent,</text>
<text text-anchor="middle" x="66.5" y="-381.8" font-family="Times New Roman,serif" font-size="14.00">Dracula, pages</text>
<text text-anchor="middle" x="66.5" y="-366.8" font-family="Times New Roman,serif" font-size="14.00">tirées du journal</text>
<text text-anchor="middle" x="66.5" y="-351.8" font-family="Times New Roman,serif" font-size="14.00">d’une vierge, un</text>
<text text-anchor="middle" x="66.5" y="-336.8" font-family="Times New Roman,serif" font-size="14.00">film de Guy Maddin,</text>
<text text-anchor="middle" x="66.5" y="-321.8" font-family="Times New Roman,serif" font-size="14.00">Image fixe</text>
</g>
<!-- UMLRM0169 -->
<g id="node2" class="node">
<title>UMLRM0169</title>
<polygon fill="none" stroke="black" points="131,-546 2,-546 2,-463 131,-463 131,-546"/>
<text text-anchor="middle" x="66.5" y="-530.8" font-family="Times New Roman,serif" font-size="14.00">Gauriat, Vincent,</text>
<text text-anchor="middle" x="66.5" y="-515.8" font-family="Times New Roman,serif" font-size="14.00">Dracula, pages</text>
<text text-anchor="middle" x="66.5" y="-500.8" font-family="Times New Roman,serif" font-size="14.00">tirées du journal</text>
<text text-anchor="middle" x="66.5" y="-485.8" font-family="Times New Roman,serif" font-size="14.00">d’une vierge, un</text>
<text text-anchor="middle" x="66.5" y="-470.8" font-family="Times New Roman,serif" font-size="14.00">film de Guy Maddin</text>
</g>
<!-- UMLRM0170&#45;&gt;UMLRM0169 -->
<g id="edge1" class="edge">
<title>UMLRM0170&#45;&gt;UMLRM0169</title>
<path fill="none" stroke="black" d="M66.5,-412.4C66.5,-424.93 66.5,-438.48 66.5,-451.2"/>
<polygon fill="black" stroke="black" points="63,-451.09 66.5,-461.09 70,-451.09 63,-451.09"/>
<text text-anchor="middle" x="106.5" y="-433.8" font-family="Times New Roman,serif" font-size="14.00">Expression de</text>
</g>
<!-- UMLRM0171 -->
<g id="node3" class="node">
<title>UMLRM0171</title>
<polygon fill="none" stroke="black" points="105,-263 28,-263 28,0 105,0 105,-263"/>
<text text-anchor="middle" x="66.5" y="-247.8" font-family="Times New Roman,serif" font-size="14.00">Dracula,</text>
<text text-anchor="middle" x="66.5" y="-232.8" font-family="Times New Roman,serif" font-size="14.00">pages</text>
<text text-anchor="middle" x="66.5" y="-217.8" font-family="Times New Roman,serif" font-size="14.00">tirées du</text>
<text text-anchor="middle" x="66.5" y="-202.8" font-family="Times New Roman,serif" font-size="14.00">journal</text>
<text text-anchor="middle" x="66.5" y="-187.8" font-family="Times New Roman,serif" font-size="14.00">d’une</text>
<text text-anchor="middle" x="66.5" y="-172.8" font-family="Times New Roman,serif" font-size="14.00">vierge, un</text>
<text text-anchor="middle" x="66.5" y="-157.8" font-family="Times New Roman,serif" font-size="14.00">film de</text>
<text text-anchor="middle" x="66.5" y="-142.8" font-family="Times New Roman,serif" font-size="14.00">Guy</text>
<text text-anchor="middle" x="66.5" y="-127.8" font-family="Times New Roman,serif" font-size="14.00">Maddin,</text>
<text text-anchor="middle" x="66.5" y="-112.8" font-family="Times New Roman,serif" font-size="14.00">[V.</text>
<text text-anchor="middle" x="66.5" y="-97.8" font-family="Times New Roman,serif" font-size="14.00">Gauriat],</text>
<text text-anchor="middle" x="66.5" y="-82.8" font-family="Times New Roman,serif" font-size="14.00">ED distrib</text>
<text text-anchor="middle" x="66.5" y="-67.8" font-family="Times New Roman,serif" font-size="14.00">ution &#45;</text>
<text text-anchor="middle" x="66.5" y="-52.8" font-family="Times New Roman,serif" font-size="14.00">Imprimerie</text>
<text text-anchor="middle" x="66.5" y="-37.8" font-family="Times New Roman,serif" font-size="14.00">Karcher,</text>
<text text-anchor="middle" x="66.5" y="-22.8" font-family="Times New Roman,serif" font-size="14.00">[2003], 1</text>
<text text-anchor="middle" x="66.5" y="-7.8" font-family="Times New Roman,serif" font-size="14.00">feuille</text>
</g>
<!-- UMLRM0171&#45;&gt;UMLRM0170 -->
<g id="edge2" class="edge">
<title>UMLRM0171&#45;&gt;UMLRM0170</title>
<path fill="none" stroke="black" d="M66.5,-263.34C66.5,-276.92 66.5,-290.19 66.5,-302.37"/>
<polygon fill="black" stroke="black" points="63,-302.18 66.5,-312.18 70,-302.18 63,-302.18"/>
<text text-anchor="middle" x="113" y="-284.8" font-family="Times New Roman,serif" font-size="14.00">Manifestation de</text>
</g>
</g>
</svg>
