<?xml version="1.0" encoding="UTF-8" standalone="no"?>
<!DOCTYPE svg PUBLIC "-//W3C//DTD SVG 1.1//EN"
 "http://www.w3.org/Graphics/SVG/1.1/DTD/svg11.dtd">
<!-- Generated by graphviz version 7.0.3 (20221126.0506)
 -->
<!-- Title: UMLRM0157 Pages: 1 -->
<svg width="234pt" height="449pt"
 viewBox="0.00 0.00 234.00 449.00" xmlns="http://www.w3.org/2000/svg" xmlns:xlink="http://www.w3.org/1999/xlink">
<g id="graph0" class="graph" transform="scale(1 1) rotate(0) translate(4 445)">
<title>UMLRM0157</title>
<polygon fill="white" stroke="none" points="-4,4 -4,-445 230,-445 230,4 -4,4"/>
<!-- UMLRM0157 -->
<g id="node1" class="node">
<title>UMLRM0157</title>
<polygon fill="none" stroke="red" points="148,-352 38,-352 38,-269 148,-269 148,-352"/>
<text text-anchor="middle" x="93" y="-336.8" font-family="Times New Roman,serif" font-size="14.00">Glass, Philip</text>
<text text-anchor="middle" x="93" y="-321.8" font-family="Times New Roman,serif" font-size="14.00">(1937&#45;....),</text>
<text text-anchor="middle" x="93" y="-306.8" font-family="Times New Roman,serif" font-size="14.00">Dracula, Kronos</text>
<text text-anchor="middle" x="93" y="-291.8" font-family="Times New Roman,serif" font-size="14.00">quartet, Musique</text>
<text text-anchor="middle" x="93" y="-276.8" font-family="Times New Roman,serif" font-size="14.00">exécutée</text>
</g>
<!-- UMLRM0156 -->
<g id="node2" class="node">
<title>UMLRM0156</title>
<polygon fill="none" stroke="black" points="154,-441 32,-441 32,-403 154,-403 154,-441"/>
<text text-anchor="middle" x="93" y="-425.8" font-family="Times New Roman,serif" font-size="14.00">Glass, Philip</text>
<text text-anchor="middle" x="93" y="-410.8" font-family="Times New Roman,serif" font-size="14.00">(1937&#45;....), Dracula</text>
</g>
<!-- UMLRM0157&#45;&gt;UMLRM0156 -->
<g id="edge1" class="edge">
<title>UMLRM0157&#45;&gt;UMLRM0156</title>
<path fill="none" stroke="black" d="M93,-352.27C93,-365.23 93,-379.3 93,-391.31"/>
<polygon fill="black" stroke="black" points="89.5,-391.01 93,-401.01 96.5,-391.01 89.5,-391.01"/>
<text text-anchor="middle" x="133" y="-373.8" font-family="Times New Roman,serif" font-size="14.00">Expression de</text>
</g>
<!-- UMLRM0158 -->
<g id="node3" class="node">
<title>UMLRM0158</title>
<polygon fill="none" stroke="black" points="70,-210.5 0,-210.5 0,-7.5 70,-7.5 70,-210.5"/>
<text text-anchor="middle" x="35" y="-195.3" font-family="Times New Roman,serif" font-size="14.00">Dracula,</text>
<text text-anchor="middle" x="35" y="-180.3" font-family="Times New Roman,serif" font-size="14.00">music by</text>
<text text-anchor="middle" x="35" y="-165.3" font-family="Times New Roman,serif" font-size="14.00">Philip</text>
<text text-anchor="middle" x="35" y="-150.3" font-family="Times New Roman,serif" font-size="14.00">Glass,</text>
<text text-anchor="middle" x="35" y="-135.3" font-family="Times New Roman,serif" font-size="14.00">[WEA</text>
<text text-anchor="middle" x="35" y="-120.3" font-family="Times New Roman,serif" font-size="14.00">Europe] &#45;</text>
<text text-anchor="middle" x="35" y="-105.3" font-family="Times New Roman,serif" font-size="14.00">[distrib.</text>
<text text-anchor="middle" x="35" y="-90.3" font-family="Times New Roman,serif" font-size="14.00">Warner</text>
<text text-anchor="middle" x="35" y="-75.3" font-family="Times New Roman,serif" font-size="14.00">music</text>
<text text-anchor="middle" x="35" y="-60.3" font-family="Times New Roman,serif" font-size="14.00">France],</text>
<text text-anchor="middle" x="35" y="-45.3" font-family="Times New Roman,serif" font-size="14.00">[P 1999],</text>
<text text-anchor="middle" x="35" y="-30.3" font-family="Times New Roman,serif" font-size="14.00">1 disque</text>
<text text-anchor="middle" x="35" y="-15.3" font-family="Times New Roman,serif" font-size="14.00">compact</text>
</g>
<!-- UMLRM0158&#45;&gt;UMLRM0157 -->
<g id="edge2" class="edge">
<title>UMLRM0158&#45;&gt;UMLRM0157</title>
<path fill="none" stroke="black" d="M26.38,-210.87C27.87,-224.69 30.84,-238.43 36,-251 37.11,-253.7 38.41,-256.34 39.86,-258.92"/>
<polygon fill="black" stroke="black" points="36.9,-260.79 45.29,-267.25 42.76,-256.96 36.9,-260.79"/>
<text text-anchor="middle" x="82.5" y="-239.8" font-family="Times New Roman,serif" font-size="14.00">Manifestation de</text>
</g>
<!-- UMLRM0160 -->
<g id="node4" class="node">
<title>UMLRM0160</title>
<polygon fill="none" stroke="black" points="192,-218 110,-218 110,0 192,0 192,-218"/>
<text text-anchor="middle" x="151" y="-202.8" font-family="Times New Roman,serif" font-size="14.00">Dracula,</text>
<text text-anchor="middle" x="151" y="-187.8" font-family="Times New Roman,serif" font-size="14.00">Tod</text>
<text text-anchor="middle" x="151" y="-172.8" font-family="Times New Roman,serif" font-size="14.00">Browning, </text>
<text text-anchor="middle" x="151" y="-157.8" font-family="Times New Roman,serif" font-size="14.00">[réalisate</text>
<text text-anchor="middle" x="151" y="-142.8" font-family="Times New Roman,serif" font-size="14.00">ur],</text>
<text text-anchor="middle" x="151" y="-127.8" font-family="Times New Roman,serif" font-size="14.00">Universal </text>
<text text-anchor="middle" x="151" y="-112.8" font-family="Times New Roman,serif" font-size="14.00">StudioCana</text>
<text text-anchor="middle" x="151" y="-97.8" font-family="Times New Roman,serif" font-size="14.00">l vidéo &#45;</text>
<text text-anchor="middle" x="151" y="-82.8" font-family="Times New Roman,serif" font-size="14.00">Universal </text>
<text text-anchor="middle" x="151" y="-67.8" font-family="Times New Roman,serif" font-size="14.00">StudioCana</text>
<text text-anchor="middle" x="151" y="-52.8" font-family="Times New Roman,serif" font-size="14.00">l vidéo,</text>
<text text-anchor="middle" x="151" y="-37.8" font-family="Times New Roman,serif" font-size="14.00">2014 &#45;</text>
<text text-anchor="middle" x="151" y="-22.8" font-family="Times New Roman,serif" font-size="14.00">2014, 1 BD</text>
<text text-anchor="middle" x="151" y="-7.8" font-family="Times New Roman,serif" font-size="14.00">vidéo</text>
</g>
<!-- UMLRM0160&#45;&gt;UMLRM0157 -->
<g id="edge3" class="edge">
<title>UMLRM0160&#45;&gt;UMLRM0157</title>
<path fill="none" stroke="black" d="M138.66,-218.14C136.04,-229.4 132.86,-240.54 129,-251 128.08,-253.5 127.04,-256.01 125.92,-258.51"/>
<polygon fill="black" stroke="black" points="122.86,-256.8 121.56,-267.31 129.13,-259.91 122.86,-256.8"/>
<text text-anchor="middle" x="179.5" y="-239.8" font-family="Times New Roman,serif" font-size="14.00">Manifestation de</text>
</g>
</g>
</svg>
