<?xml version="1.0" encoding="UTF-8" standalone="no"?>
<!DOCTYPE svg PUBLIC "-//W3C//DTD SVG 1.1//EN"
 "http://www.w3.org/Graphics/SVG/1.1/DTD/svg11.dtd">
<!-- Generated by graphviz version 7.0.3 (20221126.0506)
 -->
<!-- Title: UMLRM0059 Pages: 1 -->
<svg width="168pt" height="449pt"
 viewBox="0.00 0.00 168.00 449.00" xmlns="http://www.w3.org/2000/svg" xmlns:xlink="http://www.w3.org/1999/xlink">
<g id="graph0" class="graph" transform="scale(1 1) rotate(0) translate(4 445)">
<title>UMLRM0059</title>
<polygon fill="white" stroke="none" points="-4,4 -4,-445 164,-445 164,4 -4,4"/>
<!-- UMLRM0059 -->
<g id="node1" class="node">
<title>UMLRM0059</title>
<polygon fill="none" stroke="red" points="126,-352 8,-352 8,-269 126,-269 126,-352"/>
<text text-anchor="middle" x="67" y="-336.8" font-family="Times New Roman,serif" font-size="14.00">Stoker, Bram</text>
<text text-anchor="middle" x="67" y="-321.8" font-family="Times New Roman,serif" font-size="14.00">(1847&#45;1912),</text>
<text text-anchor="middle" x="67" y="-306.8" font-family="Times New Roman,serif" font-size="14.00">Dracula, Français,</text>
<text text-anchor="middle" x="67" y="-291.8" font-family="Times New Roman,serif" font-size="14.00">Paul&#45;Margueritte,</text>
<text text-anchor="middle" x="67" y="-276.8" font-family="Times New Roman,serif" font-size="14.00">Texte noté</text>
</g>
<!-- UMLRM0004 -->
<g id="node2" class="node">
<title>UMLRM0004</title>
<polygon fill="none" stroke="black" points="134,-441 0,-441 0,-403 134,-403 134,-441"/>
<text text-anchor="middle" x="67" y="-425.8" font-family="Times New Roman,serif" font-size="14.00">Stoker, Bram</text>
<text text-anchor="middle" x="67" y="-410.8" font-family="Times New Roman,serif" font-size="14.00">(1847&#45;1912), Dracula</text>
</g>
<!-- UMLRM0059&#45;&gt;UMLRM0004 -->
<g id="edge1" class="edge">
<title>UMLRM0059&#45;&gt;UMLRM0004</title>
<path fill="none" stroke="black" d="M67,-352.27C67,-365.23 67,-379.3 67,-391.31"/>
<polygon fill="black" stroke="black" points="63.5,-391.01 67,-401.01 70.5,-391.01 63.5,-391.01"/>
<text text-anchor="middle" x="107" y="-373.8" font-family="Times New Roman,serif" font-size="14.00">Expression de</text>
</g>
<!-- UMLRM0060 -->
<g id="node3" class="node">
<title>UMLRM0060</title>
<polygon fill="none" stroke="black" points="108.5,-218 25.5,-218 25.5,0 108.5,0 108.5,-218"/>
<text text-anchor="middle" x="67" y="-202.8" font-family="Times New Roman,serif" font-size="14.00">Dracula,</text>
<text text-anchor="middle" x="67" y="-187.8" font-family="Times New Roman,serif" font-size="14.00">Brahm</text>
<text text-anchor="middle" x="67" y="-172.8" font-family="Times New Roman,serif" font-size="14.00">Stoker,</text>
<text text-anchor="middle" x="67" y="-157.8" font-family="Times New Roman,serif" font-size="14.00">Éditions</text>
<text text-anchor="middle" x="67" y="-142.8" font-family="Times New Roman,serif" font-size="14.00">J. Talland</text>
<text text-anchor="middle" x="67" y="-127.8" font-family="Times New Roman,serif" font-size="14.00">ier, 1932,</text>
<text text-anchor="middle" x="67" y="-112.8" font-family="Times New Roman,serif" font-size="14.00">1 volume</text>
<text text-anchor="middle" x="67" y="-97.8" font-family="Times New Roman,serif" font-size="14.00">(96 pages</text>
<text text-anchor="middle" x="67" y="-82.8" font-family="Times New Roman,serif" font-size="14.00">– planches</text>
<text text-anchor="middle" x="67" y="-67.8" font-family="Times New Roman,serif" font-size="14.00">non numéro</text>
<text text-anchor="middle" x="67" y="-52.8" font-family="Times New Roman,serif" font-size="14.00">tées),</text>
<text text-anchor="middle" x="67" y="-37.8" font-family="Times New Roman,serif" font-size="14.00">couverture</text>
<text text-anchor="middle" x="67" y="-22.8" font-family="Times New Roman,serif" font-size="14.00">illustrée</text>
<text text-anchor="middle" x="67" y="-7.8" font-family="Times New Roman,serif" font-size="14.00">en couleur</text>
</g>
<!-- UMLRM0060&#45;&gt;UMLRM0059 -->
<g id="edge2" class="edge">
<title>UMLRM0060&#45;&gt;UMLRM0059</title>
<path fill="none" stroke="black" d="M67,-218.22C67,-231.82 67,-245.22 67,-257.38"/>
<polygon fill="black" stroke="black" points="63.5,-257.11 67,-267.11 70.5,-257.11 63.5,-257.11"/>
<text text-anchor="middle" x="113.5" y="-239.8" font-family="Times New Roman,serif" font-size="14.00">Manifestation de</text>
</g>
</g>
</svg>
