<?xml version="1.0" encoding="UTF-8" standalone="no"?>
<!DOCTYPE svg PUBLIC "-//W3C//DTD SVG 1.1//EN"
 "http://www.w3.org/Graphics/SVG/1.1/DTD/svg11.dtd">
<!-- Generated by graphviz version 7.0.3 (20221126.0506)
 -->
<!-- Title: UMLRM0118 Pages: 1 -->
<svg width="162pt" height="569pt"
 viewBox="0.00 0.00 162.00 569.00" xmlns="http://www.w3.org/2000/svg" xmlns:xlink="http://www.w3.org/1999/xlink">
<g id="graph0" class="graph" transform="scale(1 1) rotate(0) translate(4 565)">
<title>UMLRM0118</title>
<polygon fill="white" stroke="none" points="-4,4 -4,-565 158,-565 158,4 -4,4"/>
<!-- UMLRM0118 -->
<g id="node1" class="node">
<title>UMLRM0118</title>
<polygon fill="none" stroke="red" points="122,-427 0,-427 0,-314 122,-314 122,-427"/>
<text text-anchor="middle" x="61" y="-411.8" font-family="Times New Roman,serif" font-size="14.00">Dufranne, Michel</text>
<text text-anchor="middle" x="61" y="-396.8" font-family="Times New Roman,serif" font-size="14.00">(1970&#45;....) &#45;</text>
<text text-anchor="middle" x="61" y="-381.8" font-family="Times New Roman,serif" font-size="14.00">Kowalski, Piotr</text>
<text text-anchor="middle" x="61" y="-366.8" font-family="Times New Roman,serif" font-size="14.00">(1973&#45;....), Dracula</text>
<text text-anchor="middle" x="61" y="-351.8" font-family="Times New Roman,serif" font-size="14.00">l’immortel,</text>
<text text-anchor="middle" x="61" y="-336.8" font-family="Times New Roman,serif" font-size="14.00">Français, Texte</text>
<text text-anchor="middle" x="61" y="-321.8" font-family="Times New Roman,serif" font-size="14.00">noté. Image fixe</text>
</g>
<!-- UMLRM0117 -->
<g id="node2" class="node">
<title>UMLRM0117</title>
<polygon fill="none" stroke="black" points="122,-561 0,-561 0,-478 122,-478 122,-561"/>
<text text-anchor="middle" x="61" y="-545.8" font-family="Times New Roman,serif" font-size="14.00">Dufranne, Michel</text>
<text text-anchor="middle" x="61" y="-530.8" font-family="Times New Roman,serif" font-size="14.00">(1970&#45;....) &#45;</text>
<text text-anchor="middle" x="61" y="-515.8" font-family="Times New Roman,serif" font-size="14.00">Kowalski, Piotr</text>
<text text-anchor="middle" x="61" y="-500.8" font-family="Times New Roman,serif" font-size="14.00">(1973&#45;....), Dracula</text>
<text text-anchor="middle" x="61" y="-485.8" font-family="Times New Roman,serif" font-size="14.00">l’immortel</text>
</g>
<!-- UMLRM0118&#45;&gt;UMLRM0117 -->
<g id="edge1" class="edge">
<title>UMLRM0118&#45;&gt;UMLRM0117</title>
<path fill="none" stroke="black" d="M61,-427.49C61,-440.29 61,-453.84 61,-466.46"/>
<polygon fill="black" stroke="black" points="57.5,-466.23 61,-476.23 64.5,-466.23 57.5,-466.23"/>
<text text-anchor="middle" x="101" y="-448.8" font-family="Times New Roman,serif" font-size="14.00">Expression de</text>
</g>
<!-- UMLRM0119 -->
<g id="node3" class="node">
<title>UMLRM0119</title>
<polygon fill="none" stroke="black" points="100.5,-263 21.5,-263 21.5,0 100.5,0 100.5,-263"/>
<text text-anchor="middle" x="61" y="-247.8" font-family="Times New Roman,serif" font-size="14.00">Dracula l&#39;</text>
<text text-anchor="middle" x="61" y="-232.8" font-family="Times New Roman,serif" font-size="14.00">immortel,</text>
<text text-anchor="middle" x="61" y="-217.8" font-family="Times New Roman,serif" font-size="14.00">scénario,</text>
<text text-anchor="middle" x="61" y="-202.8" font-family="Times New Roman,serif" font-size="14.00">Michel</text>
<text text-anchor="middle" x="61" y="-187.8" font-family="Times New Roman,serif" font-size="14.00">Dufranne,</text>
<text text-anchor="middle" x="61" y="-172.8" font-family="Times New Roman,serif" font-size="14.00">Michel</text>
<text text-anchor="middle" x="61" y="-157.8" font-family="Times New Roman,serif" font-size="14.00">Lafon &#45;</text>
<text text-anchor="middle" x="61" y="-142.8" font-family="Times New Roman,serif" font-size="14.00">Casterman</text>
<text text-anchor="middle" x="61" y="-127.8" font-family="Times New Roman,serif" font-size="14.00">&#45;</text>
<text text-anchor="middle" x="61" y="-112.8" font-family="Times New Roman,serif" font-size="14.00">Imprimerie</text>
<text text-anchor="middle" x="61" y="-97.8" font-family="Times New Roman,serif" font-size="14.00">Pollina,</text>
<text text-anchor="middle" x="61" y="-82.8" font-family="Times New Roman,serif" font-size="14.00">2012, 1</text>
<text text-anchor="middle" x="61" y="-67.8" font-family="Times New Roman,serif" font-size="14.00">volume (48</text>
<text text-anchor="middle" x="61" y="-52.8" font-family="Times New Roman,serif" font-size="14.00">pages),</text>
<text text-anchor="middle" x="61" y="-37.8" font-family="Times New Roman,serif" font-size="14.00">couverture</text>
<text text-anchor="middle" x="61" y="-22.8" font-family="Times New Roman,serif" font-size="14.00">illustrée</text>
<text text-anchor="middle" x="61" y="-7.8" font-family="Times New Roman,serif" font-size="14.00">en couleur</text>
</g>
<!-- UMLRM0119&#45;&gt;UMLRM0118 -->
<g id="edge2" class="edge">
<title>UMLRM0119&#45;&gt;UMLRM0118</title>
<path fill="none" stroke="black" d="M61,-263.48C61,-276.86 61,-290.03 61,-302.3"/>
<polygon fill="black" stroke="black" points="57.5,-302.24 61,-312.24 64.5,-302.24 57.5,-302.24"/>
<text text-anchor="middle" x="107.5" y="-284.8" font-family="Times New Roman,serif" font-size="14.00">Manifestation de</text>
</g>
</g>
</svg>
