<?xml version="1.0" encoding="UTF-8" standalone="no"?>
<!DOCTYPE svg PUBLIC "-//W3C//DTD SVG 1.1//EN"
 "http://www.w3.org/Graphics/SVG/1.1/DTD/svg11.dtd">
<!-- Generated by graphviz version 7.0.3 (20221126.0506)
 -->
<!-- Title: UMLRM0099 Pages: 1 -->
<svg width="239pt" height="434pt"
 viewBox="0.00 0.00 238.50 434.00" xmlns="http://www.w3.org/2000/svg" xmlns:xlink="http://www.w3.org/1999/xlink">
<g id="graph0" class="graph" transform="scale(1 1) rotate(0) translate(4 430)">
<title>UMLRM0099</title>
<polygon fill="white" stroke="none" points="-4,4 -4,-430 234.5,-430 234.5,4 -4,4"/>
<!-- UMLRM0099 -->
<g id="node1" class="node">
<title>UMLRM0099</title>
<polygon fill="none" stroke="red" points="152,-426 43,-426 43,-373 152,-373 152,-426"/>
<text text-anchor="middle" x="97.5" y="-410.8" font-family="Times New Roman,serif" font-size="14.00">Druillet, Philippe</text>
<text text-anchor="middle" x="97.5" y="-395.8" font-family="Times New Roman,serif" font-size="14.00">(1944&#45;....),</text>
<text text-anchor="middle" x="97.5" y="-380.8" font-family="Times New Roman,serif" font-size="14.00">Nosferatu</text>
</g>
<!-- UMLRM0100 -->
<g id="node2" class="node">
<title>UMLRM0100</title>
<polygon fill="none" stroke="black" points="162.5,-322 32.5,-322 32.5,-239 162.5,-239 162.5,-322"/>
<text text-anchor="middle" x="97.5" y="-306.8" font-family="Times New Roman,serif" font-size="14.00">Druillet, Philippe</text>
<text text-anchor="middle" x="97.5" y="-291.8" font-family="Times New Roman,serif" font-size="14.00">(1944&#45;....),</text>
<text text-anchor="middle" x="97.5" y="-276.8" font-family="Times New Roman,serif" font-size="14.00">Nosferatu, Français,</text>
<text text-anchor="middle" x="97.5" y="-261.8" font-family="Times New Roman,serif" font-size="14.00">Texte noté. Image</text>
<text text-anchor="middle" x="97.5" y="-246.8" font-family="Times New Roman,serif" font-size="14.00">fixe</text>
</g>
<!-- UMLRM0100&#45;&gt;UMLRM0099 -->
<g id="edge1" class="edge">
<title>UMLRM0100&#45;&gt;UMLRM0099</title>
<path fill="none" stroke="black" d="M97.5,-322.42C97.5,-335.11 97.5,-349 97.5,-361.41"/>
<polygon fill="black" stroke="black" points="94,-361.25 97.5,-371.25 101,-361.25 94,-361.25"/>
<text text-anchor="middle" x="137.5" y="-343.8" font-family="Times New Roman,serif" font-size="14.00">Expression de</text>
</g>
<!-- UMLRM0101 -->
<g id="node3" class="node">
<title>UMLRM0101</title>
<polygon fill="none" stroke="black" points="79,-188 0,-188 0,0 79,0 79,-188"/>
<text text-anchor="middle" x="39.5" y="-172.8" font-family="Times New Roman,serif" font-size="14.00">Nosferatu,</text>
<text text-anchor="middle" x="39.5" y="-157.8" font-family="Times New Roman,serif" font-size="14.00">[texte et</text>
<text text-anchor="middle" x="39.5" y="-142.8" font-family="Times New Roman,serif" font-size="14.00">dessins</text>
<text text-anchor="middle" x="39.5" y="-127.8" font-family="Times New Roman,serif" font-size="14.00">de]</text>
<text text-anchor="middle" x="39.5" y="-112.8" font-family="Times New Roman,serif" font-size="14.00">Druillet,</text>
<text text-anchor="middle" x="39.5" y="-97.8" font-family="Times New Roman,serif" font-size="14.00">Dargaud &#45;</text>
<text text-anchor="middle" x="39.5" y="-82.8" font-family="Times New Roman,serif" font-size="14.00">Imprimerie</text>
<text text-anchor="middle" x="39.5" y="-67.8" font-family="Times New Roman,serif" font-size="14.00">Publiphoto</text>
<text text-anchor="middle" x="39.5" y="-52.8" font-family="Times New Roman,serif" font-size="14.00">ffset,</text>
<text text-anchor="middle" x="39.5" y="-37.8" font-family="Times New Roman,serif" font-size="14.00">1988, 1</text>
<text text-anchor="middle" x="39.5" y="-22.8" font-family="Times New Roman,serif" font-size="14.00">volume (63</text>
<text text-anchor="middle" x="39.5" y="-7.8" font-family="Times New Roman,serif" font-size="14.00">pages)</text>
</g>
<!-- UMLRM0101&#45;&gt;UMLRM0100 -->
<g id="edge2" class="edge">
<title>UMLRM0101&#45;&gt;UMLRM0100</title>
<path fill="none" stroke="black" d="M32.28,-188.47C33.72,-199.69 36.3,-210.78 40.5,-221 41.61,-223.7 42.91,-226.34 44.36,-228.91"/>
<polygon fill="black" stroke="black" points="41.4,-230.79 49.8,-237.25 47.26,-226.96 41.4,-230.79"/>
<text text-anchor="middle" x="87" y="-209.8" font-family="Times New Roman,serif" font-size="14.00">Manifestation de</text>
</g>
<!-- UMLRM0104 -->
<g id="node4" class="node">
<title>UMLRM0104</title>
<polygon fill="none" stroke="black" points="193.5,-188 117.5,-188 117.5,0 193.5,0 193.5,-188"/>
<text text-anchor="middle" x="155.5" y="-172.8" font-family="Times New Roman,serif" font-size="14.00">Nosferatu,</text>
<text text-anchor="middle" x="155.5" y="-157.8" font-family="Times New Roman,serif" font-size="14.00">Druillet,</text>
<text text-anchor="middle" x="155.5" y="-142.8" font-family="Times New Roman,serif" font-size="14.00">Albin</text>
<text text-anchor="middle" x="155.5" y="-127.8" font-family="Times New Roman,serif" font-size="14.00">Michel,</text>
<text text-anchor="middle" x="155.5" y="-112.8" font-family="Times New Roman,serif" font-size="14.00">2001, 1</text>
<text text-anchor="middle" x="155.5" y="-97.8" font-family="Times New Roman,serif" font-size="14.00">volume</text>
<text text-anchor="middle" x="155.5" y="-82.8" font-family="Times New Roman,serif" font-size="14.00">(non</text>
<text text-anchor="middle" x="155.5" y="-67.8" font-family="Times New Roman,serif" font-size="14.00">paginé</text>
<text text-anchor="middle" x="155.5" y="-52.8" font-family="Times New Roman,serif" font-size="14.00">[55]</text>
<text text-anchor="middle" x="155.5" y="-37.8" font-family="Times New Roman,serif" font-size="14.00">pages),</text>
<text text-anchor="middle" x="155.5" y="-22.8" font-family="Times New Roman,serif" font-size="14.00">couverture</text>
<text text-anchor="middle" x="155.5" y="-7.8" font-family="Times New Roman,serif" font-size="14.00">illustrée</text>
</g>
<!-- UMLRM0104&#45;&gt;UMLRM0100 -->
<g id="edge3" class="edge">
<title>UMLRM0104&#45;&gt;UMLRM0100</title>
<path fill="none" stroke="black" d="M143.33,-188.29C140.67,-199.48 137.43,-210.62 133.5,-221 132.56,-223.49 131.5,-226 130.36,-228.49"/>
<polygon fill="black" stroke="black" points="127.31,-226.77 125.96,-237.28 133.57,-229.91 127.31,-226.77"/>
<text text-anchor="middle" x="184" y="-209.8" font-family="Times New Roman,serif" font-size="14.00">Manifestation de</text>
</g>
</g>
</svg>
