<?xml version="1.0" encoding="UTF-8" standalone="no"?>
<!DOCTYPE svg PUBLIC "-//W3C//DTD SVG 1.1//EN"
 "http://www.w3.org/Graphics/SVG/1.1/DTD/svg11.dtd">
<!-- Generated by graphviz version 7.0.3 (20221126.0506)
 -->
<!-- Title: UMLRM0001 Pages: 1 -->
<svg width="1440pt" height="29pt"
 viewBox="0.00 0.00 1440.00 29.26" xmlns="http://www.w3.org/2000/svg" xmlns:xlink="http://www.w3.org/1999/xlink">
<g id="graph0" class="graph" transform="scale(0.665087 0.665087) rotate(0) translate(4 40)">
<title>UMLRM0001</title>
<polygon fill="white" stroke="none" points="-4,4 -4,-40 2161.13,-40 2161.13,4 -4,4"/>
<!-- UMLRM0001 -->
<g id="node1" class="node">
<title>UMLRM0001</title>
<ellipse fill="none" stroke="black" cx="1982.3" cy="-18" rx="174.67" ry="18"/>
<text text-anchor="middle" x="1982.3" y="-14.3" font-family="Times New Roman,serif" font-size="14.00">Nosferatu, eine Symphonie des Grauens, film</text>
</g>
<!-- UMLRM0002 -->
<g id="node2" class="node">
<title>UMLRM0002</title>
<ellipse fill="none" stroke="black" cx="1516.63" cy="-18" rx="174.67" ry="18"/>
<text text-anchor="middle" x="1516.63" y="-14.3" font-family="Times New Roman,serif" font-size="14.00">Nosferatu, eine Symphonie des Grauens, film</text>
</g>
<!-- UMLRM0002&#45;&gt;UMLRM0001 -->
<g id="edge1" class="edge">
<title>UMLRM0002&#45;&gt;UMLRM0001</title>
<path fill="none" stroke="black" d="M1691.6,-18C1725.8,-18 1761.8,-18 1796.34,-18"/>
<polygon fill="black" stroke="black" points="1795.99,-21.5 1805.99,-18 1795.99,-14.5 1795.99,-21.5"/>
<text text-anchor="middle" x="1749.46" y="-21.8" font-family="Times New Roman,serif" font-size="14.00">Expression de</text>
</g>
<!-- UMLRM0003 -->
<g id="node3" class="node">
<title>UMLRM0003</title>
<ellipse fill="none" stroke="black" cx="606.4" cy="-18" rx="606.29" ry="18"/>
<text text-anchor="middle" x="606.4" y="-14.3" font-family="Times New Roman,serif" font-size="14.00">Nosferatu, Réalisation Friedrich W. Murnau, RDM vidéo &#45; RDM vidéo, [DL 2012] &#45; 2011, 1 DVD vidéo, monoface simple couche, 4/3, 24 im./s, PAL, toutes zones</text>
</g>
<!-- UMLRM0003&#45;&gt;UMLRM0002 -->
<g id="edge2" class="edge">
<title>UMLRM0003&#45;&gt;UMLRM0002</title>
<path fill="none" stroke="black" d="M1212.88,-18C1254.65,-18 1294.48,-18 1330.73,-18"/>
<polygon fill="black" stroke="black" points="1330.35,-21.5 1340.35,-18 1330.35,-14.5 1330.35,-21.5"/>
<text text-anchor="middle" x="1277.29" y="-21.8" font-family="Times New Roman,serif" font-size="14.00">Manifestation de</text>
</g>
</g>
</svg>
