<?xml version="1.0" encoding="UTF-8" standalone="no"?>
<!DOCTYPE svg PUBLIC "-//W3C//DTD SVG 1.1//EN"
 "http://www.w3.org/Graphics/SVG/1.1/DTD/svg11.dtd">
<!-- Generated by graphviz version 7.0.3 (20221126.0506)
 -->
<!-- Title: UMLRM0127 Pages: 1 -->
<svg width="167pt" height="449pt"
 viewBox="0.00 0.00 166.50 449.00" xmlns="http://www.w3.org/2000/svg" xmlns:xlink="http://www.w3.org/1999/xlink">
<g id="graph0" class="graph" transform="scale(1 1) rotate(0) translate(4 445)">
<title>UMLRM0127</title>
<polygon fill="white" stroke="none" points="-4,4 -4,-445 162.5,-445 162.5,4 -4,4"/>
<!-- UMLRM0127 -->
<g id="node1" class="node">
<title>UMLRM0127</title>
<polygon fill="none" stroke="red" points="131,-337 0,-337 0,-269 131,-269 131,-337"/>
<text text-anchor="middle" x="65.5" y="-321.8" font-family="Times New Roman,serif" font-size="14.00">Stoker, Bram</text>
<text text-anchor="middle" x="65.5" y="-306.8" font-family="Times New Roman,serif" font-size="14.00">(1847&#45;1912), Choix,</text>
<text text-anchor="middle" x="65.5" y="-291.8" font-family="Times New Roman,serif" font-size="14.00">Manuscrits, Anglais,</text>
<text text-anchor="middle" x="65.5" y="-276.8" font-family="Times New Roman,serif" font-size="14.00">Texte noté</text>
</g>
<!-- UMLRM0126 -->
<g id="node2" class="node">
<title>UMLRM0126</title>
<polygon fill="none" stroke="black" points="130,-441 1,-441 1,-388 130,-388 130,-441"/>
<text text-anchor="middle" x="65.5" y="-425.8" font-family="Times New Roman,serif" font-size="14.00">Stoker, Bram</text>
<text text-anchor="middle" x="65.5" y="-410.8" font-family="Times New Roman,serif" font-size="14.00">(1847&#45;1912), Choix,</text>
<text text-anchor="middle" x="65.5" y="-395.8" font-family="Times New Roman,serif" font-size="14.00">Manuscrits</text>
</g>
<!-- UMLRM0127&#45;&gt;UMLRM0126 -->
<g id="edge1" class="edge">
<title>UMLRM0127&#45;&gt;UMLRM0126</title>
<path fill="none" stroke="black" d="M65.5,-337.45C65.5,-349.65 65.5,-363.52 65.5,-376.05"/>
<polygon fill="black" stroke="black" points="62,-376.04 65.5,-386.04 69,-376.04 62,-376.04"/>
<text text-anchor="middle" x="105.5" y="-358.8" font-family="Times New Roman,serif" font-size="14.00">Expression de</text>
</g>
<!-- UMLRM0128 -->
<g id="node3" class="node">
<title>UMLRM0128</title>
<polygon fill="none" stroke="black" points="108.5,-218 22.5,-218 22.5,0 108.5,0 108.5,-218"/>
<text text-anchor="middle" x="65.5" y="-202.8" font-family="Times New Roman,serif" font-size="14.00">Bram</text>
<text text-anchor="middle" x="65.5" y="-187.8" font-family="Times New Roman,serif" font-size="14.00">Stoker’s</text>
<text text-anchor="middle" x="65.5" y="-172.8" font-family="Times New Roman,serif" font-size="14.00">notes for</text>
<text text-anchor="middle" x="65.5" y="-157.8" font-family="Times New Roman,serif" font-size="14.00">“Dracula</text>
<text text-anchor="middle" x="65.5" y="-142.8" font-family="Times New Roman,serif" font-size="14.00">“, Bram</text>
<text text-anchor="middle" x="65.5" y="-127.8" font-family="Times New Roman,serif" font-size="14.00">Stoker,</text>
<text text-anchor="middle" x="65.5" y="-112.8" font-family="Times New Roman,serif" font-size="14.00">McFarland</text>
<text text-anchor="middle" x="65.5" y="-97.8" font-family="Times New Roman,serif" font-size="14.00">&amp; Company</text>
<text text-anchor="middle" x="65.5" y="-82.8" font-family="Times New Roman,serif" font-size="14.00">Inc. Publi</text>
<text text-anchor="middle" x="65.5" y="-67.8" font-family="Times New Roman,serif" font-size="14.00">shers,</text>
<text text-anchor="middle" x="65.5" y="-52.8" font-family="Times New Roman,serif" font-size="14.00">2008, 1</text>
<text text-anchor="middle" x="65.5" y="-37.8" font-family="Times New Roman,serif" font-size="14.00">volume</text>
<text text-anchor="middle" x="65.5" y="-22.8" font-family="Times New Roman,serif" font-size="14.00">(VII&#45;331</text>
<text text-anchor="middle" x="65.5" y="-7.8" font-family="Times New Roman,serif" font-size="14.00">pages)</text>
</g>
<!-- UMLRM0128&#45;&gt;UMLRM0127 -->
<g id="edge2" class="edge">
<title>UMLRM0128&#45;&gt;UMLRM0127</title>
<path fill="none" stroke="black" d="M65.5,-218.34C65.5,-232.12 65.5,-245.56 65.5,-257.49"/>
<polygon fill="black" stroke="black" points="62,-257.36 65.5,-267.36 69,-257.36 62,-257.36"/>
<text text-anchor="middle" x="112" y="-239.8" font-family="Times New Roman,serif" font-size="14.00">Manifestation de</text>
</g>
</g>
</svg>
