<?xml version="1.0" encoding="UTF-8" standalone="no"?>
<!DOCTYPE svg PUBLIC "-//W3C//DTD SVG 1.1//EN"
 "http://www.w3.org/Graphics/SVG/1.1/DTD/svg11.dtd">
<!-- Generated by graphviz version 7.0.3 (20221126.0506)
 -->
<!-- Title: UMLRM0174 Pages: 1 -->
<svg width="720pt" height="143pt"
 viewBox="0.00 0.00 720.00 143.38" xmlns="http://www.w3.org/2000/svg" xmlns:xlink="http://www.w3.org/1999/xlink">
<g id="graph0" class="graph" transform="scale(0.657712 0.657712) rotate(0) translate(4 214)">
<title>UMLRM0174</title>
<polygon fill="white" stroke="none" points="-4,4 -4,-214 1090.7,-214 1090.7,4 -4,4"/>
<!-- UMLRM0174 -->
<g id="node1" class="node">
<title>UMLRM0174</title>
<ellipse fill="none" stroke="black" cx="543.35" cy="-192" rx="163.57" ry="18"/>
<text text-anchor="middle" x="543.35" y="-188.3" font-family="Times New Roman,serif" font-size="14.00">Les grands classiques du cinéma allemand</text>
</g>
<!-- UMLRM0175 -->
<g id="node2" class="node">
<title>UMLRM0175</title>
<ellipse fill="none" stroke="black" cx="543.35" cy="-105" rx="217.96" ry="18"/>
<text text-anchor="middle" x="543.35" y="-101.3" font-family="Times New Roman,serif" font-size="14.00">Les grands classiques du cinéma allemand, Image animée</text>
</g>
<!-- UMLRM0174&#45;&gt;UMLRM0175 -->
<g id="edge1" class="edge">
<title>UMLRM0174&#45;&gt;UMLRM0175</title>
<path fill="none" stroke="black" d="M543.35,-173.8C543.35,-162.58 543.35,-147.67 543.35,-134.69"/>
<polygon fill="black" stroke="black" points="546.85,-134.98 543.35,-124.98 539.85,-134.98 546.85,-134.98"/>
<text text-anchor="middle" x="583.35" y="-144.8" font-family="Times New Roman,serif" font-size="14.00">Expression de</text>
</g>
<!-- UMLRM0176 -->
<g id="node3" class="node">
<title>UMLRM0176</title>
<ellipse fill="none" stroke="black" cx="543.35" cy="-18" rx="543.2" ry="18"/>
<text text-anchor="middle" x="543.35" y="-14.3" font-family="Times New Roman,serif" font-size="14.00">Les grands classiques du cinéma allemand, RDM vidéo &#45; RDM vidéo, [DL 2013], 7 DVD vidéo, monoface double couche, 4/3, PAL, toutes zones</text>
</g>
<!-- UMLRM0175&#45;&gt;UMLRM0176 -->
<g id="edge2" class="edge">
<title>UMLRM0175&#45;&gt;UMLRM0176</title>
<path fill="none" stroke="black" d="M543.35,-86.8C543.35,-75.58 543.35,-60.67 543.35,-47.69"/>
<polygon fill="black" stroke="black" points="546.85,-47.98 543.35,-37.98 539.85,-47.98 546.85,-47.98"/>
<text text-anchor="middle" x="589.85" y="-57.8" font-family="Times New Roman,serif" font-size="14.00">Manifestation de</text>
</g>
</g>
</svg>
