<?xml version="1.0" encoding="UTF-8" standalone="no"?>
<!DOCTYPE svg PUBLIC "-//W3C//DTD SVG 1.1//EN"
 "http://www.w3.org/Graphics/SVG/1.1/DTD/svg11.dtd">
<!-- Generated by graphviz version 7.0.3 (20221126.0506)
 -->
<!-- Title: UMLRM0198 Pages: 1 -->
<svg width="170pt" height="524pt"
 viewBox="0.00 0.00 169.50 524.00" xmlns="http://www.w3.org/2000/svg" xmlns:xlink="http://www.w3.org/1999/xlink">
<g id="graph0" class="graph" transform="scale(1 1) rotate(0) translate(4 520)">
<title>UMLRM0198</title>
<polygon fill="white" stroke="none" points="-4,4 -4,-520 165.5,-520 165.5,4 -4,4"/>
<!-- UMLRM0198 -->
<g id="node1" class="node">
<title>UMLRM0198</title>
<polygon fill="none" stroke="red" points="137,-367 0,-367 0,-254 137,-254 137,-367"/>
<text text-anchor="middle" x="68.5" y="-351.8" font-family="Times New Roman,serif" font-size="14.00">Finné, Jacques</text>
<text text-anchor="middle" x="68.5" y="-336.8" font-family="Times New Roman,serif" font-size="14.00">(1944&#45;….) &#45; Marigny,</text>
<text text-anchor="middle" x="68.5" y="-321.8" font-family="Times New Roman,serif" font-size="14.00">Jean (1939&#45;....),</text>
<text text-anchor="middle" x="68.5" y="-306.8" font-family="Times New Roman,serif" font-size="14.00">Dictionnaire des</text>
<text text-anchor="middle" x="68.5" y="-291.8" font-family="Times New Roman,serif" font-size="14.00">littératures</text>
<text text-anchor="middle" x="68.5" y="-276.8" font-family="Times New Roman,serif" font-size="14.00">vampiriques,</text>
<text text-anchor="middle" x="68.5" y="-261.8" font-family="Times New Roman,serif" font-size="14.00">Français, Texte noté</text>
</g>
<!-- UMLRM0149 -->
<g id="node2" class="node">
<title>UMLRM0149</title>
<polygon fill="none" stroke="black" points="137,-516 0,-516 0,-418 137,-418 137,-516"/>
<text text-anchor="middle" x="68.5" y="-500.8" font-family="Times New Roman,serif" font-size="14.00">Finné, Jacques</text>
<text text-anchor="middle" x="68.5" y="-485.8" font-family="Times New Roman,serif" font-size="14.00">(1944&#45;….) &#45; Marigny,</text>
<text text-anchor="middle" x="68.5" y="-470.8" font-family="Times New Roman,serif" font-size="14.00">Jean (1939&#45;....),</text>
<text text-anchor="middle" x="68.5" y="-455.8" font-family="Times New Roman,serif" font-size="14.00">Dictionnaire des</text>
<text text-anchor="middle" x="68.5" y="-440.8" font-family="Times New Roman,serif" font-size="14.00">littératures</text>
<text text-anchor="middle" x="68.5" y="-425.8" font-family="Times New Roman,serif" font-size="14.00">vampiriques</text>
</g>
<!-- UMLRM0198&#45;&gt;UMLRM0149 -->
<g id="edge1" class="edge">
<title>UMLRM0198&#45;&gt;UMLRM0149</title>
<path fill="none" stroke="black" d="M68.5,-367.28C68.5,-380.05 68.5,-393.67 68.5,-406.58"/>
<polygon fill="black" stroke="black" points="65,-406.2 68.5,-416.2 72,-406.2 65,-406.2"/>
<text text-anchor="middle" x="108.5" y="-388.8" font-family="Times New Roman,serif" font-size="14.00">Expression de</text>
</g>
<!-- UMLRM0199 -->
<g id="node3" class="node">
<title>UMLRM0199</title>
<polygon fill="none" stroke="black" points="109.5,-203 27.5,-203 27.5,0 109.5,0 109.5,-203"/>
<text text-anchor="middle" x="68.5" y="-187.8" font-family="Times New Roman,serif" font-size="14.00">Dictionnai</text>
<text text-anchor="middle" x="68.5" y="-172.8" font-family="Times New Roman,serif" font-size="14.00">re des lit</text>
<text text-anchor="middle" x="68.5" y="-157.8" font-family="Times New Roman,serif" font-size="14.00">tératures </text>
<text text-anchor="middle" x="68.5" y="-142.8" font-family="Times New Roman,serif" font-size="14.00">vampirique</text>
<text text-anchor="middle" x="68.5" y="-127.8" font-family="Times New Roman,serif" font-size="14.00">s, Jacques</text>
<text text-anchor="middle" x="68.5" y="-112.8" font-family="Times New Roman,serif" font-size="14.00">Finné,</text>
<text text-anchor="middle" x="68.5" y="-97.8" font-family="Times New Roman,serif" font-size="14.00">Jean</text>
<text text-anchor="middle" x="68.5" y="-82.8" font-family="Times New Roman,serif" font-size="14.00">Marigny,</text>
<text text-anchor="middle" x="68.5" y="-67.8" font-family="Times New Roman,serif" font-size="14.00">Terre de</text>
<text text-anchor="middle" x="68.5" y="-52.8" font-family="Times New Roman,serif" font-size="14.00">brume,</text>
<text text-anchor="middle" x="68.5" y="-37.8" font-family="Times New Roman,serif" font-size="14.00">2020, 1</text>
<text text-anchor="middle" x="68.5" y="-22.8" font-family="Times New Roman,serif" font-size="14.00">volume(332</text>
<text text-anchor="middle" x="68.5" y="-7.8" font-family="Times New Roman,serif" font-size="14.00">pages)</text>
</g>
<!-- UMLRM0199&#45;&gt;UMLRM0198 -->
<g id="edge2" class="edge">
<title>UMLRM0199&#45;&gt;UMLRM0198</title>
<path fill="none" stroke="black" d="M68.5,-203.27C68.5,-216.58 68.5,-229.94 68.5,-242.48"/>
<polygon fill="black" stroke="black" points="65,-242.23 68.5,-252.23 72,-242.23 65,-242.23"/>
<text text-anchor="middle" x="115" y="-224.8" font-family="Times New Roman,serif" font-size="14.00">Manifestation de</text>
</g>
</g>
</svg>
