<?xml version="1.0" encoding="UTF-8" standalone="no"?>
<!DOCTYPE svg PUBLIC "-//W3C//DTD SVG 1.1//EN"
 "http://www.w3.org/Graphics/SVG/1.1/DTD/svg11.dtd">
<!-- Generated by graphviz version 7.0.3 (20221126.0506)
 -->
<!-- Title: UMLRM0105 Pages: 1 -->
<svg width="287pt" height="479pt"
 viewBox="0.00 0.00 287.00 479.00" xmlns="http://www.w3.org/2000/svg" xmlns:xlink="http://www.w3.org/1999/xlink">
<g id="graph0" class="graph" transform="scale(1 1) rotate(0) translate(4 475)">
<title>UMLRM0105</title>
<polygon fill="white" stroke="none" points="-4,4 -4,-475 283,-475 283,4 -4,4"/>
<!-- UMLRM0105 -->
<g id="node1" class="node">
<title>UMLRM0105</title>
<polygon fill="none" stroke="red" points="183,-471 57,-471 57,-433 183,-433 183,-471"/>
<text text-anchor="middle" x="120" y="-455.8" font-family="Times New Roman,serif" font-size="14.00">Dracula has risen</text>
<text text-anchor="middle" x="120" y="-440.8" font-family="Times New Roman,serif" font-size="14.00">from the grave, film</text>
</g>
<!-- UMLRM0106 -->
<g id="node2" class="node">
<title>UMLRM0106</title>
<polygon fill="none" stroke="black" points="112,-382 0,-382 0,-329 112,-329 112,-382"/>
<text text-anchor="middle" x="56" y="-366.8" font-family="Times New Roman,serif" font-size="14.00">Dracula has risen</text>
<text text-anchor="middle" x="56" y="-351.8" font-family="Times New Roman,serif" font-size="14.00">from the grave,</text>
<text text-anchor="middle" x="56" y="-336.8" font-family="Times New Roman,serif" font-size="14.00">film, Anglais</text>
</g>
<!-- UMLRM0106&#45;&gt;UMLRM0105 -->
<g id="edge1" class="edge">
<title>UMLRM0106&#45;&gt;UMLRM0105</title>
<path fill="none" stroke="black" d="M62.07,-382.38C65.38,-393.1 70.21,-405.27 77,-415 79.43,-418.48 82.27,-421.82 85.33,-424.96"/>
<polygon fill="black" stroke="black" points="82.93,-427.51 92.63,-431.76 87.7,-422.38 82.93,-427.51"/>
<text text-anchor="middle" x="117" y="-403.8" font-family="Times New Roman,serif" font-size="14.00">Expression de</text>
</g>
<!-- UMLRM0107 -->
<g id="node3" class="node">
<title>UMLRM0107</title>
<polygon fill="none" stroke="black" points="100.5,-278 11.5,-278 11.5,0 100.5,0 100.5,-278"/>
<text text-anchor="middle" x="56" y="-262.8" font-family="Times New Roman,serif" font-size="14.00">Dracula</text>
<text text-anchor="middle" x="56" y="-247.8" font-family="Times New Roman,serif" font-size="14.00">has risen</text>
<text text-anchor="middle" x="56" y="-232.8" font-family="Times New Roman,serif" font-size="14.00">from the</text>
<text text-anchor="middle" x="56" y="-217.8" font-family="Times New Roman,serif" font-size="14.00">grave‎,</text>
<text text-anchor="middle" x="56" y="-202.8" font-family="Times New Roman,serif" font-size="14.00">starring C</text>
<text text-anchor="middle" x="56" y="-187.8" font-family="Times New Roman,serif" font-size="14.00">hristopher</text>
<text text-anchor="middle" x="56" y="-172.8" font-family="Times New Roman,serif" font-size="14.00">Lee,</text>
<text text-anchor="middle" x="56" y="-157.8" font-family="Times New Roman,serif" font-size="14.00">Rupert</text>
<text text-anchor="middle" x="56" y="-142.8" font-family="Times New Roman,serif" font-size="14.00">Davies,</text>
<text text-anchor="middle" x="56" y="-127.8" font-family="Times New Roman,serif" font-size="14.00">Warner</text>
<text text-anchor="middle" x="56" y="-112.8" font-family="Times New Roman,serif" font-size="14.00">home video</text>
<text text-anchor="middle" x="56" y="-97.8" font-family="Times New Roman,serif" font-size="14.00">&#45; Warner</text>
<text text-anchor="middle" x="56" y="-82.8" font-family="Times New Roman,serif" font-size="14.00">home video</text>
<text text-anchor="middle" x="56" y="-67.8" font-family="Times New Roman,serif" font-size="14.00">France,</text>
<text text-anchor="middle" x="56" y="-52.8" font-family="Times New Roman,serif" font-size="14.00">[1995], 1</text>
<text text-anchor="middle" x="56" y="-37.8" font-family="Times New Roman,serif" font-size="14.00">cassette</text>
<text text-anchor="middle" x="56" y="-22.8" font-family="Times New Roman,serif" font-size="14.00">vidéo,</text>
<text text-anchor="middle" x="56" y="-7.8" font-family="Times New Roman,serif" font-size="14.00">VHS, NTSC</text>
</g>
<!-- UMLRM0107&#45;&gt;UMLRM0106 -->
<g id="edge2" class="edge">
<title>UMLRM0107&#45;&gt;UMLRM0106</title>
<path fill="none" stroke="black" d="M56,-278.27C56,-292.47 56,-305.88 56,-317.37"/>
<polygon fill="black" stroke="black" points="52.5,-317.09 56,-327.09 59.5,-317.09 52.5,-317.09"/>
<text text-anchor="middle" x="102.5" y="-299.8" font-family="Times New Roman,serif" font-size="14.00">Manifestation de</text>
</g>
<!-- UMLRM0181 -->
<g id="node4" class="node">
<title>UMLRM0181</title>
<polygon fill="none" stroke="black" points="242,-382 130,-382 130,-329 242,-329 242,-382"/>
<text text-anchor="middle" x="186" y="-366.8" font-family="Times New Roman,serif" font-size="14.00">Dracula has risen</text>
<text text-anchor="middle" x="186" y="-351.8" font-family="Times New Roman,serif" font-size="14.00">from the grave,</text>
<text text-anchor="middle" x="186" y="-336.8" font-family="Times New Roman,serif" font-size="14.00">film, Français</text>
</g>
<!-- UMLRM0181&#45;&gt;UMLRM0105 -->
<g id="edge3" class="edge">
<title>UMLRM0181&#45;&gt;UMLRM0105</title>
<path fill="none" stroke="black" d="M175.49,-382.34C170.61,-392.93 164.28,-405.01 157,-415 154.66,-418.21 152.02,-421.39 149.25,-424.45"/>
<polygon fill="black" stroke="black" points="146.77,-421.99 142.33,-431.61 151.8,-426.86 146.77,-421.99"/>
<text text-anchor="middle" x="206" y="-403.8" font-family="Times New Roman,serif" font-size="14.00">Expression de</text>
</g>
<!-- UMLRM0182 -->
<g id="node5" class="node">
<title>UMLRM0182</title>
<polygon fill="none" stroke="black" points="236,-278 136,-278 136,0 236,0 236,-278"/>
<text text-anchor="middle" x="186" y="-262.8" font-family="Times New Roman,serif" font-size="14.00">Dracula et</text>
<text text-anchor="middle" x="186" y="-247.8" font-family="Times New Roman,serif" font-size="14.00">les</text>
<text text-anchor="middle" x="186" y="-232.8" font-family="Times New Roman,serif" font-size="14.00">femmes,</text>
<text text-anchor="middle" x="186" y="-217.8" font-family="Times New Roman,serif" font-size="14.00">avec Chris</text>
<text text-anchor="middle" x="186" y="-202.8" font-family="Times New Roman,serif" font-size="14.00">topher</text>
<text text-anchor="middle" x="186" y="-187.8" font-family="Times New Roman,serif" font-size="14.00">Lee,</text>
<text text-anchor="middle" x="186" y="-172.8" font-family="Times New Roman,serif" font-size="14.00">Rupert</text>
<text text-anchor="middle" x="186" y="-157.8" font-family="Times New Roman,serif" font-size="14.00">Davies,</text>
<text text-anchor="middle" x="186" y="-142.8" font-family="Times New Roman,serif" font-size="14.00">Warner</text>
<text text-anchor="middle" x="186" y="-127.8" font-family="Times New Roman,serif" font-size="14.00">home video</text>
<text text-anchor="middle" x="186" y="-112.8" font-family="Times New Roman,serif" font-size="14.00">France &#45;</text>
<text text-anchor="middle" x="186" y="-97.8" font-family="Times New Roman,serif" font-size="14.00">Warner</text>
<text text-anchor="middle" x="186" y="-82.8" font-family="Times New Roman,serif" font-size="14.00">home video</text>
<text text-anchor="middle" x="186" y="-67.8" font-family="Times New Roman,serif" font-size="14.00">France, DL</text>
<text text-anchor="middle" x="186" y="-52.8" font-family="Times New Roman,serif" font-size="14.00">1985, 1</text>
<text text-anchor="middle" x="186" y="-37.8" font-family="Times New Roman,serif" font-size="14.00">cassette</text>
<text text-anchor="middle" x="186" y="-22.8" font-family="Times New Roman,serif" font-size="14.00">vidéo,</text>
<text text-anchor="middle" x="186" y="-7.8" font-family="Times New Roman,serif" font-size="14.00">VHS, SECAM</text>
</g>
<!-- UMLRM0182&#45;&gt;UMLRM0181 -->
<g id="edge4" class="edge">
<title>UMLRM0182&#45;&gt;UMLRM0181</title>
<path fill="none" stroke="black" d="M186,-278.27C186,-292.47 186,-305.88 186,-317.37"/>
<polygon fill="black" stroke="black" points="182.5,-317.09 186,-327.09 189.5,-317.09 182.5,-317.09"/>
<text text-anchor="middle" x="232.5" y="-299.8" font-family="Times New Roman,serif" font-size="14.00">Manifestation de</text>
</g>
</g>
</svg>
