<?xml version="1.0" encoding="UTF-8" standalone="no"?>
<!DOCTYPE svg PUBLIC "-//W3C//DTD SVG 1.1//EN"
 "http://www.w3.org/Graphics/SVG/1.1/DTD/svg11.dtd">
<!-- Generated by graphviz version 7.0.3 (20221126.0506)
 -->
<!-- Title: UMLRM0111 Pages: 1 -->
<svg width="1440pt" height="30pt"
 viewBox="0.00 0.00 1440.00 30.04" xmlns="http://www.w3.org/2000/svg" xmlns:xlink="http://www.w3.org/1999/xlink">
<g id="graph0" class="graph" transform="scale(0.682712 0.682712) rotate(0) translate(4 40)">
<title>UMLRM0111</title>
<polygon fill="white" stroke="none" points="-4,4 -4,-40 2105.24,-40 2105.24,4 -4,4"/>
<!-- UMLRM0111 -->
<g id="node1" class="node">
<title>UMLRM0111</title>
<ellipse fill="none" stroke="black" cx="1839.31" cy="-18" rx="261.85" ry="18"/>
<text text-anchor="middle" x="1839.31" y="-14.3" font-family="Times New Roman,serif" font-size="14.00">Hughes, William (1964&#45;....), Bram Stoker’s Dracula : a reader’s guide</text>
</g>
<!-- UMLRM0112 -->
<g id="node2" class="node">
<title>UMLRM0112</title>
<ellipse fill="none" stroke="black" cx="1155.91" cy="-18" rx="305.45" ry="18"/>
<text text-anchor="middle" x="1155.91" y="-14.3" font-family="Times New Roman,serif" font-size="14.00">Hughes, William (1964&#45;....), Bram Stoker’s Dracula : a reader’s guide, Texte noté</text>
</g>
<!-- UMLRM0112&#45;&gt;UMLRM0111 -->
<g id="edge1" class="edge">
<title>UMLRM0112&#45;&gt;UMLRM0111</title>
<path fill="none" stroke="black" d="M1461.73,-18C1496.51,-18 1531.78,-18 1566.09,-18"/>
<polygon fill="black" stroke="black" points="1565.68,-21.5 1575.68,-18 1565.68,-14.5 1565.68,-21.5"/>
<text text-anchor="middle" x="1519.38" y="-21.8" font-family="Times New Roman,serif" font-size="14.00">Expression de</text>
</g>
<!-- UMLRM0113 -->
<g id="node3" class="node">
<title>UMLRM0113</title>
<ellipse fill="none" stroke="black" cx="360.72" cy="-18" rx="360.94" ry="18"/>
<text text-anchor="middle" x="360.72" y="-14.3" font-family="Times New Roman,serif" font-size="14.00"> Bram Stoker’s Dracula, William Hughes, Continuum, copyright 2009, 1 volume (VII&#45;150 pages)</text>
</g>
<!-- UMLRM0113&#45;&gt;UMLRM0112 -->
<g id="edge2" class="edge">
<title>UMLRM0113&#45;&gt;UMLRM0112</title>
<path fill="none" stroke="black" d="M722.05,-18C760.99,-18 800.4,-18 838.76,-18"/>
<polygon fill="black" stroke="black" points="838.57,-21.5 848.57,-18 838.57,-14.5 838.57,-21.5"/>
<text text-anchor="middle" x="785.94" y="-21.8" font-family="Times New Roman,serif" font-size="14.00">Manifestation de</text>
</g>
</g>
</svg>
