<?xml version="1.0" encoding="UTF-8" standalone="no"?>
<!DOCTYPE svg PUBLIC "-//W3C//DTD SVG 1.1//EN"
 "http://www.w3.org/Graphics/SVG/1.1/DTD/svg11.dtd">
<!-- Generated by graphviz version 7.0.3 (20221126.0506)
 -->
<!-- Title: UMLRM0013 Pages: 1 -->
<svg width="170pt" height="509pt"
 viewBox="0.00 0.00 169.50 509.00" xmlns="http://www.w3.org/2000/svg" xmlns:xlink="http://www.w3.org/1999/xlink">
<g id="graph0" class="graph" transform="scale(1 1) rotate(0) translate(4 505)">
<title>UMLRM0013</title>
<polygon fill="white" stroke="none" points="-4,4 -4,-505 165.5,-505 165.5,4 -4,4"/>
<!-- UMLRM0013 -->
<g id="node1" class="node">
<title>UMLRM0013</title>
<polygon fill="none" stroke="red" points="135,-501 2,-501 2,-433 135,-433 135,-501"/>
<text text-anchor="middle" x="68.5" y="-485.8" font-family="Times New Roman,serif" font-size="14.00">Jean&#45;Claude</text>
<text text-anchor="middle" x="68.5" y="-470.8" font-family="Times New Roman,serif" font-size="14.00">Gallotta, Nosferatu,</text>
<text text-anchor="middle" x="68.5" y="-455.8" font-family="Times New Roman,serif" font-size="14.00">ballet de l&#39;Opéra,</text>
<text text-anchor="middle" x="68.5" y="-440.8" font-family="Times New Roman,serif" font-size="14.00">programme, 2006&#45;05</text>
</g>
<!-- UMLRM0014 -->
<g id="node2" class="node">
<title>UMLRM0014</title>
<polygon fill="none" stroke="black" points="137,-382 0,-382 0,-284 137,-284 137,-382"/>
<text text-anchor="middle" x="68.5" y="-366.8" font-family="Times New Roman,serif" font-size="14.00">Jean&#45;Claude</text>
<text text-anchor="middle" x="68.5" y="-351.8" font-family="Times New Roman,serif" font-size="14.00">Gallotta, Nosferatu,</text>
<text text-anchor="middle" x="68.5" y="-336.8" font-family="Times New Roman,serif" font-size="14.00">ballet de l&#39;Opéra,</text>
<text text-anchor="middle" x="68.5" y="-321.8" font-family="Times New Roman,serif" font-size="14.00">programme, 2006&#45;05,</text>
<text text-anchor="middle" x="68.5" y="-306.8" font-family="Times New Roman,serif" font-size="14.00">Texte noté. Image</text>
<text text-anchor="middle" x="68.5" y="-291.8" font-family="Times New Roman,serif" font-size="14.00">fixe</text>
</g>
<!-- UMLRM0014&#45;&gt;UMLRM0013 -->
<g id="edge1" class="edge">
<title>UMLRM0014&#45;&gt;UMLRM0013</title>
<path fill="none" stroke="black" d="M68.5,-382.4C68.5,-395.25 68.5,-409.05 68.5,-421.67"/>
<polygon fill="black" stroke="black" points="65,-421.34 68.5,-431.34 72,-421.34 65,-421.34"/>
<text text-anchor="middle" x="108.5" y="-403.8" font-family="Times New Roman,serif" font-size="14.00">Expression de</text>
</g>
<!-- UMLRM0015 -->
<g id="node3" class="node">
<title>UMLRM0015</title>
<polygon fill="none" stroke="black" points="108,-233 29,-233 29,0 108,0 108,-233"/>
<text text-anchor="middle" x="68.5" y="-217.8" font-family="Times New Roman,serif" font-size="14.00">Jean&#45;</text>
<text text-anchor="middle" x="68.5" y="-202.8" font-family="Times New Roman,serif" font-size="14.00">Claude</text>
<text text-anchor="middle" x="68.5" y="-187.8" font-family="Times New Roman,serif" font-size="14.00">Gallotta,</text>
<text text-anchor="middle" x="68.5" y="-172.8" font-family="Times New Roman,serif" font-size="14.00">Nosferatu,</text>
<text text-anchor="middle" x="68.5" y="-157.8" font-family="Times New Roman,serif" font-size="14.00">ballet de</text>
<text text-anchor="middle" x="68.5" y="-142.8" font-family="Times New Roman,serif" font-size="14.00">l&#39;Opéra,</text>
<text text-anchor="middle" x="68.5" y="-127.8" font-family="Times New Roman,serif" font-size="14.00">Opéra</text>
<text text-anchor="middle" x="68.5" y="-112.8" font-family="Times New Roman,serif" font-size="14.00">national</text>
<text text-anchor="middle" x="68.5" y="-97.8" font-family="Times New Roman,serif" font-size="14.00">de Paris,</text>
<text text-anchor="middle" x="68.5" y="-82.8" font-family="Times New Roman,serif" font-size="14.00">Opéra</text>
<text text-anchor="middle" x="68.5" y="-67.8" font-family="Times New Roman,serif" font-size="14.00">national</text>
<text text-anchor="middle" x="68.5" y="-52.8" font-family="Times New Roman,serif" font-size="14.00">de Paris,</text>
<text text-anchor="middle" x="68.5" y="-37.8" font-family="Times New Roman,serif" font-size="14.00">C 2005, 1</text>
<text text-anchor="middle" x="68.5" y="-22.8" font-family="Times New Roman,serif" font-size="14.00">volume (54</text>
<text text-anchor="middle" x="68.5" y="-7.8" font-family="Times New Roman,serif" font-size="14.00">pages)</text>
</g>
<!-- UMLRM0015&#45;&gt;UMLRM0014 -->
<g id="edge2" class="edge">
<title>UMLRM0015&#45;&gt;UMLRM0014</title>
<path fill="none" stroke="black" d="M68.5,-233.23C68.5,-246.72 68.5,-260.04 68.5,-272.31"/>
<polygon fill="black" stroke="black" points="65,-272.22 68.5,-282.22 72,-272.22 65,-272.22"/>
<text text-anchor="middle" x="115" y="-254.8" font-family="Times New Roman,serif" font-size="14.00">Manifestation de</text>
</g>
</g>
</svg>
