<?xml version="1.0" encoding="UTF-8" standalone="no"?>
<!DOCTYPE svg PUBLIC "-//W3C//DTD SVG 1.1//EN"
 "http://www.w3.org/Graphics/SVG/1.1/DTD/svg11.dtd">
<!-- Generated by graphviz version 7.0.3 (20221126.0506)
 -->
<!-- Title: UMLRM0056 Pages: 1 -->
<svg width="237pt" height="449pt"
 viewBox="0.00 0.00 237.00 449.00" xmlns="http://www.w3.org/2000/svg" xmlns:xlink="http://www.w3.org/1999/xlink">
<g id="graph0" class="graph" transform="scale(1 1) rotate(0) translate(4 445)">
<title>UMLRM0056</title>
<polygon fill="white" stroke="none" points="-4,4 -4,-445 233,-445 233,4 -4,4"/>
<!-- UMLRM0056 -->
<g id="node1" class="node">
<title>UMLRM0056</title>
<polygon fill="none" stroke="red" points="155,-352 37,-352 37,-269 155,-269 155,-352"/>
<text text-anchor="middle" x="96" y="-336.8" font-family="Times New Roman,serif" font-size="14.00">Stoker, Bram</text>
<text text-anchor="middle" x="96" y="-321.8" font-family="Times New Roman,serif" font-size="14.00">(1847&#45;1912),</text>
<text text-anchor="middle" x="96" y="-306.8" font-family="Times New Roman,serif" font-size="14.00">Dracula, Français,</text>
<text text-anchor="middle" x="96" y="-291.8" font-family="Times New Roman,serif" font-size="14.00">Paul&#45;Margueritte,</text>
<text text-anchor="middle" x="96" y="-276.8" font-family="Times New Roman,serif" font-size="14.00">Texte noté</text>
</g>
<!-- UMLRM0004 -->
<g id="node2" class="node">
<title>UMLRM0004</title>
<polygon fill="none" stroke="black" points="163,-441 29,-441 29,-403 163,-403 163,-441"/>
<text text-anchor="middle" x="96" y="-425.8" font-family="Times New Roman,serif" font-size="14.00">Stoker, Bram</text>
<text text-anchor="middle" x="96" y="-410.8" font-family="Times New Roman,serif" font-size="14.00">(1847&#45;1912), Dracula</text>
</g>
<!-- UMLRM0056&#45;&gt;UMLRM0004 -->
<g id="edge1" class="edge">
<title>UMLRM0056&#45;&gt;UMLRM0004</title>
<path fill="none" stroke="black" d="M96,-352.27C96,-365.23 96,-379.3 96,-391.31"/>
<polygon fill="black" stroke="black" points="92.5,-391.01 96,-401.01 99.5,-391.01 92.5,-391.01"/>
<text text-anchor="middle" x="136" y="-373.8" font-family="Times New Roman,serif" font-size="14.00">Expression de</text>
</g>
<!-- UMLRM0057 -->
<g id="node3" class="node">
<title>UMLRM0057</title>
<polygon fill="none" stroke="black" points="76,-203 0,-203 0,-15 76,-15 76,-203"/>
<text text-anchor="middle" x="38" y="-187.8" font-family="Times New Roman,serif" font-size="14.00">Dracula,</text>
<text text-anchor="middle" x="38" y="-172.8" font-family="Times New Roman,serif" font-size="14.00">Brahm</text>
<text text-anchor="middle" x="38" y="-157.8" font-family="Times New Roman,serif" font-size="14.00">Stoker,</text>
<text text-anchor="middle" x="38" y="-142.8" font-family="Times New Roman,serif" font-size="14.00">l’Édition</text>
<text text-anchor="middle" x="38" y="-127.8" font-family="Times New Roman,serif" font-size="14.00">française</text>
<text text-anchor="middle" x="38" y="-112.8" font-family="Times New Roman,serif" font-size="14.00">illustrée,</text>
<text text-anchor="middle" x="38" y="-97.8" font-family="Times New Roman,serif" font-size="14.00">1920, 1</text>
<text text-anchor="middle" x="38" y="-82.8" font-family="Times New Roman,serif" font-size="14.00">volume</text>
<text text-anchor="middle" x="38" y="-67.8" font-family="Times New Roman,serif" font-size="14.00">(263</text>
<text text-anchor="middle" x="38" y="-52.8" font-family="Times New Roman,serif" font-size="14.00">pages),</text>
<text text-anchor="middle" x="38" y="-37.8" font-family="Times New Roman,serif" font-size="14.00">couverture</text>
<text text-anchor="middle" x="38" y="-22.8" font-family="Times New Roman,serif" font-size="14.00">illustrée</text>
</g>
<!-- UMLRM0057&#45;&gt;UMLRM0056 -->
<g id="edge2" class="edge">
<title>UMLRM0057&#45;&gt;UMLRM0056</title>
<path fill="none" stroke="black" d="M28.72,-203.39C29.87,-219.7 32.91,-236.17 39,-251 40.11,-253.7 41.41,-256.34 42.86,-258.92"/>
<polygon fill="black" stroke="black" points="39.9,-260.79 48.29,-267.25 45.76,-256.96 39.9,-260.79"/>
<text text-anchor="middle" x="85.5" y="-239.8" font-family="Times New Roman,serif" font-size="14.00">Manifestation de</text>
</g>
<!-- UMLRM0063 -->
<g id="node4" class="node">
<title>UMLRM0063</title>
<polygon fill="none" stroke="black" points="192,-218 116,-218 116,0 192,0 192,-218"/>
<text text-anchor="middle" x="154" y="-202.8" font-family="Times New Roman,serif" font-size="14.00">Dracula,</text>
<text text-anchor="middle" x="154" y="-187.8" font-family="Times New Roman,serif" font-size="14.00">Bram</text>
<text text-anchor="middle" x="154" y="-172.8" font-family="Times New Roman,serif" font-size="14.00">Stoker,</text>
<text text-anchor="middle" x="154" y="-157.8" font-family="Times New Roman,serif" font-size="14.00">les</text>
<text text-anchor="middle" x="154" y="-142.8" font-family="Times New Roman,serif" font-size="14.00">Éditions</text>
<text text-anchor="middle" x="154" y="-127.8" font-family="Times New Roman,serif" font-size="14.00">des</text>
<text text-anchor="middle" x="154" y="-112.8" font-family="Times New Roman,serif" font-size="14.00">Quatre&#45;</text>
<text text-anchor="middle" x="154" y="-97.8" font-family="Times New Roman,serif" font-size="14.00">vents,</text>
<text text-anchor="middle" x="154" y="-82.8" font-family="Times New Roman,serif" font-size="14.00">1946, 1</text>
<text text-anchor="middle" x="154" y="-67.8" font-family="Times New Roman,serif" font-size="14.00">volume</text>
<text text-anchor="middle" x="154" y="-52.8" font-family="Times New Roman,serif" font-size="14.00">(344</text>
<text text-anchor="middle" x="154" y="-37.8" font-family="Times New Roman,serif" font-size="14.00">pages),</text>
<text text-anchor="middle" x="154" y="-22.8" font-family="Times New Roman,serif" font-size="14.00">couverture</text>
<text text-anchor="middle" x="154" y="-7.8" font-family="Times New Roman,serif" font-size="14.00">illustrée</text>
</g>
<!-- UMLRM0063&#45;&gt;UMLRM0056 -->
<g id="edge3" class="edge">
<title>UMLRM0063&#45;&gt;UMLRM0056</title>
<path fill="none" stroke="black" d="M141.66,-218.14C139.04,-229.4 135.86,-240.54 132,-251 131.08,-253.5 130.04,-256.01 128.92,-258.51"/>
<polygon fill="black" stroke="black" points="125.86,-256.8 124.56,-267.31 132.13,-259.91 125.86,-256.8"/>
<text text-anchor="middle" x="182.5" y="-239.8" font-family="Times New Roman,serif" font-size="14.00">Manifestation de</text>
</g>
</g>
</svg>
