<?xml version="1.0" encoding="UTF-8" standalone="no"?>
<!DOCTYPE svg PUBLIC "-//W3C//DTD SVG 1.1//EN"
 "http://www.w3.org/Graphics/SVG/1.1/DTD/svg11.dtd">
<!-- Generated by graphviz version 7.0.3 (20221126.0506)
 -->
<!-- Title: UMLRM0129 Pages: 1 -->
<svg width="1440pt" height="81pt"
 viewBox="0.00 0.00 1440.00 80.68" xmlns="http://www.w3.org/2000/svg" xmlns:xlink="http://www.w3.org/1999/xlink">
<g id="graph0" class="graph" transform="scale(0.672353 0.672353) rotate(0) translate(4 116)">
<title>UMLRM0129</title>
<polygon fill="white" stroke="none" points="-4,4 -4,-116 2137.73,-116 2137.73,4 -4,4"/>
<!-- UMLRM0129 -->
<g id="node1" class="node">
<title>UMLRM0129</title>
<ellipse fill="none" stroke="black" cx="113.74" cy="-45" rx="113.98" ry="18"/>
<text text-anchor="middle" x="113.74" y="-41.3" font-family="Times New Roman,serif" font-size="14.00">Shadow of the vampire, film</text>
</g>
<!-- UMLRM0130 -->
<g id="node2" class="node">
<title>UMLRM0130</title>
<ellipse fill="none" stroke="black" cx="457.22" cy="-72" rx="113.98" ry="18"/>
<text text-anchor="middle" x="457.22" y="-68.3" font-family="Times New Roman,serif" font-size="14.00">Shadow of the vampire, film</text>
</g>
<!-- UMLRM0129&#45;&gt;UMLRM0130 -->
<g id="edge1" class="edge">
<title>UMLRM0129&#45;&gt;UMLRM0130</title>
<path fill="none" stroke="black" d="M216.73,-53.06C256.52,-56.21 302.29,-59.83 343.09,-63.06"/>
<polygon fill="black" stroke="black" points="342.7,-66.54 352.95,-63.83 343.26,-59.56 342.7,-66.54"/>
<text text-anchor="middle" x="285.48" y="-63.8" font-family="Times New Roman,serif" font-size="14.00">Expression de</text>
</g>
<!-- UMLRM0184 -->
<g id="node5" class="node">
<title>UMLRM0184</title>
<ellipse fill="none" stroke="black" cx="457.22" cy="-18" rx="113.98" ry="18"/>
<text text-anchor="middle" x="457.22" y="-14.3" font-family="Times New Roman,serif" font-size="14.00">Shadow of the vampire, film</text>
</g>
<!-- UMLRM0129&#45;&gt;UMLRM0184 -->
<g id="edge4" class="edge">
<title>UMLRM0129&#45;&gt;UMLRM0184</title>
<path fill="none" stroke="black" d="M216.73,-36.94C256.52,-33.79 302.29,-30.17 343.09,-26.94"/>
<polygon fill="black" stroke="black" points="343.26,-30.44 352.95,-26.17 342.7,-23.46 343.26,-30.44"/>
<text text-anchor="middle" x="285.48" y="-36.8" font-family="Times New Roman,serif" font-size="14.00">Expression de</text>
</g>
<!-- UMLRM0131 -->
<g id="node3" class="node">
<title>UMLRM0131</title>
<ellipse fill="none" stroke="black" cx="1416.85" cy="-94" rx="649.88" ry="18"/>
<text text-anchor="middle" x="1416.85" y="-90.3" font-family="Times New Roman,serif" font-size="14.00">L&#39;ombre du vampire, E. Elias Merhige, [réalisateur], Studio Canal+ &#45; Universal pictures vidéo France SA, [DL 2001], 1 cassette vidéo, VHS, SECAM, surround (Dolby), zone 2</text>
</g>
<!-- UMLRM0130&#45;&gt;UMLRM0131 -->
<g id="edge2" class="edge">
<title>UMLRM0130&#45;&gt;UMLRM0131</title>
<path fill="none" stroke="black" d="M570.42,-74.58C654.14,-76.5 775.09,-79.28 899.44,-82.14"/>
<polygon fill="black" stroke="black" points="899.12,-85.63 909.2,-82.36 899.28,-78.63 899.12,-85.63"/>
<text text-anchor="middle" x="635.46" y="-79.8" font-family="Times New Roman,serif" font-size="14.00">Manifestation de</text>
</g>
<!-- UMLRM0185 -->
<g id="node4" class="node">
<title>UMLRM0185</title>
<ellipse fill="none" stroke="black" cx="1416.85" cy="-29" rx="716.77" ry="18"/>
<text text-anchor="middle" x="1416.85" y="-25.3" font-family="Times New Roman,serif" font-size="14.00">L&#39;ombre du vampire, E. Elias Merhige, [réalisateur], Studio Canal+ &#45; Universal pictures vidéo France SA, [DL 2001], 1 DVD vidéo, monoface, 16/9 compatible 4/3, PAL, Dolby digital 5.1, zone 2</text>
</g>
<!-- UMLRM0130&#45;&gt;UMLRM0185 -->
<g id="edge3" class="edge">
<title>UMLRM0130&#45;&gt;UMLRM0185</title>
<path fill="none" stroke="black" d="M545.32,-60.24C559.87,-58.6 574.82,-57.09 588.96,-56 671.53,-49.61 758.86,-44.73 844.6,-41"/>
<polygon fill="black" stroke="black" points="844.52,-44.51 854.36,-40.59 844.22,-37.52 844.52,-44.51"/>
<text text-anchor="middle" x="635.46" y="-59.8" font-family="Times New Roman,serif" font-size="14.00">Manifestation de</text>
</g>
<!-- UMLRM0184&#45;&gt;UMLRM0185 -->
<g id="edge5" class="edge">
<title>UMLRM0184&#45;&gt;UMLRM0185</title>
<path fill="none" stroke="black" d="M571.47,-18.3C606.85,-18.45 646.03,-18.67 681.96,-19 713.16,-19.28 745.11,-19.6 777.37,-19.95"/>
<polygon fill="black" stroke="black" points="777.25,-23.45 787.29,-20.06 777.32,-16.45 777.25,-23.45"/>
<text text-anchor="middle" x="635.46" y="-22.8" font-family="Times New Roman,serif" font-size="14.00">Manifestation de</text>
</g>
</g>
</svg>
