<?xml version="1.0" encoding="UTF-8" standalone="no"?>
<!DOCTYPE svg PUBLIC "-//W3C//DTD SVG 1.1//EN"
 "http://www.w3.org/Graphics/SVG/1.1/DTD/svg11.dtd">
<!-- Generated by graphviz version 7.0.3 (20221126.0506)
 -->
<!-- Title: UMLRM0068 Pages: 1 -->
<svg width="168pt" height="479pt"
 viewBox="0.00 0.00 168.00 479.00" xmlns="http://www.w3.org/2000/svg" xmlns:xlink="http://www.w3.org/1999/xlink">
<g id="graph0" class="graph" transform="scale(1 1) rotate(0) translate(4 475)">
<title>UMLRM0068</title>
<polygon fill="white" stroke="none" points="-4,4 -4,-475 164,-475 164,4 -4,4"/>
<!-- UMLRM0068 -->
<g id="node1" class="node">
<title>UMLRM0068</title>
<polygon fill="none" stroke="red" points="130,-382 4,-382 4,-299 130,-299 130,-382"/>
<text text-anchor="middle" x="67" y="-366.8" font-family="Times New Roman,serif" font-size="14.00">Stoker, Bram</text>
<text text-anchor="middle" x="67" y="-351.8" font-family="Times New Roman,serif" font-size="14.00">(1847&#45;1912),</text>
<text text-anchor="middle" x="67" y="-336.8" font-family="Times New Roman,serif" font-size="14.00">Dracula, Français,</text>
<text text-anchor="middle" x="67" y="-321.8" font-family="Times New Roman,serif" font-size="14.00">Molitor &#45; Moissard,</text>
<text text-anchor="middle" x="67" y="-306.8" font-family="Times New Roman,serif" font-size="14.00">Texte noté</text>
</g>
<!-- UMLRM0004 -->
<g id="node2" class="node">
<title>UMLRM0004</title>
<polygon fill="none" stroke="black" points="134,-471 0,-471 0,-433 134,-433 134,-471"/>
<text text-anchor="middle" x="67" y="-455.8" font-family="Times New Roman,serif" font-size="14.00">Stoker, Bram</text>
<text text-anchor="middle" x="67" y="-440.8" font-family="Times New Roman,serif" font-size="14.00">(1847&#45;1912), Dracula</text>
</g>
<!-- UMLRM0068&#45;&gt;UMLRM0004 -->
<g id="edge1" class="edge">
<title>UMLRM0068&#45;&gt;UMLRM0004</title>
<path fill="none" stroke="black" d="M67,-382.27C67,-395.23 67,-409.3 67,-421.31"/>
<polygon fill="black" stroke="black" points="63.5,-421.01 67,-431.01 70.5,-421.01 63.5,-421.01"/>
<text text-anchor="middle" x="107" y="-403.8" font-family="Times New Roman,serif" font-size="14.00">Expression de</text>
</g>
<!-- UMLRM0069 -->
<g id="node3" class="node">
<title>UMLRM0069</title>
<polygon fill="none" stroke="black" points="105.5,-248 28.5,-248 28.5,0 105.5,0 105.5,-248"/>
<text text-anchor="middle" x="67" y="-232.8" font-family="Times New Roman,serif" font-size="14.00">Dracula,</text>
<text text-anchor="middle" x="67" y="-217.8" font-family="Times New Roman,serif" font-size="14.00">Bram</text>
<text text-anchor="middle" x="67" y="-202.8" font-family="Times New Roman,serif" font-size="14.00">Stoker,</text>
<text text-anchor="middle" x="67" y="-187.8" font-family="Times New Roman,serif" font-size="14.00">l&#39;École</text>
<text text-anchor="middle" x="67" y="-172.8" font-family="Times New Roman,serif" font-size="14.00">des</text>
<text text-anchor="middle" x="67" y="-157.8" font-family="Times New Roman,serif" font-size="14.00">loisirs &#45;</text>
<text text-anchor="middle" x="67" y="-142.8" font-family="Times New Roman,serif" font-size="14.00">Imprimerie</text>
<text text-anchor="middle" x="67" y="-127.8" font-family="Times New Roman,serif" font-size="14.00">CPI</text>
<text text-anchor="middle" x="67" y="-112.8" font-family="Times New Roman,serif" font-size="14.00">Firmin&#45;</text>
<text text-anchor="middle" x="67" y="-97.8" font-family="Times New Roman,serif" font-size="14.00">Didot, DL</text>
<text text-anchor="middle" x="67" y="-82.8" font-family="Times New Roman,serif" font-size="14.00">2019, 1</text>
<text text-anchor="middle" x="67" y="-67.8" font-family="Times New Roman,serif" font-size="14.00">volume</text>
<text text-anchor="middle" x="67" y="-52.8" font-family="Times New Roman,serif" font-size="14.00">(232</text>
<text text-anchor="middle" x="67" y="-37.8" font-family="Times New Roman,serif" font-size="14.00">pages),</text>
<text text-anchor="middle" x="67" y="-22.8" font-family="Times New Roman,serif" font-size="14.00">couverture</text>
<text text-anchor="middle" x="67" y="-7.8" font-family="Times New Roman,serif" font-size="14.00">illustrée</text>
</g>
<!-- UMLRM0069&#45;&gt;UMLRM0068 -->
<g id="edge2" class="edge">
<title>UMLRM0069&#45;&gt;UMLRM0068</title>
<path fill="none" stroke="black" d="M67,-248.22C67,-261.95 67,-275.32 67,-287.4"/>
<polygon fill="black" stroke="black" points="63.5,-287.05 67,-297.05 70.5,-287.05 63.5,-287.05"/>
<text text-anchor="middle" x="113.5" y="-269.8" font-family="Times New Roman,serif" font-size="14.00">Manifestation de</text>
</g>
</g>
</svg>
