<?xml version="1.0" encoding="UTF-8" standalone="no"?>
<!DOCTYPE svg PUBLIC "-//W3C//DTD SVG 1.1//EN"
 "http://www.w3.org/Graphics/SVG/1.1/DTD/svg11.dtd">
<!-- Generated by graphviz version 7.0.3 (20221126.0506)
 -->
<!-- Title: UMLRM0169 Pages: 1 -->
<svg width="1440pt" height="24pt"
 viewBox="0.00 0.00 1440.00 23.87" xmlns="http://www.w3.org/2000/svg" xmlns:xlink="http://www.w3.org/1999/xlink">
<g id="graph0" class="graph" transform="scale(0.5426 0.5426) rotate(0) translate(4 40)">
<title>UMLRM0169</title>
<polygon fill="white" stroke="none" points="-4,4 -4,-40 2649.89,-40 2649.89,4 -4,4"/>
<!-- UMLRM0169 -->
<g id="node1" class="node">
<title>UMLRM0169</title>
<ellipse fill="none" stroke="black" cx="2320.92" cy="-18" rx="324.94" ry="18"/>
<text text-anchor="middle" x="2320.92" y="-14.3" font-family="Times New Roman,serif" font-size="14.00">Gauriat, Vincent, Dracula, pages tirées du journal d’une vierge, un film de Guy Maddin</text>
</g>
<!-- UMLRM0170 -->
<g id="node2" class="node">
<title>UMLRM0170</title>
<ellipse fill="none" stroke="black" cx="1512.73" cy="-18" rx="367.43" ry="18"/>
<text text-anchor="middle" x="1512.73" y="-14.3" font-family="Times New Roman,serif" font-size="14.00">Gauriat, Vincent, Dracula, pages tirées du journal d’une vierge, un film de Guy Maddin, Image fixe</text>
</g>
<!-- UMLRM0170&#45;&gt;UMLRM0169 -->
<g id="edge1" class="edge">
<title>UMLRM0170&#45;&gt;UMLRM0169</title>
<path fill="none" stroke="black" d="M1880.55,-18C1915.16,-18 1950.13,-18 1984.43,-18"/>
<polygon fill="black" stroke="black" points="1984.03,-21.5 1994.03,-18 1984.03,-14.5 1984.03,-21.5"/>
<text text-anchor="middle" x="1937.94" y="-21.8" font-family="Times New Roman,serif" font-size="14.00">Expression de</text>
</g>
<!-- UMLRM0171 -->
<g id="node3" class="node">
<title>UMLRM0171</title>
<ellipse fill="none" stroke="black" cx="508.25" cy="-18" rx="508.01" ry="18"/>
<text text-anchor="middle" x="508.25" y="-14.3" font-family="Times New Roman,serif" font-size="14.00">Dracula, pages tirées du journal d’une vierge, un film de Guy Maddin, [V. Gauriat], ED distribution &#45; Imprimerie Karcher, [2003], 1 feuille</text>
</g>
<!-- UMLRM0171&#45;&gt;UMLRM0170 -->
<g id="edge2" class="edge">
<title>UMLRM0171&#45;&gt;UMLRM0170</title>
<path fill="none" stroke="black" d="M1016.73,-18C1056.05,-18 1095.32,-18 1133.57,-18"/>
<polygon fill="black" stroke="black" points="1133.35,-21.5 1143.35,-18 1133.35,-14.5 1133.35,-21.5"/>
<text text-anchor="middle" x="1081.01" y="-21.8" font-family="Times New Roman,serif" font-size="14.00">Manifestation de</text>
</g>
</g>
</svg>
