<?xml version="1.0" encoding="UTF-8" standalone="no"?>
<!DOCTYPE svg PUBLIC "-//W3C//DTD SVG 1.1//EN"
 "http://www.w3.org/Graphics/SVG/1.1/DTD/svg11.dtd">
<!-- Generated by graphviz version 7.0.3 (20221126.0506)
 -->
<!-- Title: UMLRM0013 Pages: 1 -->
<svg width="1440pt" height="26pt"
 viewBox="0.00 0.00 1440.00 25.69" xmlns="http://www.w3.org/2000/svg" xmlns:xlink="http://www.w3.org/1999/xlink">
<g id="graph0" class="graph" transform="scale(0.583775 0.583775) rotate(0) translate(4 40)">
<title>UMLRM0013</title>
<polygon fill="white" stroke="none" points="-4,4 -4,-40 2462.7,-40 2462.7,4 -4,4"/>
<!-- UMLRM0013 -->
<g id="node1" class="node">
<title>UMLRM0013</title>
<ellipse fill="none" stroke="black" cx="2188.33" cy="-18" rx="270.25" ry="18"/>
<text text-anchor="middle" x="2188.33" y="-14.3" font-family="Times New Roman,serif" font-size="14.00">Jean&#45;Claude Gallotta, Nosferatu, ballet de l&#39;Opéra, programme, 2006&#45;05</text>
</g>
<!-- UMLRM0014 -->
<g id="node2" class="node">
<title>UMLRM0014</title>
<ellipse fill="none" stroke="black" cx="1445.78" cy="-18" rx="356.34" ry="18"/>
<text text-anchor="middle" x="1445.78" y="-14.3" font-family="Times New Roman,serif" font-size="14.00">Jean&#45;Claude Gallotta, Nosferatu, ballet de l&#39;Opéra, programme, 2006&#45;05, Texte noté. Image fixe</text>
</g>
<!-- UMLRM0014&#45;&gt;UMLRM0013 -->
<g id="edge1" class="edge">
<title>UMLRM0014&#45;&gt;UMLRM0013</title>
<path fill="none" stroke="black" d="M1802.41,-18C1837.23,-18 1872.23,-18 1906.16,-18"/>
<polygon fill="black" stroke="black" points="1906.11,-21.5 1916.11,-18 1906.11,-14.5 1906.11,-21.5"/>
<text text-anchor="middle" x="1859.95" y="-21.8" font-family="Times New Roman,serif" font-size="14.00">Expression de</text>
</g>
<!-- UMLRM0015 -->
<g id="node3" class="node">
<title>UMLRM0015</title>
<ellipse fill="none" stroke="black" cx="480.31" cy="-18" rx="480.11" ry="18"/>
<text text-anchor="middle" x="480.31" y="-14.3" font-family="Times New Roman,serif" font-size="14.00">Jean&#45;Claude Gallotta, Nosferatu, ballet de l&#39;Opéra, &#160;Opéra national de Paris, Opéra national de Paris, C 2005, 1 volume (54 pages)</text>
</g>
<!-- UMLRM0015&#45;&gt;UMLRM0014 -->
<g id="edge2" class="edge">
<title>UMLRM0015&#45;&gt;UMLRM0014</title>
<path fill="none" stroke="black" d="M960.58,-18C999.99,-18 1039.44,-18 1077.84,-18"/>
<polygon fill="black" stroke="black" points="1077.67,-21.5 1087.67,-18 1077.67,-14.5 1077.67,-21.5"/>
<text text-anchor="middle" x="1025.11" y="-21.8" font-family="Times New Roman,serif" font-size="14.00">Manifestation de</text>
</g>
</g>
</svg>
