<?xml version="1.0" encoding="UTF-8" standalone="no"?>
<!DOCTYPE svg PUBLIC "-//W3C//DTD SVG 1.1//EN"
 "http://www.w3.org/Graphics/SVG/1.1/DTD/svg11.dtd">
<!-- Generated by graphviz version 7.0.3 (20221126.0506)
 -->
<!-- Title: UMLRM0135 Pages: 1 -->
<svg width="1440pt" height="30pt"
 viewBox="0.00 0.00 1440.00 29.53" xmlns="http://www.w3.org/2000/svg" xmlns:xlink="http://www.w3.org/1999/xlink">
<g id="graph0" class="graph" transform="scale(0.671131 0.671131) rotate(0) translate(4 40)">
<title>UMLRM0135</title>
<polygon fill="white" stroke="none" points="-4,4 -4,-40 2141.63,-40 2141.63,4 -4,4"/>
<!-- UMLRM0135 -->
<g id="node1" class="node">
<title>UMLRM0135</title>
<ellipse fill="none" stroke="black" cx="1980.35" cy="-18" rx="157.07" ry="18"/>
<text text-anchor="middle" x="1980.35" y="-14.3" font-family="Times New Roman,serif" font-size="14.00">Dracula: pages from a virgin&#39;s diary, film</text>
</g>
<!-- UMLRM0136 -->
<g id="node2" class="node">
<title>UMLRM0136</title>
<ellipse fill="none" stroke="black" cx="1547.17" cy="-18" rx="159.77" ry="18"/>
<text text-anchor="middle" x="1547.17" y="-14.3" font-family="Times New Roman,serif" font-size="14.00">Dracula : pages from a virgin&#39;s diary, film</text>
</g>
<!-- UMLRM0136&#45;&gt;UMLRM0135 -->
<g id="edge1" class="edge">
<title>UMLRM0136&#45;&gt;UMLRM0135</title>
<path fill="none" stroke="black" d="M1707.2,-18C1741.31,-18 1777.45,-18 1811.87,-18"/>
<polygon fill="black" stroke="black" points="1811.46,-21.5 1821.46,-18 1811.46,-14.5 1811.46,-21.5"/>
<text text-anchor="middle" x="1765.06" y="-21.8" font-family="Times New Roman,serif" font-size="14.00">Expression de</text>
</g>
<!-- UMLRM0137 -->
<g id="node3" class="node">
<title>UMLRM0137</title>
<ellipse fill="none" stroke="black" cx="629.14" cy="-18" rx="629.29" ry="18"/>
<text text-anchor="middle" x="629.14" y="-14.3" font-family="Times New Roman,serif" font-size="14.00">Dracula, un film de Guy Maddin, [réalisateur], ED distribution &#45; ED distribution, [DL 2005], 1 DVD vidéo, monoface simple couche, PAL, surround (Dolby), toutes zones</text>
</g>
<!-- UMLRM0137&#45;&gt;UMLRM0136 -->
<g id="edge2" class="edge">
<title>UMLRM0137&#45;&gt;UMLRM0136</title>
<path fill="none" stroke="black" d="M1258.85,-18C1300.54,-18 1340.03,-18 1375.64,-18"/>
<polygon fill="black" stroke="black" points="1375.54,-21.5 1385.54,-18 1375.54,-14.5 1375.54,-21.5"/>
<text text-anchor="middle" x="1322.79" y="-21.8" font-family="Times New Roman,serif" font-size="14.00">Manifestation de</text>
</g>
</g>
</svg>
