<?xml version="1.0" encoding="UTF-8" standalone="no"?>
<!DOCTYPE svg PUBLIC "-//W3C//DTD SVG 1.1//EN"
 "http://www.w3.org/Graphics/SVG/1.1/DTD/svg11.dtd">
<!-- Generated by graphviz version 7.0.3 (20221126.0506)
 -->
<!-- Title: UMLRM0075 Pages: 1 -->
<svg width="1440pt" height="35pt"
 viewBox="0.00 0.00 1440.00 35.00" xmlns="http://www.w3.org/2000/svg" xmlns:xlink="http://www.w3.org/1999/xlink">
<g id="graph0" class="graph" transform="scale(0.795465 0.795465) rotate(0) translate(4 40)">
<title>UMLRM0075</title>
<polygon fill="white" stroke="none" points="-4,4 -4,-40 1806.26,-40 1806.26,4 -4,4"/>
<!-- UMLRM0075 -->
<g id="node1" class="node">
<title>UMLRM0075</title>
<ellipse fill="none" stroke="black" cx="1637.18" cy="-18" rx="165.17" ry="18"/>
<text text-anchor="middle" x="1637.18" y="-14.3" font-family="Times New Roman,serif" font-size="14.00">Stoker, Bram (1847&#45;1912), Dracula&#39;s guest</text>
</g>
<!-- UMLRM0076 -->
<g id="node2" class="node">
<title>UMLRM0076</title>
<ellipse fill="none" stroke="black" cx="1146.16" cy="-18" rx="209.86" ry="18"/>
<text text-anchor="middle" x="1146.16" y="-14.3" font-family="Times New Roman,serif" font-size="14.00">Stoker, Bram (1847&#45;1912), Dracula’s guest, Texte noté</text>
</g>
<!-- UMLRM0076&#45;&gt;UMLRM0075 -->
<g id="edge1" class="edge">
<title>UMLRM0076&#45;&gt;UMLRM0075</title>
<path fill="none" stroke="black" d="M1356.32,-18C1390.93,-18 1426.51,-18 1460.19,-18"/>
<polygon fill="black" stroke="black" points="1460.03,-21.5 1470.03,-18 1460.03,-14.5 1460.03,-21.5"/>
<text text-anchor="middle" x="1414.09" y="-21.8" font-family="Times New Roman,serif" font-size="14.00">Expression de</text>
</g>
<!-- UMLRM0077 -->
<g id="node3" class="node">
<title>UMLRM0077</title>
<ellipse fill="none" stroke="black" cx="403.61" cy="-18" rx="403.73" ry="18"/>
<text text-anchor="middle" x="403.61" y="-14.3" font-family="Times New Roman,serif" font-size="14.00">Dracula &#45; suivi de L&#39;invité de Dracula, Bram Stoker, Pocket, 2011, 1 volume (575 pages), couverture illustrée</text>
</g>
<!-- UMLRM0077&#45;&gt;UMLRM0076 -->
<g id="edge2" class="edge">
<title>UMLRM0077&#45;&gt;UMLRM0076</title>
<path fill="none" stroke="black" d="M807.66,-18C847.76,-18 887.34,-18 924.5,-18"/>
<polygon fill="black" stroke="black" points="924.44,-21.5 934.44,-18 924.44,-14.5 924.44,-21.5"/>
<text text-anchor="middle" x="871.73" y="-21.8" font-family="Times New Roman,serif" font-size="14.00">Manifestation de</text>
</g>
</g>
</svg>
