<?xml version="1.0" encoding="UTF-8" standalone="no"?>
<!DOCTYPE svg PUBLIC "-//W3C//DTD SVG 1.1//EN"
 "http://www.w3.org/Graphics/SVG/1.1/DTD/svg11.dtd">
<!-- Generated by graphviz version 7.0.3 (20221126.0506)
 -->
<!-- Title: UMLRM0136 Pages: 1 -->
<svg width="168pt" height="539pt"
 viewBox="0.00 0.00 167.50 539.00" xmlns="http://www.w3.org/2000/svg" xmlns:xlink="http://www.w3.org/1999/xlink">
<g id="graph0" class="graph" transform="scale(1 1) rotate(0) translate(4 535)">
<title>UMLRM0136</title>
<polygon fill="white" stroke="none" points="-4,4 -4,-535 163.5,-535 163.5,4 -4,4"/>
<!-- UMLRM0136 -->
<g id="node1" class="node">
<title>UMLRM0136</title>
<polygon fill="none" stroke="red" points="133,-427 0,-427 0,-344 133,-344 133,-427"/>
<text text-anchor="middle" x="66.5" y="-411.8" font-family="Times New Roman,serif" font-size="14.00">Dracula : pages from</text>
<text text-anchor="middle" x="66.5" y="-396.8" font-family="Times New Roman,serif" font-size="14.00">a virgin&#39;s diary,</text>
<text text-anchor="middle" x="66.5" y="-381.8" font-family="Times New Roman,serif" font-size="14.00">film, Anglais ;</text>
<text text-anchor="middle" x="66.5" y="-366.8" font-family="Times New Roman,serif" font-size="14.00">sous&#45;titrage en</text>
<text text-anchor="middle" x="66.5" y="-351.8" font-family="Times New Roman,serif" font-size="14.00">français</text>
</g>
<!-- UMLRM0135 -->
<g id="node2" class="node">
<title>UMLRM0135</title>
<polygon fill="none" stroke="black" points="131,-531 2,-531 2,-478 131,-478 131,-531"/>
<text text-anchor="middle" x="66.5" y="-515.8" font-family="Times New Roman,serif" font-size="14.00">Dracula: pages from</text>
<text text-anchor="middle" x="66.5" y="-500.8" font-family="Times New Roman,serif" font-size="14.00">a virgin&#39;s diary,</text>
<text text-anchor="middle" x="66.5" y="-485.8" font-family="Times New Roman,serif" font-size="14.00">film</text>
</g>
<!-- UMLRM0136&#45;&gt;UMLRM0135 -->
<g id="edge1" class="edge">
<title>UMLRM0136&#45;&gt;UMLRM0135</title>
<path fill="none" stroke="black" d="M66.5,-427.42C66.5,-440.11 66.5,-454 66.5,-466.41"/>
<polygon fill="black" stroke="black" points="63,-466.25 66.5,-476.25 70,-466.25 63,-466.25"/>
<text text-anchor="middle" x="106.5" y="-448.8" font-family="Times New Roman,serif" font-size="14.00">Expression de</text>
</g>
<!-- UMLRM0137 -->
<g id="node3" class="node">
<title>UMLRM0137</title>
<polygon fill="none" stroke="black" points="108.5,-293 24.5,-293 24.5,0 108.5,0 108.5,-293"/>
<text text-anchor="middle" x="66.5" y="-277.8" font-family="Times New Roman,serif" font-size="14.00">Dracula,</text>
<text text-anchor="middle" x="66.5" y="-262.8" font-family="Times New Roman,serif" font-size="14.00">un film de</text>
<text text-anchor="middle" x="66.5" y="-247.8" font-family="Times New Roman,serif" font-size="14.00">Guy</text>
<text text-anchor="middle" x="66.5" y="-232.8" font-family="Times New Roman,serif" font-size="14.00">Maddin, [r</text>
<text text-anchor="middle" x="66.5" y="-217.8" font-family="Times New Roman,serif" font-size="14.00">éalisateur</text>
<text text-anchor="middle" x="66.5" y="-202.8" font-family="Times New Roman,serif" font-size="14.00">], ED dist</text>
<text text-anchor="middle" x="66.5" y="-187.8" font-family="Times New Roman,serif" font-size="14.00">ribution &#45;</text>
<text text-anchor="middle" x="66.5" y="-172.8" font-family="Times New Roman,serif" font-size="14.00">ED distrib</text>
<text text-anchor="middle" x="66.5" y="-157.8" font-family="Times New Roman,serif" font-size="14.00">ution, [DL</text>
<text text-anchor="middle" x="66.5" y="-142.8" font-family="Times New Roman,serif" font-size="14.00">2005], 1</text>
<text text-anchor="middle" x="66.5" y="-127.8" font-family="Times New Roman,serif" font-size="14.00">DVD vidéo,</text>
<text text-anchor="middle" x="66.5" y="-112.8" font-family="Times New Roman,serif" font-size="14.00">monoface</text>
<text text-anchor="middle" x="66.5" y="-97.8" font-family="Times New Roman,serif" font-size="14.00">simple</text>
<text text-anchor="middle" x="66.5" y="-82.8" font-family="Times New Roman,serif" font-size="14.00">couche,</text>
<text text-anchor="middle" x="66.5" y="-67.8" font-family="Times New Roman,serif" font-size="14.00">PAL,</text>
<text text-anchor="middle" x="66.5" y="-52.8" font-family="Times New Roman,serif" font-size="14.00">surround</text>
<text text-anchor="middle" x="66.5" y="-37.8" font-family="Times New Roman,serif" font-size="14.00">(Dolby),</text>
<text text-anchor="middle" x="66.5" y="-22.8" font-family="Times New Roman,serif" font-size="14.00">toutes</text>
<text text-anchor="middle" x="66.5" y="-7.8" font-family="Times New Roman,serif" font-size="14.00">zones</text>
</g>
<!-- UMLRM0137&#45;&gt;UMLRM0136 -->
<g id="edge2" class="edge">
<title>UMLRM0137&#45;&gt;UMLRM0136</title>
<path fill="none" stroke="black" d="M66.5,-293.21C66.5,-306.97 66.5,-320.21 66.5,-332.13"/>
<polygon fill="black" stroke="black" points="63,-332.08 66.5,-342.08 70,-332.08 63,-332.08"/>
<text text-anchor="middle" x="113" y="-314.8" font-family="Times New Roman,serif" font-size="14.00">Manifestation de</text>
</g>
</g>
</svg>
