<?xml version="1.0" encoding="UTF-8" standalone="no"?>
<!DOCTYPE svg PUBLIC "-//W3C//DTD SVG 1.1//EN"
 "http://www.w3.org/Graphics/SVG/1.1/DTD/svg11.dtd">
<!-- Generated by graphviz version 7.0.3 (20221126.0506)
 -->
<!-- Title: UMLRM0008 Pages: 1 -->
<svg width="167pt" height="389pt"
 viewBox="0.00 0.00 167.00 389.00" xmlns="http://www.w3.org/2000/svg" xmlns:xlink="http://www.w3.org/1999/xlink">
<g id="graph0" class="graph" transform="scale(1 1) rotate(0) translate(4 385)">
<title>UMLRM0008</title>
<polygon fill="white" stroke="none" points="-4,4 -4,-385 163,-385 163,4 -4,4"/>
<!-- UMLRM0008 -->
<g id="node1" class="node">
<title>UMLRM0008</title>
<polygon fill="none" stroke="red" points="130,-292 2,-292 2,-239 130,-239 130,-292"/>
<text text-anchor="middle" x="66" y="-276.8" font-family="Times New Roman,serif" font-size="14.00">Nosferatu, Phantom</text>
<text text-anchor="middle" x="66" y="-261.8" font-family="Times New Roman,serif" font-size="14.00">der Nacht, film,</text>
<text text-anchor="middle" x="66" y="-246.8" font-family="Times New Roman,serif" font-size="14.00">français</text>
</g>
<!-- UMLRM0007 -->
<g id="node2" class="node">
<title>UMLRM0007</title>
<polygon fill="none" stroke="black" points="132,-381 0,-381 0,-343 132,-343 132,-381"/>
<text text-anchor="middle" x="66" y="-365.8" font-family="Times New Roman,serif" font-size="14.00"> Nosferatu, Phantom</text>
<text text-anchor="middle" x="66" y="-350.8" font-family="Times New Roman,serif" font-size="14.00">der Nacht, film</text>
</g>
<!-- UMLRM0008&#45;&gt;UMLRM0007 -->
<g id="edge1" class="edge">
<title>UMLRM0008&#45;&gt;UMLRM0007</title>
<path fill="none" stroke="black" d="M66,-292.32C66,-304.42 66,-318.88 66,-331.41"/>
<polygon fill="black" stroke="black" points="62.5,-331.18 66,-341.18 69.5,-331.18 62.5,-331.18"/>
<text text-anchor="middle" x="106" y="-313.8" font-family="Times New Roman,serif" font-size="14.00">Expression de</text>
</g>
<!-- UMLRM0009 -->
<g id="node3" class="node">
<title>UMLRM0009</title>
<polygon fill="none" stroke="black" points="105.5,-188 26.5,-188 26.5,0 105.5,0 105.5,-188"/>
<text text-anchor="middle" x="66" y="-172.8" font-family="Times New Roman,serif" font-size="14.00">Nosferatu,</text>
<text text-anchor="middle" x="66" y="-157.8" font-family="Times New Roman,serif" font-size="14.00">fantôme de</text>
<text text-anchor="middle" x="66" y="-142.8" font-family="Times New Roman,serif" font-size="14.00">la nuit,</text>
<text text-anchor="middle" x="66" y="-127.8" font-family="Times New Roman,serif" font-size="14.00">un film de</text>
<text text-anchor="middle" x="66" y="-112.8" font-family="Times New Roman,serif" font-size="14.00">Werner</text>
<text text-anchor="middle" x="66" y="-97.8" font-family="Times New Roman,serif" font-size="14.00">Herzog,</text>
<text text-anchor="middle" x="66" y="-82.8" font-family="Times New Roman,serif" font-size="14.00">Gaumont</text>
<text text-anchor="middle" x="66" y="-67.8" font-family="Times New Roman,serif" font-size="14.00">vidéo &#45;</text>
<text text-anchor="middle" x="66" y="-52.8" font-family="Times New Roman,serif" font-size="14.00">Gaumont</text>
<text text-anchor="middle" x="66" y="-37.8" font-family="Times New Roman,serif" font-size="14.00">vidéo, [DL</text>
<text text-anchor="middle" x="66" y="-22.8" font-family="Times New Roman,serif" font-size="14.00">2010], 1</text>
<text text-anchor="middle" x="66" y="-7.8" font-family="Times New Roman,serif" font-size="14.00">BD vidéo</text>
</g>
<!-- UMLRM0009&#45;&gt;UMLRM0008 -->
<g id="edge2" class="edge">
<title>UMLRM0009&#45;&gt;UMLRM0008</title>
<path fill="none" stroke="black" d="M66,-188.18C66,-202 66,-215.51 66,-227.24"/>
<polygon fill="black" stroke="black" points="62.5,-227.23 66,-237.23 69.5,-227.23 62.5,-227.23"/>
<text text-anchor="middle" x="112.5" y="-209.8" font-family="Times New Roman,serif" font-size="14.00">Manifestation de</text>
</g>
</g>
</svg>
