<?xml version="1.0" encoding="UTF-8" standalone="no"?>
<!DOCTYPE svg PUBLIC "-//W3C//DTD SVG 1.1//EN"
 "http://www.w3.org/Graphics/SVG/1.1/DTD/svg11.dtd">
<!-- Generated by graphviz version 7.0.3 (20221126.0506)
 -->
<!-- Title: UMLRM0126 Pages: 1 -->
<svg width="1440pt" height="32pt"
 viewBox="0.00 0.00 1440.00 32.20" xmlns="http://www.w3.org/2000/svg" xmlns:xlink="http://www.w3.org/1999/xlink">
<g id="graph0" class="graph" transform="scale(0.731875 0.731875) rotate(0) translate(4 40)">
<title>UMLRM0126</title>
<polygon fill="white" stroke="none" points="-4,4 -4,-40 1963.55,-40 1963.55,4 -4,4"/>
<!-- UMLRM0126 -->
<g id="node1" class="node">
<title>UMLRM0126</title>
<ellipse fill="none" stroke="black" cx="176.78" cy="-18" rx="176.57" ry="18"/>
<text text-anchor="middle" x="176.78" y="-14.3" font-family="Times New Roman,serif" font-size="14.00">Stoker, Bram (1847&#45;1912), Choix, Manuscrits</text>
</g>
<!-- UMLRM0127 -->
<g id="node2" class="node">
<title>UMLRM0127</title>
<ellipse fill="none" stroke="black" cx="689.9" cy="-18" rx="220.16" ry="18"/>
<text text-anchor="middle" x="689.9" y="-14.3" font-family="Times New Roman,serif" font-size="14.00">Stoker, Bram (1847&#45;1912), Choix, Manuscrits, Texte noté</text>
</g>
<!-- UMLRM0126&#45;&gt;UMLRM0127 -->
<g id="edge1" class="edge">
<title>UMLRM0126&#45;&gt;UMLRM0127</title>
<path fill="none" stroke="black" d="M353.68,-18C387.29,-18 422.95,-18 457.98,-18"/>
<polygon fill="black" stroke="black" points="457.82,-21.5 467.82,-18 457.82,-14.5 457.82,-21.5"/>
<text text-anchor="middle" x="411.57" y="-21.8" font-family="Times New Roman,serif" font-size="14.00">Expression de</text>
</g>
<!-- UMLRM0128 -->
<g id="node3" class="node">
<title>UMLRM0128</title>
<ellipse fill="none" stroke="black" cx="1499.39" cy="-18" rx="460.32" ry="18"/>
<text text-anchor="middle" x="1499.39" y="-14.3" font-family="Times New Roman,serif" font-size="14.00">Bram Stoker’s notes for “Dracula “, Bram Stoker, McFarland &amp; Company Inc. Publishers, 2008, 1 volume (VII&#45;331 pages)</text>
</g>
<!-- UMLRM0127&#45;&gt;UMLRM0128 -->
<g id="edge2" class="edge">
<title>UMLRM0127&#45;&gt;UMLRM0128</title>
<path fill="none" stroke="black" d="M910.48,-18C947.41,-18 986.95,-18 1027.42,-18"/>
<polygon fill="black" stroke="black" points="1027.34,-21.5 1037.34,-18 1027.34,-14.5 1027.34,-21.5"/>
<text text-anchor="middle" x="974.73" y="-21.8" font-family="Times New Roman,serif" font-size="14.00">Manifestation de</text>
</g>
</g>
</svg>
