<?xml version="1.0" encoding="UTF-8" standalone="no"?>
<!DOCTYPE svg PUBLIC "-//W3C//DTD SVG 1.1//EN"
 "http://www.w3.org/Graphics/SVG/1.1/DTD/svg11.dtd">
<!-- Generated by graphviz version 7.0.3 (20221126.0506)
 -->
<!-- Title: UMLRM0071 Pages: 1 -->
<svg width="166pt" height="449pt"
 viewBox="0.00 0.00 166.00 449.00" xmlns="http://www.w3.org/2000/svg" xmlns:xlink="http://www.w3.org/1999/xlink">
<g id="graph0" class="graph" transform="scale(1 1) rotate(0) translate(4 445)">
<title>UMLRM0071</title>
<polygon fill="white" stroke="none" points="-4,4 -4,-445 162,-445 162,4 -4,4"/>
<!-- UMLRM0071 -->
<g id="node1" class="node">
<title>UMLRM0071</title>
<polygon fill="none" stroke="red" points="130,-322 0,-322 0,-239 130,-239 130,-322"/>
<text text-anchor="middle" x="65" y="-306.8" font-family="Times New Roman,serif" font-size="14.00">Belford, Barbara,</text>
<text text-anchor="middle" x="65" y="-291.8" font-family="Times New Roman,serif" font-size="14.00">Bram Stoker : a</text>
<text text-anchor="middle" x="65" y="-276.8" font-family="Times New Roman,serif" font-size="14.00">biography of the</text>
<text text-anchor="middle" x="65" y="-261.8" font-family="Times New Roman,serif" font-size="14.00">author of &quot;Dracula&quot;,</text>
<text text-anchor="middle" x="65" y="-246.8" font-family="Times New Roman,serif" font-size="14.00">Anglais, Texte noté</text>
</g>
<!-- UMLRM0070 -->
<g id="node2" class="node">
<title>UMLRM0070</title>
<polygon fill="none" stroke="black" points="125,-441 5,-441 5,-373 125,-373 125,-441"/>
<text text-anchor="middle" x="65" y="-425.8" font-family="Times New Roman,serif" font-size="14.00">Belford, Barbara,</text>
<text text-anchor="middle" x="65" y="-410.8" font-family="Times New Roman,serif" font-size="14.00">Bram Stoker : a</text>
<text text-anchor="middle" x="65" y="-395.8" font-family="Times New Roman,serif" font-size="14.00">biography of the</text>
<text text-anchor="middle" x="65" y="-380.8" font-family="Times New Roman,serif" font-size="14.00">author of &quot;Dracula</text>
</g>
<!-- UMLRM0071&#45;&gt;UMLRM0070 -->
<g id="edge1" class="edge">
<title>UMLRM0071&#45;&gt;UMLRM0070</title>
<path fill="none" stroke="black" d="M65,-322.27C65,-334.75 65,-348.56 65,-361.29"/>
<polygon fill="black" stroke="black" points="61.5,-361.11 65,-371.11 68.5,-361.11 61.5,-361.11"/>
<text text-anchor="middle" x="105" y="-343.8" font-family="Times New Roman,serif" font-size="14.00">Expression de</text>
</g>
<!-- UMLRM0072 -->
<g id="node3" class="node">
<title>UMLRM0072</title>
<polygon fill="none" stroke="black" points="107.5,-188 22.5,-188 22.5,0 107.5,0 107.5,-188"/>
<text text-anchor="middle" x="65" y="-172.8" font-family="Times New Roman,serif" font-size="14.00">Bram</text>
<text text-anchor="middle" x="65" y="-157.8" font-family="Times New Roman,serif" font-size="14.00">Stoker,</text>
<text text-anchor="middle" x="65" y="-142.8" font-family="Times New Roman,serif" font-size="14.00">Barbara</text>
<text text-anchor="middle" x="65" y="-127.8" font-family="Times New Roman,serif" font-size="14.00">Belford,</text>
<text text-anchor="middle" x="65" y="-112.8" font-family="Times New Roman,serif" font-size="14.00">Weidenfeld</text>
<text text-anchor="middle" x="65" y="-97.8" font-family="Times New Roman,serif" font-size="14.00">and</text>
<text text-anchor="middle" x="65" y="-82.8" font-family="Times New Roman,serif" font-size="14.00">Nicolson,</text>
<text text-anchor="middle" x="65" y="-67.8" font-family="Times New Roman,serif" font-size="14.00">1996, 1 vo</text>
<text text-anchor="middle" x="65" y="-52.8" font-family="Times New Roman,serif" font-size="14.00">lume(XV&#45;38</text>
<text text-anchor="middle" x="65" y="-37.8" font-family="Times New Roman,serif" font-size="14.00">1 pages),</text>
<text text-anchor="middle" x="65" y="-22.8" font-family="Times New Roman,serif" font-size="14.00">couverture</text>
<text text-anchor="middle" x="65" y="-7.8" font-family="Times New Roman,serif" font-size="14.00">illustrée</text>
</g>
<!-- UMLRM0072&#45;&gt;UMLRM0071 -->
<g id="edge2" class="edge">
<title>UMLRM0072&#45;&gt;UMLRM0071</title>
<path fill="none" stroke="black" d="M65,-188.33C65,-201.74 65,-215.12 65,-227.34"/>
<polygon fill="black" stroke="black" points="61.5,-227.14 65,-237.14 68.5,-227.14 61.5,-227.14"/>
<text text-anchor="middle" x="111.5" y="-209.8" font-family="Times New Roman,serif" font-size="14.00">Manifestation de</text>
</g>
</g>
</svg>
