<?xml version="1.0" encoding="UTF-8" standalone="no"?>
<!DOCTYPE svg PUBLIC "-//W3C//DTD SVG 1.1//EN"
 "http://www.w3.org/Graphics/SVG/1.1/DTD/svg11.dtd">
<!-- Generated by graphviz version 7.0.3 (20221126.0506)
 -->
<!-- Title: UMLRM0130 Pages: 1 -->
<svg width="239pt" height="539pt"
 viewBox="0.00 0.00 239.00 539.00" xmlns="http://www.w3.org/2000/svg" xmlns:xlink="http://www.w3.org/1999/xlink">
<g id="graph0" class="graph" transform="scale(1 1) rotate(0) translate(4 535)">
<title>UMLRM0130</title>
<polygon fill="white" stroke="none" points="-4,4 -4,-535 235,-535 235,4 -4,4"/>
<!-- UMLRM0130 -->
<g id="node1" class="node">
<title>UMLRM0130</title>
<polygon fill="none" stroke="red" points="148,-442 50,-442 50,-389 148,-389 148,-442"/>
<text text-anchor="middle" x="99" y="-426.8" font-family="Times New Roman,serif" font-size="14.00">Shadow of the</text>
<text text-anchor="middle" x="99" y="-411.8" font-family="Times New Roman,serif" font-size="14.00">vampire, film,</text>
<text text-anchor="middle" x="99" y="-396.8" font-family="Times New Roman,serif" font-size="14.00">Français</text>
</g>
<!-- UMLRM0129 -->
<g id="node2" class="node">
<title>UMLRM0129</title>
<polygon fill="none" stroke="black" points="148,-531 50,-531 50,-493 148,-493 148,-531"/>
<text text-anchor="middle" x="99" y="-515.8" font-family="Times New Roman,serif" font-size="14.00">Shadow of the</text>
<text text-anchor="middle" x="99" y="-500.8" font-family="Times New Roman,serif" font-size="14.00">vampire, film</text>
</g>
<!-- UMLRM0130&#45;&gt;UMLRM0129 -->
<g id="edge1" class="edge">
<title>UMLRM0130&#45;&gt;UMLRM0129</title>
<path fill="none" stroke="black" d="M99,-442.32C99,-454.42 99,-468.88 99,-481.41"/>
<polygon fill="black" stroke="black" points="95.5,-481.18 99,-491.18 102.5,-481.18 95.5,-481.18"/>
<text text-anchor="middle" x="139" y="-463.8" font-family="Times New Roman,serif" font-size="14.00">Expression de</text>
</g>
<!-- UMLRM0131 -->
<g id="node3" class="node">
<title>UMLRM0131</title>
<polygon fill="none" stroke="black" points="82,-315.5 0,-315.5 0,-22.5 82,-22.5 82,-315.5"/>
<text text-anchor="middle" x="41" y="-300.3" font-family="Times New Roman,serif" font-size="14.00">L&#39;ombre du</text>
<text text-anchor="middle" x="41" y="-285.3" font-family="Times New Roman,serif" font-size="14.00">vampire,</text>
<text text-anchor="middle" x="41" y="-270.3" font-family="Times New Roman,serif" font-size="14.00">E. Elias</text>
<text text-anchor="middle" x="41" y="-255.3" font-family="Times New Roman,serif" font-size="14.00">Merhige, [</text>
<text text-anchor="middle" x="41" y="-240.3" font-family="Times New Roman,serif" font-size="14.00">réalisateu</text>
<text text-anchor="middle" x="41" y="-225.3" font-family="Times New Roman,serif" font-size="14.00">r], Studio</text>
<text text-anchor="middle" x="41" y="-210.3" font-family="Times New Roman,serif" font-size="14.00">Canal+ &#45;</text>
<text text-anchor="middle" x="41" y="-195.3" font-family="Times New Roman,serif" font-size="14.00">Universal</text>
<text text-anchor="middle" x="41" y="-180.3" font-family="Times New Roman,serif" font-size="14.00">pictures</text>
<text text-anchor="middle" x="41" y="-165.3" font-family="Times New Roman,serif" font-size="14.00">vidéo</text>
<text text-anchor="middle" x="41" y="-150.3" font-family="Times New Roman,serif" font-size="14.00">France SA,</text>
<text text-anchor="middle" x="41" y="-135.3" font-family="Times New Roman,serif" font-size="14.00">[DL 2001],</text>
<text text-anchor="middle" x="41" y="-120.3" font-family="Times New Roman,serif" font-size="14.00">1 cassette</text>
<text text-anchor="middle" x="41" y="-105.3" font-family="Times New Roman,serif" font-size="14.00">vidéo,</text>
<text text-anchor="middle" x="41" y="-90.3" font-family="Times New Roman,serif" font-size="14.00">VHS,</text>
<text text-anchor="middle" x="41" y="-75.3" font-family="Times New Roman,serif" font-size="14.00">SECAM,</text>
<text text-anchor="middle" x="41" y="-60.3" font-family="Times New Roman,serif" font-size="14.00">surround</text>
<text text-anchor="middle" x="41" y="-45.3" font-family="Times New Roman,serif" font-size="14.00">(Dolby),</text>
<text text-anchor="middle" x="41" y="-30.3" font-family="Times New Roman,serif" font-size="14.00">zone 2</text>
</g>
<!-- UMLRM0131&#45;&gt;UMLRM0130 -->
<g id="edge2" class="edge">
<title>UMLRM0131&#45;&gt;UMLRM0130</title>
<path fill="none" stroke="black" d="M26.13,-315.91C28.61,-335.09 33.52,-353.97 42,-371 43.64,-374.29 45.65,-377.39 47.94,-380.32"/>
<polygon fill="black" stroke="black" points="45.13,-382.44 54.48,-387.43 50.29,-377.7 45.13,-382.44"/>
<text text-anchor="middle" x="88.5" y="-359.8" font-family="Times New Roman,serif" font-size="14.00">Manifestation de</text>
</g>
<!-- UMLRM0185 -->
<g id="node4" class="node">
<title>UMLRM0185</title>
<polygon fill="none" stroke="black" points="198,-338 116,-338 116,0 198,0 198,-338"/>
<text text-anchor="middle" x="157" y="-322.8" font-family="Times New Roman,serif" font-size="14.00">L&#39;ombre du</text>
<text text-anchor="middle" x="157" y="-307.8" font-family="Times New Roman,serif" font-size="14.00">vampire,</text>
<text text-anchor="middle" x="157" y="-292.8" font-family="Times New Roman,serif" font-size="14.00">E. Elias</text>
<text text-anchor="middle" x="157" y="-277.8" font-family="Times New Roman,serif" font-size="14.00">Merhige, [</text>
<text text-anchor="middle" x="157" y="-262.8" font-family="Times New Roman,serif" font-size="14.00">réalisateu</text>
<text text-anchor="middle" x="157" y="-247.8" font-family="Times New Roman,serif" font-size="14.00">r], Studio</text>
<text text-anchor="middle" x="157" y="-232.8" font-family="Times New Roman,serif" font-size="14.00">Canal+ &#45;</text>
<text text-anchor="middle" x="157" y="-217.8" font-family="Times New Roman,serif" font-size="14.00">Universal</text>
<text text-anchor="middle" x="157" y="-202.8" font-family="Times New Roman,serif" font-size="14.00">pictures</text>
<text text-anchor="middle" x="157" y="-187.8" font-family="Times New Roman,serif" font-size="14.00">vidéo</text>
<text text-anchor="middle" x="157" y="-172.8" font-family="Times New Roman,serif" font-size="14.00">France SA,</text>
<text text-anchor="middle" x="157" y="-157.8" font-family="Times New Roman,serif" font-size="14.00">[DL 2001],</text>
<text text-anchor="middle" x="157" y="-142.8" font-family="Times New Roman,serif" font-size="14.00">1 DVD</text>
<text text-anchor="middle" x="157" y="-127.8" font-family="Times New Roman,serif" font-size="14.00">vidéo,</text>
<text text-anchor="middle" x="157" y="-112.8" font-family="Times New Roman,serif" font-size="14.00">monoface,</text>
<text text-anchor="middle" x="157" y="-97.8" font-family="Times New Roman,serif" font-size="14.00">16/9</text>
<text text-anchor="middle" x="157" y="-82.8" font-family="Times New Roman,serif" font-size="14.00">compatible</text>
<text text-anchor="middle" x="157" y="-67.8" font-family="Times New Roman,serif" font-size="14.00">4/3, PAL,</text>
<text text-anchor="middle" x="157" y="-52.8" font-family="Times New Roman,serif" font-size="14.00">Dolby</text>
<text text-anchor="middle" x="157" y="-37.8" font-family="Times New Roman,serif" font-size="14.00">digital</text>
<text text-anchor="middle" x="157" y="-22.8" font-family="Times New Roman,serif" font-size="14.00">5.1, zone</text>
<text text-anchor="middle" x="157" y="-7.8" font-family="Times New Roman,serif" font-size="14.00">2</text>
</g>
<!-- UMLRM0185&#45;&gt;UMLRM0130 -->
<g id="edge3" class="edge">
<title>UMLRM0185&#45;&gt;UMLRM0130</title>
<path fill="none" stroke="black" d="M146.07,-338.34C143.06,-349.58 139.41,-360.57 135,-371 133.82,-373.78 132.41,-376.52 130.83,-379.2"/>
<polygon fill="black" stroke="black" points="128.08,-377.01 125.38,-387.26 133.88,-380.94 128.08,-377.01"/>
<text text-anchor="middle" x="184.5" y="-359.8" font-family="Times New Roman,serif" font-size="14.00">Manifestation de</text>
</g>
</g>
</svg>
