<?xml version="1.0" encoding="UTF-8" standalone="no"?>
<!DOCTYPE svg PUBLIC "-//W3C//DTD SVG 1.1//EN"
 "http://www.w3.org/Graphics/SVG/1.1/DTD/svg11.dtd">
<!-- Generated by graphviz version 7.0.3 (20221126.0506)
 -->
<!-- Title: UMLRM0152 Pages: 1 -->
<svg width="159pt" height="479pt"
 viewBox="0.00 0.00 159.00 479.00" xmlns="http://www.w3.org/2000/svg" xmlns:xlink="http://www.w3.org/1999/xlink">
<g id="graph0" class="graph" transform="scale(1 1) rotate(0) translate(4 475)">
<title>UMLRM0152</title>
<polygon fill="white" stroke="none" points="-4,4 -4,-475 155,-475 155,4 -4,4"/>
<!-- UMLRM0152 -->
<g id="node1" class="node">
<title>UMLRM0152</title>
<polygon fill="none" stroke="red" points="116,-471 0,-471 0,-403 116,-403 116,-471"/>
<text text-anchor="middle" x="58" y="-455.8" font-family="Times New Roman,serif" font-size="14.00">[Photographies</text>
<text text-anchor="middle" x="58" y="-440.8" font-family="Times New Roman,serif" font-size="14.00">extraites du film</text>
<text text-anchor="middle" x="58" y="-425.8" font-family="Times New Roman,serif" font-size="14.00">&quot;Dracula&quot; de Tod</text>
<text text-anchor="middle" x="58" y="-410.8" font-family="Times New Roman,serif" font-size="14.00">Browning], 1932</text>
</g>
<!-- UMLRM0153 -->
<g id="node2" class="node">
<title>UMLRM0153</title>
<polygon fill="none" stroke="black" points="116,-352 0,-352 0,-269 116,-269 116,-352"/>
<text text-anchor="middle" x="58" y="-336.8" font-family="Times New Roman,serif" font-size="14.00">[Photographies</text>
<text text-anchor="middle" x="58" y="-321.8" font-family="Times New Roman,serif" font-size="14.00">extraites du film «</text>
<text text-anchor="middle" x="58" y="-306.8" font-family="Times New Roman,serif" font-size="14.00">Dracula » de Tod</text>
<text text-anchor="middle" x="58" y="-291.8" font-family="Times New Roman,serif" font-size="14.00">Browning], 1932,</text>
<text text-anchor="middle" x="58" y="-276.8" font-family="Times New Roman,serif" font-size="14.00">Image fixe</text>
</g>
<!-- UMLRM0153&#45;&gt;UMLRM0152 -->
<g id="edge1" class="edge">
<title>UMLRM0153&#45;&gt;UMLRM0152</title>
<path fill="none" stroke="black" d="M58,-352.27C58,-364.75 58,-378.56 58,-391.29"/>
<polygon fill="black" stroke="black" points="54.5,-391.11 58,-401.11 61.5,-391.11 54.5,-391.11"/>
<text text-anchor="middle" x="98" y="-373.8" font-family="Times New Roman,serif" font-size="14.00">Expression de</text>
</g>
<!-- UMLRM0060 -->
<g id="node3" class="node">
<title>UMLRM0060</title>
<polygon fill="none" stroke="black" points="99.5,-218 16.5,-218 16.5,0 99.5,0 99.5,-218"/>
<text text-anchor="middle" x="58" y="-202.8" font-family="Times New Roman,serif" font-size="14.00">Dracula,</text>
<text text-anchor="middle" x="58" y="-187.8" font-family="Times New Roman,serif" font-size="14.00">Brahm</text>
<text text-anchor="middle" x="58" y="-172.8" font-family="Times New Roman,serif" font-size="14.00">Stoker,</text>
<text text-anchor="middle" x="58" y="-157.8" font-family="Times New Roman,serif" font-size="14.00">Éditions</text>
<text text-anchor="middle" x="58" y="-142.8" font-family="Times New Roman,serif" font-size="14.00">J. Talland</text>
<text text-anchor="middle" x="58" y="-127.8" font-family="Times New Roman,serif" font-size="14.00">ier, 1932,</text>
<text text-anchor="middle" x="58" y="-112.8" font-family="Times New Roman,serif" font-size="14.00">1 volume</text>
<text text-anchor="middle" x="58" y="-97.8" font-family="Times New Roman,serif" font-size="14.00">(96 pages</text>
<text text-anchor="middle" x="58" y="-82.8" font-family="Times New Roman,serif" font-size="14.00">– planches</text>
<text text-anchor="middle" x="58" y="-67.8" font-family="Times New Roman,serif" font-size="14.00">non numéro</text>
<text text-anchor="middle" x="58" y="-52.8" font-family="Times New Roman,serif" font-size="14.00">tées),</text>
<text text-anchor="middle" x="58" y="-37.8" font-family="Times New Roman,serif" font-size="14.00">couverture</text>
<text text-anchor="middle" x="58" y="-22.8" font-family="Times New Roman,serif" font-size="14.00">illustrée</text>
<text text-anchor="middle" x="58" y="-7.8" font-family="Times New Roman,serif" font-size="14.00">en couleur</text>
</g>
<!-- UMLRM0060&#45;&gt;UMLRM0153 -->
<g id="edge2" class="edge">
<title>UMLRM0060&#45;&gt;UMLRM0153</title>
<path fill="none" stroke="black" d="M58,-218.22C58,-231.82 58,-245.22 58,-257.38"/>
<polygon fill="black" stroke="black" points="54.5,-257.11 58,-267.11 61.5,-257.11 54.5,-257.11"/>
<text text-anchor="middle" x="104.5" y="-239.8" font-family="Times New Roman,serif" font-size="14.00">Manifestation de</text>
</g>
</g>
</svg>
