<?xml version="1.0" encoding="UTF-8" standalone="no"?>
<!DOCTYPE svg PUBLIC "-//W3C//DTD SVG 1.1//EN"
 "http://www.w3.org/Graphics/SVG/1.1/DTD/svg11.dtd">
<!-- Generated by graphviz version 7.0.3 (20221126.0506)
 -->
<!-- Title: UMLRM0150 Pages: 1 -->
<svg width="1440pt" height="27pt"
 viewBox="0.00 0.00 1440.00 27.31" xmlns="http://www.w3.org/2000/svg" xmlns:xlink="http://www.w3.org/1999/xlink">
<g id="graph0" class="graph" transform="scale(0.620739 0.620739) rotate(0) translate(4 40)">
<title>UMLRM0150</title>
<polygon fill="white" stroke="none" points="-4,4 -4,-40 2315.82,-40 2315.82,4 -4,4"/>
<!-- UMLRM0150 -->
<g id="node1" class="node">
<title>UMLRM0150</title>
<ellipse fill="none" stroke="black" cx="2032.99" cy="-18" rx="278.65" ry="18"/>
<text text-anchor="middle" x="2032.99" y="-14.3" font-family="Times New Roman,serif" font-size="14.00">Druillet, Philippe (1944&#45;....), [Illustrations pour &quot;Dracula&quot; de Bram Stoker]</text>
</g>
<!-- UMLRM0151 -->
<g id="node2" class="node">
<title>UMLRM0151</title>
<ellipse fill="none" stroke="black" cx="1322.94" cy="-18" rx="315.44" ry="18"/>
<text text-anchor="middle" x="1322.94" y="-14.3" font-family="Times New Roman,serif" font-size="14.00">Druillet, Philippe (1944&#45;....), Illustrations pour &quot;Dracula&quot; de Bram Stoker, Image fixe</text>
</g>
<!-- UMLRM0151&#45;&gt;UMLRM0150 -->
<g id="edge1" class="edge">
<title>UMLRM0151&#45;&gt;UMLRM0150</title>
<path fill="none" stroke="black" d="M1638.89,-18C1673.53,-18 1708.68,-18 1742.99,-18"/>
<polygon fill="black" stroke="black" points="1742.59,-21.5 1752.59,-18 1742.59,-14.5 1742.59,-21.5"/>
<text text-anchor="middle" x="1696.17" y="-21.8" font-family="Times New Roman,serif" font-size="14.00">Expression de</text>
</g>
<!-- UMLRM0110 -->
<g id="node3" class="node">
<title>UMLRM0110</title>
<ellipse fill="none" stroke="black" cx="439.36" cy="-18" rx="439.22" ry="18"/>
<text text-anchor="middle" x="439.36" y="-14.3" font-family="Times New Roman,serif" font-size="14.00">Dracula, Bram Stoker, Éditions Opta, 1968, 1 volume (XX&#45;413 pages), illustrations en noir et blanc, cartonnage illustré</text>
</g>
<!-- UMLRM0110&#45;&gt;UMLRM0151 -->
<g id="edge2" class="edge">
<title>UMLRM0110&#45;&gt;UMLRM0151</title>
<path fill="none" stroke="black" d="M878.89,-18C918.3,-18 957.74,-18 995.94,-18"/>
<polygon fill="black" stroke="black" points="995.7,-21.5 1005.7,-18 995.7,-14.5 995.7,-21.5"/>
<text text-anchor="middle" x="943.22" y="-21.8" font-family="Times New Roman,serif" font-size="14.00">Manifestation de</text>
</g>
</g>
</svg>
