<?xml version="1.0" encoding="UTF-8" standalone="no"?>
<!DOCTYPE svg PUBLIC "-//W3C//DTD SVG 1.1//EN"
 "http://www.w3.org/Graphics/SVG/1.1/DTD/svg11.dtd">
<!-- Generated by graphviz version 7.0.3 (20221126.0506)
 -->
<!-- Title: UMLRM0105 Pages: 1 -->
<svg width="1440pt" height="69pt"
 viewBox="0.00 0.00 1440.00 69.16" xmlns="http://www.w3.org/2000/svg" xmlns:xlink="http://www.w3.org/1999/xlink">
<g id="graph0" class="graph" transform="scale(0.705764 0.705764) rotate(0) translate(4 94)">
<title>UMLRM0105</title>
<polygon fill="white" stroke="none" points="-4,4 -4,-94 2036.34,-94 2036.34,4 -4,4"/>
<!-- UMLRM0105 -->
<g id="node1" class="node">
<title>UMLRM0105</title>
<ellipse fill="none" stroke="black" cx="146.24" cy="-45" rx="146.47" ry="18"/>
<text text-anchor="middle" x="146.24" y="-41.3" font-family="Times New Roman,serif" font-size="14.00">Dracula has risen from the grave, film</text>
</g>
<!-- UMLRM0106 -->
<g id="node2" class="node">
<title>UMLRM0106</title>
<ellipse fill="none" stroke="black" cx="554.71" cy="-72" rx="146.47" ry="18"/>
<text text-anchor="middle" x="554.71" y="-68.3" font-family="Times New Roman,serif" font-size="14.00">Dracula has risen from the grave, film</text>
</g>
<!-- UMLRM0105&#45;&gt;UMLRM0106 -->
<g id="edge1" class="edge">
<title>UMLRM0105&#45;&gt;UMLRM0106</title>
<path fill="none" stroke="black" d="M276.41,-53.58C319.92,-56.47 368.69,-59.71 413.05,-62.66"/>
<polygon fill="black" stroke="black" points="412.81,-66.15 423.02,-63.32 413.27,-59.16 412.81,-66.15"/>
<text text-anchor="middle" x="350.47" y="-63.8" font-family="Times New Roman,serif" font-size="14.00">Expression de</text>
</g>
<!-- UMLRM0181 -->
<g id="node4" class="node">
<title>UMLRM0181</title>
<ellipse fill="none" stroke="black" cx="554.71" cy="-18" rx="146.47" ry="18"/>
<text text-anchor="middle" x="554.71" y="-14.3" font-family="Times New Roman,serif" font-size="14.00">Dracula has risen from the grave, film</text>
</g>
<!-- UMLRM0105&#45;&gt;UMLRM0181 -->
<g id="edge3" class="edge">
<title>UMLRM0105&#45;&gt;UMLRM0181</title>
<path fill="none" stroke="black" d="M276.41,-36.42C319.92,-33.53 368.69,-30.29 413.05,-27.34"/>
<polygon fill="black" stroke="black" points="413.27,-30.84 423.02,-26.68 412.81,-23.85 413.27,-30.84"/>
<text text-anchor="middle" x="350.47" y="-36.8" font-family="Times New Roman,serif" font-size="14.00">Expression de</text>
</g>
<!-- UMLRM0107 -->
<g id="node3" class="node">
<title>UMLRM0107</title>
<ellipse fill="none" stroke="black" cx="1431.14" cy="-72" rx="601.39" ry="18"/>
<text text-anchor="middle" x="1431.14" y="-68.3" font-family="Times New Roman,serif" font-size="14.00">Dracula has risen from the grave‎, starring Christopher Lee, Rupert Davies, Warner home video &#45; Warner home video France, [1995], 1 cassette vidéo, VHS, NTSC</text>
</g>
<!-- UMLRM0106&#45;&gt;UMLRM0107 -->
<g id="edge2" class="edge">
<title>UMLRM0106&#45;&gt;UMLRM0107</title>
<path fill="none" stroke="black" d="M701.58,-72C736.48,-72 775.93,-72 817.97,-72"/>
<polygon fill="black" stroke="black" points="817.78,-75.5 827.78,-72 817.78,-68.5 817.78,-75.5"/>
<text text-anchor="middle" x="765.45" y="-75.8" font-family="Times New Roman,serif" font-size="14.00">Manifestation de</text>
</g>
<!-- UMLRM0182 -->
<g id="node5" class="node">
<title>UMLRM0182</title>
<ellipse fill="none" stroke="black" cx="1431.14" cy="-18" rx="595.99" ry="18"/>
<text text-anchor="middle" x="1431.14" y="-14.3" font-family="Times New Roman,serif" font-size="14.00">Dracula et les femmes, avec Christopher Lee, Rupert Davies, Warner home video France &#45; Warner home video France, DL 1985, 1 cassette vidéo, VHS, SECAM</text>
</g>
<!-- UMLRM0181&#45;&gt;UMLRM0182 -->
<g id="edge4" class="edge">
<title>UMLRM0181&#45;&gt;UMLRM0182</title>
<path fill="none" stroke="black" d="M701.58,-18C738.09,-18 779.57,-18 823.78,-18"/>
<polygon fill="black" stroke="black" points="823.56,-21.5 833.56,-18 823.56,-14.5 823.56,-21.5"/>
<text text-anchor="middle" x="765.45" y="-21.8" font-family="Times New Roman,serif" font-size="14.00">Manifestation de</text>
</g>
</g>
</svg>
