<?xml version="1.0" encoding="UTF-8" standalone="no"?>
<!DOCTYPE svg PUBLIC "-//W3C//DTD SVG 1.1//EN"
 "http://www.w3.org/Graphics/SVG/1.1/DTD/svg11.dtd">
<!-- Generated by graphviz version 7.0.3 (20221126.0506)
 -->
<!-- Title: UMLRM0065 Pages: 1 -->
<svg width="168pt" height="389pt"
 viewBox="0.00 0.00 168.00 389.00" xmlns="http://www.w3.org/2000/svg" xmlns:xlink="http://www.w3.org/1999/xlink">
<g id="graph0" class="graph" transform="scale(1 1) rotate(0) translate(4 385)">
<title>UMLRM0065</title>
<polygon fill="white" stroke="none" points="-4,4 -4,-385 164,-385 164,4 -4,4"/>
<!-- UMLRM0065 -->
<g id="node1" class="node">
<title>UMLRM0065</title>
<polygon fill="none" stroke="red" points="128,-292 6,-292 6,-224 128,-224 128,-292"/>
<text text-anchor="middle" x="67" y="-276.8" font-family="Times New Roman,serif" font-size="14.00">Stoker, Bram</text>
<text text-anchor="middle" x="67" y="-261.8" font-family="Times New Roman,serif" font-size="14.00">(1847&#45;1912),</text>
<text text-anchor="middle" x="67" y="-246.8" font-family="Times New Roman,serif" font-size="14.00">Dracula, Espagnol,</text>
<text text-anchor="middle" x="67" y="-231.8" font-family="Times New Roman,serif" font-size="14.00">Texte noté</text>
</g>
<!-- UMLRM0004 -->
<g id="node2" class="node">
<title>UMLRM0004</title>
<polygon fill="none" stroke="black" points="134,-381 0,-381 0,-343 134,-343 134,-381"/>
<text text-anchor="middle" x="67" y="-365.8" font-family="Times New Roman,serif" font-size="14.00">Stoker, Bram</text>
<text text-anchor="middle" x="67" y="-350.8" font-family="Times New Roman,serif" font-size="14.00">(1847&#45;1912), Dracula</text>
</g>
<!-- UMLRM0065&#45;&gt;UMLRM0004 -->
<g id="edge1" class="edge">
<title>UMLRM0065&#45;&gt;UMLRM0004</title>
<path fill="none" stroke="black" d="M67,-292.4C67,-304.95 67,-319.12 67,-331.31"/>
<polygon fill="black" stroke="black" points="63.5,-331.19 67,-341.19 70.5,-331.19 63.5,-331.19"/>
<text text-anchor="middle" x="107" y="-313.8" font-family="Times New Roman,serif" font-size="14.00">Expression de</text>
</g>
<!-- UMLRM0066 -->
<g id="node3" class="node">
<title>UMLRM0066</title>
<polygon fill="none" stroke="black" points="108.5,-173 25.5,-173 25.5,0 108.5,0 108.5,-173"/>
<text text-anchor="middle" x="67" y="-157.8" font-family="Times New Roman,serif" font-size="14.00">Drácula,</text>
<text text-anchor="middle" x="67" y="-142.8" font-family="Times New Roman,serif" font-size="14.00">Bram</text>
<text text-anchor="middle" x="67" y="-127.8" font-family="Times New Roman,serif" font-size="14.00">Stoker,</text>
<text text-anchor="middle" x="67" y="-112.8" font-family="Times New Roman,serif" font-size="14.00">Maxtor, DL</text>
<text text-anchor="middle" x="67" y="-97.8" font-family="Times New Roman,serif" font-size="14.00">2017, 1</text>
<text text-anchor="middle" x="67" y="-82.8" font-family="Times New Roman,serif" font-size="14.00">volume</text>
<text text-anchor="middle" x="67" y="-67.8" font-family="Times New Roman,serif" font-size="14.00">(540</text>
<text text-anchor="middle" x="67" y="-52.8" font-family="Times New Roman,serif" font-size="14.00">pages),</text>
<text text-anchor="middle" x="67" y="-37.8" font-family="Times New Roman,serif" font-size="14.00">couverture</text>
<text text-anchor="middle" x="67" y="-22.8" font-family="Times New Roman,serif" font-size="14.00">illustrée</text>
<text text-anchor="middle" x="67" y="-7.8" font-family="Times New Roman,serif" font-size="14.00">en couleur</text>
</g>
<!-- UMLRM0066&#45;&gt;UMLRM0065 -->
<g id="edge2" class="edge">
<title>UMLRM0066&#45;&gt;UMLRM0065</title>
<path fill="none" stroke="black" d="M67,-173.24C67,-186.67 67,-200.06 67,-212.07"/>
<polygon fill="black" stroke="black" points="63.5,-212.06 67,-222.06 70.5,-212.06 63.5,-212.06"/>
<text text-anchor="middle" x="113.5" y="-194.8" font-family="Times New Roman,serif" font-size="14.00">Manifestation de</text>
</g>
</g>
</svg>
