<?xml version="1.0" encoding="UTF-8" standalone="no"?>
<!DOCTYPE svg PUBLIC "-//W3C//DTD SVG 1.1//EN"
 "http://www.w3.org/Graphics/SVG/1.1/DTD/svg11.dtd">
<!-- Generated by graphviz version 7.0.3 (20221126.0506)
 -->
<!-- Title: UMLRM0053 Pages: 1 -->
<svg width="358pt" height="449pt"
 viewBox="0.00 0.00 358.00 449.00" xmlns="http://www.w3.org/2000/svg" xmlns:xlink="http://www.w3.org/1999/xlink">
<g id="graph0" class="graph" transform="scale(1 1) rotate(0) translate(4 445)">
<title>UMLRM0053</title>
<polygon fill="white" stroke="none" points="-4,4 -4,-445 354,-445 354,4 -4,4"/>
<!-- UMLRM0053 -->
<g id="node1" class="node">
<title>UMLRM0053</title>
<polygon fill="none" stroke="red" points="215,-352 97,-352 97,-269 215,-269 215,-352"/>
<text text-anchor="middle" x="156" y="-336.8" font-family="Times New Roman,serif" font-size="14.00">Stoker, Bram</text>
<text text-anchor="middle" x="156" y="-321.8" font-family="Times New Roman,serif" font-size="14.00">(1847&#45;1912),</text>
<text text-anchor="middle" x="156" y="-306.8" font-family="Times New Roman,serif" font-size="14.00">Dracula, Français,</text>
<text text-anchor="middle" x="156" y="-291.8" font-family="Times New Roman,serif" font-size="14.00">Chicheportiche,</text>
<text text-anchor="middle" x="156" y="-276.8" font-family="Times New Roman,serif" font-size="14.00">Texte noté</text>
</g>
<!-- UMLRM0004 -->
<g id="node2" class="node">
<title>UMLRM0004</title>
<polygon fill="none" stroke="black" points="223,-441 89,-441 89,-403 223,-403 223,-441"/>
<text text-anchor="middle" x="156" y="-425.8" font-family="Times New Roman,serif" font-size="14.00">Stoker, Bram</text>
<text text-anchor="middle" x="156" y="-410.8" font-family="Times New Roman,serif" font-size="14.00">(1847&#45;1912), Dracula</text>
</g>
<!-- UMLRM0053&#45;&gt;UMLRM0004 -->
<g id="edge1" class="edge">
<title>UMLRM0053&#45;&gt;UMLRM0004</title>
<path fill="none" stroke="black" d="M156,-352.27C156,-365.23 156,-379.3 156,-391.31"/>
<polygon fill="black" stroke="black" points="152.5,-391.01 156,-401.01 159.5,-391.01 152.5,-391.01"/>
<text text-anchor="middle" x="196" y="-373.8" font-family="Times New Roman,serif" font-size="14.00">Expression de</text>
</g>
<!-- UMLRM0054 -->
<g id="node3" class="node">
<title>UMLRM0054</title>
<polygon fill="none" stroke="black" points="80,-210.5 0,-210.5 0,-7.5 80,-7.5 80,-210.5"/>
<text text-anchor="middle" x="40" y="-195.3" font-family="Times New Roman,serif" font-size="14.00">Dracula,</text>
<text text-anchor="middle" x="40" y="-180.3" font-family="Times New Roman,serif" font-size="14.00">Bram</text>
<text text-anchor="middle" x="40" y="-165.3" font-family="Times New Roman,serif" font-size="14.00">Stoker, le</text>
<text text-anchor="middle" x="40" y="-150.3" font-family="Times New Roman,serif" font-size="14.00">Livre de</text>
<text text-anchor="middle" x="40" y="-135.3" font-family="Times New Roman,serif" font-size="14.00">poche</text>
<text text-anchor="middle" x="40" y="-120.3" font-family="Times New Roman,serif" font-size="14.00">jeunesse,</text>
<text text-anchor="middle" x="40" y="-105.3" font-family="Times New Roman,serif" font-size="14.00">DL 2015, 1</text>
<text text-anchor="middle" x="40" y="-90.3" font-family="Times New Roman,serif" font-size="14.00">volume</text>
<text text-anchor="middle" x="40" y="-75.3" font-family="Times New Roman,serif" font-size="14.00">(321</text>
<text text-anchor="middle" x="40" y="-60.3" font-family="Times New Roman,serif" font-size="14.00">pages),</text>
<text text-anchor="middle" x="40" y="-45.3" font-family="Times New Roman,serif" font-size="14.00">couverture</text>
<text text-anchor="middle" x="40" y="-30.3" font-family="Times New Roman,serif" font-size="14.00">illustrée</text>
<text text-anchor="middle" x="40" y="-15.3" font-family="Times New Roman,serif" font-size="14.00">en couleur</text>
</g>
<!-- UMLRM0054&#45;&gt;UMLRM0053 -->
<g id="edge2" class="edge">
<title>UMLRM0054&#45;&gt;UMLRM0053</title>
<path fill="none" stroke="black" d="M42.32,-210.71C45.77,-225 51.07,-238.92 59,-251 66.21,-261.98 76.26,-271.21 87.18,-278.86"/>
<polygon fill="black" stroke="black" points="84.95,-281.59 95.24,-284.1 88.76,-275.72 84.95,-281.59"/>
<text text-anchor="middle" x="105.5" y="-239.8" font-family="Times New Roman,serif" font-size="14.00">Manifestation de</text>
</g>
<!-- UMLRM0178 -->
<g id="node4" class="node">
<title>UMLRM0178</title>
<polygon fill="none" stroke="black" points="194.5,-218 117.5,-218 117.5,0 194.5,0 194.5,-218"/>
<text text-anchor="middle" x="156" y="-202.8" font-family="Times New Roman,serif" font-size="14.00">Dracula,</text>
<text text-anchor="middle" x="156" y="-187.8" font-family="Times New Roman,serif" font-size="14.00">Bram</text>
<text text-anchor="middle" x="156" y="-172.8" font-family="Times New Roman,serif" font-size="14.00">Stoker,</text>
<text text-anchor="middle" x="156" y="-157.8" font-family="Times New Roman,serif" font-size="14.00">Hachette &#45;</text>
<text text-anchor="middle" x="156" y="-142.8" font-family="Times New Roman,serif" font-size="14.00">Imprimerie</text>
<text text-anchor="middle" x="156" y="-127.8" font-family="Times New Roman,serif" font-size="14.00">CPI</text>
<text text-anchor="middle" x="156" y="-112.8" font-family="Times New Roman,serif" font-size="14.00">Bussière,</text>
<text text-anchor="middle" x="156" y="-97.8" font-family="Times New Roman,serif" font-size="14.00">2011, 1</text>
<text text-anchor="middle" x="156" y="-82.8" font-family="Times New Roman,serif" font-size="14.00">volume</text>
<text text-anchor="middle" x="156" y="-67.8" font-family="Times New Roman,serif" font-size="14.00">(321</text>
<text text-anchor="middle" x="156" y="-52.8" font-family="Times New Roman,serif" font-size="14.00">pages),</text>
<text text-anchor="middle" x="156" y="-37.8" font-family="Times New Roman,serif" font-size="14.00">couverture</text>
<text text-anchor="middle" x="156" y="-22.8" font-family="Times New Roman,serif" font-size="14.00">illustrée</text>
<text text-anchor="middle" x="156" y="-7.8" font-family="Times New Roman,serif" font-size="14.00">en couleur</text>
</g>
<!-- UMLRM0178&#45;&gt;UMLRM0053 -->
<g id="edge3" class="edge">
<title>UMLRM0178&#45;&gt;UMLRM0053</title>
<path fill="none" stroke="black" d="M156,-218.22C156,-231.82 156,-245.22 156,-257.38"/>
<polygon fill="black" stroke="black" points="152.5,-257.11 156,-267.11 159.5,-257.11 152.5,-257.11"/>
<text text-anchor="middle" x="202.5" y="-239.8" font-family="Times New Roman,serif" font-size="14.00">Manifestation de</text>
</g>
<!-- UMLRM0179 -->
<g id="node5" class="node">
<title>UMLRM0179</title>
<polygon fill="none" stroke="black" points="310,-210.5 234,-210.5 234,-7.5 310,-7.5 310,-210.5"/>
<text text-anchor="middle" x="272" y="-195.3" font-family="Times New Roman,serif" font-size="14.00">Dracula,</text>
<text text-anchor="middle" x="272" y="-180.3" font-family="Times New Roman,serif" font-size="14.00">Bram</text>
<text text-anchor="middle" x="272" y="-165.3" font-family="Times New Roman,serif" font-size="14.00">Stoker,</text>
<text text-anchor="middle" x="272" y="-150.3" font-family="Times New Roman,serif" font-size="14.00">Hatier, DL</text>
<text text-anchor="middle" x="272" y="-135.3" font-family="Times New Roman,serif" font-size="14.00">2013, 1</text>
<text text-anchor="middle" x="272" y="-120.3" font-family="Times New Roman,serif" font-size="14.00">volume</text>
<text text-anchor="middle" x="272" y="-105.3" font-family="Times New Roman,serif" font-size="14.00">(317</text>
<text text-anchor="middle" x="272" y="-90.3" font-family="Times New Roman,serif" font-size="14.00">pages), il</text>
<text text-anchor="middle" x="272" y="-75.3" font-family="Times New Roman,serif" font-size="14.00">lustration</text>
<text text-anchor="middle" x="272" y="-60.3" font-family="Times New Roman,serif" font-size="14.00">s,</text>
<text text-anchor="middle" x="272" y="-45.3" font-family="Times New Roman,serif" font-size="14.00">couverture</text>
<text text-anchor="middle" x="272" y="-30.3" font-family="Times New Roman,serif" font-size="14.00">illustrée</text>
<text text-anchor="middle" x="272" y="-15.3" font-family="Times New Roman,serif" font-size="14.00">en couleur</text>
</g>
<!-- UMLRM0179&#45;&gt;UMLRM0053 -->
<g id="edge4" class="edge">
<title>UMLRM0179&#45;&gt;UMLRM0053</title>
<path fill="none" stroke="black" d="M267.2,-210.69C263.49,-224.99 258,-238.91 250,-251 243.34,-261.06 234.3,-269.71 224.43,-277.03"/>
<polygon fill="black" stroke="black" points="222.7,-273.97 216.44,-282.52 226.66,-279.74 222.7,-273.97"/>
<text text-anchor="middle" x="303.5" y="-239.8" font-family="Times New Roman,serif" font-size="14.00">Manifestation de</text>
</g>
</g>
</svg>
