<?xml version="1.0" encoding="UTF-8" standalone="no"?>
<!DOCTYPE svg PUBLIC "-//W3C//DTD SVG 1.1//EN"
 "http://www.w3.org/Graphics/SVG/1.1/DTD/svg11.dtd">
<!-- Generated by graphviz version 7.0.3 (20221126.0506)
 -->
<!-- Title: UMLRM0189 Pages: 1 -->
<svg width="240pt" height="599pt"
 viewBox="0.00 0.00 240.00 599.00" xmlns="http://www.w3.org/2000/svg" xmlns:xlink="http://www.w3.org/1999/xlink">
<g id="graph0" class="graph" transform="scale(1 1) rotate(0) translate(4 595)">
<title>UMLRM0189</title>
<polygon fill="white" stroke="none" points="-4,4 -4,-595 236,-595 236,4 -4,4"/>
<!-- UMLRM0189 -->
<g id="node1" class="node">
<title>UMLRM0189</title>
<polygon fill="none" stroke="red" points="161,-502 39,-502 39,-419 161,-419 161,-502"/>
<text text-anchor="middle" x="100" y="-486.8" font-family="Times New Roman,serif" font-size="14.00">Dracula, dead and</text>
<text text-anchor="middle" x="100" y="-471.8" font-family="Times New Roman,serif" font-size="14.00">loving it, film,</text>
<text text-anchor="middle" x="100" y="-456.8" font-family="Times New Roman,serif" font-size="14.00">Anglais ; sous&#45;</text>
<text text-anchor="middle" x="100" y="-441.8" font-family="Times New Roman,serif" font-size="14.00">titrage optionnel en</text>
<text text-anchor="middle" x="100" y="-426.8" font-family="Times New Roman,serif" font-size="14.00">français</text>
</g>
<!-- UMLRM0120 -->
<g id="node2" class="node">
<title>UMLRM0120</title>
<polygon fill="none" stroke="black" points="159,-591 41,-591 41,-553 159,-553 159,-591"/>
<text text-anchor="middle" x="100" y="-575.8" font-family="Times New Roman,serif" font-size="14.00">Dracula, dead and</text>
<text text-anchor="middle" x="100" y="-560.8" font-family="Times New Roman,serif" font-size="14.00">loving it, film</text>
</g>
<!-- UMLRM0189&#45;&gt;UMLRM0120 -->
<g id="edge1" class="edge">
<title>UMLRM0189&#45;&gt;UMLRM0120</title>
<path fill="none" stroke="black" d="M100,-502.27C100,-515.23 100,-529.3 100,-541.31"/>
<polygon fill="black" stroke="black" points="96.5,-541.01 100,-551.01 103.5,-541.01 96.5,-541.01"/>
<text text-anchor="middle" x="140" y="-523.8" font-family="Times New Roman,serif" font-size="14.00">Expression de</text>
</g>
<!-- UMLRM0122 -->
<g id="node3" class="node">
<title>UMLRM0122</title>
<polygon fill="none" stroke="black" points="84,-368 0,-368 0,0 84,0 84,-368"/>
<text text-anchor="middle" x="42" y="-352.8" font-family="Times New Roman,serif" font-size="14.00">Dracula,</text>
<text text-anchor="middle" x="42" y="-337.8" font-family="Times New Roman,serif" font-size="14.00">mort et</text>
<text text-anchor="middle" x="42" y="-322.8" font-family="Times New Roman,serif" font-size="14.00">heureux de</text>
<text text-anchor="middle" x="42" y="-307.8" font-family="Times New Roman,serif" font-size="14.00">l’être, un</text>
<text text-anchor="middle" x="42" y="-292.8" font-family="Times New Roman,serif" font-size="14.00">film de</text>
<text text-anchor="middle" x="42" y="-277.8" font-family="Times New Roman,serif" font-size="14.00">Mel</text>
<text text-anchor="middle" x="42" y="-262.8" font-family="Times New Roman,serif" font-size="14.00">Brooks,</text>
<text text-anchor="middle" x="42" y="-247.8" font-family="Times New Roman,serif" font-size="14.00">Gaumont</text>
<text text-anchor="middle" x="42" y="-232.8" font-family="Times New Roman,serif" font-size="14.00">vidéo &#45;</text>
<text text-anchor="middle" x="42" y="-217.8" font-family="Times New Roman,serif" font-size="14.00">Paramount</text>
<text text-anchor="middle" x="42" y="-202.8" font-family="Times New Roman,serif" font-size="14.00">home enter</text>
<text text-anchor="middle" x="42" y="-187.8" font-family="Times New Roman,serif" font-size="14.00">tainment,</text>
<text text-anchor="middle" x="42" y="-172.8" font-family="Times New Roman,serif" font-size="14.00">2009, 1</text>
<text text-anchor="middle" x="42" y="-157.8" font-family="Times New Roman,serif" font-size="14.00">DVD vidéo,</text>
<text text-anchor="middle" x="42" y="-142.8" font-family="Times New Roman,serif" font-size="14.00">monoface</text>
<text text-anchor="middle" x="42" y="-127.8" font-family="Times New Roman,serif" font-size="14.00">double</text>
<text text-anchor="middle" x="42" y="-112.8" font-family="Times New Roman,serif" font-size="14.00">couche,</text>
<text text-anchor="middle" x="42" y="-97.8" font-family="Times New Roman,serif" font-size="14.00">16/9</text>
<text text-anchor="middle" x="42" y="-82.8" font-family="Times New Roman,serif" font-size="14.00">compatible</text>
<text text-anchor="middle" x="42" y="-67.8" font-family="Times New Roman,serif" font-size="14.00">3/4, PAL,</text>
<text text-anchor="middle" x="42" y="-52.8" font-family="Times New Roman,serif" font-size="14.00">Dolby</text>
<text text-anchor="middle" x="42" y="-37.8" font-family="Times New Roman,serif" font-size="14.00">surround</text>
<text text-anchor="middle" x="42" y="-22.8" font-family="Times New Roman,serif" font-size="14.00">2.0, zone</text>
<text text-anchor="middle" x="42" y="-7.8" font-family="Times New Roman,serif" font-size="14.00">2</text>
</g>
<!-- UMLRM0122&#45;&gt;UMLRM0189 -->
<g id="edge2" class="edge">
<title>UMLRM0122&#45;&gt;UMLRM0189</title>
<path fill="none" stroke="black" d="M33,-368.45C35.46,-379.65 38.74,-390.59 43,-401 44.1,-403.7 45.4,-406.34 46.85,-408.92"/>
<polygon fill="black" stroke="black" points="43.89,-410.79 52.28,-417.26 49.75,-406.97 43.89,-410.79"/>
<text text-anchor="middle" x="89.5" y="-389.8" font-family="Times New Roman,serif" font-size="14.00">Manifestation de</text>
</g>
<!-- UMLRM0190 -->
<g id="node4" class="node">
<title>UMLRM0190</title>
<polygon fill="none" stroke="black" points="200,-338 116,-338 116,-30 200,-30 200,-338"/>
<text text-anchor="middle" x="158" y="-322.8" font-family="Times New Roman,serif" font-size="14.00">Mel</text>
<text text-anchor="middle" x="158" y="-307.8" font-family="Times New Roman,serif" font-size="14.00">Brooks,</text>
<text text-anchor="middle" x="158" y="-292.8" font-family="Times New Roman,serif" font-size="14.00">Gaumont</text>
<text text-anchor="middle" x="158" y="-277.8" font-family="Times New Roman,serif" font-size="14.00">vidéo &#45;</text>
<text text-anchor="middle" x="158" y="-262.8" font-family="Times New Roman,serif" font-size="14.00">Paramount</text>
<text text-anchor="middle" x="158" y="-247.8" font-family="Times New Roman,serif" font-size="14.00">home enter</text>
<text text-anchor="middle" x="158" y="-232.8" font-family="Times New Roman,serif" font-size="14.00">tainment,</text>
<text text-anchor="middle" x="158" y="-217.8" font-family="Times New Roman,serif" font-size="14.00">[2015], 2</text>
<text text-anchor="middle" x="158" y="-202.8" font-family="Times New Roman,serif" font-size="14.00">DVD vidéo,</text>
<text text-anchor="middle" x="158" y="-187.8" font-family="Times New Roman,serif" font-size="14.00">monoface</text>
<text text-anchor="middle" x="158" y="-172.8" font-family="Times New Roman,serif" font-size="14.00">double</text>
<text text-anchor="middle" x="158" y="-157.8" font-family="Times New Roman,serif" font-size="14.00">couche,</text>
<text text-anchor="middle" x="158" y="-142.8" font-family="Times New Roman,serif" font-size="14.00">16/9</text>
<text text-anchor="middle" x="158" y="-127.8" font-family="Times New Roman,serif" font-size="14.00">compatible</text>
<text text-anchor="middle" x="158" y="-112.8" font-family="Times New Roman,serif" font-size="14.00">3/4, PAL,</text>
<text text-anchor="middle" x="158" y="-97.8" font-family="Times New Roman,serif" font-size="14.00">Dolby</text>
<text text-anchor="middle" x="158" y="-82.8" font-family="Times New Roman,serif" font-size="14.00">surround</text>
<text text-anchor="middle" x="158" y="-67.8" font-family="Times New Roman,serif" font-size="14.00">2.0,</text>
<text text-anchor="middle" x="158" y="-52.8" font-family="Times New Roman,serif" font-size="14.00">toutes</text>
<text text-anchor="middle" x="158" y="-37.8" font-family="Times New Roman,serif" font-size="14.00">zones</text>
</g>
<!-- UMLRM0190&#45;&gt;UMLRM0189 -->
<g id="edge3" class="edge">
<title>UMLRM0190&#45;&gt;UMLRM0189</title>
<path fill="none" stroke="black" d="M151,-338.48C147.55,-359.81 142.71,-381.19 136,-401 135.14,-403.53 134.16,-406.06 133.09,-408.57"/>
<polygon fill="black" stroke="black" points="130.02,-406.88 128.84,-417.41 136.32,-409.91 130.02,-406.88"/>
<text text-anchor="middle" x="185.5" y="-389.8" font-family="Times New Roman,serif" font-size="14.00">Manifestation de</text>
</g>
</g>
</svg>
