<?xml version="1.0" encoding="UTF-8" standalone="no"?>
<!DOCTYPE svg PUBLIC "-//W3C//DTD SVG 1.1//EN"
 "http://www.w3.org/Graphics/SVG/1.1/DTD/svg11.dtd">
<!-- Generated by graphviz version 7.0.3 (20221126.0506)
 -->
<!-- Title: UMLRM0152 Pages: 1 -->
<svg width="1440pt" height="27pt"
 viewBox="0.00 0.00 1440.00 26.89" xmlns="http://www.w3.org/2000/svg" xmlns:xlink="http://www.w3.org/1999/xlink">
<g id="graph0" class="graph" transform="scale(0.61115 0.61115) rotate(0) translate(4 40)">
<title>UMLRM0152</title>
<polygon fill="white" stroke="none" points="-4,4 -4,-40 2352.21,-40 2352.21,4 -4,4"/>
<!-- UMLRM0152 -->
<g id="node1" class="node">
<title>UMLRM0152</title>
<ellipse fill="none" stroke="black" cx="256.08" cy="-18" rx="256.15" ry="18"/>
<text text-anchor="middle" x="256.08" y="-14.3" font-family="Times New Roman,serif" font-size="14.00">[Photographies extraites du film &quot;Dracula&quot; de Tod Browning], 1932</text>
</g>
<!-- UMLRM0153 -->
<g id="node2" class="node">
<title>UMLRM0153</title>
<ellipse fill="none" stroke="black" cx="933.63" cy="-18" rx="305.45" ry="18"/>
<text text-anchor="middle" x="933.63" y="-14.3" font-family="Times New Roman,serif" font-size="14.00">[Photographies extraites du film « Dracula » de Tod Browning], 1932, Image fixe</text>
</g>
<!-- UMLRM0152&#45;&gt;UMLRM0153 -->
<g id="edge1" class="edge">
<title>UMLRM0152&#45;&gt;UMLRM0153</title>
<path fill="none" stroke="black" d="M512.47,-18C546.44,-18 581.59,-18 616.44,-18"/>
<polygon fill="black" stroke="black" points="616.22,-21.5 626.22,-18 616.22,-14.5 616.22,-21.5"/>
<text text-anchor="middle" x="570.15" y="-21.8" font-family="Times New Roman,serif" font-size="14.00">Expression de</text>
</g>
<!-- UMLRM0060 -->
<g id="node3" class="node">
<title>UMLRM0060</title>
<ellipse fill="none" stroke="black" cx="1858.16" cy="-18" rx="490.11" ry="18"/>
<text text-anchor="middle" x="1858.16" y="-14.3" font-family="Times New Roman,serif" font-size="14.00">Dracula, Brahm Stoker, Éditions J. Tallandier, 1932, 1 volume (96 pages – planches non numérotées), couverture illustrée en couleur</text>
</g>
<!-- UMLRM0153&#45;&gt;UMLRM0060 -->
<g id="edge2" class="edge">
<title>UMLRM0153&#45;&gt;UMLRM0060</title>
<path fill="none" stroke="black" d="M1239.25,-18C1277.15,-18 1316.65,-18 1356.55,-18"/>
<polygon fill="black" stroke="black" points="1356.3,-21.5 1366.3,-18 1356.3,-14.5 1356.3,-21.5"/>
<text text-anchor="middle" x="1303.6" y="-21.8" font-family="Times New Roman,serif" font-size="14.00">Manifestation de</text>
</g>
</g>
</svg>
