<?xml version="1.0" encoding="UTF-8" standalone="no"?>
<!DOCTYPE svg PUBLIC "-//W3C//DTD SVG 1.1//EN"
 "http://www.w3.org/Graphics/SVG/1.1/DTD/svg11.dtd">
<!-- Generated by graphviz version 7.0.3 (20221126.0506)
 -->
<!-- Title: UMLRM0037 Pages: 1 -->
<svg width="1440pt" height="118pt"
 viewBox="0.00 0.00 1440.00 118.03" xmlns="http://www.w3.org/2000/svg" xmlns:xlink="http://www.w3.org/1999/xlink">
<g id="graph0" class="graph" transform="scale(0.776507 0.776507) rotate(0) translate(4 148)">
<title>UMLRM0037</title>
<polygon fill="white" stroke="none" points="-4,4 -4,-148 1850.46,-148 1850.46,4 -4,4"/>
<!-- UMLRM0037 -->
<g id="node1" class="node">
<title>UMLRM0037</title>
<ellipse fill="none" stroke="black" cx="1681.37" cy="-72" rx="165.17" ry="18"/>
<text text-anchor="middle" x="1681.37" y="-68.3" font-family="Times New Roman,serif" font-size="14.00">Stoker, Bram (1847&#45;1912), Choix, Dracula</text>
</g>
<!-- UMLRM0038 -->
<g id="node2" class="node">
<title>UMLRM0038</title>
<ellipse fill="none" stroke="black" cx="1192.31" cy="-126" rx="207.96" ry="18"/>
<text text-anchor="middle" x="1192.31" y="-122.3" font-family="Times New Roman,serif" font-size="14.00">Stoker, Bram (1847&#45;1912), Choix, Dracula, Texte noté</text>
</g>
<!-- UMLRM0038&#45;&gt;UMLRM0037 -->
<g id="edge1" class="edge">
<title>UMLRM0038&#45;&gt;UMLRM0037</title>
<path fill="none" stroke="black" d="M1322.87,-111.64C1393.89,-103.76 1481.62,-94.04 1552.39,-86.19"/>
<polygon fill="black" stroke="black" points="1552.54,-89.69 1562.09,-85.11 1551.77,-82.74 1552.54,-89.69"/>
<text text-anchor="middle" x="1458.29" y="-103.8" font-family="Times New Roman,serif" font-size="14.00">Expression de</text>
</g>
<!-- UMLRM0039 -->
<g id="node3" class="node">
<title>UMLRM0039</title>
<ellipse fill="none" stroke="black" cx="427.66" cy="-126" rx="427.82" ry="18"/>
<text text-anchor="middle" x="427.66" y="-122.3" font-family="Times New Roman,serif" font-size="14.00">Dracula, Bram Stoker, Flammarion &#45; Imprimerie Maury&#45;Eurolivres, 2006, 1 volume (222 pages), couverture illustrée</text>
</g>
<!-- UMLRM0039&#45;&gt;UMLRM0038 -->
<g id="edge2" class="edge">
<title>UMLRM0039&#45;&gt;UMLRM0038</title>
<path fill="none" stroke="black" d="M855.97,-126C896.2,-126 935.73,-126 972.75,-126"/>
<polygon fill="black" stroke="black" points="972.64,-129.5 982.64,-126 972.64,-122.5 972.64,-129.5"/>
<text text-anchor="middle" x="919.82" y="-129.8" font-family="Times New Roman,serif" font-size="14.00">Manifestation de</text>
</g>
<!-- UMLRM0047 -->
<g id="node4" class="node">
<title>UMLRM0047</title>
<ellipse fill="none" stroke="black" cx="1192.31" cy="-72" rx="207.96" ry="18"/>
<text text-anchor="middle" x="1192.31" y="-68.3" font-family="Times New Roman,serif" font-size="14.00">Stoker, Bram (1847&#45;1912), Choix, Dracula, Texte noté</text>
</g>
<!-- UMLRM0047&#45;&gt;UMLRM0037 -->
<g id="edge3" class="edge">
<title>UMLRM0047&#45;&gt;UMLRM0037</title>
<path fill="none" stroke="black" d="M1400.57,-72C1435.23,-72 1470.9,-72 1504.67,-72"/>
<polygon fill="black" stroke="black" points="1504.53,-75.5 1514.53,-72 1504.53,-68.5 1504.53,-75.5"/>
<text text-anchor="middle" x="1458.29" y="-75.8" font-family="Times New Roman,serif" font-size="14.00">Expression de</text>
</g>
<!-- UMLRM0048 -->
<g id="node5" class="node">
<title>UMLRM0048</title>
<ellipse fill="none" stroke="black" cx="427.66" cy="-72" rx="371.23" ry="18"/>
<text text-anchor="middle" x="427.66" y="-68.3" font-family="Times New Roman,serif" font-size="14.00">Dracula, Bram Stoker, Flammarion, DL 2017, 1 volume (222 pages &#45; [4] pages), couverture illustrée</text>
</g>
<!-- UMLRM0048&#45;&gt;UMLRM0047 -->
<g id="edge4" class="edge">
<title>UMLRM0048&#45;&gt;UMLRM0047</title>
<path fill="none" stroke="black" d="M799.37,-72C858.66,-72 918.3,-72 972.54,-72"/>
<polygon fill="black" stroke="black" points="972.51,-75.5 982.51,-72 972.51,-68.5 972.51,-75.5"/>
<text text-anchor="middle" x="919.82" y="-75.8" font-family="Times New Roman,serif" font-size="14.00">Manifestation de</text>
</g>
<!-- UMLRM0172 -->
<g id="node6" class="node">
<title>UMLRM0172</title>
<ellipse fill="none" stroke="black" cx="1192.31" cy="-18" rx="207.96" ry="18"/>
<text text-anchor="middle" x="1192.31" y="-14.3" font-family="Times New Roman,serif" font-size="14.00">Stoker, Bram (1847&#45;1912), Choix, Dracula, Texte noté</text>
</g>
<!-- UMLRM0172&#45;&gt;UMLRM0037 -->
<g id="edge5" class="edge">
<title>UMLRM0172&#45;&gt;UMLRM0037</title>
<path fill="none" stroke="black" d="M1322.87,-32.36C1393.89,-40.24 1481.62,-49.96 1552.39,-57.81"/>
<polygon fill="black" stroke="black" points="1551.77,-61.26 1562.09,-58.89 1552.54,-54.31 1551.77,-61.26"/>
<text text-anchor="middle" x="1458.29" y="-54.8" font-family="Times New Roman,serif" font-size="14.00">Expression de</text>
</g>
<!-- UMLRM0173 -->
<g id="node7" class="node">
<title>UMLRM0173</title>
<ellipse fill="none" stroke="black" cx="427.66" cy="-18" rx="427.82" ry="18"/>
<text text-anchor="middle" x="427.66" y="-14.3" font-family="Times New Roman,serif" font-size="14.00">Dracula, Bram Stoker, Flammarion &#45; Imprimerie Maury&#45;Eurolivres, 2004, 1 volume (247 pages), couverture illustrée</text>
</g>
<!-- UMLRM0173&#45;&gt;UMLRM0172 -->
<g id="edge6" class="edge">
<title>UMLRM0173&#45;&gt;UMLRM0172</title>
<path fill="none" stroke="black" d="M855.97,-18C896.2,-18 935.73,-18 972.75,-18"/>
<polygon fill="black" stroke="black" points="972.64,-21.5 982.64,-18 972.64,-14.5 972.64,-21.5"/>
<text text-anchor="middle" x="919.82" y="-21.8" font-family="Times New Roman,serif" font-size="14.00">Manifestation de</text>
</g>
</g>
</svg>
