<?xml version="1.0" encoding="UTF-8" standalone="no"?>
<!DOCTYPE svg PUBLIC "-//W3C//DTD SVG 1.1//EN"
 "http://www.w3.org/Graphics/SVG/1.1/DTD/svg11.dtd">
<!-- Generated by graphviz version 7.0.3 (20221126.0506)
 -->
<!-- Title: UMLRM0007 Pages: 1 -->
<svg width="1440pt" height="38pt"
 viewBox="0.00 0.00 1440.00 37.65" xmlns="http://www.w3.org/2000/svg" xmlns:xlink="http://www.w3.org/1999/xlink">
<g id="graph0" class="graph" transform="scale(0.855679 0.855679) rotate(0) translate(4 40)">
<title>UMLRM0007</title>
<polygon fill="white" stroke="none" points="-4,4 -4,-40 1678.87,-40 1678.87,4 -4,4"/>
<!-- UMLRM0007 -->
<g id="node1" class="node">
<title>UMLRM0007</title>
<ellipse fill="none" stroke="black" cx="1532.54" cy="-18" rx="142.17" ry="18"/>
<text text-anchor="middle" x="1532.54" y="-14.3" font-family="Times New Roman,serif" font-size="14.00"> Nosferatu, Phantom der Nacht, film</text>
</g>
<!-- UMLRM0008 -->
<g id="node2" class="node">
<title>UMLRM0008</title>
<ellipse fill="none" stroke="black" cx="1134.46" cy="-18" rx="139.98" ry="18"/>
<text text-anchor="middle" x="1134.46" y="-14.3" font-family="Times New Roman,serif" font-size="14.00">Nosferatu, Phantom der Nacht, film</text>
</g>
<!-- UMLRM0008&#45;&gt;UMLRM0007 -->
<g id="edge1" class="edge">
<title>UMLRM0008&#45;&gt;UMLRM0007</title>
<path fill="none" stroke="black" d="M1274.82,-18C1308.35,-18 1344.35,-18 1378.47,-18"/>
<polygon fill="black" stroke="black" points="1378.45,-21.5 1388.45,-18 1378.45,-14.5 1378.45,-21.5"/>
<text text-anchor="middle" x="1332.2" y="-21.8" font-family="Times New Roman,serif" font-size="14.00">Expression de</text>
</g>
<!-- UMLRM0009 -->
<g id="node3" class="node">
<title>UMLRM0009</title>
<ellipse fill="none" stroke="black" cx="432.86" cy="-18" rx="432.72" ry="18"/>
<text text-anchor="middle" x="432.86" y="-14.3" font-family="Times New Roman,serif" font-size="14.00">Nosferatu, fantôme de la nuit, un film de Werner Herzog, &#160;Gaumont vidéo &#45; &#160;Gaumont vidéo, [DL 2010], 1 BD vidéo</text>
</g>
<!-- UMLRM0009&#45;&gt;UMLRM0008 -->
<g id="edge2" class="edge">
<title>UMLRM0009&#45;&gt;UMLRM0008</title>
<path fill="none" stroke="black" d="M865.98,-18C907.34,-18 947.08,-18 982.69,-18"/>
<polygon fill="black" stroke="black" points="982.59,-21.5 992.59,-18 982.59,-14.5 982.59,-21.5"/>
<text text-anchor="middle" x="930.22" y="-21.8" font-family="Times New Roman,serif" font-size="14.00">Manifestation de</text>
</g>
</g>
</svg>
