<?xml version="1.0" encoding="UTF-8" standalone="no"?>
<!DOCTYPE svg PUBLIC "-//W3C//DTD SVG 1.1//EN"
 "http://www.w3.org/Graphics/SVG/1.1/DTD/svg11.dtd">
<!-- Generated by graphviz version 7.0.3 (20221126.0506)
 -->
<!-- Title: UMLRM0149 Pages: 1 -->
<svg width="1440pt" height="24pt"
 viewBox="0.00 0.00 1440.00 24.40" xmlns="http://www.w3.org/2000/svg" xmlns:xlink="http://www.w3.org/1999/xlink">
<g id="graph0" class="graph" transform="scale(0.554552 0.554552) rotate(0) translate(4 40)">
<title>UMLRM0149</title>
<polygon fill="white" stroke="none" points="-4,4 -4,-40 2592.69,-40 2592.69,4 -4,4"/>
<!-- UMLRM0149 -->
<g id="node1" class="node">
<title>UMLRM0149</title>
<ellipse fill="none" stroke="black" cx="2238.37" cy="-18" rx="350.14" ry="18"/>
<text text-anchor="middle" x="2238.37" y="-14.3" font-family="Times New Roman,serif" font-size="14.00">Finné, Jacques (1944&#45;….) &#45; Marigny, Jean (1939&#45;....), Dictionnaire des littératures vampiriques</text>
</g>
<!-- UMLRM0198 -->
<g id="node2" class="node">
<title>UMLRM0198</title>
<ellipse fill="none" stroke="black" cx="1378.19" cy="-18" rx="393.73" ry="18"/>
<text text-anchor="middle" x="1378.19" y="-14.3" font-family="Times New Roman,serif" font-size="14.00">Finné, Jacques (1944&#45;….) &#45; Marigny, Jean (1939&#45;....), Dictionnaire des littératures vampiriques, Texte noté</text>
</g>
<!-- UMLRM0198&#45;&gt;UMLRM0149 -->
<g id="edge1" class="edge">
<title>UMLRM0198&#45;&gt;UMLRM0149</title>
<path fill="none" stroke="black" d="M1772.18,-18C1807.01,-18 1842.16,-18 1876.71,-18"/>
<polygon fill="black" stroke="black" points="1876.39,-21.5 1886.39,-18 1876.39,-14.5 1876.39,-21.5"/>
<text text-anchor="middle" x="1830.05" y="-21.8" font-family="Times New Roman,serif" font-size="14.00">Expression de</text>
</g>
<!-- UMLRM0199 -->
<g id="node3" class="node">
<title>UMLRM0199</title>
<ellipse fill="none" stroke="black" cx="427.66" cy="-18" rx="427.82" ry="18"/>
<text text-anchor="middle" x="427.66" y="-14.3" font-family="Times New Roman,serif" font-size="14.00">Dictionnaire des littératures vampiriques, Jacques Finné, Jean Marigny, Terre de brume, 2020, 1 volume(332 pages)</text>
</g>
<!-- UMLRM0199&#45;&gt;UMLRM0198 -->
<g id="edge2" class="edge">
<title>UMLRM0199&#45;&gt;UMLRM0198</title>
<path fill="none" stroke="black" d="M855.75,-18C894.69,-18 934.06,-18 972.79,-18"/>
<polygon fill="black" stroke="black" points="972.72,-21.5 982.72,-18 972.72,-14.5 972.72,-21.5"/>
<text text-anchor="middle" x="919.82" y="-21.8" font-family="Times New Roman,serif" font-size="14.00">Manifestation de</text>
</g>
</g>
</svg>
