<?xml version="1.0" encoding="UTF-8" standalone="no"?>
<!DOCTYPE svg PUBLIC "-//W3C//DTD SVG 1.1//EN"
 "http://www.w3.org/Graphics/SVG/1.1/DTD/svg11.dtd">
<!-- Generated by graphviz version 7.0.3 (20221126.0506)
 -->
<!-- Title: UMLRM0099 Pages: 1 -->
<svg width="720pt" height="104pt"
 viewBox="0.00 0.00 720.00 103.70" xmlns="http://www.w3.org/2000/svg" xmlns:xlink="http://www.w3.org/1999/xlink">
<g id="graph0" class="graph" transform="scale(0.475708 0.475708) rotate(0) translate(4 214)">
<title>UMLRM0099</title>
<polygon fill="white" stroke="none" points="-4,4 -4,-214 1509.53,-214 1509.53,4 -4,4"/>
<!-- UMLRM0099 -->
<g id="node1" class="node">
<title>UMLRM0099</title>
<ellipse fill="none" stroke="black" cx="774.22" cy="-192" rx="149.47" ry="18"/>
<text text-anchor="middle" x="774.22" y="-188.3" font-family="Times New Roman,serif" font-size="14.00">Druillet, Philippe (1944&#45;....), Nosferatu</text>
</g>
<!-- UMLRM0100 -->
<g id="node2" class="node">
<title>UMLRM0100</title>
<ellipse fill="none" stroke="black" cx="774.22" cy="-105" rx="235.06" ry="18"/>
<text text-anchor="middle" x="774.22" y="-101.3" font-family="Times New Roman,serif" font-size="14.00">Druillet, Philippe (1944&#45;....), Nosferatu, Texte noté. Image fixe</text>
</g>
<!-- UMLRM0099&#45;&gt;UMLRM0100 -->
<g id="edge1" class="edge">
<title>UMLRM0099&#45;&gt;UMLRM0100</title>
<path fill="none" stroke="black" d="M774.22,-173.8C774.22,-162.58 774.22,-147.67 774.22,-134.69"/>
<polygon fill="black" stroke="black" points="777.72,-134.98 774.22,-124.98 770.72,-134.98 777.72,-134.98"/>
<text text-anchor="middle" x="814.22" y="-144.8" font-family="Times New Roman,serif" font-size="14.00">Expression de</text>
</g>
<!-- UMLRM0101 -->
<g id="node3" class="node">
<title>UMLRM0101</title>
<ellipse fill="none" stroke="black" cx="393.22" cy="-18" rx="393.43" ry="18"/>
<text text-anchor="middle" x="393.22" y="-14.3" font-family="Times New Roman,serif" font-size="14.00">Nosferatu, [texte et dessins de] Druillet, Dargaud &#45; Imprimerie Publiphotoffset, 1988, 1 volume (63 pages)</text>
</g>
<!-- UMLRM0100&#45;&gt;UMLRM0101 -->
<g id="edge2" class="edge">
<title>UMLRM0100&#45;&gt;UMLRM0101</title>
<path fill="none" stroke="black" d="M700.3,-87.51C637.47,-73.49 547.15,-53.34 480.72,-38.52"/>
<polygon fill="black" stroke="black" points="481.86,-35.19 471.34,-36.43 480.34,-42.02 481.86,-35.19"/>
<text text-anchor="middle" x="653.72" y="-57.8" font-family="Times New Roman,serif" font-size="14.00">Manifestation de</text>
</g>
<!-- UMLRM0104 -->
<g id="node4" class="node">
<title>UMLRM0104</title>
<ellipse fill="none" stroke="black" cx="1155.22" cy="-18" rx="350.14" ry="18"/>
<text text-anchor="middle" x="1155.22" y="-14.3" font-family="Times New Roman,serif" font-size="14.00">Nosferatu, Druillet, Albin Michel, 2001, 1 volume (non paginé [55] pages), couverture illustrée</text>
</g>
<!-- UMLRM0100&#45;&gt;UMLRM0104 -->
<g id="edge3" class="edge">
<title>UMLRM0100&#45;&gt;UMLRM0104</title>
<path fill="none" stroke="black" d="M848.13,-87.51C911.06,-73.47 1001.57,-53.28 1068.03,-38.45"/>
<polygon fill="black" stroke="black" points="1068.42,-41.95 1077.42,-36.36 1066.9,-35.12 1068.42,-41.95"/>
<text text-anchor="middle" x="1034.72" y="-57.8" font-family="Times New Roman,serif" font-size="14.00">Manifestation de</text>
</g>
</g>
</svg>
