<?xml version="1.0" encoding="UTF-8" standalone="no"?>
<!DOCTYPE svg PUBLIC "-//W3C//DTD SVG 1.1//EN"
 "http://www.w3.org/Graphics/SVG/1.1/DTD/svg11.dtd">
<!-- Generated by graphviz version 7.0.3 (20221126.0506)
 -->
<!-- Title: UMLRM0154 Pages: 1 -->
<svg width="164pt" height="447pt"
 viewBox="0.00 0.00 164.00 447.00" xmlns="http://www.w3.org/2000/svg" xmlns:xlink="http://www.w3.org/1999/xlink">
<g id="graph0" class="graph" transform="scale(1 1) rotate(0) translate(4 443)">
<title>UMLRM0154</title>
<polygon fill="white" stroke="none" points="-4,4 -4,-443 160,-443 160,4 -4,4"/>
<!-- UMLRM0154 -->
<g id="node1" class="node">
<title>UMLRM0154</title>
<polygon fill="none" stroke="red" points="124,-439 2,-439 2,-403 124,-403 124,-439"/>
<text text-anchor="middle" x="63" y="-417.3" font-family="Times New Roman,serif" font-size="14.00">Dracula, film, 1931</text>
</g>
<!-- UMLRM0159 -->
<g id="node2" class="node">
<title>UMLRM0159</title>
<polygon fill="none" stroke="black" points="126,-352 0,-352 0,-269 126,-269 126,-352"/>
<text text-anchor="middle" x="63" y="-336.8" font-family="Times New Roman,serif" font-size="14.00">Dracula, film, 1931,</text>
<text text-anchor="middle" x="63" y="-321.8" font-family="Times New Roman,serif" font-size="14.00">Versions multiples</text>
<text text-anchor="middle" x="63" y="-306.8" font-family="Times New Roman,serif" font-size="14.00">(5 langues ; sous&#45;</text>
<text text-anchor="middle" x="63" y="-291.8" font-family="Times New Roman,serif" font-size="14.00">titrage en 5</text>
<text text-anchor="middle" x="63" y="-276.8" font-family="Times New Roman,serif" font-size="14.00">langues)</text>
</g>
<!-- UMLRM0159&#45;&gt;UMLRM0154 -->
<g id="edge1" class="edge">
<title>UMLRM0159&#45;&gt;UMLRM0154</title>
<path fill="none" stroke="black" d="M63,-352.21C63,-365.29 63,-379.49 63,-391.5"/>
<polygon fill="black" stroke="black" points="59.5,-391.14 63,-401.14 66.5,-391.14 59.5,-391.14"/>
<text text-anchor="middle" x="103" y="-373.8" font-family="Times New Roman,serif" font-size="14.00">Expression de</text>
</g>
<!-- UMLRM0160 -->
<g id="node3" class="node">
<title>UMLRM0160</title>
<polygon fill="none" stroke="black" points="104,-218 22,-218 22,0 104,0 104,-218"/>
<text text-anchor="middle" x="63" y="-202.8" font-family="Times New Roman,serif" font-size="14.00">Dracula,</text>
<text text-anchor="middle" x="63" y="-187.8" font-family="Times New Roman,serif" font-size="14.00">Tod</text>
<text text-anchor="middle" x="63" y="-172.8" font-family="Times New Roman,serif" font-size="14.00">Browning, </text>
<text text-anchor="middle" x="63" y="-157.8" font-family="Times New Roman,serif" font-size="14.00">[réalisate</text>
<text text-anchor="middle" x="63" y="-142.8" font-family="Times New Roman,serif" font-size="14.00">ur],</text>
<text text-anchor="middle" x="63" y="-127.8" font-family="Times New Roman,serif" font-size="14.00">Universal </text>
<text text-anchor="middle" x="63" y="-112.8" font-family="Times New Roman,serif" font-size="14.00">StudioCana</text>
<text text-anchor="middle" x="63" y="-97.8" font-family="Times New Roman,serif" font-size="14.00">l vidéo &#45;</text>
<text text-anchor="middle" x="63" y="-82.8" font-family="Times New Roman,serif" font-size="14.00">Universal </text>
<text text-anchor="middle" x="63" y="-67.8" font-family="Times New Roman,serif" font-size="14.00">StudioCana</text>
<text text-anchor="middle" x="63" y="-52.8" font-family="Times New Roman,serif" font-size="14.00">l vidéo,</text>
<text text-anchor="middle" x="63" y="-37.8" font-family="Times New Roman,serif" font-size="14.00">2014 &#45;</text>
<text text-anchor="middle" x="63" y="-22.8" font-family="Times New Roman,serif" font-size="14.00">2014, 1 BD</text>
<text text-anchor="middle" x="63" y="-7.8" font-family="Times New Roman,serif" font-size="14.00">vidéo</text>
</g>
<!-- UMLRM0160&#45;&gt;UMLRM0159 -->
<g id="edge2" class="edge">
<title>UMLRM0160&#45;&gt;UMLRM0159</title>
<path fill="none" stroke="black" d="M63,-218.22C63,-231.82 63,-245.22 63,-257.38"/>
<polygon fill="black" stroke="black" points="59.5,-257.11 63,-267.11 66.5,-257.11 59.5,-257.11"/>
<text text-anchor="middle" x="109.5" y="-239.8" font-family="Times New Roman,serif" font-size="14.00">Manifestation de</text>
</g>
</g>
</svg>
