<?xml version="1.0" encoding="UTF-8" standalone="no"?>
<!DOCTYPE svg PUBLIC "-//W3C//DTD SVG 1.1//EN"
 "http://www.w3.org/Graphics/SVG/1.1/DTD/svg11.dtd">
<!-- Generated by graphviz version 7.0.3 (20221126.0506)
 -->
<!-- Title: UMLRM0120 Pages: 1 -->
<svg width="1440pt" height="73pt"
 viewBox="0.00 0.00 1440.00 72.54" xmlns="http://www.w3.org/2000/svg" xmlns:xlink="http://www.w3.org/1999/xlink">
<g id="graph0" class="graph" transform="scale(0.624237 0.624237) rotate(0) translate(4 112.21)">
<title>UMLRM0120</title>
<polygon fill="white" stroke="none" points="-4,4 -4,-112.21 2302.82,-112.21 2302.82,4 -4,4"/>
<!-- UMLRM0120 -->
<g id="node1" class="node">
<title>UMLRM0120</title>
<ellipse fill="none" stroke="black" cx="2172.73" cy="-58.21" rx="126.18" ry="18"/>
<text text-anchor="middle" x="2172.73" y="-54.51" font-family="Times New Roman,serif" font-size="14.00">Dracula, dead and loving it, film</text>
</g>
<!-- UMLRM0121 -->
<g id="node2" class="node">
<title>UMLRM0121</title>
<ellipse fill="none" stroke="black" cx="1804.55" cy="-85.21" rx="126.18" ry="18"/>
<text text-anchor="middle" x="1804.55" y="-81.51" font-family="Times New Roman,serif" font-size="14.00">Dracula, dead and loving it, film</text>
</g>
<!-- UMLRM0121&#45;&gt;UMLRM0120 -->
<g id="edge1" class="edge">
<title>UMLRM0121&#45;&gt;UMLRM0120</title>
<path fill="none" stroke="black" d="M1917.41,-76.97C1958.82,-73.91 2005.99,-70.43 2048.37,-67.31"/>
<polygon fill="black" stroke="black" points="2048.39,-70.82 2058.1,-66.59 2047.87,-63.84 2048.39,-70.82"/>
<text text-anchor="middle" x="1988.64" y="-77.01" font-family="Times New Roman,serif" font-size="14.00">Expression de</text>
</g>
<!-- UMLRM0122 -->
<g id="node3" class="node">
<title>UMLRM0122</title>
<ellipse fill="none" stroke="black" cx="774.73" cy="-90.21" rx="774.96" ry="18"/>
<text text-anchor="middle" x="774.73" y="-86.51" font-family="Times New Roman,serif" font-size="14.00">Dracula, mort et heureux de l’être, un film de Mel Brooks, Gaumont vidéo &#45; Paramount home entertainment, 2009, 1 DVD vidéo, monoface double couche, 16/9 compatible 3/4, PAL, Dolby surround 2.0, zone 2</text>
</g>
<!-- UMLRM0122&#45;&gt;UMLRM0121 -->
<g id="edge2" class="edge">
<title>UMLRM0122&#45;&gt;UMLRM0121</title>
<path fill="none" stroke="black" d="M1540.24,-93.16C1549.36,-93.18 1558.44,-93.2 1567.46,-93.21 1608.8,-93.29 1619.15,-94.37 1660.46,-93.21 1665.7,-93.07 1671.05,-92.89 1676.46,-92.69"/>
<polygon fill="black" stroke="black" points="1676.24,-96.2 1686.09,-92.31 1675.96,-89.21 1676.24,-96.2"/>
<text text-anchor="middle" x="1613.96" y="-97.01" font-family="Times New Roman,serif" font-size="14.00">Manifestation de</text>
</g>
<!-- UMLRM0189 -->
<g id="node5" class="node">
<title>UMLRM0189</title>
<ellipse fill="none" stroke="black" cx="1804.55" cy="-31.21" rx="126.18" ry="18"/>
<text text-anchor="middle" x="1804.55" y="-27.51" font-family="Times New Roman,serif" font-size="14.00">Dracula, dead and loving it, film</text>
</g>
<!-- UMLRM0122&#45;&gt;UMLRM0189 -->
<g id="edge5" class="edge">
<title>UMLRM0122&#45;&gt;UMLRM0189</title>
<path fill="none" stroke="black" d="M1353.52,-77.91C1455.93,-72.72 1561.46,-65.43 1660.46,-55.21 1678.51,-53.35 1697.74,-50.63 1716.05,-47.69"/>
<polygon fill="black" stroke="black" points="1716.52,-51.16 1725.81,-46.09 1715.38,-44.26 1716.52,-51.16"/>
<text text-anchor="middle" x="1613.96" y="-65.01" font-family="Times New Roman,serif" font-size="14.00">Manifestation de</text>
</g>
<!-- UMLRM0190 -->
<g id="node4" class="node">
<title>UMLRM0190</title>
<ellipse fill="none" stroke="black" cx="774.73" cy="-25.21" rx="636.89" ry="18"/>
<text text-anchor="middle" x="774.73" y="-21.51" font-family="Times New Roman,serif" font-size="14.00">Mel Brooks, Gaumont vidéo &#45; Paramount home entertainment, [2015], 2 DVD vidéo, monoface double couche, 16/9 compatible 3/4, PAL, Dolby surround 2.0, toutes zones</text>
</g>
<!-- UMLRM0190&#45;&gt;UMLRM0121 -->
<g id="edge3" class="edge">
<title>UMLRM0190&#45;&gt;UMLRM0121</title>
<path fill="none" stroke="black" d="M1280.4,-13.96C1457.9,-13.4 1622.88,-18.12 1660.46,-36.21 1671.85,-41.69 1667.68,-51.62 1678.46,-58.21 1685.37,-62.44 1692.84,-66 1700.58,-69.02"/>
<polygon fill="black" stroke="black" points="1699.26,-72.26 1709.85,-72.29 1701.59,-65.66 1699.26,-72.26"/>
<text text-anchor="middle" x="1613.96" y="-40.01" font-family="Times New Roman,serif" font-size="14.00">Manifestation de</text>
</g>
<!-- UMLRM0190&#45;&gt;UMLRM0189 -->
<g id="edge6" class="edge">
<title>UMLRM0190&#45;&gt;UMLRM0189</title>
<path fill="none" stroke="black" d="M1184.82,-11.06C1307.81,-7.42 1443.11,-4.02 1567.46,-2.21 1608.79,-1.61 1619.34,1.91 1660.46,-2.21 1682.69,-4.44 1706.57,-8.57 1728.34,-13.03"/>
<polygon fill="black" stroke="black" points="1727.52,-16.44 1738.02,-15.08 1728.96,-9.59 1727.52,-16.44"/>
<text text-anchor="middle" x="1613.96" y="-6.01" font-family="Times New Roman,serif" font-size="14.00">Manifestation de</text>
</g>
<!-- UMLRM0189&#45;&gt;UMLRM0120 -->
<g id="edge4" class="edge">
<title>UMLRM0189&#45;&gt;UMLRM0120</title>
<path fill="none" stroke="black" d="M1917.41,-39.46C1958.82,-42.51 2005.99,-45.99 2048.37,-49.12"/>
<polygon fill="black" stroke="black" points="2047.87,-52.59 2058.1,-49.83 2048.39,-45.61 2047.87,-52.59"/>
<text text-anchor="middle" x="1988.64" y="-50.01" font-family="Times New Roman,serif" font-size="14.00">Expression de</text>
</g>
</g>
</svg>
