<?xml version="1.0" encoding="UTF-8" standalone="no"?>
<!DOCTYPE svg PUBLIC "-//W3C//DTD SVG 1.1//EN"
 "http://www.w3.org/Graphics/SVG/1.1/DTD/svg11.dtd">
<!-- Generated by graphviz version 7.0.3 (20221126.0506)
 -->
<!-- Title: UMLRM0081 Pages: 1 -->
<svg width="1440pt" height="26pt"
 viewBox="0.00 0.00 1440.00 25.82" xmlns="http://www.w3.org/2000/svg" xmlns:xlink="http://www.w3.org/1999/xlink">
<g id="graph0" class="graph" transform="scale(0.586868 0.586868) rotate(0) translate(4 40)">
<title>UMLRM0081</title>
<polygon fill="white" stroke="none" points="-4,4 -4,-40 2449.7,-40 2449.7,4 -4,4"/>
<!-- UMLRM0081 -->
<g id="node1" class="node">
<title>UMLRM0081</title>
<ellipse fill="none" stroke="black" cx="2187.03" cy="-18" rx="258.85" ry="18"/>
<text text-anchor="middle" x="2187.03" y="-14.3" font-family="Times New Roman,serif" font-size="14.00">&quot;Dracula&quot; : l&#39;oeuvre de Bram Stoker et le film de Francis F. Coppola</text>
</g>
<!-- UMLRM0082 -->
<g id="node2" class="node">
<title>UMLRM0082</title>
<ellipse fill="none" stroke="black" cx="1510.13" cy="-18" rx="302.45" ry="18"/>
<text text-anchor="middle" x="1510.13" y="-14.3" font-family="Times New Roman,serif" font-size="14.00">&quot;Dracula&quot; : l&#39;oeuvre de Bram Stoker et le film de Francis F. Coppola, Texte noté</text>
</g>
<!-- UMLRM0082&#45;&gt;UMLRM0081 -->
<g id="edge1" class="edge">
<title>UMLRM0082&#45;&gt;UMLRM0081</title>
<path fill="none" stroke="black" d="M1813.05,-18C1847.49,-18 1882.44,-18 1916.43,-18"/>
<polygon fill="black" stroke="black" points="1916.41,-21.5 1926.41,-18 1916.41,-14.5 1916.41,-21.5"/>
<text text-anchor="middle" x="1870.35" y="-21.8" font-family="Times New Roman,serif" font-size="14.00">Expression de</text>
</g>
<!-- UMLRM0083 -->
<g id="node3" class="node">
<title>UMLRM0083</title>
<ellipse fill="none" stroke="black" cx="539.45" cy="-18" rx="539.4" ry="18"/>
<text text-anchor="middle" x="539.45" y="-14.3" font-family="Times New Roman,serif" font-size="14.00">&quot;Dracula&quot;, ouvrage dirigé par Gilles Menegaldo et Dominique Sipière, Ellipses &#45; Aubin imprimeur, 2005, 1 volume (379 pages), couverture illustrée</text>
</g>
<!-- UMLRM0083&#45;&gt;UMLRM0082 -->
<g id="edge2" class="edge">
<title>UMLRM0083&#45;&gt;UMLRM0082</title>
<path fill="none" stroke="black" d="M1079.32,-18C1119.1,-18 1158.39,-18 1196.09,-18"/>
<polygon fill="black" stroke="black" points="1195.69,-21.5 1205.69,-18 1195.69,-14.5 1195.69,-21.5"/>
<text text-anchor="middle" x="1143.4" y="-21.8" font-family="Times New Roman,serif" font-size="14.00">Manifestation de</text>
</g>
</g>
</svg>
