<?xml version="1.0" encoding="UTF-8" standalone="no"?>
<!DOCTYPE svg PUBLIC "-//W3C//DTD SVG 1.1//EN"
 "http://www.w3.org/Graphics/SVG/1.1/DTD/svg11.dtd">
<!-- Generated by graphviz version 7.0.3 (20221126.0506)
 -->
<!-- Title: UMLRM0090 Pages: 1 -->
<svg width="241pt" height="404pt"
 viewBox="0.00 0.00 241.00 404.00" xmlns="http://www.w3.org/2000/svg" xmlns:xlink="http://www.w3.org/1999/xlink">
<g id="graph0" class="graph" transform="scale(1 1) rotate(0) translate(4 400)">
<title>UMLRM0090</title>
<polygon fill="white" stroke="none" points="-4,4 -4,-400 237,-400 237,4 -4,4"/>
<!-- UMLRM0090 -->
<g id="node1" class="node">
<title>UMLRM0090</title>
<polygon fill="none" stroke="red" points="164,-396 34,-396 34,-343 164,-343 164,-396"/>
<text text-anchor="middle" x="99" y="-380.8" font-family="Times New Roman,serif" font-size="14.00">Nosferatu, the wrath</text>
<text text-anchor="middle" x="99" y="-365.8" font-family="Times New Roman,serif" font-size="14.00">of Malachi, jeu</text>
<text text-anchor="middle" x="99" y="-350.8" font-family="Times New Roman,serif" font-size="14.00">vidéo</text>
</g>
<!-- UMLRM0091 -->
<g id="node2" class="node">
<title>UMLRM0091</title>
<polygon fill="none" stroke="black" points="164,-292 34,-292 34,-239 164,-239 164,-292"/>
<text text-anchor="middle" x="99" y="-276.8" font-family="Times New Roman,serif" font-size="14.00">Nosferatu, the wrath</text>
<text text-anchor="middle" x="99" y="-261.8" font-family="Times New Roman,serif" font-size="14.00">of Malachi, jeu</text>
<text text-anchor="middle" x="99" y="-246.8" font-family="Times New Roman,serif" font-size="14.00">vidéo, Français, PC</text>
</g>
<!-- UMLRM0091&#45;&gt;UMLRM0090 -->
<g id="edge1" class="edge">
<title>UMLRM0091&#45;&gt;UMLRM0090</title>
<path fill="none" stroke="black" d="M99,-292.24C99,-304.08 99,-318.35 99,-331.32"/>
<polygon fill="black" stroke="black" points="95.5,-331.26 99,-341.26 102.5,-331.26 95.5,-331.26"/>
<text text-anchor="middle" x="139" y="-313.8" font-family="Times New Roman,serif" font-size="14.00">Expression de</text>
</g>
<!-- UMLRM0092 -->
<g id="node3" class="node">
<title>UMLRM0092</title>
<polygon fill="none" stroke="black" points="82,-188 0,-188 0,0 82,0 82,-188"/>
<text text-anchor="middle" x="41" y="-172.8" font-family="Times New Roman,serif" font-size="14.00">Nosferatu,</text>
<text text-anchor="middle" x="41" y="-157.8" font-family="Times New Roman,serif" font-size="14.00">Idol FX</text>
<text text-anchor="middle" x="41" y="-142.8" font-family="Times New Roman,serif" font-size="14.00">AB, Pan</text>
<text text-anchor="middle" x="41" y="-127.8" font-family="Times New Roman,serif" font-size="14.00">vision,</text>
<text text-anchor="middle" x="41" y="-112.8" font-family="Times New Roman,serif" font-size="14.00">Eidos &#45;</text>
<text text-anchor="middle" x="41" y="-97.8" font-family="Times New Roman,serif" font-size="14.00">Mindscape,</text>
<text text-anchor="middle" x="41" y="-82.8" font-family="Times New Roman,serif" font-size="14.00">[2005] &#45;</text>
<text text-anchor="middle" x="41" y="-67.8" font-family="Times New Roman,serif" font-size="14.00">2005, 1</text>
<text text-anchor="middle" x="41" y="-52.8" font-family="Times New Roman,serif" font-size="14.00">disque</text>
<text text-anchor="middle" x="41" y="-37.8" font-family="Times New Roman,serif" font-size="14.00">optique</text>
<text text-anchor="middle" x="41" y="-22.8" font-family="Times New Roman,serif" font-size="14.00">numérique</text>
<text text-anchor="middle" x="41" y="-7.8" font-family="Times New Roman,serif" font-size="14.00">(CD&#45;ROM)</text>
</g>
<!-- UMLRM0092&#45;&gt;UMLRM0091 -->
<g id="edge2" class="edge">
<title>UMLRM0092&#45;&gt;UMLRM0091</title>
<path fill="none" stroke="black" d="M32.25,-188.46C33.91,-199.8 36.96,-210.92 42,-221 43.64,-224.28 45.66,-227.39 47.95,-230.31"/>
<polygon fill="black" stroke="black" points="45.15,-232.44 54.49,-237.42 50.3,-227.7 45.15,-232.44"/>
<text text-anchor="middle" x="88.5" y="-209.8" font-family="Times New Roman,serif" font-size="14.00">Manifestation de</text>
</g>
<!-- UMLRM0095 -->
<g id="node4" class="node">
<title>UMLRM0095</title>
<polygon fill="none" stroke="black" points="198,-188 116,-188 116,0 198,0 198,-188"/>
<text text-anchor="middle" x="157" y="-172.8" font-family="Times New Roman,serif" font-size="14.00">Nosferatu,</text>
<text text-anchor="middle" x="157" y="-157.8" font-family="Times New Roman,serif" font-size="14.00">Idol FX</text>
<text text-anchor="middle" x="157" y="-142.8" font-family="Times New Roman,serif" font-size="14.00">AB, Pan</text>
<text text-anchor="middle" x="157" y="-127.8" font-family="Times New Roman,serif" font-size="14.00">vision,</text>
<text text-anchor="middle" x="157" y="-112.8" font-family="Times New Roman,serif" font-size="14.00">Neo publis</text>
<text text-anchor="middle" x="157" y="-97.8" font-family="Times New Roman,serif" font-size="14.00">hing,</text>
<text text-anchor="middle" x="157" y="-82.8" font-family="Times New Roman,serif" font-size="14.00">[2003] &#45;</text>
<text text-anchor="middle" x="157" y="-67.8" font-family="Times New Roman,serif" font-size="14.00">2003, 1</text>
<text text-anchor="middle" x="157" y="-52.8" font-family="Times New Roman,serif" font-size="14.00">disque</text>
<text text-anchor="middle" x="157" y="-37.8" font-family="Times New Roman,serif" font-size="14.00">optique</text>
<text text-anchor="middle" x="157" y="-22.8" font-family="Times New Roman,serif" font-size="14.00">numérique</text>
<text text-anchor="middle" x="157" y="-7.8" font-family="Times New Roman,serif" font-size="14.00">(CD&#45;ROM)</text>
</g>
<!-- UMLRM0095&#45;&gt;UMLRM0091 -->
<g id="edge3" class="edge">
<title>UMLRM0095&#45;&gt;UMLRM0091</title>
<path fill="none" stroke="black" d="M146.4,-188.21C143.47,-199.53 139.74,-210.72 135,-221 133.65,-223.92 132.06,-226.81 130.31,-229.62"/>
<polygon fill="black" stroke="black" points="127.58,-227.41 124.71,-237.61 133.32,-231.42 127.58,-227.41"/>
<text text-anchor="middle" x="186.5" y="-209.8" font-family="Times New Roman,serif" font-size="14.00">Manifestation de</text>
</g>
</g>
</svg>
