<?xml version="1.0" encoding="UTF-8" standalone="no"?>
<!DOCTYPE svg PUBLIC "-//W3C//DTD SVG 1.1//EN"
 "http://www.w3.org/Graphics/SVG/1.1/DTD/svg11.dtd">
<!-- Generated by graphviz version 7.0.3 (20221126.0506)
 -->
<!-- Title: UMLRM0117 Pages: 1 -->
<svg width="1440pt" height="24pt"
 viewBox="0.00 0.00 1440.00 23.51" xmlns="http://www.w3.org/2000/svg" xmlns:xlink="http://www.w3.org/1999/xlink">
<g id="graph0" class="graph" transform="scale(0.534227 0.534227) rotate(0) translate(4 40)">
<title>UMLRM0117</title>
<polygon fill="white" stroke="none" points="-4,4 -4,-40 2691.48,-40 2691.48,4 -4,4"/>
<!-- UMLRM0117 -->
<g id="node1" class="node">
<title>UMLRM0117</title>
<ellipse fill="none" stroke="black" cx="2401.51" cy="-18" rx="285.95" ry="18"/>
<text text-anchor="middle" x="2401.51" y="-14.3" font-family="Times New Roman,serif" font-size="14.00">Dufranne, Michel (1970&#45;....) &#45; Kowalski, Piotr (1973&#45;....), Dracula l’immortel</text>
</g>
<!-- UMLRM0118 -->
<g id="node2" class="node">
<title>UMLRM0118</title>
<ellipse fill="none" stroke="black" cx="1627.77" cy="-18" rx="371.53" ry="18"/>
<text text-anchor="middle" x="1627.77" y="-14.3" font-family="Times New Roman,serif" font-size="14.00">Dufranne, Michel (1970&#45;....) &#45; Kowalski, Piotr (1973&#45;....), Dracula l’immortel, Texte noté. Image fixe</text>
</g>
<!-- UMLRM0118&#45;&gt;UMLRM0117 -->
<g id="edge1" class="edge">
<title>UMLRM0118&#45;&gt;UMLRM0117</title>
<path fill="none" stroke="black" d="M1999.66,-18C2034.7,-18 2069.89,-18 2104.1,-18"/>
<polygon fill="black" stroke="black" points="2103.66,-21.5 2113.66,-18 2103.66,-14.5 2103.66,-21.5"/>
<text text-anchor="middle" x="2057.53" y="-21.8" font-family="Times New Roman,serif" font-size="14.00">Expression de</text>
</g>
<!-- UMLRM0119 -->
<g id="node3" class="node">
<title>UMLRM0119</title>
<ellipse fill="none" stroke="black" cx="563.5" cy="-18" rx="563.5" ry="18"/>
<text text-anchor="middle" x="563.5" y="-14.3" font-family="Times New Roman,serif" font-size="14.00">Dracula l&#39;immortel, scénario, Michel Dufranne, Michel Lafon &#45; Casterman &#45; Imprimerie Pollina, 2012, 1 volume (48 pages), couverture illustrée en couleur</text>
</g>
<!-- UMLRM0119&#45;&gt;UMLRM0118 -->
<g id="edge2" class="edge">
<title>UMLRM0119&#45;&gt;UMLRM0118</title>
<path fill="none" stroke="black" d="M1127.13,-18C1166.85,-18 1206.34,-18 1244.7,-18"/>
<polygon fill="black" stroke="black" points="1244.51,-21.5 1254.51,-18 1244.51,-14.5 1244.51,-21.5"/>
<text text-anchor="middle" x="1191.5" y="-21.8" font-family="Times New Roman,serif" font-size="14.00">Manifestation de</text>
</g>
</g>
</svg>
