<?xml version="1.0" encoding="UTF-8" standalone="no"?>
<!DOCTYPE svg PUBLIC "-//W3C//DTD SVG 1.1//EN"
 "http://www.w3.org/Graphics/SVG/1.1/DTD/svg11.dtd">
<!-- Generated by graphviz version 7.0.3 (20221126.0506)
 -->
<!-- Title: UMLRM0038 Pages: 1 -->
<svg width="166pt" height="449pt"
 viewBox="0.00 0.00 165.50 449.00" xmlns="http://www.w3.org/2000/svg" xmlns:xlink="http://www.w3.org/1999/xlink">
<g id="graph0" class="graph" transform="scale(1 1) rotate(0) translate(4 445)">
<title>UMLRM0038</title>
<polygon fill="white" stroke="none" points="-4,4 -4,-445 161.5,-445 161.5,4 -4,4"/>
<!-- UMLRM0038 -->
<g id="node1" class="node">
<title>UMLRM0038</title>
<polygon fill="none" stroke="red" points="129,-337 0,-337 0,-269 129,-269 129,-337"/>
<text text-anchor="middle" x="64.5" y="-321.8" font-family="Times New Roman,serif" font-size="14.00">Stoker, Bram</text>
<text text-anchor="middle" x="64.5" y="-306.8" font-family="Times New Roman,serif" font-size="14.00">(1847&#45;1912), Choix,</text>
<text text-anchor="middle" x="64.5" y="-291.8" font-family="Times New Roman,serif" font-size="14.00">Dracula, Français,</text>
<text text-anchor="middle" x="64.5" y="-276.8" font-family="Times New Roman,serif" font-size="14.00">Finné, Texte noté</text>
</g>
<!-- UMLRM0037 -->
<g id="node2" class="node">
<title>UMLRM0037</title>
<polygon fill="none" stroke="black" points="129,-441 0,-441 0,-388 129,-388 129,-441"/>
<text text-anchor="middle" x="64.5" y="-425.8" font-family="Times New Roman,serif" font-size="14.00">Stoker, Bram</text>
<text text-anchor="middle" x="64.5" y="-410.8" font-family="Times New Roman,serif" font-size="14.00">(1847&#45;1912), Choix,</text>
<text text-anchor="middle" x="64.5" y="-395.8" font-family="Times New Roman,serif" font-size="14.00">Dracula</text>
</g>
<!-- UMLRM0038&#45;&gt;UMLRM0037 -->
<g id="edge1" class="edge">
<title>UMLRM0038&#45;&gt;UMLRM0037</title>
<path fill="none" stroke="black" d="M64.5,-337.45C64.5,-349.65 64.5,-363.52 64.5,-376.05"/>
<polygon fill="black" stroke="black" points="61,-376.04 64.5,-386.04 68,-376.04 61,-376.04"/>
<text text-anchor="middle" x="104.5" y="-358.8" font-family="Times New Roman,serif" font-size="14.00">Expression de</text>
</g>
<!-- UMLRM0039 -->
<g id="node3" class="node">
<title>UMLRM0039</title>
<polygon fill="none" stroke="black" points="106.5,-218 22.5,-218 22.5,0 106.5,0 106.5,-218"/>
<text text-anchor="middle" x="64.5" y="-202.8" font-family="Times New Roman,serif" font-size="14.00">Dracula,</text>
<text text-anchor="middle" x="64.5" y="-187.8" font-family="Times New Roman,serif" font-size="14.00">Bram</text>
<text text-anchor="middle" x="64.5" y="-172.8" font-family="Times New Roman,serif" font-size="14.00">Stoker,</text>
<text text-anchor="middle" x="64.5" y="-157.8" font-family="Times New Roman,serif" font-size="14.00">Flammarion</text>
<text text-anchor="middle" x="64.5" y="-142.8" font-family="Times New Roman,serif" font-size="14.00">&#45;</text>
<text text-anchor="middle" x="64.5" y="-127.8" font-family="Times New Roman,serif" font-size="14.00">Imprimerie</text>
<text text-anchor="middle" x="64.5" y="-112.8" font-family="Times New Roman,serif" font-size="14.00">Maury&#45;Euro</text>
<text text-anchor="middle" x="64.5" y="-97.8" font-family="Times New Roman,serif" font-size="14.00">livres,</text>
<text text-anchor="middle" x="64.5" y="-82.8" font-family="Times New Roman,serif" font-size="14.00">2006, 1</text>
<text text-anchor="middle" x="64.5" y="-67.8" font-family="Times New Roman,serif" font-size="14.00">volume</text>
<text text-anchor="middle" x="64.5" y="-52.8" font-family="Times New Roman,serif" font-size="14.00">(222</text>
<text text-anchor="middle" x="64.5" y="-37.8" font-family="Times New Roman,serif" font-size="14.00">pages),</text>
<text text-anchor="middle" x="64.5" y="-22.8" font-family="Times New Roman,serif" font-size="14.00">couverture</text>
<text text-anchor="middle" x="64.5" y="-7.8" font-family="Times New Roman,serif" font-size="14.00">illustrée</text>
</g>
<!-- UMLRM0039&#45;&gt;UMLRM0038 -->
<g id="edge2" class="edge">
<title>UMLRM0039&#45;&gt;UMLRM0038</title>
<path fill="none" stroke="black" d="M64.5,-218.34C64.5,-232.12 64.5,-245.56 64.5,-257.49"/>
<polygon fill="black" stroke="black" points="61,-257.36 64.5,-267.36 68,-257.36 61,-257.36"/>
<text text-anchor="middle" x="111" y="-239.8" font-family="Times New Roman,serif" font-size="14.00">Manifestation de</text>
</g>
</g>
</svg>
