<?xml version="1.0" encoding="UTF-8" standalone="no"?>
<!DOCTYPE svg PUBLIC "-//W3C//DTD SVG 1.1//EN"
 "http://www.w3.org/Graphics/SVG/1.1/DTD/svg11.dtd">
<!-- Generated by graphviz version 7.0.3 (20221126.0506)
 -->
<!-- Title: UMLRM0184 Pages: 1 -->
<svg width="158pt" height="554pt"
 viewBox="0.00 0.00 158.00 554.00" xmlns="http://www.w3.org/2000/svg" xmlns:xlink="http://www.w3.org/1999/xlink">
<g id="graph0" class="graph" transform="scale(1 1) rotate(0) translate(4 550)">
<title>UMLRM0184</title>
<polygon fill="white" stroke="none" points="-4,4 -4,-550 154,-550 154,4 -4,4"/>
<!-- UMLRM0184 -->
<g id="node1" class="node">
<title>UMLRM0184</title>
<polygon fill="none" stroke="red" points="114,-457 0,-457 0,-389 114,-389 114,-457"/>
<text text-anchor="middle" x="57" y="-441.8" font-family="Times New Roman,serif" font-size="14.00">Shadow of the</text>
<text text-anchor="middle" x="57" y="-426.8" font-family="Times New Roman,serif" font-size="14.00">vampire, film,</text>
<text text-anchor="middle" x="57" y="-411.8" font-family="Times New Roman,serif" font-size="14.00">Anglais ; sous</text>
<text text-anchor="middle" x="57" y="-396.8" font-family="Times New Roman,serif" font-size="14.00">titrage en français</text>
</g>
<!-- UMLRM0129 -->
<g id="node2" class="node">
<title>UMLRM0129</title>
<polygon fill="none" stroke="black" points="106,-546 8,-546 8,-508 106,-508 106,-546"/>
<text text-anchor="middle" x="57" y="-530.8" font-family="Times New Roman,serif" font-size="14.00">Shadow of the</text>
<text text-anchor="middle" x="57" y="-515.8" font-family="Times New Roman,serif" font-size="14.00">vampire, film</text>
</g>
<!-- UMLRM0184&#45;&gt;UMLRM0129 -->
<g id="edge1" class="edge">
<title>UMLRM0184&#45;&gt;UMLRM0129</title>
<path fill="none" stroke="black" d="M57,-457.4C57,-469.95 57,-484.12 57,-496.31"/>
<polygon fill="black" stroke="black" points="53.5,-496.19 57,-506.19 60.5,-496.19 53.5,-496.19"/>
<text text-anchor="middle" x="97" y="-478.8" font-family="Times New Roman,serif" font-size="14.00">Expression de</text>
</g>
<!-- UMLRM0185 -->
<g id="node3" class="node">
<title>UMLRM0185</title>
<polygon fill="none" stroke="black" points="98,-338 16,-338 16,0 98,0 98,-338"/>
<text text-anchor="middle" x="57" y="-322.8" font-family="Times New Roman,serif" font-size="14.00">L&#39;ombre du</text>
<text text-anchor="middle" x="57" y="-307.8" font-family="Times New Roman,serif" font-size="14.00">vampire,</text>
<text text-anchor="middle" x="57" y="-292.8" font-family="Times New Roman,serif" font-size="14.00">E. Elias</text>
<text text-anchor="middle" x="57" y="-277.8" font-family="Times New Roman,serif" font-size="14.00">Merhige, [</text>
<text text-anchor="middle" x="57" y="-262.8" font-family="Times New Roman,serif" font-size="14.00">réalisateu</text>
<text text-anchor="middle" x="57" y="-247.8" font-family="Times New Roman,serif" font-size="14.00">r], Studio</text>
<text text-anchor="middle" x="57" y="-232.8" font-family="Times New Roman,serif" font-size="14.00">Canal+ &#45;</text>
<text text-anchor="middle" x="57" y="-217.8" font-family="Times New Roman,serif" font-size="14.00">Universal</text>
<text text-anchor="middle" x="57" y="-202.8" font-family="Times New Roman,serif" font-size="14.00">pictures</text>
<text text-anchor="middle" x="57" y="-187.8" font-family="Times New Roman,serif" font-size="14.00">vidéo</text>
<text text-anchor="middle" x="57" y="-172.8" font-family="Times New Roman,serif" font-size="14.00">France SA,</text>
<text text-anchor="middle" x="57" y="-157.8" font-family="Times New Roman,serif" font-size="14.00">[DL 2001],</text>
<text text-anchor="middle" x="57" y="-142.8" font-family="Times New Roman,serif" font-size="14.00">1 DVD</text>
<text text-anchor="middle" x="57" y="-127.8" font-family="Times New Roman,serif" font-size="14.00">vidéo,</text>
<text text-anchor="middle" x="57" y="-112.8" font-family="Times New Roman,serif" font-size="14.00">monoface,</text>
<text text-anchor="middle" x="57" y="-97.8" font-family="Times New Roman,serif" font-size="14.00">16/9</text>
<text text-anchor="middle" x="57" y="-82.8" font-family="Times New Roman,serif" font-size="14.00">compatible</text>
<text text-anchor="middle" x="57" y="-67.8" font-family="Times New Roman,serif" font-size="14.00">4/3, PAL,</text>
<text text-anchor="middle" x="57" y="-52.8" font-family="Times New Roman,serif" font-size="14.00">Dolby</text>
<text text-anchor="middle" x="57" y="-37.8" font-family="Times New Roman,serif" font-size="14.00">digital</text>
<text text-anchor="middle" x="57" y="-22.8" font-family="Times New Roman,serif" font-size="14.00">5.1, zone</text>
<text text-anchor="middle" x="57" y="-7.8" font-family="Times New Roman,serif" font-size="14.00">2</text>
</g>
<!-- UMLRM0185&#45;&gt;UMLRM0184 -->
<g id="edge2" class="edge">
<title>UMLRM0185&#45;&gt;UMLRM0184</title>
<path fill="none" stroke="black" d="M57,-338.44C57,-352.46 57,-365.69 57,-377.31"/>
<polygon fill="black" stroke="black" points="53.5,-377.29 57,-387.29 60.5,-377.29 53.5,-377.29"/>
<text text-anchor="middle" x="103.5" y="-359.8" font-family="Times New Roman,serif" font-size="14.00">Manifestation de</text>
</g>
</g>
</svg>
