<?xml version="1.0" encoding="UTF-8" standalone="no"?>
<!DOCTYPE svg PUBLIC "-//W3C//DTD SVG 1.1//EN"
 "http://www.w3.org/Graphics/SVG/1.1/DTD/svg11.dtd">
<!-- Generated by graphviz version 7.0.3 (20221126.0506)
 -->
<!-- Title: UMLRM0111 Pages: 1 -->
<svg width="165pt" height="434pt"
 viewBox="0.00 0.00 165.00 434.00" xmlns="http://www.w3.org/2000/svg" xmlns:xlink="http://www.w3.org/1999/xlink">
<g id="graph0" class="graph" transform="scale(1 1) rotate(0) translate(4 430)">
<title>UMLRM0111</title>
<polygon fill="white" stroke="none" points="-4,4 -4,-430 161,-430 161,4 -4,4"/>
<!-- UMLRM0111 -->
<g id="node1" class="node">
<title>UMLRM0111</title>
<polygon fill="none" stroke="red" points="128,-426 0,-426 0,-358 128,-358 128,-426"/>
<text text-anchor="middle" x="64" y="-410.8" font-family="Times New Roman,serif" font-size="14.00">Hughes, William</text>
<text text-anchor="middle" x="64" y="-395.8" font-family="Times New Roman,serif" font-size="14.00">(1964&#45;....), Bram</text>
<text text-anchor="middle" x="64" y="-380.8" font-family="Times New Roman,serif" font-size="14.00">Stoker’s Dracula : a</text>
<text text-anchor="middle" x="64" y="-365.8" font-family="Times New Roman,serif" font-size="14.00">reader’s guide</text>
</g>
<!-- UMLRM0112 -->
<g id="node2" class="node">
<title>UMLRM0112</title>
<polygon fill="none" stroke="black" points="128,-307 0,-307 0,-224 128,-224 128,-307"/>
<text text-anchor="middle" x="64" y="-291.8" font-family="Times New Roman,serif" font-size="14.00">Hughes, William</text>
<text text-anchor="middle" x="64" y="-276.8" font-family="Times New Roman,serif" font-size="14.00">(1964&#45;....), Bram</text>
<text text-anchor="middle" x="64" y="-261.8" font-family="Times New Roman,serif" font-size="14.00">Stoker’s Dracula : a</text>
<text text-anchor="middle" x="64" y="-246.8" font-family="Times New Roman,serif" font-size="14.00">reader’s guide,</text>
<text text-anchor="middle" x="64" y="-231.8" font-family="Times New Roman,serif" font-size="14.00">Anglais, Texte noté</text>
</g>
<!-- UMLRM0112&#45;&gt;UMLRM0111 -->
<g id="edge1" class="edge">
<title>UMLRM0112&#45;&gt;UMLRM0111</title>
<path fill="none" stroke="black" d="M64,-307.27C64,-319.75 64,-333.56 64,-346.29"/>
<polygon fill="black" stroke="black" points="60.5,-346.11 64,-356.11 67.5,-346.11 60.5,-346.11"/>
<text text-anchor="middle" x="104" y="-328.8" font-family="Times New Roman,serif" font-size="14.00">Expression de</text>
</g>
<!-- UMLRM0113 -->
<g id="node3" class="node">
<title>UMLRM0113</title>
<polygon fill="none" stroke="black" points="105,-173 23,-173 23,0 105,0 105,-173"/>
<text text-anchor="middle" x="64" y="-157.8" font-family="Times New Roman,serif" font-size="14.00"> Bram</text>
<text text-anchor="middle" x="64" y="-142.8" font-family="Times New Roman,serif" font-size="14.00">Stoker’s</text>
<text text-anchor="middle" x="64" y="-127.8" font-family="Times New Roman,serif" font-size="14.00">Dracula,</text>
<text text-anchor="middle" x="64" y="-112.8" font-family="Times New Roman,serif" font-size="14.00">William</text>
<text text-anchor="middle" x="64" y="-97.8" font-family="Times New Roman,serif" font-size="14.00">Hughes,</text>
<text text-anchor="middle" x="64" y="-82.8" font-family="Times New Roman,serif" font-size="14.00">Continuum,</text>
<text text-anchor="middle" x="64" y="-67.8" font-family="Times New Roman,serif" font-size="14.00">copyright</text>
<text text-anchor="middle" x="64" y="-52.8" font-family="Times New Roman,serif" font-size="14.00">2009, 1</text>
<text text-anchor="middle" x="64" y="-37.8" font-family="Times New Roman,serif" font-size="14.00">volume</text>
<text text-anchor="middle" x="64" y="-22.8" font-family="Times New Roman,serif" font-size="14.00">(VII&#45;150</text>
<text text-anchor="middle" x="64" y="-7.8" font-family="Times New Roman,serif" font-size="14.00">pages)</text>
</g>
<!-- UMLRM0113&#45;&gt;UMLRM0112 -->
<g id="edge2" class="edge">
<title>UMLRM0113&#45;&gt;UMLRM0112</title>
<path fill="none" stroke="black" d="M64,-173.41C64,-186.76 64,-200.19 64,-212.48"/>
<polygon fill="black" stroke="black" points="60.5,-212.36 64,-222.36 67.5,-212.36 60.5,-212.36"/>
<text text-anchor="middle" x="110.5" y="-194.8" font-family="Times New Roman,serif" font-size="14.00">Manifestation de</text>
</g>
</g>
</svg>
