<?xml version="1.0" encoding="UTF-8" standalone="no"?>
<!DOCTYPE svg PUBLIC "-//W3C//DTD SVG 1.1//EN"
 "http://www.w3.org/Graphics/SVG/1.1/DTD/svg11.dtd">
<!-- Generated by graphviz version 7.0.3 (20221126.0506)
 -->
<!-- Title: UMLRM0084 Pages: 1 -->
<svg width="162pt" height="449pt"
 viewBox="0.00 0.00 162.00 449.00" xmlns="http://www.w3.org/2000/svg" xmlns:xlink="http://www.w3.org/1999/xlink">
<g id="graph0" class="graph" transform="scale(1 1) rotate(0) translate(4 445)">
<title>UMLRM0084</title>
<polygon fill="white" stroke="none" points="-4,4 -4,-445 158,-445 158,4 -4,4"/>
<!-- UMLRM0084 -->
<g id="node1" class="node">
<title>UMLRM0084</title>
<polygon fill="none" stroke="red" points="122,-441 0,-441 0,-403 122,-403 122,-441"/>
<text text-anchor="middle" x="61" y="-425.8" font-family="Times New Roman,serif" font-size="14.00">Cazacu, Matei</text>
<text text-anchor="middle" x="61" y="-410.8" font-family="Times New Roman,serif" font-size="14.00">(1946&#45;....), Dracula</text>
</g>
<!-- UMLRM0085 -->
<g id="node2" class="node">
<title>UMLRM0085</title>
<polygon fill="none" stroke="black" points="120,-352 2,-352 2,-284 120,-284 120,-352"/>
<text text-anchor="middle" x="61" y="-336.8" font-family="Times New Roman,serif" font-size="14.00">Cazacu, Matei</text>
<text text-anchor="middle" x="61" y="-321.8" font-family="Times New Roman,serif" font-size="14.00">(1946&#45;....),</text>
<text text-anchor="middle" x="61" y="-306.8" font-family="Times New Roman,serif" font-size="14.00">Dracula, Français,</text>
<text text-anchor="middle" x="61" y="-291.8" font-family="Times New Roman,serif" font-size="14.00">Texte noté</text>
</g>
<!-- UMLRM0085&#45;&gt;UMLRM0084 -->
<g id="edge1" class="edge">
<title>UMLRM0085&#45;&gt;UMLRM0084</title>
<path fill="none" stroke="black" d="M61,-352.4C61,-364.95 61,-379.12 61,-391.31"/>
<polygon fill="black" stroke="black" points="57.5,-391.19 61,-401.19 64.5,-391.19 57.5,-391.19"/>
<text text-anchor="middle" x="101" y="-373.8" font-family="Times New Roman,serif" font-size="14.00">Expression de</text>
</g>
<!-- UMLRM0086 -->
<g id="node3" class="node">
<title>UMLRM0086</title>
<polygon fill="none" stroke="black" points="100,-233 22,-233 22,0 100,0 100,-233"/>
<text text-anchor="middle" x="61" y="-217.8" font-family="Times New Roman,serif" font-size="14.00">Dracula,</text>
<text text-anchor="middle" x="61" y="-202.8" font-family="Times New Roman,serif" font-size="14.00">Matei</text>
<text text-anchor="middle" x="61" y="-187.8" font-family="Times New Roman,serif" font-size="14.00">Cazacu,</text>
<text text-anchor="middle" x="61" y="-172.8" font-family="Times New Roman,serif" font-size="14.00">Tallandier</text>
<text text-anchor="middle" x="61" y="-157.8" font-family="Times New Roman,serif" font-size="14.00">&#45;</text>
<text text-anchor="middle" x="61" y="-142.8" font-family="Times New Roman,serif" font-size="14.00">Normandie</text>
<text text-anchor="middle" x="61" y="-127.8" font-family="Times New Roman,serif" font-size="14.00">roto impre</text>
<text text-anchor="middle" x="61" y="-112.8" font-family="Times New Roman,serif" font-size="14.00">ssion,</text>
<text text-anchor="middle" x="61" y="-97.8" font-family="Times New Roman,serif" font-size="14.00">2011, 1</text>
<text text-anchor="middle" x="61" y="-82.8" font-family="Times New Roman,serif" font-size="14.00">volume</text>
<text text-anchor="middle" x="61" y="-67.8" font-family="Times New Roman,serif" font-size="14.00">(497</text>
<text text-anchor="middle" x="61" y="-52.8" font-family="Times New Roman,serif" font-size="14.00">pages),</text>
<text text-anchor="middle" x="61" y="-37.8" font-family="Times New Roman,serif" font-size="14.00">couverture</text>
<text text-anchor="middle" x="61" y="-22.8" font-family="Times New Roman,serif" font-size="14.00">illustrée</text>
<text text-anchor="middle" x="61" y="-7.8" font-family="Times New Roman,serif" font-size="14.00">en couleur</text>
</g>
<!-- UMLRM0086&#45;&gt;UMLRM0085 -->
<g id="edge2" class="edge">
<title>UMLRM0086&#45;&gt;UMLRM0085</title>
<path fill="none" stroke="black" d="M61,-233.26C61,-247.06 61,-260.43 61,-272.29"/>
<polygon fill="black" stroke="black" points="57.5,-272.1 61,-282.1 64.5,-272.1 57.5,-272.1"/>
<text text-anchor="middle" x="107.5" y="-254.8" font-family="Times New Roman,serif" font-size="14.00">Manifestation de</text>
</g>
</g>
</svg>
