<?xml version="1.0" encoding="UTF-8" standalone="no"?>
<!DOCTYPE svg PUBLIC "-//W3C//DTD SVG 1.1//EN"
 "http://www.w3.org/Graphics/SVG/1.1/DTD/svg11.dtd">
<!-- Generated by graphviz version 7.0.3 (20221126.0506)
 -->
<!-- Title: UMLRM0114 Pages: 1 -->
<svg width="167pt" height="464pt"
 viewBox="0.00 0.00 167.00 464.00" xmlns="http://www.w3.org/2000/svg" xmlns:xlink="http://www.w3.org/1999/xlink">
<g id="graph0" class="graph" transform="scale(1 1) rotate(0) translate(4 460)">
<title>UMLRM0114</title>
<polygon fill="white" stroke="none" points="-4,4 -4,-460 163,-460 163,4 -4,4"/>
<!-- UMLRM0114 -->
<g id="node1" class="node">
<title>UMLRM0114</title>
<polygon fill="none" stroke="red" points="132,-456 0,-456 0,-403 132,-403 132,-456"/>
<text text-anchor="middle" x="66" y="-440.8" font-family="Times New Roman,serif" font-size="14.00">Stoker, Dacre &#45;</text>
<text text-anchor="middle" x="66" y="-425.8" font-family="Times New Roman,serif" font-size="14.00">Holt, Ian (1964&#45;….),</text>
<text text-anchor="middle" x="66" y="-410.8" font-family="Times New Roman,serif" font-size="14.00">Dracula, the un&#45;dead</text>
</g>
<!-- UMLRM0115 -->
<g id="node2" class="node">
<title>UMLRM0115</title>
<polygon fill="none" stroke="black" points="131.5,-352 0.5,-352 0.5,-269 131.5,-269 131.5,-352"/>
<text text-anchor="middle" x="66" y="-336.8" font-family="Times New Roman,serif" font-size="14.00">Stoker, Dacre &#45;</text>
<text text-anchor="middle" x="66" y="-321.8" font-family="Times New Roman,serif" font-size="14.00">Holt, Ian (1964&#45;….),</text>
<text text-anchor="middle" x="66" y="-306.8" font-family="Times New Roman,serif" font-size="14.00">Dracula, the un&#45;</text>
<text text-anchor="middle" x="66" y="-291.8" font-family="Times New Roman,serif" font-size="14.00">dead, Français,</text>
<text text-anchor="middle" x="66" y="-276.8" font-family="Times New Roman,serif" font-size="14.00">Texte noté</text>
</g>
<!-- UMLRM0115&#45;&gt;UMLRM0114 -->
<g id="edge1" class="edge">
<title>UMLRM0115&#45;&gt;UMLRM0114</title>
<path fill="none" stroke="black" d="M66,-352.42C66,-365.11 66,-379 66,-391.41"/>
<polygon fill="black" stroke="black" points="62.5,-391.25 66,-401.25 69.5,-391.25 62.5,-391.25"/>
<text text-anchor="middle" x="106" y="-373.8" font-family="Times New Roman,serif" font-size="14.00">Expression de</text>
</g>
<!-- UMLRM0116 -->
<g id="node3" class="node">
<title>UMLRM0116</title>
<polygon fill="none" stroke="black" points="104,-218 28,-218 28,0 104,0 104,-218"/>
<text text-anchor="middle" x="66" y="-202.8" font-family="Times New Roman,serif" font-size="14.00">Dracula l&#39;</text>
<text text-anchor="middle" x="66" y="-187.8" font-family="Times New Roman,serif" font-size="14.00">immortel,</text>
<text text-anchor="middle" x="66" y="-172.8" font-family="Times New Roman,serif" font-size="14.00">Dacre</text>
<text text-anchor="middle" x="66" y="-157.8" font-family="Times New Roman,serif" font-size="14.00">Stoker et</text>
<text text-anchor="middle" x="66" y="-142.8" font-family="Times New Roman,serif" font-size="14.00">Ian Holt,</text>
<text text-anchor="middle" x="66" y="-127.8" font-family="Times New Roman,serif" font-size="14.00">Michel</text>
<text text-anchor="middle" x="66" y="-112.8" font-family="Times New Roman,serif" font-size="14.00">Lafon, DL</text>
<text text-anchor="middle" x="66" y="-97.8" font-family="Times New Roman,serif" font-size="14.00">2009, 1</text>
<text text-anchor="middle" x="66" y="-82.8" font-family="Times New Roman,serif" font-size="14.00">volume</text>
<text text-anchor="middle" x="66" y="-67.8" font-family="Times New Roman,serif" font-size="14.00">(505</text>
<text text-anchor="middle" x="66" y="-52.8" font-family="Times New Roman,serif" font-size="14.00">pages),</text>
<text text-anchor="middle" x="66" y="-37.8" font-family="Times New Roman,serif" font-size="14.00">couverture</text>
<text text-anchor="middle" x="66" y="-22.8" font-family="Times New Roman,serif" font-size="14.00">illustrée</text>
<text text-anchor="middle" x="66" y="-7.8" font-family="Times New Roman,serif" font-size="14.00">en couleur</text>
</g>
<!-- UMLRM0116&#45;&gt;UMLRM0115 -->
<g id="edge2" class="edge">
<title>UMLRM0116&#45;&gt;UMLRM0115</title>
<path fill="none" stroke="black" d="M66,-218.22C66,-231.82 66,-245.22 66,-257.38"/>
<polygon fill="black" stroke="black" points="62.5,-257.11 66,-267.11 69.5,-257.11 62.5,-257.11"/>
<text text-anchor="middle" x="112.5" y="-239.8" font-family="Times New Roman,serif" font-size="14.00">Manifestation de</text>
</g>
</g>
</svg>
