<?xml version="1.0" encoding="UTF-8" standalone="no"?>
<!DOCTYPE svg PUBLIC "-//W3C//DTD SVG 1.1//EN"
 "http://www.w3.org/Graphics/SVG/1.1/DTD/svg11.dtd">
<!-- Generated by graphviz version 7.0.3 (20221126.0506)
 -->
<!-- Title: UMLRM0161 Pages: 1 -->
<svg width="166pt" height="389pt"
 viewBox="0.00 0.00 165.50 389.00" xmlns="http://www.w3.org/2000/svg" xmlns:xlink="http://www.w3.org/1999/xlink">
<g id="graph0" class="graph" transform="scale(1 1) rotate(0) translate(4 385)">
<title>UMLRM0161</title>
<polygon fill="white" stroke="none" points="-4,4 -4,-385 161.5,-385 161.5,4 -4,4"/>
<!-- UMLRM0161 -->
<g id="node1" class="node">
<title>UMLRM0161</title>
<polygon fill="none" stroke="red" points="129,-292 0,-292 0,-224 129,-224 129,-292"/>
<text text-anchor="middle" x="64.5" y="-276.8" font-family="Times New Roman,serif" font-size="14.00">Humphries, Tudor</text>
<text text-anchor="middle" x="64.5" y="-261.8" font-family="Times New Roman,serif" font-size="14.00">(1953&#45;….), Dracula,</text>
<text text-anchor="middle" x="64.5" y="-246.8" font-family="Times New Roman,serif" font-size="14.00">Anglais, Texte noté.</text>
<text text-anchor="middle" x="64.5" y="-231.8" font-family="Times New Roman,serif" font-size="14.00">Image fixe</text>
</g>
<!-- UMLRM0034 -->
<g id="node2" class="node">
<title>UMLRM0034</title>
<polygon fill="none" stroke="black" points="127,-381 2,-381 2,-343 127,-343 127,-381"/>
<text text-anchor="middle" x="64.5" y="-365.8" font-family="Times New Roman,serif" font-size="14.00">Humphries, Tudor</text>
<text text-anchor="middle" x="64.5" y="-350.8" font-family="Times New Roman,serif" font-size="14.00">(1953&#45;….), Dracula</text>
</g>
<!-- UMLRM0161&#45;&gt;UMLRM0034 -->
<g id="edge1" class="edge">
<title>UMLRM0161&#45;&gt;UMLRM0034</title>
<path fill="none" stroke="black" d="M64.5,-292.4C64.5,-304.95 64.5,-319.12 64.5,-331.31"/>
<polygon fill="black" stroke="black" points="61,-331.19 64.5,-341.19 68,-331.19 61,-331.19"/>
<text text-anchor="middle" x="104.5" y="-313.8" font-family="Times New Roman,serif" font-size="14.00">Expression de</text>
</g>
<!-- UMLRM0177 -->
<g id="node3" class="node">
<title>UMLRM0177</title>
<polygon fill="none" stroke="black" points="104,-173 25,-173 25,0 104,0 104,-173"/>
<text text-anchor="middle" x="64.5" y="-157.8" font-family="Times New Roman,serif" font-size="14.00">Dracula,</text>
<text text-anchor="middle" x="64.5" y="-142.8" font-family="Times New Roman,serif" font-size="14.00">Bram</text>
<text text-anchor="middle" x="64.5" y="-127.8" font-family="Times New Roman,serif" font-size="14.00">Stoker,</text>
<text text-anchor="middle" x="64.5" y="-112.8" font-family="Times New Roman,serif" font-size="14.00">Dorling Ki</text>
<text text-anchor="middle" x="64.5" y="-97.8" font-family="Times New Roman,serif" font-size="14.00">ndersley,</text>
<text text-anchor="middle" x="64.5" y="-82.8" font-family="Times New Roman,serif" font-size="14.00">1997, 1</text>
<text text-anchor="middle" x="64.5" y="-67.8" font-family="Times New Roman,serif" font-size="14.00">volume (64</text>
<text text-anchor="middle" x="64.5" y="-52.8" font-family="Times New Roman,serif" font-size="14.00">pages),</text>
<text text-anchor="middle" x="64.5" y="-37.8" font-family="Times New Roman,serif" font-size="14.00">couverture</text>
<text text-anchor="middle" x="64.5" y="-22.8" font-family="Times New Roman,serif" font-size="14.00">illustrée</text>
<text text-anchor="middle" x="64.5" y="-7.8" font-family="Times New Roman,serif" font-size="14.00">en couleur</text>
</g>
<!-- UMLRM0177&#45;&gt;UMLRM0161 -->
<g id="edge2" class="edge">
<title>UMLRM0177&#45;&gt;UMLRM0161</title>
<path fill="none" stroke="black" d="M64.5,-173.24C64.5,-186.67 64.5,-200.06 64.5,-212.07"/>
<polygon fill="black" stroke="black" points="61,-212.06 64.5,-222.06 68,-212.06 61,-212.06"/>
<text text-anchor="middle" x="111" y="-194.8" font-family="Times New Roman,serif" font-size="14.00">Manifestation de</text>
</g>
</g>
</svg>
