<?xml version="1.0" encoding="UTF-8" standalone="no"?>
<!DOCTYPE svg PUBLIC "-//W3C//DTD SVG 1.1//EN"
 "http://www.w3.org/Graphics/SVG/1.1/DTD/svg11.dtd">
<!-- Generated by graphviz version 7.0.3 (20221126.0506)
 -->
<!-- Title: UMLRM0129 Pages: 1 -->
<svg width="1440pt" height="81pt"
 viewBox="0.00 0.00 1440.00 80.68" xmlns="http://www.w3.org/2000/svg" xmlns:xlink="http://www.w3.org/1999/xlink">
<g id="graph0" class="graph" transform="scale(0.672353 0.672353) rotate(0) translate(4 116)">
<title>UMLRM0129</title>
<polygon fill="white" stroke="none" points="-4,4 -4,-116 2137.73,-116 2137.73,4 -4,4"/>
<!-- UMLRM0129 -->
<g id="node1" class="node">
<title>UMLRM0129</title>
<ellipse fill="none" stroke="black" cx="2019.99" cy="-47" rx="113.98" ry="18"/>
<text text-anchor="middle" x="2019.99" y="-43.3" font-family="Times New Roman,serif" font-size="14.00">Shadow of the vampire, film</text>
</g>
<!-- UMLRM0130 -->
<g id="node2" class="node">
<title>UMLRM0130</title>
<ellipse fill="none" stroke="black" cx="1676.51" cy="-72" rx="113.98" ry="18"/>
<text text-anchor="middle" x="1676.51" y="-68.3" font-family="Times New Roman,serif" font-size="14.00">Shadow of the vampire, film</text>
</g>
<!-- UMLRM0130&#45;&gt;UMLRM0129 -->
<g id="edge1" class="edge">
<title>UMLRM0130&#45;&gt;UMLRM0129</title>
<path fill="none" stroke="black" d="M1780.89,-64.43C1819.84,-61.58 1864.35,-58.32 1904.27,-55.4"/>
<polygon fill="black" stroke="black" points="1904.44,-58.9 1914.16,-54.68 1903.93,-51.91 1904.44,-58.9"/>
<text text-anchor="middle" x="1848.25" y="-64.8" font-family="Times New Roman,serif" font-size="14.00">Expression de</text>
</g>
<!-- UMLRM0131 -->
<g id="node3" class="node">
<title>UMLRM0131</title>
<ellipse fill="none" stroke="black" cx="716.89" cy="-94" rx="649.88" ry="18"/>
<text text-anchor="middle" x="716.89" y="-90.3" font-family="Times New Roman,serif" font-size="14.00">L&#39;ombre du vampire, E. Elias Merhige, [réalisateur], Studio Canal+ &#45; Universal pictures vidéo France SA, [DL 2001], 1 cassette vidéo, VHS, SECAM, surround (Dolby), zone 2</text>
</g>
<!-- UMLRM0131&#45;&gt;UMLRM0130 -->
<g id="edge2" class="edge">
<title>UMLRM0131&#45;&gt;UMLRM0130</title>
<path fill="none" stroke="black" d="M1222.99,-82.4C1345.91,-79.57 1466.51,-76.8 1552.26,-74.83"/>
<polygon fill="black" stroke="black" points="1552.16,-78.33 1562.08,-74.61 1552,-71.34 1552.16,-78.33"/>
<text text-anchor="middle" x="1498.27" y="-79.8" font-family="Times New Roman,serif" font-size="14.00">Manifestation de</text>
</g>
<!-- UMLRM0185 -->
<g id="node4" class="node">
<title>UMLRM0185</title>
<ellipse fill="none" stroke="black" cx="716.89" cy="-29" rx="716.77" ry="18"/>
<text text-anchor="middle" x="716.89" y="-25.3" font-family="Times New Roman,serif" font-size="14.00">L&#39;ombre du vampire, E. Elias Merhige, [réalisateur], Studio Canal+ &#45; Universal pictures vidéo France SA, [DL 2001], 1 DVD vidéo, monoface, 16/9 compatible 4/3, PAL, Dolby digital 5.1, zone 2</text>
</g>
<!-- UMLRM0185&#45;&gt;UMLRM0130 -->
<g id="edge3" class="edge">
<title>UMLRM0185&#45;&gt;UMLRM0130</title>
<path fill="none" stroke="black" d="M1277.86,-40.52C1367.21,-44.31 1458.58,-49.33 1544.77,-56 1555.26,-56.81 1566.21,-57.85 1577.1,-59"/>
<polygon fill="black" stroke="black" points="1576.59,-62.47 1586.91,-60.08 1577.35,-55.51 1576.59,-62.47"/>
<text text-anchor="middle" x="1498.27" y="-59.8" font-family="Times New Roman,serif" font-size="14.00">Manifestation de</text>
</g>
<!-- UMLRM0184 -->
<g id="node5" class="node">
<title>UMLRM0184</title>
<ellipse fill="none" stroke="black" cx="1676.51" cy="-18" rx="113.98" ry="18"/>
<text text-anchor="middle" x="1676.51" y="-14.3" font-family="Times New Roman,serif" font-size="14.00">Shadow of the vampire, film</text>
</g>
<!-- UMLRM0185&#45;&gt;UMLRM0184 -->
<g id="edge5" class="edge">
<title>UMLRM0185&#45;&gt;UMLRM0184</title>
<path fill="none" stroke="black" d="M1344.93,-20.07C1381.08,-19.68 1416.89,-19.32 1451.77,-19 1483.91,-18.71 1518.65,-18.5 1550.95,-18.35"/>
<polygon fill="black" stroke="black" points="1550.77,-21.86 1560.75,-18.31 1550.73,-14.86 1550.77,-21.86"/>
<text text-anchor="middle" x="1498.27" y="-22.8" font-family="Times New Roman,serif" font-size="14.00">Manifestation de</text>
</g>
<!-- UMLRM0184&#45;&gt;UMLRM0129 -->
<g id="edge4" class="edge">
<title>UMLRM0184&#45;&gt;UMLRM0129</title>
<path fill="none" stroke="black" d="M1777.66,-26.51C1818.31,-29.96 1865.44,-33.96 1907.21,-37.51"/>
<polygon fill="black" stroke="black" points="1906.78,-40.98 1917.04,-38.34 1907.38,-34.01 1906.78,-40.98"/>
<text text-anchor="middle" x="1848.25" y="-38.8" font-family="Times New Roman,serif" font-size="14.00">Expression de</text>
</g>
</g>
</svg>
