<?xml version="1.0" encoding="UTF-8" standalone="no"?>
<!DOCTYPE svg PUBLIC "-//W3C//DTD SVG 1.1//EN"
 "http://www.w3.org/Graphics/SVG/1.1/DTD/svg11.dtd">
<!-- Generated by graphviz version 7.0.3 (20221126.0506)
 -->
<!-- Title: UMLRM0031 Pages: 1 -->
<svg width="1440pt" height="39pt"
 viewBox="0.00 0.00 1440.00 39.38" xmlns="http://www.w3.org/2000/svg" xmlns:xlink="http://www.w3.org/1999/xlink">
<g id="graph0" class="graph" transform="scale(0.895088 0.895088) rotate(0) translate(4 40)">
<title>UMLRM0031</title>
<polygon fill="white" stroke="none" points="-4,4 -4,-40 1604.78,-40 1604.78,4 -4,4"/>
<!-- UMLRM0031 -->
<g id="node1" class="node">
<title>UMLRM0031</title>
<ellipse fill="none" stroke="black" cx="165.09" cy="-18" rx="165.17" ry="18"/>
<text text-anchor="middle" x="165.09" y="-14.3" font-family="Times New Roman,serif" font-size="14.00">Stoker, Bram (1847&#45;1912), Choix, Dracula</text>
</g>
<!-- UMLRM0032 -->
<g id="node2" class="node">
<title>UMLRM0032</title>
<ellipse fill="none" stroke="black" cx="654.15" cy="-18" rx="207.96" ry="18"/>
<text text-anchor="middle" x="654.15" y="-14.3" font-family="Times New Roman,serif" font-size="14.00">Stoker, Bram (1847&#45;1912), Choix, Dracula, Texte noté</text>
</g>
<!-- UMLRM0031&#45;&gt;UMLRM0032 -->
<g id="edge1" class="edge">
<title>UMLRM0031&#45;&gt;UMLRM0032</title>
<path fill="none" stroke="black" d="M330.64,-18C364.03,-18 399.63,-18 434.54,-18"/>
<polygon fill="black" stroke="black" points="434.33,-21.5 444.33,-18 434.33,-14.5 434.33,-21.5"/>
<text text-anchor="middle" x="388.17" y="-21.8" font-family="Times New Roman,serif" font-size="14.00">Expression de</text>
</g>
<!-- UMLRM0033 -->
<g id="node3" class="node">
<title>UMLRM0033</title>
<ellipse fill="none" stroke="black" cx="1295.96" cy="-18" rx="304.65" ry="18"/>
<text text-anchor="middle" x="1295.96" y="-14.3" font-family="Times New Roman,serif" font-size="14.00">Dracula, Bram Stoker, Magnard, 2014, 1 volume (217 pages), couverture illustrée</text>
</g>
<!-- UMLRM0032&#45;&gt;UMLRM0033 -->
<g id="edge2" class="edge">
<title>UMLRM0032&#45;&gt;UMLRM0033</title>
<path fill="none" stroke="black" d="M862.44,-18C899.89,-18 939.7,-18 979.42,-18"/>
<polygon fill="black" stroke="black" points="979.39,-21.5 989.39,-18 979.39,-14.5 979.39,-21.5"/>
<text text-anchor="middle" x="926.63" y="-21.8" font-family="Times New Roman,serif" font-size="14.00">Manifestation de</text>
</g>
</g>
</svg>
