<?xml version="1.0" encoding="UTF-8" standalone="no"?>
<!DOCTYPE svg PUBLIC "-//W3C//DTD SVG 1.1//EN"
 "http://www.w3.org/Graphics/SVG/1.1/DTD/svg11.dtd">
<!-- Generated by graphviz version 7.0.3 (20221126.0506)
 -->
<!-- Title: UMLRM0126 Pages: 1 -->
<svg width="1440pt" height="32pt"
 viewBox="0.00 0.00 1440.00 32.20" xmlns="http://www.w3.org/2000/svg" xmlns:xlink="http://www.w3.org/1999/xlink">
<g id="graph0" class="graph" transform="scale(0.731875 0.731875) rotate(0) translate(4 40)">
<title>UMLRM0126</title>
<polygon fill="white" stroke="none" points="-4,4 -4,-40 1963.55,-40 1963.55,4 -4,4"/>
<!-- UMLRM0126 -->
<g id="node1" class="node">
<title>UMLRM0126</title>
<ellipse fill="none" stroke="black" cx="1782.76" cy="-18" rx="176.57" ry="18"/>
<text text-anchor="middle" x="1782.76" y="-14.3" font-family="Times New Roman,serif" font-size="14.00">Stoker, Bram (1847&#45;1912), Choix, Manuscrits</text>
</g>
<!-- UMLRM0127 -->
<g id="node2" class="node">
<title>UMLRM0127</title>
<ellipse fill="none" stroke="black" cx="1269.65" cy="-18" rx="220.16" ry="18"/>
<text text-anchor="middle" x="1269.65" y="-14.3" font-family="Times New Roman,serif" font-size="14.00">Stoker, Bram (1847&#45;1912), Choix, Manuscrits, Texte noté</text>
</g>
<!-- UMLRM0127&#45;&gt;UMLRM0126 -->
<g id="edge1" class="edge">
<title>UMLRM0127&#45;&gt;UMLRM0126</title>
<path fill="none" stroke="black" d="M1490,-18C1524.79,-18 1560.49,-18 1594.45,-18"/>
<polygon fill="black" stroke="black" points="1594.39,-21.5 1604.39,-18 1594.39,-14.5 1594.39,-21.5"/>
<text text-anchor="middle" x="1547.98" y="-21.8" font-family="Times New Roman,serif" font-size="14.00">Expression de</text>
</g>
<!-- UMLRM0128 -->
<g id="node3" class="node">
<title>UMLRM0128</title>
<ellipse fill="none" stroke="black" cx="460.16" cy="-18" rx="460.32" ry="18"/>
<text text-anchor="middle" x="460.16" y="-14.3" font-family="Times New Roman,serif" font-size="14.00">Bram Stoker’s notes for “Dracula “, Bram Stoker, McFarland &amp; Company Inc. Publishers, 2008, 1 volume (VII&#45;331 pages)</text>
</g>
<!-- UMLRM0128&#45;&gt;UMLRM0127 -->
<g id="edge2" class="edge">
<title>UMLRM0128&#45;&gt;UMLRM0127</title>
<path fill="none" stroke="black" d="M920.93,-18C961.26,-18 1000.83,-18 1037.99,-18"/>
<polygon fill="black" stroke="black" points="1037.93,-21.5 1047.93,-18 1037.93,-14.5 1037.93,-21.5"/>
<text text-anchor="middle" x="984.82" y="-21.8" font-family="Times New Roman,serif" font-size="14.00">Manifestation de</text>
</g>
</g>
</svg>
