<?xml version="1.0" encoding="UTF-8" standalone="no"?>
<!DOCTYPE svg PUBLIC "-//W3C//DTD SVG 1.1//EN"
 "http://www.w3.org/Graphics/SVG/1.1/DTD/svg11.dtd">
<!-- Generated by graphviz version 7.0.3 (20221126.0506)
 -->
<!-- Title: UMLRM0195 Pages: 1 -->
<svg width="1440pt" height="34pt"
 viewBox="0.00 0.00 1440.00 34.05" xmlns="http://www.w3.org/2000/svg" xmlns:xlink="http://www.w3.org/1999/xlink">
<g id="graph0" class="graph" transform="scale(0.773795 0.773795) rotate(0) translate(4 40)">
<title>UMLRM0195</title>
<polygon fill="white" stroke="none" points="-4,4 -4,-40 1856.96,-40 1856.96,4 -4,4"/>
<!-- UMLRM0195 -->
<g id="node1" class="node">
<title>UMLRM0195</title>
<ellipse fill="none" stroke="black" cx="1651.48" cy="-18" rx="201.46" ry="18"/>
<text text-anchor="middle" x="1651.48" y="-14.3" font-family="Times New Roman,serif" font-size="14.00">Finné, Jacques (1944&#45;….), Bibliographie de Dracula </text>
</g>
<!-- UMLRM0196 -->
<g id="node2" class="node">
<title>UMLRM0196</title>
<ellipse fill="none" stroke="black" cx="1091.56" cy="-18" rx="242.36" ry="18"/>
<text text-anchor="middle" x="1091.56" y="-14.3" font-family="Times New Roman,serif" font-size="14.00">Finné, Jacques (1944&#45;….), Bibliographie de Dracula, Texte noté</text>
</g>
<!-- UMLRM0196&#45;&gt;UMLRM0195 -->
<g id="edge1" class="edge">
<title>UMLRM0196&#45;&gt;UMLRM0195</title>
<path fill="none" stroke="black" d="M1334.03,-18C1368.69,-18 1404.14,-18 1438.18,-18"/>
<polygon fill="black" stroke="black" points="1438.15,-21.5 1448.15,-18 1438.15,-14.5 1438.15,-21.5"/>
<text text-anchor="middle" x="1391.99" y="-21.8" font-family="Times New Roman,serif" font-size="14.00">Expression de</text>
</g>
<!-- UMLRM0197 -->
<g id="node3" class="node">
<title>UMLRM0197</title>
<ellipse fill="none" stroke="black" cx="360.07" cy="-18" rx="360.14" ry="18"/>
<text text-anchor="middle" x="360.07" y="-14.3" font-family="Times New Roman,serif" font-size="14.00">Bibliographie de Dracula, Jacques Finné, L’âge d&#39;homme, Copyright 1996, 1 volume(215 pages)</text>
</g>
<!-- UMLRM0197&#45;&gt;UMLRM0196 -->
<g id="edge2" class="edge">
<title>UMLRM0197&#45;&gt;UMLRM0196</title>
<path fill="none" stroke="black" d="M720.47,-18C760.08,-18 799.77,-18 837.68,-18"/>
<polygon fill="black" stroke="black" points="837.34,-21.5 847.34,-18 837.34,-14.5 837.34,-21.5"/>
<text text-anchor="middle" x="784.64" y="-21.8" font-family="Times New Roman,serif" font-size="14.00">Manifestation de</text>
</g>
</g>
</svg>
