<?xml version="1.0" encoding="UTF-8" standalone="no"?>
<!DOCTYPE svg PUBLIC "-//W3C//DTD SVG 1.1//EN"
 "http://www.w3.org/Graphics/SVG/1.1/DTD/svg11.dtd">
<!-- Generated by graphviz version 7.0.3 (20221126.0506)
 -->
<!-- Title: UMLRM0120 Pages: 1 -->
<svg width="444pt" height="599pt"
 viewBox="0.00 0.00 444.03 599.00" xmlns="http://www.w3.org/2000/svg" xmlns:xlink="http://www.w3.org/1999/xlink">
<g id="graph0" class="graph" transform="scale(1 1) rotate(0) translate(4 595)">
<title>UMLRM0120</title>
<polygon fill="white" stroke="none" points="-4,4 -4,-595 440.03,-595 440.03,4 -4,4"/>
<!-- UMLRM0120 -->
<g id="node1" class="node">
<title>UMLRM0120</title>
<polygon fill="none" stroke="red" points="245.03,-591 127.03,-591 127.03,-553 245.03,-553 245.03,-591"/>
<text text-anchor="middle" x="186.03" y="-575.8" font-family="Times New Roman,serif" font-size="14.00">Dracula, dead and</text>
<text text-anchor="middle" x="186.03" y="-560.8" font-family="Times New Roman,serif" font-size="14.00">loving it, film</text>
</g>
<!-- UMLRM0121 -->
<g id="node2" class="node">
<title>UMLRM0121</title>
<polygon fill="none" stroke="black" points="177.03,-487 59.03,-487 59.03,-434 177.03,-434 177.03,-487"/>
<text text-anchor="middle" x="118.03" y="-471.8" font-family="Times New Roman,serif" font-size="14.00">Dracula, dead and</text>
<text text-anchor="middle" x="118.03" y="-456.8" font-family="Times New Roman,serif" font-size="14.00">loving it, film,</text>
<text text-anchor="middle" x="118.03" y="-441.8" font-family="Times New Roman,serif" font-size="14.00">Français</text>
</g>
<!-- UMLRM0121&#45;&gt;UMLRM0120 -->
<g id="edge1" class="edge">
<title>UMLRM0121&#45;&gt;UMLRM0120</title>
<path fill="none" stroke="black" d="M124.15,-487.49C128.44,-502.27 135.19,-520.65 145.03,-535 147.37,-538.4 150.1,-541.69 153.01,-544.8"/>
<polygon fill="black" stroke="black" points="150.35,-547.09 159.96,-551.54 155.22,-542.07 150.35,-547.09"/>
<text text-anchor="middle" x="185.03" y="-523.8" font-family="Times New Roman,serif" font-size="14.00">Expression de</text>
</g>
<!-- UMLRM0122 -->
<g id="node3" class="node">
<title>UMLRM0122</title>
<polygon fill="none" stroke="black" points="113.03,-368 29.03,-368 29.03,0 113.03,0 113.03,-368"/>
<text text-anchor="middle" x="71.03" y="-352.8" font-family="Times New Roman,serif" font-size="14.00">Dracula,</text>
<text text-anchor="middle" x="71.03" y="-337.8" font-family="Times New Roman,serif" font-size="14.00">mort et</text>
<text text-anchor="middle" x="71.03" y="-322.8" font-family="Times New Roman,serif" font-size="14.00">heureux de</text>
<text text-anchor="middle" x="71.03" y="-307.8" font-family="Times New Roman,serif" font-size="14.00">l’être, un</text>
<text text-anchor="middle" x="71.03" y="-292.8" font-family="Times New Roman,serif" font-size="14.00">film de</text>
<text text-anchor="middle" x="71.03" y="-277.8" font-family="Times New Roman,serif" font-size="14.00">Mel</text>
<text text-anchor="middle" x="71.03" y="-262.8" font-family="Times New Roman,serif" font-size="14.00">Brooks,</text>
<text text-anchor="middle" x="71.03" y="-247.8" font-family="Times New Roman,serif" font-size="14.00">Gaumont</text>
<text text-anchor="middle" x="71.03" y="-232.8" font-family="Times New Roman,serif" font-size="14.00">vidéo &#45;</text>
<text text-anchor="middle" x="71.03" y="-217.8" font-family="Times New Roman,serif" font-size="14.00">Paramount</text>
<text text-anchor="middle" x="71.03" y="-202.8" font-family="Times New Roman,serif" font-size="14.00">home enter</text>
<text text-anchor="middle" x="71.03" y="-187.8" font-family="Times New Roman,serif" font-size="14.00">tainment,</text>
<text text-anchor="middle" x="71.03" y="-172.8" font-family="Times New Roman,serif" font-size="14.00">2009, 1</text>
<text text-anchor="middle" x="71.03" y="-157.8" font-family="Times New Roman,serif" font-size="14.00">DVD vidéo,</text>
<text text-anchor="middle" x="71.03" y="-142.8" font-family="Times New Roman,serif" font-size="14.00">monoface</text>
<text text-anchor="middle" x="71.03" y="-127.8" font-family="Times New Roman,serif" font-size="14.00">double</text>
<text text-anchor="middle" x="71.03" y="-112.8" font-family="Times New Roman,serif" font-size="14.00">couche,</text>
<text text-anchor="middle" x="71.03" y="-97.8" font-family="Times New Roman,serif" font-size="14.00">16/9</text>
<text text-anchor="middle" x="71.03" y="-82.8" font-family="Times New Roman,serif" font-size="14.00">compatible</text>
<text text-anchor="middle" x="71.03" y="-67.8" font-family="Times New Roman,serif" font-size="14.00">3/4, PAL,</text>
<text text-anchor="middle" x="71.03" y="-52.8" font-family="Times New Roman,serif" font-size="14.00">Dolby</text>
<text text-anchor="middle" x="71.03" y="-37.8" font-family="Times New Roman,serif" font-size="14.00">surround</text>
<text text-anchor="middle" x="71.03" y="-22.8" font-family="Times New Roman,serif" font-size="14.00">2.0, zone</text>
<text text-anchor="middle" x="71.03" y="-7.8" font-family="Times New Roman,serif" font-size="14.00">2</text>
</g>
<!-- UMLRM0122&#45;&gt;UMLRM0121 -->
<g id="edge2" class="edge">
<title>UMLRM0122&#45;&gt;UMLRM0121</title>
<path fill="none" stroke="black" d="M28.65,-250.92C5.69,-295.64 -12.99,-354.8 14.03,-401 22.19,-414.95 35.03,-425.83 48.95,-434.21"/>
<polygon fill="black" stroke="black" points="46.94,-437.1 57.38,-438.89 50.34,-430.98 46.94,-437.1"/>
<text text-anchor="middle" x="60.53" y="-389.8" font-family="Times New Roman,serif" font-size="14.00">Manifestation de</text>
</g>
<!-- UMLRM0189 -->
<g id="node5" class="node">
<title>UMLRM0189</title>
<polygon fill="none" stroke="black" points="317.03,-502 195.03,-502 195.03,-419 317.03,-419 317.03,-502"/>
<text text-anchor="middle" x="256.03" y="-486.8" font-family="Times New Roman,serif" font-size="14.00">Dracula, dead and</text>
<text text-anchor="middle" x="256.03" y="-471.8" font-family="Times New Roman,serif" font-size="14.00">loving it, film,</text>
<text text-anchor="middle" x="256.03" y="-456.8" font-family="Times New Roman,serif" font-size="14.00">Anglais ; sous&#45;</text>
<text text-anchor="middle" x="256.03" y="-441.8" font-family="Times New Roman,serif" font-size="14.00">titrage optionnel en</text>
<text text-anchor="middle" x="256.03" y="-426.8" font-family="Times New Roman,serif" font-size="14.00">français</text>
</g>
<!-- UMLRM0122&#45;&gt;UMLRM0189 -->
<g id="edge5" class="edge">
<title>UMLRM0122&#45;&gt;UMLRM0189</title>
<path fill="none" stroke="black" d="M102.42,-368.39C108.94,-380.24 116.73,-391.29 126.03,-401 143.19,-418.9 157.11,-410.43 184.06,-418.94"/>
<polygon fill="black" stroke="black" points="182.6,-422.13 193.19,-422.38 185.07,-415.58 182.6,-422.13"/>
<text text-anchor="middle" x="172.53" y="-389.8" font-family="Times New Roman,serif" font-size="14.00">Manifestation de</text>
</g>
<!-- UMLRM0190 -->
<g id="node4" class="node">
<title>UMLRM0190</title>
<polygon fill="none" stroke="black" points="345.03,-338 261.03,-338 261.03,-30 345.03,-30 345.03,-338"/>
<text text-anchor="middle" x="303.03" y="-322.8" font-family="Times New Roman,serif" font-size="14.00">Mel</text>
<text text-anchor="middle" x="303.03" y="-307.8" font-family="Times New Roman,serif" font-size="14.00">Brooks,</text>
<text text-anchor="middle" x="303.03" y="-292.8" font-family="Times New Roman,serif" font-size="14.00">Gaumont</text>
<text text-anchor="middle" x="303.03" y="-277.8" font-family="Times New Roman,serif" font-size="14.00">vidéo &#45;</text>
<text text-anchor="middle" x="303.03" y="-262.8" font-family="Times New Roman,serif" font-size="14.00">Paramount</text>
<text text-anchor="middle" x="303.03" y="-247.8" font-family="Times New Roman,serif" font-size="14.00">home enter</text>
<text text-anchor="middle" x="303.03" y="-232.8" font-family="Times New Roman,serif" font-size="14.00">tainment,</text>
<text text-anchor="middle" x="303.03" y="-217.8" font-family="Times New Roman,serif" font-size="14.00">[2015], 2</text>
<text text-anchor="middle" x="303.03" y="-202.8" font-family="Times New Roman,serif" font-size="14.00">DVD vidéo,</text>
<text text-anchor="middle" x="303.03" y="-187.8" font-family="Times New Roman,serif" font-size="14.00">monoface</text>
<text text-anchor="middle" x="303.03" y="-172.8" font-family="Times New Roman,serif" font-size="14.00">double</text>
<text text-anchor="middle" x="303.03" y="-157.8" font-family="Times New Roman,serif" font-size="14.00">couche,</text>
<text text-anchor="middle" x="303.03" y="-142.8" font-family="Times New Roman,serif" font-size="14.00">16/9</text>
<text text-anchor="middle" x="303.03" y="-127.8" font-family="Times New Roman,serif" font-size="14.00">compatible</text>
<text text-anchor="middle" x="303.03" y="-112.8" font-family="Times New Roman,serif" font-size="14.00">3/4, PAL,</text>
<text text-anchor="middle" x="303.03" y="-97.8" font-family="Times New Roman,serif" font-size="14.00">Dolby</text>
<text text-anchor="middle" x="303.03" y="-82.8" font-family="Times New Roman,serif" font-size="14.00">surround</text>
<text text-anchor="middle" x="303.03" y="-67.8" font-family="Times New Roman,serif" font-size="14.00">2.0,</text>
<text text-anchor="middle" x="303.03" y="-52.8" font-family="Times New Roman,serif" font-size="14.00">toutes</text>
<text text-anchor="middle" x="303.03" y="-37.8" font-family="Times New Roman,serif" font-size="14.00">zones</text>
</g>
<!-- UMLRM0190&#45;&gt;UMLRM0121 -->
<g id="edge3" class="edge">
<title>UMLRM0190&#45;&gt;UMLRM0121</title>
<path fill="none" stroke="black" d="M263.14,-338.31C252.64,-361.02 239.48,-382.85 223.03,-401 210.75,-414.55 202.13,-410.31 186.03,-419 180.74,-421.86 175.28,-424.92 169.85,-428.03"/>
<polygon fill="black" stroke="black" points="168.35,-424.85 161.47,-432.9 171.87,-430.9 168.35,-424.85"/>
<text text-anchor="middle" x="280.53" y="-389.8" font-family="Times New Roman,serif" font-size="14.00">Manifestation de</text>
</g>
<!-- UMLRM0190&#45;&gt;UMLRM0189 -->
<g id="edge6" class="edge">
<title>UMLRM0190&#45;&gt;UMLRM0189</title>
<path fill="none" stroke="black" d="M345.49,-286.72C354.74,-324.28 357.11,-366.15 339.03,-401 335.54,-407.73 330.89,-413.85 325.55,-419.37"/>
<polygon fill="black" stroke="black" points="323.35,-416.64 318.41,-426.01 328.12,-421.77 323.35,-416.64"/>
<text text-anchor="middle" x="389.53" y="-389.8" font-family="Times New Roman,serif" font-size="14.00">Manifestation de</text>
</g>
<!-- UMLRM0189&#45;&gt;UMLRM0120 -->
<g id="edge4" class="edge">
<title>UMLRM0189&#45;&gt;UMLRM0120</title>
<path fill="none" stroke="black" d="M242.4,-502.41C237.76,-513.49 231.96,-525.14 225.03,-535 222.67,-538.37 219.95,-541.65 217.06,-544.78"/>
<polygon fill="black" stroke="black" points="214.84,-542.05 210.24,-551.59 219.79,-547 214.84,-542.05"/>
<text text-anchor="middle" x="274.03" y="-523.8" font-family="Times New Roman,serif" font-size="14.00">Expression de</text>
</g>
</g>
</svg>
