<?xml version="1.0" encoding="UTF-8" standalone="no"?>
<!DOCTYPE svg PUBLIC "-//W3C//DTD SVG 1.1//EN"
 "http://www.w3.org/Graphics/SVG/1.1/DTD/svg11.dtd">
<!-- Generated by graphviz version 7.0.3 (20221126.0506)
 -->
<!-- Title: UMLRM0132 Pages: 1 -->
<svg width="169pt" height="434pt"
 viewBox="0.00 0.00 169.00 434.00" xmlns="http://www.w3.org/2000/svg" xmlns:xlink="http://www.w3.org/1999/xlink">
<g id="graph0" class="graph" transform="scale(1 1) rotate(0) translate(4 430)">
<title>UMLRM0132</title>
<polygon fill="white" stroke="none" points="-4,4 -4,-430 165,-430 165,4 -4,4"/>
<!-- UMLRM0132 -->
<g id="node1" class="node">
<title>UMLRM0132</title>
<polygon fill="none" stroke="red" points="126,-426 10,-426 10,-373 126,-373 126,-426"/>
<text text-anchor="middle" x="68" y="-410.8" font-family="Times New Roman,serif" font-size="14.00">Eickhoff, Stefan,</text>
<text text-anchor="middle" x="68" y="-395.8" font-family="Times New Roman,serif" font-size="14.00">Max Schreck :</text>
<text text-anchor="middle" x="68" y="-380.8" font-family="Times New Roman,serif" font-size="14.00">Gespenstertheater</text>
</g>
<!-- UMLRM0133 -->
<g id="node2" class="node">
<title>UMLRM0133</title>
<polygon fill="none" stroke="black" points="136,-322 0,-322 0,-254 136,-254 136,-322"/>
<text text-anchor="middle" x="68" y="-306.8" font-family="Times New Roman,serif" font-size="14.00">Eickhoff, Stefan,</text>
<text text-anchor="middle" x="68" y="-291.8" font-family="Times New Roman,serif" font-size="14.00">Max Schreck :</text>
<text text-anchor="middle" x="68" y="-276.8" font-family="Times New Roman,serif" font-size="14.00">Gespenstertheater,</text>
<text text-anchor="middle" x="68" y="-261.8" font-family="Times New Roman,serif" font-size="14.00">Allemand, Texte noté</text>
</g>
<!-- UMLRM0133&#45;&gt;UMLRM0132 -->
<g id="edge1" class="edge">
<title>UMLRM0133&#45;&gt;UMLRM0132</title>
<path fill="none" stroke="black" d="M68,-322.45C68,-334.65 68,-348.52 68,-361.05"/>
<polygon fill="black" stroke="black" points="64.5,-361.04 68,-371.04 71.5,-361.04 64.5,-361.04"/>
<text text-anchor="middle" x="108" y="-343.8" font-family="Times New Roman,serif" font-size="14.00">Expression de</text>
</g>
<!-- UMLRM0134 -->
<g id="node3" class="node">
<title>UMLRM0134</title>
<polygon fill="none" stroke="black" points="106,-203 30,-203 30,0 106,0 106,-203"/>
<text text-anchor="middle" x="68" y="-187.8" font-family="Times New Roman,serif" font-size="14.00">Max</text>
<text text-anchor="middle" x="68" y="-172.8" font-family="Times New Roman,serif" font-size="14.00">Schreck,</text>
<text text-anchor="middle" x="68" y="-157.8" font-family="Times New Roman,serif" font-size="14.00">Stefan</text>
<text text-anchor="middle" x="68" y="-142.8" font-family="Times New Roman,serif" font-size="14.00">Eickhoff, </text>
<text text-anchor="middle" x="68" y="-127.8" font-family="Times New Roman,serif" font-size="14.00">Belleville</text>
<text text-anchor="middle" x="68" y="-112.8" font-family="Times New Roman,serif" font-size="14.00">,</text>
<text text-anchor="middle" x="68" y="-97.8" font-family="Times New Roman,serif" font-size="14.00">Copyright</text>
<text text-anchor="middle" x="68" y="-82.8" font-family="Times New Roman,serif" font-size="14.00">2009, 1</text>
<text text-anchor="middle" x="68" y="-67.8" font-family="Times New Roman,serif" font-size="14.00">volume.</text>
<text text-anchor="middle" x="68" y="-52.8" font-family="Times New Roman,serif" font-size="14.00">(575</text>
<text text-anchor="middle" x="68" y="-37.8" font-family="Times New Roman,serif" font-size="14.00">pages),</text>
<text text-anchor="middle" x="68" y="-22.8" font-family="Times New Roman,serif" font-size="14.00">couverture</text>
<text text-anchor="middle" x="68" y="-7.8" font-family="Times New Roman,serif" font-size="14.00">illustrée</text>
</g>
<!-- UMLRM0134&#45;&gt;UMLRM0133 -->
<g id="edge2" class="edge">
<title>UMLRM0134&#45;&gt;UMLRM0133</title>
<path fill="none" stroke="black" d="M68,-203.39C68,-217.02 68,-230.39 68,-242.31"/>
<polygon fill="black" stroke="black" points="64.5,-242.18 68,-252.18 71.5,-242.18 64.5,-242.18"/>
<text text-anchor="middle" x="114.5" y="-224.8" font-family="Times New Roman,serif" font-size="14.00">Manifestation de</text>
</g>
</g>
</svg>
