<?xml version="1.0" encoding="UTF-8" standalone="no"?>
<!DOCTYPE svg PUBLIC "-//W3C//DTD SVG 1.1//EN"
 "http://www.w3.org/Graphics/SVG/1.1/DTD/svg11.dtd">
<!-- Generated by graphviz version 7.0.3 (20221126.0506)
 -->
<!-- Title: UMLRM0005 Pages: 1 -->
<svg width="238pt" height="449pt"
 viewBox="0.00 0.00 237.50 449.00" xmlns="http://www.w3.org/2000/svg" xmlns:xlink="http://www.w3.org/1999/xlink">
<g id="graph0" class="graph" transform="scale(1 1) rotate(0) translate(4 445)">
<title>UMLRM0005</title>
<polygon fill="white" stroke="none" points="-4,4 -4,-445 233.5,-445 233.5,4 -4,4"/>
<!-- UMLRM0005 -->
<g id="node1" class="node">
<title>UMLRM0005</title>
<polygon fill="none" stroke="red" points="152.5,-352 40.5,-352 40.5,-284 152.5,-284 152.5,-352"/>
<text text-anchor="middle" x="96.5" y="-336.8" font-family="Times New Roman,serif" font-size="14.00">Stoker, Bram</text>
<text text-anchor="middle" x="96.5" y="-321.8" font-family="Times New Roman,serif" font-size="14.00">(1847&#45;1912),</text>
<text text-anchor="middle" x="96.5" y="-306.8" font-family="Times New Roman,serif" font-size="14.00">Dracula, Anglais,</text>
<text text-anchor="middle" x="96.5" y="-291.8" font-family="Times New Roman,serif" font-size="14.00">Texte noté</text>
</g>
<!-- UMLRM0004 -->
<g id="node2" class="node">
<title>UMLRM0004</title>
<polygon fill="none" stroke="black" points="163.5,-441 29.5,-441 29.5,-403 163.5,-403 163.5,-441"/>
<text text-anchor="middle" x="96.5" y="-425.8" font-family="Times New Roman,serif" font-size="14.00">Stoker, Bram</text>
<text text-anchor="middle" x="96.5" y="-410.8" font-family="Times New Roman,serif" font-size="14.00">(1847&#45;1912), Dracula</text>
</g>
<!-- UMLRM0005&#45;&gt;UMLRM0004 -->
<g id="edge1" class="edge">
<title>UMLRM0005&#45;&gt;UMLRM0004</title>
<path fill="none" stroke="black" d="M96.5,-352.4C96.5,-364.95 96.5,-379.12 96.5,-391.31"/>
<polygon fill="black" stroke="black" points="93,-391.19 96.5,-401.19 100,-391.19 93,-391.19"/>
<text text-anchor="middle" x="136.5" y="-373.8" font-family="Times New Roman,serif" font-size="14.00">Expression de</text>
</g>
<!-- UMLRM0006 -->
<g id="node3" class="node">
<title>UMLRM0006</title>
<polygon fill="none" stroke="black" points="77,-233 0,-233 0,0 77,0 77,-233"/>
<text text-anchor="middle" x="38.5" y="-217.8" font-family="Times New Roman,serif" font-size="14.00">Dracula,</text>
<text text-anchor="middle" x="38.5" y="-202.8" font-family="Times New Roman,serif" font-size="14.00">Bram</text>
<text text-anchor="middle" x="38.5" y="-187.8" font-family="Times New Roman,serif" font-size="14.00">Stoker,</text>
<text text-anchor="middle" x="38.5" y="-172.8" font-family="Times New Roman,serif" font-size="14.00">Pan books</text>
<text text-anchor="middle" x="38.5" y="-157.8" font-family="Times New Roman,serif" font-size="14.00">&#45;</text>
<text text-anchor="middle" x="38.5" y="-142.8" font-family="Times New Roman,serif" font-size="14.00">Imprimerie</text>
<text text-anchor="middle" x="38.5" y="-127.8" font-family="Times New Roman,serif" font-size="14.00">Firmin&#45;</text>
<text text-anchor="middle" x="38.5" y="-112.8" font-family="Times New Roman,serif" font-size="14.00">Didot,</text>
<text text-anchor="middle" x="38.5" y="-97.8" font-family="Times New Roman,serif" font-size="14.00">1992, 1</text>
<text text-anchor="middle" x="38.5" y="-82.8" font-family="Times New Roman,serif" font-size="14.00">volume</text>
<text text-anchor="middle" x="38.5" y="-67.8" font-family="Times New Roman,serif" font-size="14.00">(382</text>
<text text-anchor="middle" x="38.5" y="-52.8" font-family="Times New Roman,serif" font-size="14.00">pages),</text>
<text text-anchor="middle" x="38.5" y="-37.8" font-family="Times New Roman,serif" font-size="14.00">couverture</text>
<text text-anchor="middle" x="38.5" y="-22.8" font-family="Times New Roman,serif" font-size="14.00">illustrée</text>
<text text-anchor="middle" x="38.5" y="-7.8" font-family="Times New Roman,serif" font-size="14.00">en couleur</text>
</g>
<!-- UMLRM0006&#45;&gt;UMLRM0005 -->
<g id="edge2" class="edge">
<title>UMLRM0006&#45;&gt;UMLRM0005</title>
<path fill="none" stroke="black" d="M29.89,-233.46C31.81,-244.74 34.89,-255.78 39.5,-266 40.86,-269.01 42.49,-271.91 44.32,-274.7"/>
<polygon fill="black" stroke="black" points="41.49,-276.76 50.36,-282.55 47.04,-272.49 41.49,-276.76"/>
<text text-anchor="middle" x="86" y="-254.8" font-family="Times New Roman,serif" font-size="14.00">Manifestation de</text>
</g>
<!-- UMLRM0018 -->
<g id="node4" class="node">
<title>UMLRM0018</title>
<polygon fill="none" stroke="black" points="193.5,-180.5 115.5,-180.5 115.5,-52.5 193.5,-52.5 193.5,-180.5"/>
<text text-anchor="middle" x="154.5" y="-165.3" font-family="Times New Roman,serif" font-size="14.00">Dracula,</text>
<text text-anchor="middle" x="154.5" y="-150.3" font-family="Times New Roman,serif" font-size="14.00">by Bram</text>
<text text-anchor="middle" x="154.5" y="-135.3" font-family="Times New Roman,serif" font-size="14.00">Stoker, W.</text>
<text text-anchor="middle" x="154.5" y="-120.3" font-family="Times New Roman,serif" font-size="14.00">Rider and</text>
<text text-anchor="middle" x="154.5" y="-105.3" font-family="Times New Roman,serif" font-size="14.00">son, 1992,</text>
<text text-anchor="middle" x="154.5" y="-90.3" font-family="Times New Roman,serif" font-size="14.00">1 volume</text>
<text text-anchor="middle" x="154.5" y="-75.3" font-family="Times New Roman,serif" font-size="14.00">(VIII&#45;404</text>
<text text-anchor="middle" x="154.5" y="-60.3" font-family="Times New Roman,serif" font-size="14.00">pages)</text>
</g>
<!-- UMLRM0018&#45;&gt;UMLRM0005 -->
<g id="edge3" class="edge">
<title>UMLRM0018&#45;&gt;UMLRM0005</title>
<path fill="none" stroke="black" d="M151.63,-180.97C148.77,-207.94 143.21,-239.26 132.5,-266 131.44,-268.64 130.22,-271.28 128.89,-273.88"/>
<polygon fill="black" stroke="black" points="125.94,-271.98 124,-282.39 132.01,-275.47 125.94,-271.98"/>
<text text-anchor="middle" x="183" y="-254.8" font-family="Times New Roman,serif" font-size="14.00">Manifestation de</text>
</g>
</g>
</svg>
