<?xml version="1.0" encoding="UTF-8" standalone="no"?>
<!DOCTYPE svg PUBLIC "-//W3C//DTD SVG 1.1//EN"
 "http://www.w3.org/Graphics/SVG/1.1/DTD/svg11.dtd">
<!-- Generated by graphviz version 7.0.3 (20221126.0506)
 -->
<!-- Title: UMLRM0050 Pages: 1 -->
<svg width="240pt" height="434pt"
 viewBox="0.00 0.00 240.00 434.00" xmlns="http://www.w3.org/2000/svg" xmlns:xlink="http://www.w3.org/1999/xlink">
<g id="graph0" class="graph" transform="scale(1 1) rotate(0) translate(4 430)">
<title>UMLRM0050</title>
<polygon fill="white" stroke="none" points="-4,4 -4,-430 236,-430 236,4 -4,4"/>
<!-- UMLRM0050 -->
<g id="node1" class="node">
<title>UMLRM0050</title>
<polygon fill="none" stroke="red" points="157,-337 39,-337 39,-269 157,-269 157,-337"/>
<text text-anchor="middle" x="98" y="-321.8" font-family="Times New Roman,serif" font-size="14.00">Stoker, Bram</text>
<text text-anchor="middle" x="98" y="-306.8" font-family="Times New Roman,serif" font-size="14.00">(1847&#45;1912),</text>
<text text-anchor="middle" x="98" y="-291.8" font-family="Times New Roman,serif" font-size="14.00">Dracula, Français,</text>
<text text-anchor="middle" x="98" y="-276.8" font-family="Times New Roman,serif" font-size="14.00">Finné, Texte noté</text>
</g>
<!-- UMLRM0004 -->
<g id="node2" class="node">
<title>UMLRM0004</title>
<polygon fill="none" stroke="black" points="165,-426 31,-426 31,-388 165,-388 165,-426"/>
<text text-anchor="middle" x="98" y="-410.8" font-family="Times New Roman,serif" font-size="14.00">Stoker, Bram</text>
<text text-anchor="middle" x="98" y="-395.8" font-family="Times New Roman,serif" font-size="14.00">(1847&#45;1912), Dracula</text>
</g>
<!-- UMLRM0050&#45;&gt;UMLRM0004 -->
<g id="edge1" class="edge">
<title>UMLRM0050&#45;&gt;UMLRM0004</title>
<path fill="none" stroke="black" d="M98,-337.4C98,-349.95 98,-364.12 98,-376.31"/>
<polygon fill="black" stroke="black" points="94.5,-376.19 98,-386.19 101.5,-376.19 94.5,-376.19"/>
<text text-anchor="middle" x="138" y="-358.8" font-family="Times New Roman,serif" font-size="14.00">Expression de</text>
</g>
<!-- UMLRM0051 -->
<g id="node3" class="node">
<title>UMLRM0051</title>
<polygon fill="none" stroke="black" points="80,-188 0,-188 0,-30 80,-30 80,-188"/>
<text text-anchor="middle" x="40" y="-172.8" font-family="Times New Roman,serif" font-size="14.00">Dracula,</text>
<text text-anchor="middle" x="40" y="-157.8" font-family="Times New Roman,serif" font-size="14.00">Bram</text>
<text text-anchor="middle" x="40" y="-142.8" font-family="Times New Roman,serif" font-size="14.00">Stoker,</text>
<text text-anchor="middle" x="40" y="-127.8" font-family="Times New Roman,serif" font-size="14.00">Pointdeux,</text>
<text text-anchor="middle" x="40" y="-112.8" font-family="Times New Roman,serif" font-size="14.00">DL 2013, 1</text>
<text text-anchor="middle" x="40" y="-97.8" font-family="Times New Roman,serif" font-size="14.00">volume</text>
<text text-anchor="middle" x="40" y="-82.8" font-family="Times New Roman,serif" font-size="14.00">(919</text>
<text text-anchor="middle" x="40" y="-67.8" font-family="Times New Roman,serif" font-size="14.00">pages),</text>
<text text-anchor="middle" x="40" y="-52.8" font-family="Times New Roman,serif" font-size="14.00">couverture</text>
<text text-anchor="middle" x="40" y="-37.8" font-family="Times New Roman,serif" font-size="14.00">illustrée</text>
</g>
<!-- UMLRM0051&#45;&gt;UMLRM0050 -->
<g id="edge2" class="edge">
<title>UMLRM0051&#45;&gt;UMLRM0050</title>
<path fill="none" stroke="black" d="M29.28,-188.2C29.35,-209.34 32.29,-231.7 41,-251 42.36,-254.01 43.99,-256.91 45.83,-259.7"/>
<polygon fill="black" stroke="black" points="42.99,-261.76 51.86,-267.55 48.54,-257.49 42.99,-261.76"/>
<text text-anchor="middle" x="87.5" y="-239.8" font-family="Times New Roman,serif" font-size="14.00">Manifestation de</text>
</g>
<!-- UMLRM0077 -->
<g id="node4" class="node">
<title>UMLRM0077</title>
<polygon fill="none" stroke="black" points="194,-218 118,-218 118,0 194,0 194,-218"/>
<text text-anchor="middle" x="156" y="-202.8" font-family="Times New Roman,serif" font-size="14.00">Dracula &#45;</text>
<text text-anchor="middle" x="156" y="-187.8" font-family="Times New Roman,serif" font-size="14.00">suivi de</text>
<text text-anchor="middle" x="156" y="-172.8" font-family="Times New Roman,serif" font-size="14.00">L&#39;invité</text>
<text text-anchor="middle" x="156" y="-157.8" font-family="Times New Roman,serif" font-size="14.00">de</text>
<text text-anchor="middle" x="156" y="-142.8" font-family="Times New Roman,serif" font-size="14.00">Dracula,</text>
<text text-anchor="middle" x="156" y="-127.8" font-family="Times New Roman,serif" font-size="14.00">Bram</text>
<text text-anchor="middle" x="156" y="-112.8" font-family="Times New Roman,serif" font-size="14.00">Stoker,</text>
<text text-anchor="middle" x="156" y="-97.8" font-family="Times New Roman,serif" font-size="14.00">Pocket,</text>
<text text-anchor="middle" x="156" y="-82.8" font-family="Times New Roman,serif" font-size="14.00">2011, 1</text>
<text text-anchor="middle" x="156" y="-67.8" font-family="Times New Roman,serif" font-size="14.00">volume</text>
<text text-anchor="middle" x="156" y="-52.8" font-family="Times New Roman,serif" font-size="14.00">(575</text>
<text text-anchor="middle" x="156" y="-37.8" font-family="Times New Roman,serif" font-size="14.00">pages),</text>
<text text-anchor="middle" x="156" y="-22.8" font-family="Times New Roman,serif" font-size="14.00">couverture</text>
<text text-anchor="middle" x="156" y="-7.8" font-family="Times New Roman,serif" font-size="14.00">illustrée</text>
</g>
<!-- UMLRM0077&#45;&gt;UMLRM0050 -->
<g id="edge3" class="edge">
<title>UMLRM0077&#45;&gt;UMLRM0050</title>
<path fill="none" stroke="black" d="M144.33,-218.4C141.58,-229.61 138.18,-240.67 134,-251 132.93,-253.64 131.71,-256.27 130.36,-258.87"/>
<polygon fill="black" stroke="black" points="127.42,-256.97 125.46,-267.38 133.48,-260.46 127.42,-256.97"/>
<text text-anchor="middle" x="185.5" y="-239.8" font-family="Times New Roman,serif" font-size="14.00">Manifestation de</text>
</g>
</g>
</svg>
