<?xml version="1.0" encoding="UTF-8" standalone="no"?>
<!DOCTYPE svg PUBLIC "-//W3C//DTD SVG 1.1//EN"
 "http://www.w3.org/Graphics/SVG/1.1/DTD/svg11.dtd">
<!-- Generated by graphviz version 7.0.3 (20221126.0506)
 -->
<!-- Title: UMLRM0138 Pages: 1 -->
<svg width="166pt" height="539pt"
 viewBox="0.00 0.00 165.50 539.00" xmlns="http://www.w3.org/2000/svg" xmlns:xlink="http://www.w3.org/1999/xlink">
<g id="graph0" class="graph" transform="scale(1 1) rotate(0) translate(4 535)">
<title>UMLRM0138</title>
<polygon fill="white" stroke="none" points="-4,4 -4,-535 161.5,-535 161.5,4 -4,4"/>
<!-- UMLRM0138 -->
<g id="node1" class="node">
<title>UMLRM0138</title>
<polygon fill="none" stroke="red" points="127.5,-531 1.5,-531 1.5,-418 127.5,-418 127.5,-531"/>
<text text-anchor="middle" x="64.5" y="-515.8" font-family="Times New Roman,serif" font-size="14.00">Jeanneteau, Daniel</text>
<text text-anchor="middle" x="64.5" y="-500.8" font-family="Times New Roman,serif" font-size="14.00">(1963&#45;....) &#45;</text>
<text text-anchor="middle" x="64.5" y="-485.8" font-family="Times New Roman,serif" font-size="14.00">Deratte, Laure</text>
<text text-anchor="middle" x="64.5" y="-470.8" font-family="Times New Roman,serif" font-size="14.00">(19..&#45;....),</text>
<text text-anchor="middle" x="64.5" y="-455.8" font-family="Times New Roman,serif" font-size="14.00">[Maquette de décor</text>
<text text-anchor="middle" x="64.5" y="-440.8" font-family="Times New Roman,serif" font-size="14.00">en volume pour</text>
<text text-anchor="middle" x="64.5" y="-425.8" font-family="Times New Roman,serif" font-size="14.00">&quot;Nosferatu&quot;]</text>
</g>
<!-- UMLRM0139 -->
<g id="node2" class="node">
<title>UMLRM0139</title>
<polygon fill="none" stroke="black" points="129,-367 0,-367 0,-239 129,-239 129,-367"/>
<text text-anchor="middle" x="64.5" y="-351.8" font-family="Times New Roman,serif" font-size="14.00">Jeanneteau, Daniel</text>
<text text-anchor="middle" x="64.5" y="-336.8" font-family="Times New Roman,serif" font-size="14.00">(1963&#45;....) &#45;</text>
<text text-anchor="middle" x="64.5" y="-321.8" font-family="Times New Roman,serif" font-size="14.00">Deratte, Laure</text>
<text text-anchor="middle" x="64.5" y="-306.8" font-family="Times New Roman,serif" font-size="14.00">(19..&#45;....),</text>
<text text-anchor="middle" x="64.5" y="-291.8" font-family="Times New Roman,serif" font-size="14.00">[Maquette de décor</text>
<text text-anchor="middle" x="64.5" y="-276.8" font-family="Times New Roman,serif" font-size="14.00">en volume pour</text>
<text text-anchor="middle" x="64.5" y="-261.8" font-family="Times New Roman,serif" font-size="14.00">&quot;Nosferatu&quot;], Image</text>
<text text-anchor="middle" x="64.5" y="-246.8" font-family="Times New Roman,serif" font-size="14.00">fixe</text>
</g>
<!-- UMLRM0139&#45;&gt;UMLRM0138 -->
<g id="edge1" class="edge">
<title>UMLRM0139&#45;&gt;UMLRM0138</title>
<path fill="none" stroke="black" d="M64.5,-367.12C64.5,-379.93 64.5,-393.45 64.5,-406.39"/>
<polygon fill="black" stroke="black" points="61,-406.07 64.5,-416.07 68,-406.07 61,-406.07"/>
<text text-anchor="middle" x="104.5" y="-388.8" font-family="Times New Roman,serif" font-size="14.00">Expression de</text>
</g>
<!-- UMLRM0140 -->
<g id="node3" class="node">
<title>UMLRM0140</title>
<polygon fill="none" stroke="black" points="104.5,-188 24.5,-188 24.5,0 104.5,0 104.5,-188"/>
<text text-anchor="middle" x="64.5" y="-172.8" font-family="Times New Roman,serif" font-size="14.00">[Maquette</text>
<text text-anchor="middle" x="64.5" y="-157.8" font-family="Times New Roman,serif" font-size="14.00">de décor</text>
<text text-anchor="middle" x="64.5" y="-142.8" font-family="Times New Roman,serif" font-size="14.00">en volume</text>
<text text-anchor="middle" x="64.5" y="-127.8" font-family="Times New Roman,serif" font-size="14.00">pour &quot;Nosf</text>
<text text-anchor="middle" x="64.5" y="-112.8" font-family="Times New Roman,serif" font-size="14.00">eratu&quot;],</text>
<text text-anchor="middle" x="64.5" y="-97.8" font-family="Times New Roman,serif" font-size="14.00">[Daniel</text>
<text text-anchor="middle" x="64.5" y="-82.8" font-family="Times New Roman,serif" font-size="14.00">Jeanneteau</text>
<text text-anchor="middle" x="64.5" y="-67.8" font-family="Times New Roman,serif" font-size="14.00">et Laure</text>
<text text-anchor="middle" x="64.5" y="-52.8" font-family="Times New Roman,serif" font-size="14.00">Deratte],</text>
<text text-anchor="middle" x="64.5" y="-37.8" font-family="Times New Roman,serif" font-size="14.00">[2001], 1</text>
<text text-anchor="middle" x="64.5" y="-22.8" font-family="Times New Roman,serif" font-size="14.00">maquette</text>
<text text-anchor="middle" x="64.5" y="-7.8" font-family="Times New Roman,serif" font-size="14.00">en volume</text>
</g>
<!-- UMLRM0140&#45;&gt;UMLRM0139 -->
<g id="edge2" class="edge">
<title>UMLRM0140&#45;&gt;UMLRM0139</title>
<path fill="none" stroke="black" d="M64.5,-188.21C64.5,-201.27 64.5,-214.55 64.5,-227.22"/>
<polygon fill="black" stroke="black" points="61,-227.13 64.5,-237.13 68,-227.13 61,-227.13"/>
<text text-anchor="middle" x="111" y="-209.8" font-family="Times New Roman,serif" font-size="14.00">Manifestation de</text>
</g>
</g>
</svg>
