<?xml version="1.0" encoding="UTF-8" standalone="no"?>
<!DOCTYPE svg PUBLIC "-//W3C//DTD SVG 1.1//EN"
 "http://www.w3.org/Graphics/SVG/1.1/DTD/svg11.dtd">
<!-- Generated by graphviz version 7.0.3 (20221126.0506)
 -->
<!-- Title: UMLRM0174 Pages: 1 -->
<svg width="1440pt" height="30pt"
 viewBox="0.00 0.00 1440.00 30.13" xmlns="http://www.w3.org/2000/svg" xmlns:xlink="http://www.w3.org/1999/xlink">
<g id="graph0" class="graph" transform="scale(0.684822 0.684822) rotate(0) translate(4 40)">
<title>UMLRM0174</title>
<polygon fill="white" stroke="none" points="-4,4 -4,-40 2098.74,-40 2098.74,4 -4,4"/>
<!-- UMLRM0174 -->
<g id="node1" class="node">
<title>UMLRM0174</title>
<ellipse fill="none" stroke="black" cx="1930.95" cy="-18" rx="163.57" ry="18"/>
<text text-anchor="middle" x="1930.95" y="-14.3" font-family="Times New Roman,serif" font-size="14.00">Les grands classiques du cinéma allemand</text>
</g>
<!-- UMLRM0175 -->
<g id="node2" class="node">
<title>UMLRM0175</title>
<ellipse fill="none" stroke="black" cx="1433.43" cy="-18" rx="217.96" ry="18"/>
<text text-anchor="middle" x="1433.43" y="-14.3" font-family="Times New Roman,serif" font-size="14.00">Les grands classiques du cinéma allemand, Image animée</text>
</g>
<!-- UMLRM0175&#45;&gt;UMLRM0174 -->
<g id="edge1" class="edge">
<title>UMLRM0175&#45;&gt;UMLRM0174</title>
<path fill="none" stroke="black" d="M1651.77,-18C1686.59,-18 1722.21,-18 1755.84,-18"/>
<polygon fill="black" stroke="black" points="1755.65,-21.5 1765.65,-18 1755.65,-14.5 1755.65,-21.5"/>
<text text-anchor="middle" x="1709.16" y="-21.8" font-family="Times New Roman,serif" font-size="14.00">Expression de</text>
</g>
<!-- UMLRM0176 -->
<g id="node3" class="node">
<title>UMLRM0176</title>
<ellipse fill="none" stroke="black" cx="543.35" cy="-18" rx="543.2" ry="18"/>
<text text-anchor="middle" x="543.35" y="-14.3" font-family="Times New Roman,serif" font-size="14.00">Les grands classiques du cinéma allemand, RDM vidéo &#45; RDM vidéo, [DL 2013], 7 DVD vidéo, monoface double couche, 4/3, PAL, toutes zones</text>
</g>
<!-- UMLRM0176&#45;&gt;UMLRM0175 -->
<g id="edge2" class="edge">
<title>UMLRM0176&#45;&gt;UMLRM0175</title>
<path fill="none" stroke="black" d="M1086.85,-18C1127.57,-18 1167.12,-18 1204.05,-18"/>
<polygon fill="black" stroke="black" points="1203.91,-21.5 1213.91,-18 1203.91,-14.5 1203.91,-21.5"/>
<text text-anchor="middle" x="1151.2" y="-21.8" font-family="Times New Roman,serif" font-size="14.00">Manifestation de</text>
</g>
</g>
</svg>
