<?xml version="1.0" encoding="UTF-8" standalone="no"?>
<!DOCTYPE svg PUBLIC "-//W3C//DTD SVG 1.1//EN"
 "http://www.w3.org/Graphics/SVG/1.1/DTD/svg11.dtd">
<!-- Generated by graphviz version 7.0.3 (20221126.0506)
 -->
<!-- Title: UMLRM0152 Pages: 1 -->
<svg width="1440pt" height="27pt"
 viewBox="0.00 0.00 1440.00 26.89" xmlns="http://www.w3.org/2000/svg" xmlns:xlink="http://www.w3.org/1999/xlink">
<g id="graph0" class="graph" transform="scale(0.61115 0.61115) rotate(0) translate(4 40)">
<title>UMLRM0152</title>
<polygon fill="white" stroke="none" points="-4,4 -4,-40 2352.21,-40 2352.21,4 -4,4"/>
<!-- UMLRM0152 -->
<g id="node1" class="node">
<title>UMLRM0152</title>
<ellipse fill="none" stroke="black" cx="2092.14" cy="-18" rx="256.15" ry="18"/>
<text text-anchor="middle" x="2092.14" y="-14.3" font-family="Times New Roman,serif" font-size="14.00">[Photographies extraites du film &quot;Dracula&quot; de Tod Browning], 1932</text>
</g>
<!-- UMLRM0153 -->
<g id="node2" class="node">
<title>UMLRM0153</title>
<ellipse fill="none" stroke="black" cx="1414.59" cy="-18" rx="305.45" ry="18"/>
<text text-anchor="middle" x="1414.59" y="-14.3" font-family="Times New Roman,serif" font-size="14.00">[Photographies extraites du film « Dracula » de Tod Browning], 1932, Image fixe</text>
</g>
<!-- UMLRM0153&#45;&gt;UMLRM0152 -->
<g id="edge1" class="edge">
<title>UMLRM0153&#45;&gt;UMLRM0152</title>
<path fill="none" stroke="black" d="M1720.26,-18C1755.07,-18 1790.36,-18 1824.62,-18"/>
<polygon fill="black" stroke="black" points="1824.19,-21.5 1834.19,-18 1824.19,-14.5 1824.19,-21.5"/>
<text text-anchor="middle" x="1778.06" y="-21.8" font-family="Times New Roman,serif" font-size="14.00">Expression de</text>
</g>
<!-- UMLRM0060 -->
<g id="node3" class="node">
<title>UMLRM0060</title>
<ellipse fill="none" stroke="black" cx="490.06" cy="-18" rx="490.11" ry="18"/>
<text text-anchor="middle" x="490.06" y="-14.3" font-family="Times New Roman,serif" font-size="14.00">Dracula, Brahm Stoker, Éditions J. Tallandier, 1932, 1 volume (96 pages – planches non numérotées), couverture illustrée en couleur</text>
</g>
<!-- UMLRM0060&#45;&gt;UMLRM0153 -->
<g id="edge2" class="edge">
<title>UMLRM0060&#45;&gt;UMLRM0153</title>
<path fill="none" stroke="black" d="M980.35,-18C1020.11,-18 1059.59,-18 1097.61,-18"/>
<polygon fill="black" stroke="black" points="1097.31,-21.5 1107.31,-18 1097.31,-14.5 1097.31,-21.5"/>
<text text-anchor="middle" x="1044.61" y="-21.8" font-family="Times New Roman,serif" font-size="14.00">Manifestation de</text>
</g>
</g>
</svg>
