<?xml version="1.0" encoding="UTF-8" standalone="no"?>
<!DOCTYPE svg PUBLIC "-//W3C//DTD SVG 1.1//EN"
 "http://www.w3.org/Graphics/SVG/1.1/DTD/svg11.dtd">
<!-- Generated by graphviz version 7.0.3 (20221126.0506)
 -->
<!-- Title: UMLRM0004 Pages: 1 -->
<svg width="1440pt" height="808pt"
 viewBox="0.00 0.00 1440.00 807.65" xmlns="http://www.w3.org/2000/svg" xmlns:xlink="http://www.w3.org/1999/xlink">
<g id="graph0" class="graph" transform="scale(0.754815 0.754815) rotate(0) translate(4 1066)">
<title>UMLRM0004</title>
<polygon fill="white" stroke="none" points="-4,4 -4,-1066 1903.75,-1066 1903.75,4 -4,4"/>
<!-- UMLRM0004 -->
<g id="node1" class="node">
<title>UMLRM0004</title>
<ellipse fill="none" stroke="black" cx="137.79" cy="-342" rx="137.58" ry="18"/>
<text text-anchor="middle" x="137.79" y="-338.3" font-family="Times New Roman,serif" font-size="14.00">Stoker, Bram (1847&#45;1912), Dracula</text>
</g>
<!-- UMLRM0005 -->
<g id="node2" class="node">
<title>UMLRM0005</title>
<ellipse fill="none" stroke="black" cx="589.81" cy="-990" rx="181.17" ry="18"/>
<text text-anchor="middle" x="589.81" y="-986.3" font-family="Times New Roman,serif" font-size="14.00">Stoker, Bram (1847&#45;1912), Dracula, Texte noté</text>
</g>
<!-- UMLRM0004&#45;&gt;UMLRM0005 -->
<g id="edge1" class="edge">
<title>UMLRM0004&#45;&gt;UMLRM0005</title>
<path fill="none" stroke="black" d="M145.21,-360.3C169.49,-427.77 260.98,-666.97 391.58,-828 438.06,-885.31 507.52,-936.61 550.4,-965.47"/>
<polygon fill="black" stroke="black" points="548.39,-968.33 558.66,-970.96 552.27,-962.51 548.39,-968.33"/>
<text text-anchor="middle" x="333.58" y="-807.8" font-family="Times New Roman,serif" font-size="14.00">Expression de</text>
</g>
<!-- UMLRM0020 -->
<g id="node5" class="node">
<title>UMLRM0020</title>
<ellipse fill="none" stroke="black" cx="589.81" cy="-801" rx="181.17" ry="18"/>
<text text-anchor="middle" x="589.81" y="-797.3" font-family="Times New Roman,serif" font-size="14.00">Stoker, Bram (1847&#45;1912), Dracula, Texte noté</text>
</g>
<!-- UMLRM0004&#45;&gt;UMLRM0020 -->
<g id="edge4" class="edge">
<title>UMLRM0004&#45;&gt;UMLRM0020</title>
<path fill="none" stroke="black" d="M152.32,-360.2C178.58,-395.25 238.68,-474.18 293.58,-537 334.94,-584.34 345.43,-596.31 391.58,-639 446.98,-690.26 515.98,-745.03 555.95,-775.94"/>
<polygon fill="black" stroke="black" points="553.73,-778.65 563.78,-781.98 558,-773.1 553.73,-778.65"/>
<text text-anchor="middle" x="333.58" y="-623.8" font-family="Times New Roman,serif" font-size="14.00">Expression de</text>
</g>
<!-- UMLRM0041 -->
<g id="node11" class="node">
<title>UMLRM0041</title>
<ellipse fill="none" stroke="black" cx="589.81" cy="-612" rx="181.17" ry="18"/>
<text text-anchor="middle" x="589.81" y="-608.3" font-family="Times New Roman,serif" font-size="14.00">Stoker, Bram (1847&#45;1912), Dracula, Texte noté</text>
</g>
<!-- UMLRM0004&#45;&gt;UMLRM0041 -->
<g id="edge10" class="edge">
<title>UMLRM0004&#45;&gt;UMLRM0041</title>
<path fill="none" stroke="black" d="M159.17,-360.1C200.61,-396.22 298.63,-478.29 391.58,-531 434.34,-555.25 485.83,-576.14 525.47,-590.63"/>
<polygon fill="black" stroke="black" points="524.04,-593.84 534.63,-593.94 526.41,-587.25 524.04,-593.84"/>
<text text-anchor="middle" x="333.58" y="-521.8" font-family="Times New Roman,serif" font-size="14.00">Expression de</text>
</g>
<!-- UMLRM0050 -->
<g id="node14" class="node">
<title>UMLRM0050</title>
<ellipse fill="none" stroke="black" cx="589.81" cy="-504" rx="181.17" ry="18"/>
<text text-anchor="middle" x="589.81" y="-500.3" font-family="Times New Roman,serif" font-size="14.00">Stoker, Bram (1847&#45;1912), Dracula, Texte noté</text>
</g>
<!-- UMLRM0004&#45;&gt;UMLRM0050 -->
<g id="edge13" class="edge">
<title>UMLRM0004&#45;&gt;UMLRM0050</title>
<path fill="none" stroke="black" d="M186.52,-359.18C269.12,-388.92 438.52,-449.9 528.9,-482.43"/>
<polygon fill="black" stroke="black" points="527.5,-485.65 538.09,-485.74 529.87,-479.06 527.5,-485.65"/>
<text text-anchor="middle" x="333.58" y="-426.8" font-family="Times New Roman,serif" font-size="14.00">Expression de</text>
</g>
<!-- UMLRM0053 -->
<g id="node17" class="node">
<title>UMLRM0053</title>
<ellipse fill="none" stroke="black" cx="589.81" cy="-387" rx="181.17" ry="18"/>
<text text-anchor="middle" x="589.81" y="-383.3" font-family="Times New Roman,serif" font-size="14.00">Stoker, Bram (1847&#45;1912), Dracula, Texte noté</text>
</g>
<!-- UMLRM0004&#45;&gt;UMLRM0053 -->
<g id="edge16" class="edge">
<title>UMLRM0004&#45;&gt;UMLRM0053</title>
<path fill="none" stroke="black" d="M248.59,-352.98C308.85,-359.01 384.21,-366.54 448.67,-372.99"/>
<polygon fill="black" stroke="black" points="447.94,-376.43 458.24,-373.94 448.64,-369.47 447.94,-376.43"/>
<text text-anchor="middle" x="333.58" y="-367.8" font-family="Times New Roman,serif" font-size="14.00">Expression de</text>
</g>
<!-- UMLRM0056 -->
<g id="node21" class="node">
<title>UMLRM0056</title>
<ellipse fill="none" stroke="black" cx="589.81" cy="-288" rx="181.17" ry="18"/>
<text text-anchor="middle" x="589.81" y="-284.3" font-family="Times New Roman,serif" font-size="14.00">Stoker, Bram (1847&#45;1912), Dracula, Texte noté</text>
</g>
<!-- UMLRM0004&#45;&gt;UMLRM0056 -->
<g id="edge20" class="edge">
<title>UMLRM0004&#45;&gt;UMLRM0056</title>
<path fill="none" stroke="black" d="M240.9,-329.75C306.14,-321.92 391.25,-311.71 460.96,-303.34"/>
<polygon fill="black" stroke="black" points="460.99,-306.86 470.5,-302.2 460.16,-299.91 460.99,-306.86"/>
<text text-anchor="middle" x="333.58" y="-325.8" font-family="Times New Roman,serif" font-size="14.00">Expression de</text>
</g>
<!-- UMLRM0059 -->
<g id="node24" class="node">
<title>UMLRM0059</title>
<ellipse fill="none" stroke="black" cx="589.81" cy="-231" rx="181.17" ry="18"/>
<text text-anchor="middle" x="589.81" y="-227.3" font-family="Times New Roman,serif" font-size="14.00">Stoker, Bram (1847&#45;1912), Dracula, Texte noté</text>
</g>
<!-- UMLRM0004&#45;&gt;UMLRM0059 -->
<g id="edge23" class="edge">
<title>UMLRM0004&#45;&gt;UMLRM0059</title>
<path fill="none" stroke="black" d="M185.22,-324.66C235.45,-306.48 318.22,-278.22 391.58,-261 414.5,-255.62 439.16,-250.98 463.01,-247.07"/>
<polygon fill="black" stroke="black" points="463.46,-250.54 472.78,-245.51 462.35,-243.63 463.46,-250.54"/>
<text text-anchor="middle" x="333.58" y="-289.8" font-family="Times New Roman,serif" font-size="14.00">Expression de</text>
</g>
<!-- UMLRM0065 -->
<g id="node26" class="node">
<title>UMLRM0065</title>
<ellipse fill="none" stroke="black" cx="589.81" cy="-170" rx="181.17" ry="18"/>
<text text-anchor="middle" x="589.81" y="-166.3" font-family="Times New Roman,serif" font-size="14.00">Stoker, Bram (1847&#45;1912), Dracula, Texte noté</text>
</g>
<!-- UMLRM0004&#45;&gt;UMLRM0065 -->
<g id="edge25" class="edge">
<title>UMLRM0004&#45;&gt;UMLRM0065</title>
<path fill="none" stroke="black" d="M165.53,-324.03C195.88,-304 247.2,-271.26 293.58,-247 335.72,-224.95 346.03,-217.7 391.58,-204 415.17,-196.91 440.81,-191.13 465.57,-186.5"/>
<polygon fill="black" stroke="black" points="466.17,-189.94 475.39,-184.71 464.92,-183.06 466.17,-189.94"/>
<text text-anchor="middle" x="333.58" y="-250.8" font-family="Times New Roman,serif" font-size="14.00">Expression de</text>
</g>
<!-- UMLRM0068 -->
<g id="node28" class="node">
<title>UMLRM0068</title>
<ellipse fill="none" stroke="black" cx="589.81" cy="-103" rx="181.17" ry="18"/>
<text text-anchor="middle" x="589.81" y="-99.3" font-family="Times New Roman,serif" font-size="14.00">Stoker, Bram (1847&#45;1912), Dracula, Texte noté</text>
</g>
<!-- UMLRM0004&#45;&gt;UMLRM0068 -->
<g id="edge27" class="edge">
<title>UMLRM0004&#45;&gt;UMLRM0068</title>
<path fill="none" stroke="black" d="M153.96,-323.82C180.06,-293.38 236.2,-231.46 293.58,-191 345.62,-154.3 413.12,-132.7 470.45,-120.09"/>
<polygon fill="black" stroke="black" points="470.86,-123.58 479.91,-118.08 469.41,-116.74 470.86,-123.58"/>
<text text-anchor="middle" x="333.58" y="-194.8" font-family="Times New Roman,serif" font-size="14.00">Expression de</text>
</g>
<!-- UMLRM0187 -->
<g id="node30" class="node">
<title>UMLRM0187</title>
<ellipse fill="none" stroke="black" cx="589.81" cy="-22" rx="198.47" ry="18"/>
<text text-anchor="middle" x="589.81" y="-18.3" font-family="Times New Roman,serif" font-size="14.00">Stoker, Bram (1847&#45;1912), Dracula, Parole énoncée</text>
</g>
<!-- UMLRM0004&#45;&gt;UMLRM0187 -->
<g id="edge29" class="edge">
<title>UMLRM0004&#45;&gt;UMLRM0187</title>
<path fill="none" stroke="black" d="M148.71,-323.73C170.63,-284.64 226.59,-191.63 293.58,-132 347.15,-84.31 423.3,-56.62 484.84,-40.94"/>
<polygon fill="black" stroke="black" points="485.42,-44.41 494.29,-38.61 483.74,-37.61 485.42,-44.41"/>
<text text-anchor="middle" x="333.58" y="-135.8" font-family="Times New Roman,serif" font-size="14.00">Expression de</text>
</g>
<!-- UMLRM0006 -->
<g id="node3" class="node">
<title>UMLRM0006</title>
<ellipse fill="none" stroke="black" cx="1408.4" cy="-1044" rx="449.52" ry="18"/>
<text text-anchor="middle" x="1408.4" y="-1040.3" font-family="Times New Roman,serif" font-size="14.00">Dracula, Bram Stoker, Pan books &#45; &#160;Imprimerie Firmin&#45;Didot, 1992, 1 volume (382 pages), couverture illustrée en couleur</text>
</g>
<!-- UMLRM0005&#45;&gt;UMLRM0006 -->
<g id="edge2" class="edge">
<title>UMLRM0005&#45;&gt;UMLRM0006</title>
<path fill="none" stroke="black" d="M725.69,-1002.24C752.31,-1004.56 780.05,-1006.92 806.04,-1009 904.31,-1016.88 1011.75,-1023.7 1108.28,-1029.18"/>
<polygon fill="black" stroke="black" points="1108,-1032.67 1118.18,-1029.73 1108.39,-1025.68 1108,-1032.67"/>
<text text-anchor="middle" x="852.54" y="-1018.8" font-family="Times New Roman,serif" font-size="14.00">Manifestation de</text>
</g>
<!-- UMLRM0018 -->
<g id="node4" class="node">
<title>UMLRM0018</title>
<ellipse fill="none" stroke="black" cx="1408.4" cy="-990" rx="293.55" ry="18"/>
<text text-anchor="middle" x="1408.4" y="-986.3" font-family="Times New Roman,serif" font-size="14.00">Dracula, by Bram Stoker, W. Rider and son, 1992, 1 volume (VIII&#45;404 pages)</text>
</g>
<!-- UMLRM0005&#45;&gt;UMLRM0018 -->
<g id="edge3" class="edge">
<title>UMLRM0005&#45;&gt;UMLRM0018</title>
<path fill="none" stroke="black" d="M771.28,-990C868.69,-990 991.55,-990 1103.26,-990"/>
<polygon fill="black" stroke="black" points="1103.21,-993.5 1113.21,-990 1103.21,-986.5 1103.21,-993.5"/>
<text text-anchor="middle" x="852.54" y="-993.8" font-family="Times New Roman,serif" font-size="14.00">Manifestation de</text>
</g>
<!-- UMLRM0021 -->
<g id="node6" class="node">
<title>UMLRM0021</title>
<ellipse fill="none" stroke="black" cx="1408.4" cy="-936" rx="445.72" ry="18"/>
<text text-anchor="middle" x="1408.4" y="-932.3" font-family="Times New Roman,serif" font-size="14.00">Dracula, Bram Stoker, J&#39;ai lu &#45; mprimerie Brodard et Taupin, 2005, 1 volume (574 pages), couverture illustrée en couleur</text>
</g>
<!-- UMLRM0020&#45;&gt;UMLRM0021 -->
<g id="edge5" class="edge">
<title>UMLRM0020&#45;&gt;UMLRM0021</title>
<path fill="none" stroke="black" d="M632.86,-818.93C694.1,-844.11 811.97,-889.08 917.04,-909 951.49,-915.53 987.52,-920.66 1023.74,-924.67"/>
<polygon fill="black" stroke="black" points="1023.16,-928.13 1033.48,-925.72 1023.91,-921.17 1023.16,-928.13"/>
<text text-anchor="middle" x="852.54" y="-908.8" font-family="Times New Roman,serif" font-size="14.00">Manifestation de</text>
</g>
<!-- UMLRM0024 -->
<g id="node7" class="node">
<title>UMLRM0024</title>
<ellipse fill="none" stroke="black" cx="1408.4" cy="-882" rx="361.24" ry="18"/>
<text text-anchor="middle" x="1408.4" y="-878.3" font-family="Times New Roman,serif" font-size="14.00">Dracula, Bram Stoker, Gérard et Cie, 1963, 1 volume (569 pages), couverture illustrée en couleur</text>
</g>
<!-- UMLRM0020&#45;&gt;UMLRM0024 -->
<g id="edge6" class="edge">
<title>UMLRM0020&#45;&gt;UMLRM0024</title>
<path fill="none" stroke="black" d="M673.93,-817.33C739.66,-829.62 833.87,-845.85 917.04,-855 977.5,-861.65 1042.35,-866.69 1104.44,-870.5"/>
<polygon fill="black" stroke="black" points="1103.88,-873.97 1114.08,-871.08 1104.31,-866.99 1103.88,-873.97"/>
<text text-anchor="middle" x="852.54" y="-854.8" font-family="Times New Roman,serif" font-size="14.00">Manifestation de</text>
</g>
<!-- UMLRM0027 -->
<g id="node8" class="node">
<title>UMLRM0027</title>
<ellipse fill="none" stroke="black" cx="1408.4" cy="-828" rx="491.21" ry="18"/>
<text text-anchor="middle" x="1408.4" y="-824.3" font-family="Times New Roman,serif" font-size="14.00">Dracula, Bram Stoker, Éd. J&#39;ai lu &#45; mprimerie Brodard et Taupin, 1992, 1 volume (XXIV&#45;505 pages), illustrations, couverture illustrée</text>
</g>
<!-- UMLRM0020&#45;&gt;UMLRM0027 -->
<g id="edge7" class="edge">
<title>UMLRM0020&#45;&gt;UMLRM0027</title>
<path fill="none" stroke="black" d="M762.49,-806.68C839.92,-809.24 934.69,-812.37 1027.49,-815.44"/>
<polygon fill="black" stroke="black" points="1027.17,-818.93 1037.28,-815.76 1027.41,-811.93 1027.17,-818.93"/>
<text text-anchor="middle" x="852.54" y="-813.8" font-family="Times New Roman,serif" font-size="14.00">Manifestation de</text>
</g>
<!-- UMLRM0030 -->
<g id="node9" class="node">
<title>UMLRM0030</title>
<ellipse fill="none" stroke="black" cx="1408.4" cy="-774" rx="460.32" ry="18"/>
<text text-anchor="middle" x="1408.4" y="-770.3" font-family="Times New Roman,serif" font-size="14.00">Dracula, Bram Stoker, Hachette &#45; Imprimerie Brodard et Taupin, 1988, 1 volume (534 pages), couverture illustrée en couleur</text>
</g>
<!-- UMLRM0020&#45;&gt;UMLRM0030 -->
<g id="edge8" class="edge">
<title>UMLRM0020&#45;&gt;UMLRM0030</title>
<path fill="none" stroke="black" d="M746.84,-791.73C766.76,-790.72 786.88,-789.77 806.04,-789 864.86,-786.63 926.93,-784.57 987.97,-782.81"/>
<polygon fill="black" stroke="black" points="987.94,-786.31 997.84,-782.53 987.74,-779.32 987.94,-786.31"/>
<text text-anchor="middle" x="852.54" y="-792.8" font-family="Times New Roman,serif" font-size="14.00">Manifestation de</text>
</g>
<!-- UMLRM0110 -->
<g id="node10" class="node">
<title>UMLRM0110</title>
<ellipse fill="none" stroke="black" cx="1408.4" cy="-720" rx="439.22" ry="18"/>
<text text-anchor="middle" x="1408.4" y="-716.3" font-family="Times New Roman,serif" font-size="14.00">Dracula, Bram Stoker, Éditions Opta, 1968, 1 volume (XX&#45;413 pages), illustrations en noir et blanc, cartonnage illustré</text>
</g>
<!-- UMLRM0020&#45;&gt;UMLRM0110 -->
<g id="edge9" class="edge">
<title>UMLRM0020&#45;&gt;UMLRM0110</title>
<path fill="none" stroke="black" d="M673.93,-784.67C739.66,-772.38 833.87,-756.15 917.04,-747 968.17,-741.38 1022.44,-736.91 1075.52,-733.35"/>
<polygon fill="black" stroke="black" points="1075.57,-736.86 1085.32,-732.71 1075.11,-729.87 1075.57,-736.86"/>
<text text-anchor="middle" x="852.54" y="-764.8" font-family="Times New Roman,serif" font-size="14.00">Manifestation de</text>
</g>
<!-- UMLRM0042 -->
<g id="node12" class="node">
<title>UMLRM0042</title>
<ellipse fill="none" stroke="black" cx="1408.4" cy="-666" rx="332.54" ry="18"/>
<text text-anchor="middle" x="1408.4" y="-662.3" font-family="Times New Roman,serif" font-size="14.00">Dracula, Bram Stoker, J&#39;ai lu, 2012, 1 volume (679 pages), couverture illustrée en couleur</text>
</g>
<!-- UMLRM0041&#45;&gt;UMLRM0042 -->
<g id="edge11" class="edge">
<title>UMLRM0041&#45;&gt;UMLRM0042</title>
<path fill="none" stroke="black" d="M725.69,-624.24C752.31,-626.56 780.05,-628.92 806.04,-631 917.18,-639.91 1040.05,-647.47 1145.6,-653.26"/>
<polygon fill="black" stroke="black" points="1145.38,-656.75 1155.56,-653.8 1145.76,-649.76 1145.38,-656.75"/>
<text text-anchor="middle" x="852.54" y="-640.8" font-family="Times New Roman,serif" font-size="14.00">Manifestation de</text>
</g>
<!-- UMLRM0045 -->
<g id="node13" class="node">
<title>UMLRM0045</title>
<ellipse fill="none" stroke="black" cx="1408.4" cy="-612" rx="471.42" ry="18"/>
<text text-anchor="middle" x="1408.4" y="-608.3" font-family="Times New Roman,serif" font-size="14.00">Dracula, Bram Stoker, Le camion blanc &#45; Imprimerie Acort Europe, 2010, 1 volume (741 pages), couverture illustrée en couleur</text>
</g>
<!-- UMLRM0041&#45;&gt;UMLRM0045 -->
<g id="edge12" class="edge">
<title>UMLRM0041&#45;&gt;UMLRM0045</title>
<path fill="none" stroke="black" d="M771.28,-612C818.08,-612 870.75,-612 925.25,-612"/>
<polygon fill="black" stroke="black" points="925.02,-615.5 935.02,-612 925.02,-608.5 925.02,-615.5"/>
<text text-anchor="middle" x="852.54" y="-615.8" font-family="Times New Roman,serif" font-size="14.00">Manifestation de</text>
</g>
<!-- UMLRM0051 -->
<g id="node15" class="node">
<title>UMLRM0051</title>
<ellipse fill="none" stroke="black" cx="1408.4" cy="-558" rx="323.04" ry="18"/>
<text text-anchor="middle" x="1408.4" y="-554.3" font-family="Times New Roman,serif" font-size="14.00">Dracula, Bram Stoker, Pointdeux, DL 2013, 1 volume (919 pages), couverture illustrée</text>
</g>
<!-- UMLRM0050&#45;&gt;UMLRM0051 -->
<g id="edge14" class="edge">
<title>UMLRM0050&#45;&gt;UMLRM0051</title>
<path fill="none" stroke="black" d="M725.69,-516.24C752.31,-518.56 780.05,-520.92 806.04,-523 918.68,-532.03 1043.36,-539.67 1149.86,-545.49"/>
<polygon fill="black" stroke="black" points="1149.41,-548.97 1159.58,-546.02 1149.79,-541.98 1149.41,-548.97"/>
<text text-anchor="middle" x="852.54" y="-532.8" font-family="Times New Roman,serif" font-size="14.00">Manifestation de</text>
</g>
<!-- UMLRM0077 -->
<g id="node16" class="node">
<title>UMLRM0077</title>
<ellipse fill="none" stroke="black" cx="1408.4" cy="-504" rx="403.73" ry="18"/>
<text text-anchor="middle" x="1408.4" y="-500.3" font-family="Times New Roman,serif" font-size="14.00">Dracula &#45; suivi de L&#39;invité de Dracula, Bram Stoker, Pocket, 2011, 1 volume (575 pages), couverture illustrée</text>
</g>
<!-- UMLRM0050&#45;&gt;UMLRM0077 -->
<g id="edge15" class="edge">
<title>UMLRM0050&#45;&gt;UMLRM0077</title>
<path fill="none" stroke="black" d="M771.28,-504C837.2,-504 914.78,-504 992.68,-504"/>
<polygon fill="black" stroke="black" points="992.65,-507.5 1002.65,-504 992.65,-500.5 992.65,-507.5"/>
<text text-anchor="middle" x="852.54" y="-507.8" font-family="Times New Roman,serif" font-size="14.00">Manifestation de</text>
</g>
<!-- UMLRM0054 -->
<g id="node18" class="node">
<title>UMLRM0054</title>
<ellipse fill="none" stroke="black" cx="1408.4" cy="-450" rx="422.43" ry="18"/>
<text text-anchor="middle" x="1408.4" y="-446.3" font-family="Times New Roman,serif" font-size="14.00">Dracula, Bram Stoker, le Livre de poche jeunesse, DL 2015, 1 volume (321 pages), couverture illustrée en couleur</text>
</g>
<!-- UMLRM0053&#45;&gt;UMLRM0054 -->
<g id="edge17" class="edge">
<title>UMLRM0053&#45;&gt;UMLRM0054</title>
<path fill="none" stroke="black" d="M705.4,-401.2C767.88,-408.55 846.62,-417.18 917.04,-423 977.86,-428.03 1043,-432.35 1105.3,-435.98"/>
<polygon fill="black" stroke="black" points="1104.79,-439.45 1114.98,-436.54 1105.19,-432.47 1104.79,-439.45"/>
<text text-anchor="middle" x="852.54" y="-423.8" font-family="Times New Roman,serif" font-size="14.00">Manifestation de</text>
</g>
<!-- UMLRM0178 -->
<g id="node19" class="node">
<title>UMLRM0178</title>
<ellipse fill="none" stroke="black" cx="1408.4" cy="-396" rx="443.82" ry="18"/>
<text text-anchor="middle" x="1408.4" y="-392.3" font-family="Times New Roman,serif" font-size="14.00">Dracula, Bram Stoker, Hachette &#45; &#160;Imprimerie CPI Bussière, 2011, 1 volume (321 pages), couverture illustrée en couleur</text>
</g>
<!-- UMLRM0053&#45;&gt;UMLRM0178 -->
<g id="edge18" class="edge">
<title>UMLRM0053&#45;&gt;UMLRM0178</title>
<path fill="none" stroke="black" d="M770.26,-388.98C829.43,-389.63 898.06,-390.39 967.92,-391.16"/>
<polygon fill="black" stroke="black" points="967.59,-394.65 977.63,-391.26 967.67,-387.65 967.59,-394.65"/>
<text text-anchor="middle" x="852.54" y="-393.8" font-family="Times New Roman,serif" font-size="14.00">Manifestation de</text>
</g>
<!-- UMLRM0179 -->
<g id="node20" class="node">
<title>UMLRM0179</title>
<ellipse fill="none" stroke="black" cx="1408.4" cy="-342" rx="393.73" ry="18"/>
<text text-anchor="middle" x="1408.4" y="-338.3" font-family="Times New Roman,serif" font-size="14.00">Dracula, Bram Stoker, Hatier, DL 2013, 1 volume (317 pages), illustrations, couverture illustrée en couleur</text>
</g>
<!-- UMLRM0053&#45;&gt;UMLRM0179 -->
<g id="edge19" class="edge">
<title>UMLRM0053&#45;&gt;UMLRM0179</title>
<path fill="none" stroke="black" d="M730.27,-375.32C755.48,-373.4 781.54,-371.54 806.04,-370 900.64,-364.06 1003.68,-358.82 1097.31,-354.52"/>
<polygon fill="black" stroke="black" points="1097.34,-358.02 1107.17,-354.07 1097.02,-351.03 1097.34,-358.02"/>
<text text-anchor="middle" x="852.54" y="-373.8" font-family="Times New Roman,serif" font-size="14.00">Manifestation de</text>
</g>
<!-- UMLRM0057 -->
<g id="node22" class="node">
<title>UMLRM0057</title>
<ellipse fill="none" stroke="black" cx="1408.4" cy="-288" rx="372.33" ry="18"/>
<text text-anchor="middle" x="1408.4" y="-284.3" font-family="Times New Roman,serif" font-size="14.00">Dracula, Brahm Stoker, l’Édition française illustrée, 1920, 1 volume (263 pages), couverture illustrée</text>
</g>
<!-- UMLRM0056&#45;&gt;UMLRM0057 -->
<g id="edge21" class="edge">
<title>UMLRM0056&#45;&gt;UMLRM0057</title>
<path fill="none" stroke="black" d="M771.28,-288C846.17,-288 936.1,-288 1024.44,-288"/>
<polygon fill="black" stroke="black" points="1024.25,-291.5 1034.25,-288 1024.25,-284.5 1024.25,-291.5"/>
<text text-anchor="middle" x="852.54" y="-291.8" font-family="Times New Roman,serif" font-size="14.00">Manifestation de</text>
</g>
<!-- UMLRM0063 -->
<g id="node23" class="node">
<title>UMLRM0063</title>
<ellipse fill="none" stroke="black" cx="1408.4" cy="-234" rx="378.03" ry="18"/>
<text text-anchor="middle" x="1408.4" y="-230.3" font-family="Times New Roman,serif" font-size="14.00">Dracula, Bram Stoker, les Éditions des Quatre&#45;vents, 1946, 1 volume (344 pages), couverture illustrée</text>
</g>
<!-- UMLRM0056&#45;&gt;UMLRM0063 -->
<g id="edge22" class="edge">
<title>UMLRM0056&#45;&gt;UMLRM0063</title>
<path fill="none" stroke="black" d="M725.69,-275.76C752.31,-273.44 780.05,-271.08 806.04,-269 911.42,-260.55 1027.34,-253.32 1129.04,-247.66"/>
<polygon fill="black" stroke="black" points="1129.12,-251.16 1138.91,-247.11 1128.73,-244.17 1129.12,-251.16"/>
<text text-anchor="middle" x="852.54" y="-272.8" font-family="Times New Roman,serif" font-size="14.00">Manifestation de</text>
</g>
<!-- UMLRM0060 -->
<g id="node25" class="node">
<title>UMLRM0060</title>
<ellipse fill="none" stroke="black" cx="1408.4" cy="-180" rx="490.11" ry="18"/>
<text text-anchor="middle" x="1408.4" y="-176.3" font-family="Times New Roman,serif" font-size="14.00">Dracula, Brahm Stoker, Éditions J. Tallandier, 1932, 1 volume (96 pages – planches non numérotées), couverture illustrée en couleur</text>
</g>
<!-- UMLRM0059&#45;&gt;UMLRM0060 -->
<g id="edge24" class="edge">
<title>UMLRM0059&#45;&gt;UMLRM0060</title>
<path fill="none" stroke="black" d="M676.89,-214.81C716.14,-208.1 763.29,-200.96 806.04,-197 849.51,-192.97 894.83,-189.8 940.22,-187.32"/>
<polygon fill="black" stroke="black" points="940.13,-190.83 949.93,-186.8 939.76,-183.84 940.13,-190.83"/>
<text text-anchor="middle" x="852.54" y="-200.8" font-family="Times New Roman,serif" font-size="14.00">Manifestation de</text>
</g>
<!-- UMLRM0066 -->
<g id="node27" class="node">
<title>UMLRM0066</title>
<ellipse fill="none" stroke="black" cx="1408.4" cy="-126" rx="352.84" ry="18"/>
<text text-anchor="middle" x="1408.4" y="-122.3" font-family="Times New Roman,serif" font-size="14.00">Drácula, Bram Stoker, Maxtor, DL 2017, 1 volume (540 pages), couverture illustrée en couleur</text>
</g>
<!-- UMLRM0065&#45;&gt;UMLRM0066 -->
<g id="edge26" class="edge">
<title>UMLRM0065&#45;&gt;UMLRM0066</title>
<path fill="none" stroke="black" d="M694.6,-154.92C729.9,-150.35 769.62,-145.79 806.04,-143 885.61,-136.9 971.25,-132.93 1052.25,-130.35"/>
<polygon fill="black" stroke="black" points="1052.25,-133.85 1062.13,-130.05 1052.03,-126.86 1052.25,-133.85"/>
<text text-anchor="middle" x="852.54" y="-146.8" font-family="Times New Roman,serif" font-size="14.00">Manifestation de</text>
</g>
<!-- UMLRM0069 -->
<g id="node29" class="node">
<title>UMLRM0069</title>
<ellipse fill="none" stroke="black" cx="1408.4" cy="-72" rx="462.52" ry="18"/>
<text text-anchor="middle" x="1408.4" y="-68.3" font-family="Times New Roman,serif" font-size="14.00">Dracula, Bram Stoker, l&#39;École des loisirs &#45; Imprimerie CPI Firmin&#45;Didot, DL 2019, 1 volume (232 pages), couverture illustrée</text>
</g>
<!-- UMLRM0068&#45;&gt;UMLRM0069 -->
<g id="edge28" class="edge">
<title>UMLRM0068&#45;&gt;UMLRM0069</title>
<path fill="none" stroke="black" d="M739.84,-92.59C762.03,-91.25 784.63,-90 806.04,-89 867.55,-86.13 932.63,-83.68 996.37,-81.61"/>
<polygon fill="black" stroke="black" points="996.44,-85.11 1006.32,-81.29 996.21,-78.11 996.44,-85.11"/>
<text text-anchor="middle" x="852.54" y="-92.8" font-family="Times New Roman,serif" font-size="14.00">Manifestation de</text>
</g>
<!-- UMLRM0188 -->
<g id="node31" class="node">
<title>UMLRM0188</title>
<ellipse fill="none" stroke="black" cx="1408.4" cy="-18" rx="221.76" ry="18"/>
<text text-anchor="middle" x="1408.4" y="-14.3" font-family="Times New Roman,serif" font-size="14.00">Dracula, Bram Stoker, Livraphone, [DL 2009], 2 CD MP3</text>
</g>
<!-- UMLRM0187&#45;&gt;UMLRM0188 -->
<g id="edge30" class="edge">
<title>UMLRM0187&#45;&gt;UMLRM0188</title>
<path fill="none" stroke="black" d="M788.48,-21.03C905.09,-20.46 1053.25,-19.73 1175.38,-19.14"/>
<polygon fill="black" stroke="black" points="1175.24,-22.64 1185.23,-19.09 1175.21,-15.64 1175.24,-22.64"/>
<text text-anchor="middle" x="852.54" y="-23.8" font-family="Times New Roman,serif" font-size="14.00">Manifestation de</text>
</g>
</g>
</svg>
