<?xml version="1.0" encoding="UTF-8" standalone="no"?>
<!DOCTYPE svg PUBLIC "-//W3C//DTD SVG 1.1//EN"
 "http://www.w3.org/Graphics/SVG/1.1/DTD/svg11.dtd">
<!-- Generated by graphviz version 7.0.3 (20221126.0506)
 -->
<!-- Title: UMLRM0082 Pages: 1 -->
<svg width="167pt" height="524pt"
 viewBox="0.00 0.00 166.50 524.00" xmlns="http://www.w3.org/2000/svg" xmlns:xlink="http://www.w3.org/1999/xlink">
<g id="graph0" class="graph" transform="scale(1 1) rotate(0) translate(4 520)">
<title>UMLRM0082</title>
<polygon fill="white" stroke="none" points="-4,4 -4,-520 162.5,-520 162.5,4 -4,4"/>
<!-- UMLRM0082 -->
<g id="node1" class="node">
<title>UMLRM0082</title>
<polygon fill="none" stroke="red" points="131,-397 0,-397 0,-314 131,-314 131,-397"/>
<text text-anchor="middle" x="65.5" y="-381.8" font-family="Times New Roman,serif" font-size="14.00">&quot;Dracula&quot; : l&#39;oeuvre</text>
<text text-anchor="middle" x="65.5" y="-366.8" font-family="Times New Roman,serif" font-size="14.00">de Bram Stoker et le</text>
<text text-anchor="middle" x="65.5" y="-351.8" font-family="Times New Roman,serif" font-size="14.00">film de Francis F.</text>
<text text-anchor="middle" x="65.5" y="-336.8" font-family="Times New Roman,serif" font-size="14.00">Coppola, Français&#45;</text>
<text text-anchor="middle" x="65.5" y="-321.8" font-family="Times New Roman,serif" font-size="14.00">Anglais, Texte noté</text>
</g>
<!-- UMLRM0081 -->
<g id="node2" class="node">
<title>UMLRM0081</title>
<polygon fill="none" stroke="black" points="131,-516 0,-516 0,-448 131,-448 131,-516"/>
<text text-anchor="middle" x="65.5" y="-500.8" font-family="Times New Roman,serif" font-size="14.00">&quot;Dracula&quot; : l&#39;oeuvre</text>
<text text-anchor="middle" x="65.5" y="-485.8" font-family="Times New Roman,serif" font-size="14.00">de Bram Stoker et le</text>
<text text-anchor="middle" x="65.5" y="-470.8" font-family="Times New Roman,serif" font-size="14.00">film de Francis F.</text>
<text text-anchor="middle" x="65.5" y="-455.8" font-family="Times New Roman,serif" font-size="14.00">Coppola</text>
</g>
<!-- UMLRM0082&#45;&gt;UMLRM0081 -->
<g id="edge1" class="edge">
<title>UMLRM0082&#45;&gt;UMLRM0081</title>
<path fill="none" stroke="black" d="M65.5,-397.27C65.5,-409.75 65.5,-423.56 65.5,-436.29"/>
<polygon fill="black" stroke="black" points="62,-436.11 65.5,-446.11 69,-436.11 62,-436.11"/>
<text text-anchor="middle" x="105.5" y="-418.8" font-family="Times New Roman,serif" font-size="14.00">Expression de</text>
</g>
<!-- UMLRM0083 -->
<g id="node3" class="node">
<title>UMLRM0083</title>
<polygon fill="none" stroke="black" points="104.5,-263 26.5,-263 26.5,0 104.5,0 104.5,-263"/>
<text text-anchor="middle" x="65.5" y="-247.8" font-family="Times New Roman,serif" font-size="14.00">&quot;Dracula&quot;,</text>
<text text-anchor="middle" x="65.5" y="-232.8" font-family="Times New Roman,serif" font-size="14.00">ouvrage</text>
<text text-anchor="middle" x="65.5" y="-217.8" font-family="Times New Roman,serif" font-size="14.00">dirigé par</text>
<text text-anchor="middle" x="65.5" y="-202.8" font-family="Times New Roman,serif" font-size="14.00">Gilles</text>
<text text-anchor="middle" x="65.5" y="-187.8" font-family="Times New Roman,serif" font-size="14.00">Menegaldo</text>
<text text-anchor="middle" x="65.5" y="-172.8" font-family="Times New Roman,serif" font-size="14.00">et</text>
<text text-anchor="middle" x="65.5" y="-157.8" font-family="Times New Roman,serif" font-size="14.00">Dominique</text>
<text text-anchor="middle" x="65.5" y="-142.8" font-family="Times New Roman,serif" font-size="14.00">Sipière,</text>
<text text-anchor="middle" x="65.5" y="-127.8" font-family="Times New Roman,serif" font-size="14.00">Ellipses &#45;</text>
<text text-anchor="middle" x="65.5" y="-112.8" font-family="Times New Roman,serif" font-size="14.00">Aubin</text>
<text text-anchor="middle" x="65.5" y="-97.8" font-family="Times New Roman,serif" font-size="14.00">imprimeur,</text>
<text text-anchor="middle" x="65.5" y="-82.8" font-family="Times New Roman,serif" font-size="14.00">2005, 1</text>
<text text-anchor="middle" x="65.5" y="-67.8" font-family="Times New Roman,serif" font-size="14.00">volume</text>
<text text-anchor="middle" x="65.5" y="-52.8" font-family="Times New Roman,serif" font-size="14.00">(379</text>
<text text-anchor="middle" x="65.5" y="-37.8" font-family="Times New Roman,serif" font-size="14.00">pages),</text>
<text text-anchor="middle" x="65.5" y="-22.8" font-family="Times New Roman,serif" font-size="14.00">couverture</text>
<text text-anchor="middle" x="65.5" y="-7.8" font-family="Times New Roman,serif" font-size="14.00">illustrée</text>
</g>
<!-- UMLRM0083&#45;&gt;UMLRM0082 -->
<g id="edge2" class="edge">
<title>UMLRM0083&#45;&gt;UMLRM0082</title>
<path fill="none" stroke="black" d="M65.5,-263.24C65.5,-277.08 65.5,-290.5 65.5,-302.59"/>
<polygon fill="black" stroke="black" points="62,-302.24 65.5,-312.24 69,-302.24 62,-302.24"/>
<text text-anchor="middle" x="112" y="-284.8" font-family="Times New Roman,serif" font-size="14.00">Manifestation de</text>
</g>
</g>
</svg>
