<?xml version="1.0" encoding="UTF-8" standalone="no"?>
<!DOCTYPE svg PUBLIC "-//W3C//DTD SVG 1.1//EN"
 "http://www.w3.org/Graphics/SVG/1.1/DTD/svg11.dtd">
<!-- Generated by graphviz version 7.0.3 (20221126.0506)
 -->
<!-- Title: UMLRM0075 Pages: 1 -->
<svg width="155pt" height="464pt"
 viewBox="0.00 0.00 154.50 464.00" xmlns="http://www.w3.org/2000/svg" xmlns:xlink="http://www.w3.org/1999/xlink">
<g id="graph0" class="graph" transform="scale(1 1) rotate(0) translate(4 460)">
<title>UMLRM0075</title>
<polygon fill="white" stroke="none" points="-4,4 -4,-460 150.5,-460 150.5,4 -4,4"/>
<!-- UMLRM0075 -->
<g id="node1" class="node">
<title>UMLRM0075</title>
<polygon fill="none" stroke="red" points="104,-456 3,-456 3,-403 104,-403 104,-456"/>
<text text-anchor="middle" x="53.5" y="-440.8" font-family="Times New Roman,serif" font-size="14.00">Stoker, Bram</text>
<text text-anchor="middle" x="53.5" y="-425.8" font-family="Times New Roman,serif" font-size="14.00">(1847&#45;1912),</text>
<text text-anchor="middle" x="53.5" y="-410.8" font-family="Times New Roman,serif" font-size="14.00">Dracula&#39;s guest</text>
</g>
<!-- UMLRM0076 -->
<g id="node2" class="node">
<title>UMLRM0076</title>
<polygon fill="none" stroke="black" points="107,-352 0,-352 0,-269 107,-269 107,-352"/>
<text text-anchor="middle" x="53.5" y="-336.8" font-family="Times New Roman,serif" font-size="14.00">Stoker, Bram</text>
<text text-anchor="middle" x="53.5" y="-321.8" font-family="Times New Roman,serif" font-size="14.00">(1847&#45;1912),</text>
<text text-anchor="middle" x="53.5" y="-306.8" font-family="Times New Roman,serif" font-size="14.00">Dracula’s guest,</text>
<text text-anchor="middle" x="53.5" y="-291.8" font-family="Times New Roman,serif" font-size="14.00">Français, Finné,</text>
<text text-anchor="middle" x="53.5" y="-276.8" font-family="Times New Roman,serif" font-size="14.00">Texte noté</text>
</g>
<!-- UMLRM0076&#45;&gt;UMLRM0075 -->
<g id="edge1" class="edge">
<title>UMLRM0076&#45;&gt;UMLRM0075</title>
<path fill="none" stroke="black" d="M53.5,-352.42C53.5,-365.11 53.5,-379 53.5,-391.41"/>
<polygon fill="black" stroke="black" points="50,-391.25 53.5,-401.25 57,-391.25 50,-391.25"/>
<text text-anchor="middle" x="93.5" y="-373.8" font-family="Times New Roman,serif" font-size="14.00">Expression de</text>
</g>
<!-- UMLRM0077 -->
<g id="node3" class="node">
<title>UMLRM0077</title>
<polygon fill="none" stroke="black" points="91.5,-218 15.5,-218 15.5,0 91.5,0 91.5,-218"/>
<text text-anchor="middle" x="53.5" y="-202.8" font-family="Times New Roman,serif" font-size="14.00">Dracula &#45;</text>
<text text-anchor="middle" x="53.5" y="-187.8" font-family="Times New Roman,serif" font-size="14.00">suivi de</text>
<text text-anchor="middle" x="53.5" y="-172.8" font-family="Times New Roman,serif" font-size="14.00">L&#39;invité</text>
<text text-anchor="middle" x="53.5" y="-157.8" font-family="Times New Roman,serif" font-size="14.00">de</text>
<text text-anchor="middle" x="53.5" y="-142.8" font-family="Times New Roman,serif" font-size="14.00">Dracula,</text>
<text text-anchor="middle" x="53.5" y="-127.8" font-family="Times New Roman,serif" font-size="14.00">Bram</text>
<text text-anchor="middle" x="53.5" y="-112.8" font-family="Times New Roman,serif" font-size="14.00">Stoker,</text>
<text text-anchor="middle" x="53.5" y="-97.8" font-family="Times New Roman,serif" font-size="14.00">Pocket,</text>
<text text-anchor="middle" x="53.5" y="-82.8" font-family="Times New Roman,serif" font-size="14.00">2011, 1</text>
<text text-anchor="middle" x="53.5" y="-67.8" font-family="Times New Roman,serif" font-size="14.00">volume</text>
<text text-anchor="middle" x="53.5" y="-52.8" font-family="Times New Roman,serif" font-size="14.00">(575</text>
<text text-anchor="middle" x="53.5" y="-37.8" font-family="Times New Roman,serif" font-size="14.00">pages),</text>
<text text-anchor="middle" x="53.5" y="-22.8" font-family="Times New Roman,serif" font-size="14.00">couverture</text>
<text text-anchor="middle" x="53.5" y="-7.8" font-family="Times New Roman,serif" font-size="14.00">illustrée</text>
</g>
<!-- UMLRM0077&#45;&gt;UMLRM0076 -->
<g id="edge2" class="edge">
<title>UMLRM0077&#45;&gt;UMLRM0076</title>
<path fill="none" stroke="black" d="M53.5,-218.22C53.5,-231.82 53.5,-245.22 53.5,-257.38"/>
<polygon fill="black" stroke="black" points="50,-257.11 53.5,-267.11 57,-257.11 50,-257.11"/>
<text text-anchor="middle" x="100" y="-239.8" font-family="Times New Roman,serif" font-size="14.00">Manifestation de</text>
</g>
</g>
</svg>
