<?xml version="1.0" encoding="UTF-8" standalone="no"?>
<!DOCTYPE svg PUBLIC "-//W3C//DTD SVG 1.1//EN"
 "http://www.w3.org/Graphics/SVG/1.1/DTD/svg11.dtd">
<!-- Generated by graphviz version 7.0.3 (20221126.0506)
 -->
<!-- Title: UMLRM0078 Pages: 1 -->
<svg width="1440pt" height="33pt"
 viewBox="0.00 0.00 1440.00 33.08" xmlns="http://www.w3.org/2000/svg" xmlns:xlink="http://www.w3.org/1999/xlink">
<g id="graph0" class="graph" transform="scale(0.751741 0.751741) rotate(0) translate(4 40)">
<title>UMLRM0078</title>
<polygon fill="white" stroke="none" points="-4,4 -4,-40 1911.55,-40 1911.55,4 -4,4"/>
<!-- UMLRM0078 -->
<g id="node1" class="node">
<title>UMLRM0078</title>
<ellipse fill="none" stroke="black" cx="111.14" cy="-18" rx="111.28" ry="18"/>
<text text-anchor="middle" x="111.14" y="-14.3" font-family="Times New Roman,serif" font-size="14.00">Bram Stoker&#39;s Dracula, film</text>
</g>
<!-- UMLRM0079 -->
<g id="node2" class="node">
<title>UMLRM0079</title>
<ellipse fill="none" stroke="black" cx="449.42" cy="-18" rx="111.28" ry="18"/>
<text text-anchor="middle" x="449.42" y="-14.3" font-family="Times New Roman,serif" font-size="14.00">Bram Stoker&#39;s Dracula, film</text>
</g>
<!-- UMLRM0078&#45;&gt;UMLRM0079 -->
<g id="edge1" class="edge">
<title>UMLRM0078&#45;&gt;UMLRM0079</title>
<path fill="none" stroke="black" d="M222.72,-18C255.91,-18 292.51,-18 326.4,-18"/>
<polygon fill="black" stroke="black" points="326.26,-21.5 336.26,-18 326.26,-14.5 326.26,-21.5"/>
<text text-anchor="middle" x="280.28" y="-21.8" font-family="Times New Roman,serif" font-size="14.00">Expression de</text>
</g>
<!-- UMLRM0080 -->
<g id="node3" class="node">
<title>UMLRM0080</title>
<ellipse fill="none" stroke="black" cx="1298.56" cy="-18" rx="608.99" ry="18"/>
<text text-anchor="middle" x="1298.56" y="-14.3" font-family="Times New Roman,serif" font-size="14.00">Bram Stoker&#39;s Dracula, Gary Oldman, Winona Ryder, Anthony Hopkins... [et autres], [acteurs], Sony pictures entertainment, 1993 &#45; 1992, 2 LaserDiscs, &#160;4/3, NTSC</text>
</g>
<!-- UMLRM0079&#45;&gt;UMLRM0080 -->
<g id="edge2" class="edge">
<title>UMLRM0079&#45;&gt;UMLRM0080</title>
<path fill="none" stroke="black" d="M561.17,-18C594.9,-18 634.6,-18 677.81,-18"/>
<polygon fill="black" stroke="black" points="677.65,-21.5 687.65,-18 677.65,-14.5 677.65,-21.5"/>
<text text-anchor="middle" x="625.06" y="-21.8" font-family="Times New Roman,serif" font-size="14.00">Manifestation de</text>
</g>
</g>
</svg>
