<?xml version="1.0" encoding="UTF-8" standalone="no"?>
<!DOCTYPE svg PUBLIC "-//W3C//DTD SVG 1.1//EN"
 "http://www.w3.org/Graphics/SVG/1.1/DTD/svg11.dtd">
<!-- Generated by graphviz version 7.0.3 (20221126.0506)
 -->
<!-- Title: UMLRM0087 Pages: 1 -->
<svg width="1440pt" height="21pt"
 viewBox="0.00 0.00 1440.00 20.97" xmlns="http://www.w3.org/2000/svg" xmlns:xlink="http://www.w3.org/1999/xlink">
<g id="graph0" class="graph" transform="scale(0.476544 0.476544) rotate(0) translate(4 40)">
<title>UMLRM0087</title>
<polygon fill="white" stroke="none" points="-4,4 -4,-40 3017.75,-40 3017.75,4 -4,4"/>
<!-- UMLRM0087 -->
<g id="node1" class="node">
<title>UMLRM0087</title>
<ellipse fill="none" stroke="black" cx="2674.48" cy="-18" rx="339.04" ry="18"/>
<text text-anchor="middle" x="2674.48" y="-14.3" font-family="Times New Roman,serif" font-size="14.00">Valls de Gomis, Estelle (1973&#45;...), Le vampire au fil des siècles : enquête autour d&#39;un mythe</text>
</g>
<!-- UMLRM0088 -->
<g id="node2" class="node">
<title>UMLRM0088</title>
<ellipse fill="none" stroke="black" cx="1837.05" cy="-18" rx="382.33" ry="18"/>
<text text-anchor="middle" x="1837.05" y="-14.3" font-family="Times New Roman,serif" font-size="14.00">Valls de Gomis, Estelle (1973&#45;...), Le vampire au fil des siècles : enquête autour d&#39;un mythe, Texte noté</text>
</g>
<!-- UMLRM0088&#45;&gt;UMLRM0087 -->
<g id="edge1" class="edge">
<title>UMLRM0088&#45;&gt;UMLRM0087</title>
<path fill="none" stroke="black" d="M2219.7,-18C2254.43,-18 2289.49,-18 2323.92,-18"/>
<polygon fill="black" stroke="black" points="2323.56,-21.5 2333.56,-18 2323.56,-14.5 2323.56,-21.5"/>
<text text-anchor="middle" x="2277.21" y="-21.8" font-family="Times New Roman,serif" font-size="14.00">Expression de</text>
</g>
<!-- UMLRM0089 -->
<g id="node3" class="node">
<title>UMLRM0089</title>
<ellipse fill="none" stroke="black" cx="662.94" cy="-18" rx="662.88" ry="18"/>
<text text-anchor="middle" x="662.94" y="-14.3" font-family="Times New Roman,serif" font-size="14.00">Le vampire au fil des siècles, Estelle Valls de Gomis, Cheminements &#45; Imprimerie Darantière, DL 2005, 1 volume (471 pages&#45;[16] pages de planches.), couverture illustrée en couleur</text>
</g>
<!-- UMLRM0089&#45;&gt;UMLRM0088 -->
<g id="edge2" class="edge">
<title>UMLRM0089&#45;&gt;UMLRM0088</title>
<path fill="none" stroke="black" d="M1326.21,-18C1365.98,-18 1405.27,-18 1443.33,-18"/>
<polygon fill="black" stroke="black" points="1443.06,-21.5 1453.06,-18 1443.06,-14.5 1443.06,-21.5"/>
<text text-anchor="middle" x="1390.38" y="-21.8" font-family="Times New Roman,serif" font-size="14.00">Manifestation de</text>
</g>
</g>
</svg>
