<?xml version="1.0" encoding="UTF-8" standalone="no"?>
<!DOCTYPE svg PUBLIC "-//W3C//DTD SVG 1.1//EN"
 "http://www.w3.org/Graphics/SVG/1.1/DTD/svg11.dtd">
<!-- Generated by graphviz version 7.0.3 (20221126.0506)
 -->
<!-- Title: UMLRM0099 Pages: 1 -->
<svg width="1440pt" height="78pt"
 viewBox="0.00 0.00 1440.00 78.01" xmlns="http://www.w3.org/2000/svg" xmlns:xlink="http://www.w3.org/1999/xlink">
<g id="graph0" class="graph" transform="scale(0.796037 0.796037) rotate(0) translate(4 94)">
<title>UMLRM0099</title>
<polygon fill="white" stroke="none" points="-4,4 -4,-94 1804.96,-94 1804.96,4 -4,4"/>
<!-- UMLRM0099 -->
<g id="node1" class="node">
<title>UMLRM0099</title>
<ellipse fill="none" stroke="black" cx="1651.48" cy="-45" rx="149.47" ry="18"/>
<text text-anchor="middle" x="1651.48" y="-41.3" font-family="Times New Roman,serif" font-size="14.00">Druillet, Philippe (1944&#45;....), Nosferatu</text>
</g>
<!-- UMLRM0100 -->
<g id="node2" class="node">
<title>UMLRM0100</title>
<ellipse fill="none" stroke="black" cx="1150.71" cy="-45" rx="235.06" ry="18"/>
<text text-anchor="middle" x="1150.71" y="-41.3" font-family="Times New Roman,serif" font-size="14.00">Druillet, Philippe (1944&#45;....), Nosferatu, Texte noté. Image fixe</text>
</g>
<!-- UMLRM0100&#45;&gt;UMLRM0099 -->
<g id="edge1" class="edge">
<title>UMLRM0100&#45;&gt;UMLRM0099</title>
<path fill="none" stroke="black" d="M1386.12,-45C1421.45,-45 1457.18,-45 1490.47,-45"/>
<polygon fill="black" stroke="black" points="1490.14,-48.5 1500.14,-45 1490.14,-41.5 1490.14,-48.5"/>
<text text-anchor="middle" x="1443.99" y="-48.8" font-family="Times New Roman,serif" font-size="14.00">Expression de</text>
</g>
<!-- UMLRM0101 -->
<g id="node3" class="node">
<title>UMLRM0101</title>
<ellipse fill="none" stroke="black" cx="393.22" cy="-72" rx="393.43" ry="18"/>
<text text-anchor="middle" x="393.22" y="-68.3" font-family="Times New Roman,serif" font-size="14.00">Nosferatu, [texte et dessins de] Druillet, Dargaud &#45; Imprimerie Publiphotoffset, 1988, 1 volume (63 pages)</text>
</g>
<!-- UMLRM0101&#45;&gt;UMLRM0100 -->
<g id="edge2" class="edge">
<title>UMLRM0101&#45;&gt;UMLRM0100</title>
<path fill="none" stroke="black" d="M706.96,-60.82C780.02,-58.21 856.42,-55.48 924.8,-53.04"/>
<polygon fill="black" stroke="black" points="924.76,-56.54 934.63,-52.69 924.51,-49.55 924.76,-56.54"/>
<text text-anchor="middle" x="850.93" y="-59.8" font-family="Times New Roman,serif" font-size="14.00">Manifestation de</text>
</g>
<!-- UMLRM0104 -->
<g id="node4" class="node">
<title>UMLRM0104</title>
<ellipse fill="none" stroke="black" cx="393.22" cy="-18" rx="350.14" ry="18"/>
<text text-anchor="middle" x="393.22" y="-14.3" font-family="Times New Roman,serif" font-size="14.00">Nosferatu, Druillet, Albin Michel, 2001, 1 volume (non paginé [55] pages), couverture illustrée</text>
</g>
<!-- UMLRM0104&#45;&gt;UMLRM0100 -->
<g id="edge3" class="edge">
<title>UMLRM0104&#45;&gt;UMLRM0100</title>
<path fill="none" stroke="black" d="M691.25,-27.75C759.02,-30.05 830.71,-32.55 897.43,-35 907.91,-35.38 918.64,-35.79 929.48,-36.19"/>
<polygon fill="black" stroke="black" points="929.17,-39.69 939.29,-36.57 929.43,-32.69 929.17,-39.69"/>
<text text-anchor="middle" x="850.93" y="-38.8" font-family="Times New Roman,serif" font-size="14.00">Manifestation de</text>
</g>
</g>
</svg>
