<?xml version="1.0" encoding="UTF-8" standalone="no"?>
<!DOCTYPE svg PUBLIC "-//W3C//DTD SVG 1.1//EN"
 "http://www.w3.org/Graphics/SVG/1.1/DTD/svg11.dtd">
<!-- Generated by graphviz version 7.0.3 (20221126.0506)
 -->
<!-- Title: UMLRM0166 Pages: 1 -->
<svg width="1440pt" height="43pt"
 viewBox="0.00 0.00 1440.00 43.03" xmlns="http://www.w3.org/2000/svg" xmlns:xlink="http://www.w3.org/1999/xlink">
<g id="graph0" class="graph" transform="scale(0.978067 0.978067) rotate(0) translate(4 40)">
<title>UMLRM0166</title>
<polygon fill="white" stroke="none" points="-4,4 -4,-40 1468.29,-40 1468.29,4 -4,4"/>
<!-- UMLRM0166 -->
<g id="node1" class="node">
<title>UMLRM0166</title>
<ellipse fill="none" stroke="black" cx="1407.75" cy="-18" rx="56.59" ry="18"/>
<text text-anchor="middle" x="1407.75" y="-14.3" font-family="Times New Roman,serif" font-size="14.00">Guy Maddin</text>
</g>
<!-- UMLRM0167 -->
<g id="node2" class="node">
<title>UMLRM0167</title>
<ellipse fill="none" stroke="black" cx="1124.71" cy="-18" rx="110.48" ry="18"/>
<text text-anchor="middle" x="1124.71" y="-14.3" font-family="Times New Roman,serif" font-size="14.00">Guy Maddin, Image animée</text>
</g>
<!-- UMLRM0167&#45;&gt;UMLRM0166 -->
<g id="edge1" class="edge">
<title>UMLRM0167&#45;&gt;UMLRM0166</title>
<path fill="none" stroke="black" d="M1235.57,-18C1270.68,-18 1308.46,-18 1339.57,-18"/>
<polygon fill="black" stroke="black" points="1339.21,-21.5 1349.21,-18 1339.21,-14.5 1339.21,-21.5"/>
<text text-anchor="middle" x="1293.2" y="-21.8" font-family="Times New Roman,serif" font-size="14.00">Expression de</text>
</g>
<!-- UMLRM0168 -->
<g id="node3" class="node">
<title>UMLRM0168</title>
<ellipse fill="none" stroke="black" cx="442.61" cy="-18" rx="442.72" ry="18"/>
<text text-anchor="middle" x="442.61" y="-14.3" font-family="Times New Roman,serif" font-size="14.00">Guy Maddin, ED distribution &#45; ED distribution, [DL 2012], 4 DVD vidéo, monoface simple couche, PAL, toutes zones</text>
</g>
<!-- UMLRM0168&#45;&gt;UMLRM0167 -->
<g id="edge2" class="edge">
<title>UMLRM0168&#45;&gt;UMLRM0167</title>
<path fill="none" stroke="black" d="M885.37,-18C927.79,-18 967.89,-18 1002.66,-18"/>
<polygon fill="black" stroke="black" points="1002.25,-21.5 1012.25,-18 1002.25,-14.5 1002.25,-21.5"/>
<text text-anchor="middle" x="949.72" y="-21.8" font-family="Times New Roman,serif" font-size="14.00">Manifestation de</text>
</g>
</g>
</svg>
