<?xml version="1.0" encoding="UTF-8" standalone="no"?>
<!DOCTYPE svg PUBLIC "-//W3C//DTD SVG 1.1//EN"
 "http://www.w3.org/Graphics/SVG/1.1/DTD/svg11.dtd">
<!-- Generated by graphviz version 7.0.3 (20221126.0506)
 -->
<!-- Title: UMLRM0007 Pages: 1 -->
<svg width="1440pt" height="38pt"
 viewBox="0.00 0.00 1440.00 37.65" xmlns="http://www.w3.org/2000/svg" xmlns:xlink="http://www.w3.org/1999/xlink">
<g id="graph0" class="graph" transform="scale(0.855679 0.855679) rotate(0) translate(4 40)">
<title>UMLRM0007</title>
<polygon fill="white" stroke="none" points="-4,4 -4,-40 1678.87,-40 1678.87,4 -4,4"/>
<!-- UMLRM0007 -->
<g id="node1" class="node">
<title>UMLRM0007</title>
<ellipse fill="none" stroke="black" cx="142.34" cy="-18" rx="142.17" ry="18"/>
<text text-anchor="middle" x="142.34" y="-14.3" font-family="Times New Roman,serif" font-size="14.00"> Nosferatu, Phantom der Nacht, film</text>
</g>
<!-- UMLRM0008 -->
<g id="node2" class="node">
<title>UMLRM0008</title>
<ellipse fill="none" stroke="black" cx="540.41" cy="-18" rx="139.98" ry="18"/>
<text text-anchor="middle" x="540.41" y="-14.3" font-family="Times New Roman,serif" font-size="14.00">Nosferatu, Phantom der Nacht, film</text>
</g>
<!-- UMLRM0007&#45;&gt;UMLRM0008 -->
<g id="edge1" class="edge">
<title>UMLRM0007&#45;&gt;UMLRM0008</title>
<path fill="none" stroke="black" d="M284.93,-18C318.55,-18 354.54,-18 388.55,-18"/>
<polygon fill="black" stroke="black" points="388.49,-21.5 398.49,-18 388.49,-14.5 388.49,-21.5"/>
<text text-anchor="middle" x="342.67" y="-21.8" font-family="Times New Roman,serif" font-size="14.00">Expression de</text>
</g>
<!-- UMLRM0009 -->
<g id="node3" class="node">
<title>UMLRM0009</title>
<ellipse fill="none" stroke="black" cx="1242.01" cy="-18" rx="432.72" ry="18"/>
<text text-anchor="middle" x="1242.01" y="-14.3" font-family="Times New Roman,serif" font-size="14.00">Nosferatu, fantôme de la nuit, un film de Werner Herzog, &#160;Gaumont vidéo &#45; &#160;Gaumont vidéo, [DL 2010], 1 BD vidéo</text>
</g>
<!-- UMLRM0008&#45;&gt;UMLRM0009 -->
<g id="edge2" class="edge">
<title>UMLRM0008&#45;&gt;UMLRM0009</title>
<path fill="none" stroke="black" d="M680.89,-18C716.12,-18 755.89,-18 797.57,-18"/>
<polygon fill="black" stroke="black" points="797.56,-21.5 807.56,-18 797.56,-14.5 797.56,-21.5"/>
<text text-anchor="middle" x="744.65" y="-21.8" font-family="Times New Roman,serif" font-size="14.00">Manifestation de</text>
</g>
</g>
</svg>
