<?xml version="1.0" encoding="UTF-8" standalone="no"?>
<!DOCTYPE svg PUBLIC "-//W3C//DTD SVG 1.1//EN"
 "http://www.w3.org/Graphics/SVG/1.1/DTD/svg11.dtd">
<!-- Generated by graphviz version 7.0.3 (20221126.0506)
 -->
<!-- Title: UMLRM0011 Pages: 1 -->
<svg width="164pt" height="509pt"
 viewBox="0.00 0.00 164.00 509.00" xmlns="http://www.w3.org/2000/svg" xmlns:xlink="http://www.w3.org/1999/xlink">
<g id="graph0" class="graph" transform="scale(1 1) rotate(0) translate(4 505)">
<title>UMLRM0011</title>
<polygon fill="white" stroke="none" points="-4,4 -4,-505 160,-505 160,4 -4,4"/>
<!-- UMLRM0011 -->
<g id="node1" class="node">
<title>UMLRM0011</title>
<polygon fill="none" stroke="red" points="126,-352 0,-352 0,-239 126,-239 126,-352"/>
<text text-anchor="middle" x="63" y="-336.8" font-family="Times New Roman,serif" font-size="14.00">Palma, Paola</text>
<text text-anchor="middle" x="63" y="-321.8" font-family="Times New Roman,serif" font-size="14.00">(1971&#45;….) &#45;</text>
<text text-anchor="middle" x="63" y="-306.8" font-family="Times New Roman,serif" font-size="14.00">Vezyroglou, Dimitri</text>
<text text-anchor="middle" x="63" y="-291.8" font-family="Times New Roman,serif" font-size="14.00">(1970&#45;….),</text>
<text text-anchor="middle" x="63" y="-276.8" font-family="Times New Roman,serif" font-size="14.00">&quot;Nosferatu le</text>
<text text-anchor="middle" x="63" y="-261.8" font-family="Times New Roman,serif" font-size="14.00">vampire&quot;, Français,</text>
<text text-anchor="middle" x="63" y="-246.8" font-family="Times New Roman,serif" font-size="14.00">Texte noté</text>
</g>
<!-- UMLRM0010 -->
<g id="node2" class="node">
<title>UMLRM0010</title>
<polygon fill="none" stroke="black" points="126,-501 0,-501 0,-403 126,-403 126,-501"/>
<text text-anchor="middle" x="63" y="-485.8" font-family="Times New Roman,serif" font-size="14.00">Palma, Paola</text>
<text text-anchor="middle" x="63" y="-470.8" font-family="Times New Roman,serif" font-size="14.00">(1971&#45;….) &#45;</text>
<text text-anchor="middle" x="63" y="-455.8" font-family="Times New Roman,serif" font-size="14.00">Vezyroglou, Dimitri</text>
<text text-anchor="middle" x="63" y="-440.8" font-family="Times New Roman,serif" font-size="14.00">(1970&#45;….),</text>
<text text-anchor="middle" x="63" y="-425.8" font-family="Times New Roman,serif" font-size="14.00">&quot;Nosferatu le</text>
<text text-anchor="middle" x="63" y="-410.8" font-family="Times New Roman,serif" font-size="14.00">vampire&quot;</text>
</g>
<!-- UMLRM0011&#45;&gt;UMLRM0010 -->
<g id="edge1" class="edge">
<title>UMLRM0011&#45;&gt;UMLRM0010</title>
<path fill="none" stroke="black" d="M63,-352.28C63,-365.05 63,-378.67 63,-391.58"/>
<polygon fill="black" stroke="black" points="59.5,-391.2 63,-401.2 66.5,-391.2 59.5,-391.2"/>
<text text-anchor="middle" x="103" y="-373.8" font-family="Times New Roman,serif" font-size="14.00">Expression de</text>
</g>
<!-- UMLRM0012 -->
<g id="node3" class="node">
<title>UMLRM0012</title>
<polygon fill="none" stroke="black" points="103,-188 23,-188 23,0 103,0 103,-188"/>
<text text-anchor="middle" x="63" y="-172.8" font-family="Times New Roman,serif" font-size="14.00">&quot;Nosferatu</text>
<text text-anchor="middle" x="63" y="-157.8" font-family="Times New Roman,serif" font-size="14.00">le</text>
<text text-anchor="middle" x="63" y="-142.8" font-family="Times New Roman,serif" font-size="14.00">vampire,</text>
<text text-anchor="middle" x="63" y="-127.8" font-family="Times New Roman,serif" font-size="14.00">Paola</text>
<text text-anchor="middle" x="63" y="-112.8" font-family="Times New Roman,serif" font-size="14.00">Palma,</text>
<text text-anchor="middle" x="63" y="-97.8" font-family="Times New Roman,serif" font-size="14.00">Dimitri Ve</text>
<text text-anchor="middle" x="63" y="-82.8" font-family="Times New Roman,serif" font-size="14.00">zyroglou,</text>
<text text-anchor="middle" x="63" y="-67.8" font-family="Times New Roman,serif" font-size="14.00">Atlande,</text>
<text text-anchor="middle" x="63" y="-52.8" font-family="Times New Roman,serif" font-size="14.00">DL 2021, 1</text>
<text text-anchor="middle" x="63" y="-37.8" font-family="Times New Roman,serif" font-size="14.00">volume</text>
<text text-anchor="middle" x="63" y="-22.8" font-family="Times New Roman,serif" font-size="14.00">(221</text>
<text text-anchor="middle" x="63" y="-7.8" font-family="Times New Roman,serif" font-size="14.00">pages)</text>
</g>
<!-- UMLRM0012&#45;&gt;UMLRM0011 -->
<g id="edge2" class="edge">
<title>UMLRM0012&#45;&gt;UMLRM0011</title>
<path fill="none" stroke="black" d="M63,-188.32C63,-201.52 63,-214.87 63,-227.44"/>
<polygon fill="black" stroke="black" points="59.5,-227.23 63,-237.23 66.5,-227.23 59.5,-227.23"/>
<text text-anchor="middle" x="109.5" y="-209.8" font-family="Times New Roman,serif" font-size="14.00">Manifestation de</text>
</g>
</g>
</svg>
