<?xml version="1.0" encoding="UTF-8" standalone="no"?>
<!DOCTYPE svg PUBLIC "-//W3C//DTD SVG 1.1//EN"
 "http://www.w3.org/Graphics/SVG/1.1/DTD/svg11.dtd">
<!-- Generated by graphviz version 7.0.3 (20221126.0506)
 -->
<!-- Title: UMLRM0156 Pages: 1 -->
<svg width="1440pt" height="78pt"
 viewBox="0.00 0.00 1440.00 77.73" xmlns="http://www.w3.org/2000/svg" xmlns:xlink="http://www.w3.org/1999/xlink">
<g id="graph0" class="graph" transform="scale(0.793187 0.793187) rotate(0) translate(4 94)">
<title>UMLRM0156</title>
<polygon fill="white" stroke="none" points="-4,4 -4,-94 1811.46,-94 1811.46,4 -4,4"/>
<!-- UMLRM0156 -->
<g id="node1" class="node">
<title>UMLRM0156</title>
<ellipse fill="none" stroke="black" cx="128.04" cy="-45" rx="128.08" ry="18"/>
<text text-anchor="middle" x="128.04" y="-41.3" font-family="Times New Roman,serif" font-size="14.00">Glass, Philip (1937&#45;....), Dracula</text>
</g>
<!-- UMLRM0157 -->
<g id="node2" class="node">
<title>UMLRM0157</title>
<ellipse fill="none" stroke="black" cx="569.66" cy="-45" rx="197.66" ry="18"/>
<text text-anchor="middle" x="569.66" y="-41.3" font-family="Times New Roman,serif" font-size="14.00">Glass, Philip (1937&#45;....), Dracula, Musique exécutée</text>
</g>
<!-- UMLRM0156&#45;&gt;UMLRM0157 -->
<g id="edge1" class="edge">
<title>UMLRM0156&#45;&gt;UMLRM0157</title>
<path fill="none" stroke="black" d="M256.49,-45C288.98,-45 324.76,-45 360.14,-45"/>
<polygon fill="black" stroke="black" points="360.1,-48.5 370.1,-45 360.1,-41.5 360.1,-48.5"/>
<text text-anchor="middle" x="314.08" y="-48.8" font-family="Times New Roman,serif" font-size="14.00">Expression de</text>
</g>
<!-- UMLRM0158 -->
<g id="node3" class="node">
<title>UMLRM0158</title>
<ellipse fill="none" stroke="black" cx="1351.85" cy="-72" rx="407.53" ry="18"/>
<text text-anchor="middle" x="1351.85" y="-68.3" font-family="Times New Roman,serif" font-size="14.00">Dracula, music by Philip Glass, [WEA Europe] &#45; [distrib. Warner music France], [P 1999], 1 disque compact</text>
</g>
<!-- UMLRM0157&#45;&gt;UMLRM0158 -->
<g id="edge2" class="edge">
<title>UMLRM0157&#45;&gt;UMLRM0158</title>
<path fill="none" stroke="black" d="M755.55,-51.4C833.45,-54.09 926.6,-57.32 1015.82,-60.41"/>
<polygon fill="black" stroke="black" points="1015.62,-63.9 1025.74,-60.75 1015.86,-56.9 1015.62,-63.9"/>
<text text-anchor="middle" x="831.74" y="-58.8" font-family="Times New Roman,serif" font-size="14.00">Manifestation de</text>
</g>
<!-- UMLRM0160 -->
<g id="node4" class="node">
<title>UMLRM0160</title>
<ellipse fill="none" stroke="black" cx="1351.85" cy="-18" rx="455.72" ry="18"/>
<text text-anchor="middle" x="1351.85" y="-14.3" font-family="Times New Roman,serif" font-size="14.00">Dracula, Tod Browning, [réalisateur], Universal StudioCanal vidéo &#45; Universal StudioCanal vidéo, 2014 &#45; 2014, 1 BD vidéo</text>
</g>
<!-- UMLRM0157&#45;&gt;UMLRM0160 -->
<g id="edge3" class="edge">
<title>UMLRM0157&#45;&gt;UMLRM0160</title>
<path fill="none" stroke="black" d="M737.57,-35.19C753.68,-34.38 769.77,-33.64 785.24,-33 836.21,-30.9 889.78,-29.03 942.79,-27.39"/>
<polygon fill="black" stroke="black" points="942.69,-30.9 952.58,-27.09 942.47,-23.9 942.69,-30.9"/>
<text text-anchor="middle" x="831.74" y="-36.8" font-family="Times New Roman,serif" font-size="14.00">Manifestation de</text>
</g>
</g>
</svg>
