<?xml version="1.0" encoding="UTF-8" standalone="no"?>
<!DOCTYPE svg PUBLIC "-//W3C//DTD SVG 1.1//EN"
 "http://www.w3.org/Graphics/SVG/1.1/DTD/svg11.dtd">
<!-- Generated by graphviz version 7.0.3 (20221126.0506)
 -->
<!-- Title: UMLRM0147 Pages: 1 -->
<svg width="140pt" height="135pt"
 viewBox="0.00 0.00 139.50 135.00" xmlns="http://www.w3.org/2000/svg" xmlns:xlink="http://www.w3.org/1999/xlink">
<g id="graph0" class="graph" transform="scale(1 1) rotate(0) translate(4 131)">
<title>UMLRM0147</title>
<polygon fill="white" stroke="none" points="-4,4 -4,-131 135.5,-131 135.5,4 -4,4"/>
<!-- UMLRM0147 -->
<g id="node1" class="node">
<title>UMLRM0147</title>
<polygon fill="none" stroke="red" points="103,-127 0,-127 0,-89 103,-89 103,-127"/>
<text text-anchor="middle" x="51.5" y="-111.8" font-family="Times New Roman,serif" font-size="14.00">Nosferatu,</text>
<text text-anchor="middle" x="51.5" y="-96.8" font-family="Times New Roman,serif" font-size="14.00">spectacle, 2001</text>
</g>
<!-- UMLRM0148 -->
<g id="node2" class="node">
<title>UMLRM0148</title>
<polygon fill="none" stroke="black" points="103,-38 0,-38 0,0 103,0 103,-38"/>
<text text-anchor="middle" x="51.5" y="-22.8" font-family="Times New Roman,serif" font-size="14.00">Nosferatu,</text>
<text text-anchor="middle" x="51.5" y="-7.8" font-family="Times New Roman,serif" font-size="14.00">spectacle, 2001</text>
</g>
<!-- UMLRM0148&#45;&gt;UMLRM0147 -->
<g id="edge1" class="edge">
<title>UMLRM0148&#45;&gt;UMLRM0147</title>
<path fill="none" stroke="black" d="M51.5,-38.45C51.5,-49.75 51.5,-64.48 51.5,-77.39"/>
<polygon fill="black" stroke="black" points="48,-77.06 51.5,-87.06 55,-77.06 48,-77.06"/>
<text text-anchor="middle" x="91.5" y="-59.8" font-family="Times New Roman,serif" font-size="14.00">Expression de</text>
</g>
</g>
</svg>
