<?xml version="1.0" encoding="UTF-8" standalone="no"?>
<!DOCTYPE svg PUBLIC "-//W3C//DTD SVG 1.1//EN"
 "http://www.w3.org/Graphics/SVG/1.1/DTD/svg11.dtd">
<!-- Generated by graphviz version 7.0.3 (20221126.0506)
 -->
<!-- Title: UMLRM0187 Pages: 1 -->
<svg width="168pt" height="314pt"
 viewBox="0.00 0.00 168.00 314.00" xmlns="http://www.w3.org/2000/svg" xmlns:xlink="http://www.w3.org/1999/xlink">
<g id="graph0" class="graph" transform="scale(1 1) rotate(0) translate(4 310)">
<title>UMLRM0187</title>
<polygon fill="white" stroke="none" points="-4,4 -4,-310 164,-310 164,4 -4,4"/>
<!-- UMLRM0187 -->
<g id="node1" class="node">
<title>UMLRM0187</title>
<polygon fill="none" stroke="red" points="126,-217 8,-217 8,-149 126,-149 126,-217"/>
<text text-anchor="middle" x="67" y="-201.8" font-family="Times New Roman,serif" font-size="14.00">Stoker, Bram</text>
<text text-anchor="middle" x="67" y="-186.8" font-family="Times New Roman,serif" font-size="14.00">(1847&#45;1912),</text>
<text text-anchor="middle" x="67" y="-171.8" font-family="Times New Roman,serif" font-size="14.00">Dracula, Français,</text>
<text text-anchor="middle" x="67" y="-156.8" font-family="Times New Roman,serif" font-size="14.00">Parole énoncée</text>
</g>
<!-- UMLRM0004 -->
<g id="node2" class="node">
<title>UMLRM0004</title>
<polygon fill="none" stroke="black" points="134,-306 0,-306 0,-268 134,-268 134,-306"/>
<text text-anchor="middle" x="67" y="-290.8" font-family="Times New Roman,serif" font-size="14.00">Stoker, Bram</text>
<text text-anchor="middle" x="67" y="-275.8" font-family="Times New Roman,serif" font-size="14.00">(1847&#45;1912), Dracula</text>
</g>
<!-- UMLRM0187&#45;&gt;UMLRM0004 -->
<g id="edge1" class="edge">
<title>UMLRM0187&#45;&gt;UMLRM0004</title>
<path fill="none" stroke="black" d="M67,-217.4C67,-229.95 67,-244.12 67,-256.31"/>
<polygon fill="black" stroke="black" points="63.5,-256.19 67,-266.19 70.5,-256.19 63.5,-256.19"/>
<text text-anchor="middle" x="107" y="-238.8" font-family="Times New Roman,serif" font-size="14.00">Expression de</text>
</g>
<!-- UMLRM0188 -->
<g id="node3" class="node">
<title>UMLRM0188</title>
<polygon fill="none" stroke="black" points="106,-98 28,-98 28,0 106,0 106,-98"/>
<text text-anchor="middle" x="67" y="-82.8" font-family="Times New Roman,serif" font-size="14.00">Dracula,</text>
<text text-anchor="middle" x="67" y="-67.8" font-family="Times New Roman,serif" font-size="14.00">Bram</text>
<text text-anchor="middle" x="67" y="-52.8" font-family="Times New Roman,serif" font-size="14.00">Stoker, Li</text>
<text text-anchor="middle" x="67" y="-37.8" font-family="Times New Roman,serif" font-size="14.00">vraphone,</text>
<text text-anchor="middle" x="67" y="-22.8" font-family="Times New Roman,serif" font-size="14.00">[DL 2009],</text>
<text text-anchor="middle" x="67" y="-7.8" font-family="Times New Roman,serif" font-size="14.00">2 CD MP3</text>
</g>
<!-- UMLRM0188&#45;&gt;UMLRM0187 -->
<g id="edge2" class="edge">
<title>UMLRM0188&#45;&gt;UMLRM0187</title>
<path fill="none" stroke="black" d="M67,-98.4C67,-111.25 67,-125.05 67,-137.67"/>
<polygon fill="black" stroke="black" points="63.5,-137.34 67,-147.34 70.5,-137.34 63.5,-137.34"/>
<text text-anchor="middle" x="113.5" y="-119.8" font-family="Times New Roman,serif" font-size="14.00">Manifestation de</text>
</g>
</g>
</svg>
