<?xml version="1.0" encoding="UTF-8" standalone="no"?>
<!DOCTYPE svg PUBLIC "-//W3C//DTD SVG 1.1//EN"
 "http://www.w3.org/Graphics/SVG/1.1/DTD/svg11.dtd">
<!-- Generated by graphviz version 7.0.3 (20221126.0506)
 -->
<!-- Title: UMLRM0150 Pages: 1 -->
<svg width="162pt" height="494pt"
 viewBox="0.00 0.00 162.00 494.00" xmlns="http://www.w3.org/2000/svg" xmlns:xlink="http://www.w3.org/1999/xlink">
<g id="graph0" class="graph" transform="scale(1 1) rotate(0) translate(4 490)">
<title>UMLRM0150</title>
<polygon fill="white" stroke="none" points="-4,4 -4,-490 158,-490 158,4 -4,4"/>
<!-- UMLRM0150 -->
<g id="node1" class="node">
<title>UMLRM0150</title>
<polygon fill="none" stroke="red" points="122,-486 0,-486 0,-403 122,-403 122,-486"/>
<text text-anchor="middle" x="61" y="-470.8" font-family="Times New Roman,serif" font-size="14.00">Druillet, Philippe</text>
<text text-anchor="middle" x="61" y="-455.8" font-family="Times New Roman,serif" font-size="14.00">(1944&#45;....),</text>
<text text-anchor="middle" x="61" y="-440.8" font-family="Times New Roman,serif" font-size="14.00">[Illustrations pour</text>
<text text-anchor="middle" x="61" y="-425.8" font-family="Times New Roman,serif" font-size="14.00">&quot;Dracula&quot; de Bram</text>
<text text-anchor="middle" x="61" y="-410.8" font-family="Times New Roman,serif" font-size="14.00">Stoker]</text>
</g>
<!-- UMLRM0151 -->
<g id="node2" class="node">
<title>UMLRM0151</title>
<polygon fill="none" stroke="black" points="122,-352 0,-352 0,-269 122,-269 122,-352"/>
<text text-anchor="middle" x="61" y="-336.8" font-family="Times New Roman,serif" font-size="14.00">Druillet, Philippe</text>
<text text-anchor="middle" x="61" y="-321.8" font-family="Times New Roman,serif" font-size="14.00">(1944&#45;....),</text>
<text text-anchor="middle" x="61" y="-306.8" font-family="Times New Roman,serif" font-size="14.00">Illustrations pour</text>
<text text-anchor="middle" x="61" y="-291.8" font-family="Times New Roman,serif" font-size="14.00">&quot;Dracula&quot; de Bram</text>
<text text-anchor="middle" x="61" y="-276.8" font-family="Times New Roman,serif" font-size="14.00">Stoker, Image fixe</text>
</g>
<!-- UMLRM0151&#45;&gt;UMLRM0150 -->
<g id="edge1" class="edge">
<title>UMLRM0151&#45;&gt;UMLRM0150</title>
<path fill="none" stroke="black" d="M61,-352.18C61,-364.6 61,-378.43 61,-391.5"/>
<polygon fill="black" stroke="black" points="57.5,-391.21 61,-401.21 64.5,-391.21 57.5,-391.21"/>
<text text-anchor="middle" x="101" y="-373.8" font-family="Times New Roman,serif" font-size="14.00">Expression de</text>
</g>
<!-- UMLRM0110 -->
<g id="node3" class="node">
<title>UMLRM0110</title>
<polygon fill="none" stroke="black" points="99.5,-218 22.5,-218 22.5,0 99.5,0 99.5,-218"/>
<text text-anchor="middle" x="61" y="-202.8" font-family="Times New Roman,serif" font-size="14.00">Dracula,</text>
<text text-anchor="middle" x="61" y="-187.8" font-family="Times New Roman,serif" font-size="14.00">Bram</text>
<text text-anchor="middle" x="61" y="-172.8" font-family="Times New Roman,serif" font-size="14.00">Stoker,</text>
<text text-anchor="middle" x="61" y="-157.8" font-family="Times New Roman,serif" font-size="14.00">Éditions</text>
<text text-anchor="middle" x="61" y="-142.8" font-family="Times New Roman,serif" font-size="14.00">Opta,</text>
<text text-anchor="middle" x="61" y="-127.8" font-family="Times New Roman,serif" font-size="14.00">1968, 1</text>
<text text-anchor="middle" x="61" y="-112.8" font-family="Times New Roman,serif" font-size="14.00">volume</text>
<text text-anchor="middle" x="61" y="-97.8" font-family="Times New Roman,serif" font-size="14.00">(XX&#45;413</text>
<text text-anchor="middle" x="61" y="-82.8" font-family="Times New Roman,serif" font-size="14.00">pages), il</text>
<text text-anchor="middle" x="61" y="-67.8" font-family="Times New Roman,serif" font-size="14.00">lustration</text>
<text text-anchor="middle" x="61" y="-52.8" font-family="Times New Roman,serif" font-size="14.00">s en noir</text>
<text text-anchor="middle" x="61" y="-37.8" font-family="Times New Roman,serif" font-size="14.00">et blanc,</text>
<text text-anchor="middle" x="61" y="-22.8" font-family="Times New Roman,serif" font-size="14.00">cartonnage</text>
<text text-anchor="middle" x="61" y="-7.8" font-family="Times New Roman,serif" font-size="14.00">illustré</text>
</g>
<!-- UMLRM0110&#45;&gt;UMLRM0151 -->
<g id="edge2" class="edge">
<title>UMLRM0110&#45;&gt;UMLRM0151</title>
<path fill="none" stroke="black" d="M61,-218.22C61,-231.82 61,-245.22 61,-257.38"/>
<polygon fill="black" stroke="black" points="57.5,-257.11 61,-267.11 64.5,-257.11 57.5,-257.11"/>
<text text-anchor="middle" x="107.5" y="-239.8" font-family="Times New Roman,serif" font-size="14.00">Manifestation de</text>
</g>
</g>
</svg>
