<?xml version="1.0" encoding="UTF-8" standalone="no"?>
<!DOCTYPE svg PUBLIC "-//W3C//DTD SVG 1.1//EN"
 "http://www.w3.org/Graphics/SVG/1.1/DTD/svg11.dtd">
<!-- Generated by graphviz version 7.0.3 (20221126.0506)
 -->
<!-- Title: UMLRM0078 Pages: 1 -->
<svg width="149pt" height="494pt"
 viewBox="0.00 0.00 149.00 494.00" xmlns="http://www.w3.org/2000/svg" xmlns:xlink="http://www.w3.org/1999/xlink">
<g id="graph0" class="graph" transform="scale(1 1) rotate(0) translate(4 490)">
<title>UMLRM0078</title>
<polygon fill="white" stroke="none" points="-4,4 -4,-490 145,-490 145,4 -4,4"/>
<!-- UMLRM0078 -->
<g id="node1" class="node">
<title>UMLRM0078</title>
<polygon fill="none" stroke="red" points="96,-486 0,-486 0,-448 96,-448 96,-486"/>
<text text-anchor="middle" x="48" y="-470.8" font-family="Times New Roman,serif" font-size="14.00">Bram Stoker&#39;s</text>
<text text-anchor="middle" x="48" y="-455.8" font-family="Times New Roman,serif" font-size="14.00">Dracula, film</text>
</g>
<!-- UMLRM0079 -->
<g id="node2" class="node">
<title>UMLRM0079</title>
<polygon fill="none" stroke="black" points="96,-397 0,-397 0,-344 96,-344 96,-397"/>
<text text-anchor="middle" x="48" y="-381.8" font-family="Times New Roman,serif" font-size="14.00">Bram Stoker&#39;s</text>
<text text-anchor="middle" x="48" y="-366.8" font-family="Times New Roman,serif" font-size="14.00">Dracula, film,</text>
<text text-anchor="middle" x="48" y="-351.8" font-family="Times New Roman,serif" font-size="14.00">Anglais</text>
</g>
<!-- UMLRM0079&#45;&gt;UMLRM0078 -->
<g id="edge1" class="edge">
<title>UMLRM0079&#45;&gt;UMLRM0078</title>
<path fill="none" stroke="black" d="M48,-397.32C48,-409.42 48,-423.88 48,-436.41"/>
<polygon fill="black" stroke="black" points="44.5,-436.18 48,-446.18 51.5,-436.18 44.5,-436.18"/>
<text text-anchor="middle" x="88" y="-418.8" font-family="Times New Roman,serif" font-size="14.00">Expression de</text>
</g>
<!-- UMLRM0080 -->
<g id="node3" class="node">
<title>UMLRM0080</title>
<polygon fill="none" stroke="black" points="87,-293 9,-293 9,0 87,0 87,-293"/>
<text text-anchor="middle" x="48" y="-277.8" font-family="Times New Roman,serif" font-size="14.00">Bram</text>
<text text-anchor="middle" x="48" y="-262.8" font-family="Times New Roman,serif" font-size="14.00">Stoker&#39;s</text>
<text text-anchor="middle" x="48" y="-247.8" font-family="Times New Roman,serif" font-size="14.00">Dracula,</text>
<text text-anchor="middle" x="48" y="-232.8" font-family="Times New Roman,serif" font-size="14.00">Gary</text>
<text text-anchor="middle" x="48" y="-217.8" font-family="Times New Roman,serif" font-size="14.00">Oldman,</text>
<text text-anchor="middle" x="48" y="-202.8" font-family="Times New Roman,serif" font-size="14.00">Winona</text>
<text text-anchor="middle" x="48" y="-187.8" font-family="Times New Roman,serif" font-size="14.00">Ryder,</text>
<text text-anchor="middle" x="48" y="-172.8" font-family="Times New Roman,serif" font-size="14.00">Anthony</text>
<text text-anchor="middle" x="48" y="-157.8" font-family="Times New Roman,serif" font-size="14.00">Hopkins...</text>
<text text-anchor="middle" x="48" y="-142.8" font-family="Times New Roman,serif" font-size="14.00">[et</text>
<text text-anchor="middle" x="48" y="-127.8" font-family="Times New Roman,serif" font-size="14.00">autres],</text>
<text text-anchor="middle" x="48" y="-112.8" font-family="Times New Roman,serif" font-size="14.00">[acteurs],</text>
<text text-anchor="middle" x="48" y="-97.8" font-family="Times New Roman,serif" font-size="14.00">Sony</text>
<text text-anchor="middle" x="48" y="-82.8" font-family="Times New Roman,serif" font-size="14.00">pictures e</text>
<text text-anchor="middle" x="48" y="-67.8" font-family="Times New Roman,serif" font-size="14.00">ntertainme</text>
<text text-anchor="middle" x="48" y="-52.8" font-family="Times New Roman,serif" font-size="14.00">nt, 1993 &#45;</text>
<text text-anchor="middle" x="48" y="-37.8" font-family="Times New Roman,serif" font-size="14.00">1992, 2 La</text>
<text text-anchor="middle" x="48" y="-22.8" font-family="Times New Roman,serif" font-size="14.00">serDiscs,</text>
<text text-anchor="middle" x="48" y="-7.8" font-family="Times New Roman,serif" font-size="14.00">4/3, NTSC</text>
</g>
<!-- UMLRM0080&#45;&gt;UMLRM0079 -->
<g id="edge2" class="edge">
<title>UMLRM0080&#45;&gt;UMLRM0079</title>
<path fill="none" stroke="black" d="M48,-293.41C48,-307.68 48,-321.09 48,-332.56"/>
<polygon fill="black" stroke="black" points="44.5,-332.25 48,-342.25 51.5,-332.25 44.5,-332.25"/>
<text text-anchor="middle" x="94.5" y="-314.8" font-family="Times New Roman,serif" font-size="14.00">Manifestation de</text>
</g>
</g>
</svg>
