<?xml version="1.0" encoding="UTF-8" standalone="no"?>
<!DOCTYPE svg PUBLIC "-//W3C//DTD SVG 1.1//EN"
 "http://www.w3.org/Graphics/SVG/1.1/DTD/svg11.dtd">
<!-- Generated by graphviz version 7.0.3 (20221126.0506)
 -->
<!-- Title: UMLRM0002 Pages: 1 -->
<svg width="153pt" height="524pt"
 viewBox="0.00 0.00 152.50 524.00" xmlns="http://www.w3.org/2000/svg" xmlns:xlink="http://www.w3.org/1999/xlink">
<g id="graph0" class="graph" transform="scale(1 1) rotate(0) translate(4 520)">
<title>UMLRM0002</title>
<polygon fill="white" stroke="none" points="-4,4 -4,-520 148.5,-520 148.5,4 -4,4"/>
<!-- UMLRM0002 -->
<g id="node1" class="node">
<title>UMLRM0002</title>
<polygon fill="none" stroke="red" points="103,-412 0,-412 0,-344 103,-344 103,-412"/>
<text text-anchor="middle" x="51.5" y="-396.8" font-family="Times New Roman,serif" font-size="14.00">Nosferatu, eine</text>
<text text-anchor="middle" x="51.5" y="-381.8" font-family="Times New Roman,serif" font-size="14.00">Symphonie des</text>
<text text-anchor="middle" x="51.5" y="-366.8" font-family="Times New Roman,serif" font-size="14.00">Grauens, film,</text>
<text text-anchor="middle" x="51.5" y="-351.8" font-family="Times New Roman,serif" font-size="14.00">Français, 60mn</text>
</g>
<!-- UMLRM0001 -->
<g id="node2" class="node">
<title>UMLRM0001</title>
<polygon fill="none" stroke="black" points="103,-516 0,-516 0,-463 103,-463 103,-516"/>
<text text-anchor="middle" x="51.5" y="-500.8" font-family="Times New Roman,serif" font-size="14.00">Nosferatu, eine</text>
<text text-anchor="middle" x="51.5" y="-485.8" font-family="Times New Roman,serif" font-size="14.00">Symphonie des</text>
<text text-anchor="middle" x="51.5" y="-470.8" font-family="Times New Roman,serif" font-size="14.00">Grauens, film</text>
</g>
<!-- UMLRM0002&#45;&gt;UMLRM0001 -->
<g id="edge1" class="edge">
<title>UMLRM0002&#45;&gt;UMLRM0001</title>
<path fill="none" stroke="black" d="M51.5,-412.45C51.5,-424.65 51.5,-438.52 51.5,-451.05"/>
<polygon fill="black" stroke="black" points="48,-451.04 51.5,-461.04 55,-451.04 48,-451.04"/>
<text text-anchor="middle" x="91.5" y="-433.8" font-family="Times New Roman,serif" font-size="14.00">Expression de</text>
</g>
<!-- UMLRM0003 -->
<g id="node3" class="node">
<title>UMLRM0003</title>
<polygon fill="none" stroke="black" points="93.5,-293 9.5,-293 9.5,0 93.5,0 93.5,-293"/>
<text text-anchor="middle" x="51.5" y="-277.8" font-family="Times New Roman,serif" font-size="14.00">Nosferatu,</text>
<text text-anchor="middle" x="51.5" y="-262.8" font-family="Times New Roman,serif" font-size="14.00">Réalisatio</text>
<text text-anchor="middle" x="51.5" y="-247.8" font-family="Times New Roman,serif" font-size="14.00">n</text>
<text text-anchor="middle" x="51.5" y="-232.8" font-family="Times New Roman,serif" font-size="14.00">Friedrich</text>
<text text-anchor="middle" x="51.5" y="-217.8" font-family="Times New Roman,serif" font-size="14.00">W. Murnau,</text>
<text text-anchor="middle" x="51.5" y="-202.8" font-family="Times New Roman,serif" font-size="14.00">RDM vidéo</text>
<text text-anchor="middle" x="51.5" y="-187.8" font-family="Times New Roman,serif" font-size="14.00">&#45; RDM</text>
<text text-anchor="middle" x="51.5" y="-172.8" font-family="Times New Roman,serif" font-size="14.00">vidéo, [DL</text>
<text text-anchor="middle" x="51.5" y="-157.8" font-family="Times New Roman,serif" font-size="14.00">2012] &#45;</text>
<text text-anchor="middle" x="51.5" y="-142.8" font-family="Times New Roman,serif" font-size="14.00">2011, 1</text>
<text text-anchor="middle" x="51.5" y="-127.8" font-family="Times New Roman,serif" font-size="14.00">DVD vidéo,</text>
<text text-anchor="middle" x="51.5" y="-112.8" font-family="Times New Roman,serif" font-size="14.00">monoface</text>
<text text-anchor="middle" x="51.5" y="-97.8" font-family="Times New Roman,serif" font-size="14.00">simple</text>
<text text-anchor="middle" x="51.5" y="-82.8" font-family="Times New Roman,serif" font-size="14.00">couche,</text>
<text text-anchor="middle" x="51.5" y="-67.8" font-family="Times New Roman,serif" font-size="14.00">4/3, 24</text>
<text text-anchor="middle" x="51.5" y="-52.8" font-family="Times New Roman,serif" font-size="14.00">im./s,</text>
<text text-anchor="middle" x="51.5" y="-37.8" font-family="Times New Roman,serif" font-size="14.00">PAL,</text>
<text text-anchor="middle" x="51.5" y="-22.8" font-family="Times New Roman,serif" font-size="14.00">toutes</text>
<text text-anchor="middle" x="51.5" y="-7.8" font-family="Times New Roman,serif" font-size="14.00">zones</text>
</g>
<!-- UMLRM0003&#45;&gt;UMLRM0002 -->
<g id="edge2" class="edge">
<title>UMLRM0003&#45;&gt;UMLRM0002</title>
<path fill="none" stroke="black" d="M51.5,-293.5C51.5,-307.55 51.5,-320.93 51.5,-332.7"/>
<polygon fill="black" stroke="black" points="48,-332.38 51.5,-342.38 55,-332.38 48,-332.38"/>
<text text-anchor="middle" x="98" y="-314.8" font-family="Times New Roman,serif" font-size="14.00">Manifestation de</text>
</g>
</g>
</svg>
