<?xml version="1.0" encoding="UTF-8" standalone="no"?>
<!DOCTYPE svg PUBLIC "-//W3C//DTD SVG 1.1//EN"
 "http://www.w3.org/Graphics/SVG/1.1/DTD/svg11.dtd">
<!-- Generated by graphviz version 7.0.3 (20221126.0506)
 -->
<!-- Title: UMLRM0070 Pages: 1 -->
<svg width="1440pt" height="29pt"
 viewBox="0.00 0.00 1440.00 28.51" xmlns="http://www.w3.org/2000/svg" xmlns:xlink="http://www.w3.org/1999/xlink">
<g id="graph0" class="graph" transform="scale(0.64797 0.64797) rotate(0) translate(4 40)">
<title>UMLRM0070</title>
<polygon fill="white" stroke="none" points="-4,4 -4,-40 2218.33,-40 2218.33,4 -4,4"/>
<!-- UMLRM0070 -->
<g id="node1" class="node">
<title>UMLRM0070</title>
<ellipse fill="none" stroke="black" cx="1949.8" cy="-18" rx="264.55" ry="18"/>
<text text-anchor="middle" x="1949.8" y="-14.3" font-family="Times New Roman,serif" font-size="14.00">Belford, Barbara, Bram Stoker : a biography of the author of &quot;Dracula</text>
</g>
<!-- UMLRM0071 -->
<g id="node2" class="node">
<title>UMLRM0071</title>
<ellipse fill="none" stroke="black" cx="1257.3" cy="-18" rx="311.94" ry="18"/>
<text text-anchor="middle" x="1257.3" y="-14.3" font-family="Times New Roman,serif" font-size="14.00">Belford, Barbara, Bram Stoker : a biography of the author of &quot;Dracula&quot;, Texte noté</text>
</g>
<!-- UMLRM0071&#45;&gt;UMLRM0070 -->
<g id="edge1" class="edge">
<title>UMLRM0071&#45;&gt;UMLRM0070</title>
<path fill="none" stroke="black" d="M1569.71,-18C1604.26,-18 1639.26,-18 1673.32,-18"/>
<polygon fill="black" stroke="black" points="1673.31,-21.5 1683.31,-18 1673.31,-14.5 1673.31,-21.5"/>
<text text-anchor="middle" x="1627.27" y="-21.8" font-family="Times New Roman,serif" font-size="14.00">Expression de</text>
</g>
<!-- UMLRM0072 -->
<g id="node3" class="node">
<title>UMLRM0072</title>
<ellipse fill="none" stroke="black" cx="408.16" cy="-18" rx="408.33" ry="18"/>
<text text-anchor="middle" x="408.16" y="-14.3" font-family="Times New Roman,serif" font-size="14.00">Bram Stoker, Barbara Belford, Weidenfeld and Nicolson, 1996, 1 volume(XV&#45;381 pages), couverture illustrée</text>
</g>
<!-- UMLRM0072&#45;&gt;UMLRM0071 -->
<g id="edge2" class="edge">
<title>UMLRM0072&#45;&gt;UMLRM0071</title>
<path fill="none" stroke="black" d="M816.91,-18C856.15,-18 895.57,-18 933.82,-18"/>
<polygon fill="black" stroke="black" points="933.59,-21.5 943.59,-18 933.59,-14.5 933.59,-21.5"/>
<text text-anchor="middle" x="880.83" y="-21.8" font-family="Times New Roman,serif" font-size="14.00">Manifestation de</text>
</g>
</g>
</svg>
